<svg width="14" height="13" viewBox="0 0 14 13" fill="none" xmlns="http://www.w3.org/2000/svg">
<path fill-rule="evenodd" clip-rule="evenodd" d="M13.959 6.27867L11.2027 11.9684C11.1341 12.1097 10.9908 12.1997 10.8336 12.1997H2.05078C1.82438 12.1997 1.64062 12.0159 1.64062 11.7895V11.1582H9.17465C9.63676 11.1582 10.0652 10.8896 10.2662 10.4738L12.1291 6.62867C12.2918 6.29262 12.2918 5.90707 12.1291 5.57129L10.2659 1.72539C10.0652 1.31004 9.63676 1.04152 9.17465 1.04152H1.64062V0.410156C1.64062 0.18375 1.82438 0 2.05078 0H10.8336C10.9908 0 11.1341 0.089961 11.2027 0.231328L13.959 5.92102C14.0137 6.03395 14.0137 6.16574 13.959 6.27867V6.27867Z" fill="#515151"/>
<path fill-rule="evenodd" clip-rule="evenodd" d="M3.64979 4.11719C3.14287 4.11719 2.73047 4.52959 2.73047 5.03651V7.16271C2.73047 7.66963 3.14289 8.08203 3.64979 8.08203C4.15672 8.08203 4.56914 7.66963 4.56914 7.16271V5.03651C4.56914 4.52959 4.15675 4.11719 3.64979 4.11719H3.64979Z" fill="#515151"/>
<path fill-rule="evenodd" clip-rule="evenodd" d="M11.3909 5.92816L9.52793 2.08254C9.46231 1.94746 9.32504 1.86133 9.17465 1.86133H0.392383C0.17582 1.86133 0 2.03715 0 2.25371V9.94496C0 10.1615 0.17582 10.3373 0.392383 10.3373H9.17465C9.32504 10.3373 9.46231 10.2512 9.52793 10.1161L11.3909 6.27051C11.4431 6.1625 11.4431 6.03617 11.3909 5.92816ZM5.39021 7.16271C5.39021 8.12195 4.60979 8.90235 3.65054 8.90235C2.6913 8.90235 1.91091 8.12195 1.91091 7.16271V5.03651C1.91091 4.07727 2.69133 3.29688 3.65054 3.29688C4.60979 3.29688 5.39021 4.07727 5.39021 5.03651V7.16271ZM7.5799 8.90192C7.80641 8.90192 7.99006 8.71828 7.99006 8.49177L7.99005 3.89427C7.99005 3.72285 7.88347 3.56953 7.7228 3.50979C7.56207 3.45007 7.38125 3.49658 7.2693 3.62638L6.28662 4.76571C6.13866 4.93724 6.1578 5.19624 6.32933 5.34417C6.50086 5.4921 6.75986 5.47299 6.90782 5.30146L7.16974 4.99778V8.49177C7.16974 8.71828 7.35338 8.90192 7.5799 8.90192Z" fill="#515151"/>
</svg>
