<svg width="15" height="12" viewBox="0 0 15 12" fill="none" xmlns="http://www.w3.org/2000/svg">
<path fill-rule="evenodd" clip-rule="evenodd" d="M8.41548 5.26358L12.1195 7.40202L12.5189 7.05764L10.8489 4.16483L10.0208 4.50296C9.9561 4.52921 9.88642 4.52233 9.83017 4.49014C9.68485 4.40702 9.56954 4.33327 9.47392 4.27202C9.19798 4.09514 9.13079 4.05233 8.63079 4.15514C8.47079 4.18796 8.33329 4.21296 8.2161 4.23421C7.99954 4.27327 7.8611 4.29827 7.73954 4.34983C7.49673 4.45264 7.3511 4.57139 7.26048 4.70827C7.16829 4.84796 7.12579 5.01827 7.09392 5.21452C7.06704 5.38108 7.05204 5.56139 7.03704 5.74202C7.0136 6.02452 6.98985 6.30702 6.9136 6.60108C7.65923 6.61889 7.75454 6.34577 8.03204 5.55077C8.06704 5.45077 8.0836 5.40264 8.09298 5.37608C8.13298 5.26233 8.25767 5.20264 8.37142 5.24264C8.38704 5.24827 8.40173 5.25546 8.41517 5.26389L8.41548 5.26358ZM4.01206 1.37621C3.87737 1.24153 3.69112 1.15809 3.4855 1.15809C3.27987 1.15809 3.09362 1.24153 2.95893 1.37621C2.82425 1.5109 2.74081 1.69715 2.74081 1.90278C2.74081 2.1084 2.82425 2.29465 2.95893 2.42934C3.09362 2.56403 3.27987 2.64746 3.4855 2.64746C3.69112 2.64746 3.87737 2.56403 4.01206 2.42934C4.14675 2.29465 4.23018 2.1084 4.23018 1.90278C4.23018 1.69715 4.14675 1.5109 4.01206 1.37621V1.37621ZM11.0159 3.58289H11.0156C10.9766 3.51507 10.9687 3.43632 10.9881 3.36414C11.0072 3.29257 11.0534 3.2282 11.1219 3.18851C11.1903 3.14882 11.9412 2.71507 11.9412 2.71507L14.4044 6.98101L13.5966 7.44757C13.5925 7.44976 13.5884 7.45164 13.5844 7.45414C13.5162 7.49351 13.4375 7.50132 13.3656 7.48195C13.2966 7.46351 13.2347 7.4207 13.1953 7.35726C13.1937 7.35414 13.1919 7.35101 13.1903 7.34789L11.0162 3.58257L11.0159 3.58289ZM9.25112 3.67349C9.08956 3.63787 8.89518 3.65568 8.54362 3.72818C8.37831 3.76224 8.24925 3.78568 8.13925 3.80537C7.89331 3.84974 7.73612 3.87818 7.57018 3.94818C7.458 3.99568 7.36018 4.04693 7.27425 4.10193C6.64768 3.8663 6.3255 3.9688 5.89925 4.10443C5.68862 4.17162 5.44862 4.24787 5.11581 4.28412V4.00724C5.11581 3.59224 5.28581 3.21474 5.55956 2.94099C5.83331 2.66724 6.21081 2.49724 6.62581 2.49724H7.77831C8.19331 2.49724 8.57081 2.66724 8.84456 2.94099C9.04268 3.13912 9.18643 3.39162 9.25081 3.67318L9.25112 3.67349ZM7.93061 0.301563C7.74436 0.115313 7.48686 0 7.20248 0C6.91811 0 6.66061 0.115313 6.47436 0.301563C6.28811 0.487813 6.17279 0.745312 6.17279 1.02969C6.17279 1.31406 6.28811 1.57156 6.47436 1.75781C6.66061 1.94406 6.91811 2.05938 7.20248 2.05938C7.48686 2.05938 7.74436 1.94406 7.93061 1.75781C8.11686 1.57156 8.23217 1.31406 8.23217 1.02969C8.23217 0.745312 8.11686 0.487813 7.93061 0.301563V0.301563ZM11.4183 1.37529C11.2836 1.24061 11.0974 1.15717 10.8917 1.15717C10.6861 1.15717 10.4999 1.24061 10.3652 1.37529C10.2305 1.50998 10.1471 1.69623 10.1471 1.90186C10.1471 2.10748 10.2305 2.29373 10.3652 2.42842C10.4999 2.56311 10.6861 2.64654 10.8917 2.64654C11.0974 2.64654 11.2836 2.56311 11.4183 2.42842C11.553 2.29373 11.6364 2.10748 11.6364 1.90186C11.6364 1.69623 11.553 1.50998 11.4183 1.37529V1.37529ZM8.39894 10.4627C8.50831 10.5258 8.58175 10.628 8.61175 10.7414C8.64144 10.853 8.6305 10.9749 8.57206 11.082C8.57019 11.0852 8.56831 11.088 8.56644 11.0911C8.50331 11.2005 8.4005 11.2745 8.28644 11.3052C8.17519 11.3349 8.05331 11.3242 7.94612 11.2658C7.94331 11.2639 7.94018 11.262 7.93706 11.2602L7.02831 10.7355L7.25112 10.4505C7.38362 10.2808 7.43456 10.0736 7.4105 9.8761C7.38706 9.68517 7.293 9.50267 7.13425 9.3711C7.12362 9.36079 7.11175 9.35173 7.09894 9.3436C7.00643 9.27548 6.90362 9.23079 6.798 9.2086L6.943 9.02298C7.0755 8.8536 7.12643 8.6461 7.10237 8.44891C7.078 8.25173 6.97862 8.06329 6.80987 7.93079L6.80862 7.92985C6.63925 7.79735 6.43175 7.74642 6.23456 7.77048C6.16769 7.7786 6.10175 7.79548 6.03862 7.8211C5.99362 7.67298 5.90425 7.53673 5.773 7.43423C5.60362 7.30173 5.39612 7.25048 5.19893 7.27485C5.00143 7.29923 4.81237 7.39891 4.68018 7.5686L4.58393 7.69173C4.53362 7.58829 4.45987 7.49423 4.363 7.4186H4.36237C4.193 7.28579 3.9855 7.23454 3.78831 7.25891C3.59081 7.28329 3.40206 7.38298 3.26956 7.55204C3.13706 7.7211 2.83081 8.11423 2.83081 8.11423L1.77206 7.32079L3.67612 4.02298L4.86175 4.70454C4.89987 4.72642 4.94206 4.73548 4.983 4.73329C5.45331 4.70423 5.76487 4.60517 6.03268 4.51985C6.32206 4.42767 6.55175 4.35454 6.91331 4.44485C6.908 4.45235 6.903 4.45985 6.898 4.46735C6.76362 4.67079 6.7055 4.89454 6.66487 5.1461C6.633 5.34392 6.618 5.52485 6.60268 5.7061C6.57425 6.04767 6.54581 6.38892 6.41862 6.72579C6.37612 6.8386 6.43331 6.96454 6.54581 7.00704C6.56487 7.01423 6.58456 7.0186 6.60393 7.02017C7.91175 7.1361 8.04362 6.84454 8.41925 5.76923L11.9314 7.79704C12.0408 7.86017 12.1149 7.96298 12.1455 8.07704C12.1752 8.18829 12.1646 8.31017 12.1061 8.41736C12.1042 8.42017 12.1024 8.42329 12.1005 8.42642C12.0374 8.53579 11.9346 8.60986 11.8205 8.64048C11.7061 8.67111 11.5805 8.6586 11.4711 8.59579L10.9939 8.32017L10.9852 8.31485C10.978 8.31048 10.9705 8.30642 10.963 8.30298L9.09144 7.22235C8.98706 7.16235 8.85394 7.19829 8.79394 7.30267C8.73394 7.40704 8.76988 7.54017 8.87425 7.60017L10.7452 8.68048C10.7486 8.68298 10.7524 8.68548 10.7561 8.68767C10.8618 8.75235 10.9321 8.85423 10.9605 8.96642C10.9883 9.07642 10.9768 9.19579 10.9196 9.3011C10.9177 9.30423 10.9158 9.30704 10.9139 9.31017C10.8508 9.41954 10.748 9.4936 10.6339 9.52423C10.5189 9.55517 10.393 9.54267 10.2836 9.47954L9.83675 9.22142C9.82925 9.21673 9.82144 9.21204 9.81394 9.20767L8.69644 8.56236C8.59206 8.50204 8.45863 8.53767 8.39831 8.64173C8.338 8.74579 8.37363 8.87954 8.47769 8.93986L9.59519 9.58517C9.70456 9.64829 9.77831 9.75111 9.80863 9.86517C9.83831 9.97642 9.82769 10.0983 9.76925 10.2052C9.76738 10.2083 9.7655 10.2111 9.76363 10.2142C9.7005 10.3236 9.59769 10.3977 9.48363 10.4283C9.37238 10.4583 9.2505 10.4474 9.14331 10.3889C9.1405 10.387 9.13738 10.3852 9.13425 10.3833L8.61831 10.0855L7.99363 9.72486C7.88925 9.66454 7.75581 9.70017 7.6955 9.80423C7.63519 9.90861 7.67081 10.042 7.77488 10.1024L8.39956 10.463L8.39894 10.4627ZM1.21438 7.41285L1.29344 7.27597C1.29531 7.27254 1.2975 7.26879 1.29938 7.26535V7.26441L3.4 3.62472C3.42875 3.56222 3.43313 3.49254 3.41594 3.42847C3.39688 3.35691 3.35063 3.29254 3.28219 3.25285C3.21375 3.21316 2.46281 2.77941 2.46281 2.77941L0 7.04566L0.807813 7.51223C0.811875 7.51441 0.815937 7.51629 0.82 7.51879C0.888125 7.55816 0.966875 7.56597 1.03875 7.5466C1.11031 7.52754 1.17469 7.48129 1.21406 7.41285L1.21438 7.41285ZM6.33388 10.9163L6.89575 10.197C6.90169 10.1879 6.90856 10.1788 6.91606 10.1707C6.967 10.0991 6.98638 10.0126 6.97606 9.92915C6.96575 9.84602 6.92638 9.76696 6.8595 9.71009C6.85169 9.70477 6.84388 9.69884 6.83669 9.69227C6.76513 9.64134 6.67856 9.62196 6.59513 9.63227C6.512 9.64258 6.43294 9.68196 6.37606 9.74884C6.37013 9.7579 6.36325 9.76634 6.35575 9.77446L5.79356 10.4941V10.4945C5.73638 10.5679 5.71419 10.6591 5.72513 10.747C5.73575 10.8345 5.77919 10.9176 5.85263 10.9751C5.92606 11.0329 6.01763 11.0548 6.10544 11.0438C6.19325 11.0332 6.27638 10.9895 6.33388 10.916V10.9163ZM4.56601 9.53542L5.5632 8.25885C5.62039 8.18542 5.64226 8.09417 5.63164 8.00635C5.62132 7.92323 5.58195 7.84417 5.51507 7.78729C5.50726 7.78198 5.49945 7.77604 5.49226 7.76948C5.4207 7.71854 5.33414 7.69917 5.2507 7.70948C5.16289 7.7201 5.07976 7.76385 5.02226 7.83729L4.02539 9.11354C3.96789 9.18698 3.94601 9.27854 3.95664 9.36635C3.96726 9.45385 4.0107 9.53698 4.08445 9.59448C4.15789 9.65198 4.24945 9.67417 4.33726 9.66323C4.42507 9.6526 4.5082 9.60885 4.5657 9.53542C4.6232 9.46198 4.5657 9.53542 4.5657 9.53542L4.56601 9.53542ZM5.45029 10.2252L6.02372 9.49113L6.59904 8.75457C6.65654 8.68113 6.67841 8.58957 6.66779 8.50176C6.65747 8.41863 6.61779 8.33957 6.55122 8.2827C6.54341 8.27738 6.53591 8.27145 6.52841 8.26488C6.45685 8.21395 6.37029 8.19457 6.28685 8.20488C6.20372 8.21519 6.12466 8.25457 6.06779 8.32145C6.06154 8.33051 6.05497 8.33895 6.04716 8.34707L5.90716 8.52645L5.90654 8.52738L4.92122 9.78863C4.91529 9.7977 4.90841 9.80676 4.90091 9.81488C4.84997 9.88644 4.8306 9.97301 4.84091 10.0564C4.85122 10.1396 4.8906 10.2186 4.95747 10.2755L4.95904 10.2764L4.95997 10.2771L4.96341 10.2796L4.96435 10.2802C4.96997 10.2843 4.97529 10.2886 4.9806 10.2933C5.05216 10.3443 5.13841 10.3636 5.22185 10.3533C5.30935 10.3427 5.39248 10.2993 5.44998 10.2258L5.45029 10.2252ZM3.68151 8.84481L4.15182 8.24262C4.20932 8.16919 4.23119 8.07762 4.22057 7.98981C4.21026 7.90669 4.17088 7.82762 4.10401 7.77075C4.09619 7.76543 4.08838 7.7595 4.08119 7.75293C4.00963 7.702 3.92307 7.68262 3.83994 7.69293C3.75682 7.70325 3.67776 7.74262 3.62088 7.8095C3.61463 7.81856 3.60807 7.827 3.60026 7.83512L3.14119 8.42262C3.08369 8.49606 3.06182 8.58762 3.07244 8.67543C3.08307 8.76293 3.12651 8.84606 3.20026 8.90356C3.27369 8.96106 3.36526 8.98325 3.45307 8.97231C3.54088 8.96137 3.62401 8.91794 3.68151 8.8445V8.84481Z" fill="#515151"/>
</svg>
