<svg width="11" height="12" viewBox="0 0 11 12" fill="none" xmlns="http://www.w3.org/2000/svg">
<path fill-rule="evenodd" clip-rule="evenodd" d="M0.623547 4.35792C0.623547 4.49545 0.73504 4.60695 0.872571 4.60695C1.0101 4.60695 1.12159 4.49545 1.12159 4.35792V0.74707H9.96194V0H0.25V0.74707H0.623547L0.623547 4.35792Z" fill="#515151"/>
<path fill-rule="evenodd" clip-rule="evenodd" d="M8.9407e-08 10.9824V11.9535H0.971039C0.871758 11.4663 0.487172 11.0817 0 10.9824H8.9407e-08Z" fill="#515151"/>
<path fill-rule="evenodd" clip-rule="evenodd" d="M9.73828 11.9535H10.7093V10.9824C10.2221 11.0817 9.83756 11.4663 9.73828 11.9535V11.9535Z" fill="#515151"/>
<path fill-rule="evenodd" clip-rule="evenodd" d="M0.971039 6.22559H0V7.19663C0.487172 7.09734 0.871758 6.71273 0.971039 6.22559V6.22559Z" fill="#515151"/>
<path fill-rule="evenodd" clip-rule="evenodd" d="M5.35304 3.97172L8.96389 2.80697V1.24512H1.74219V2.80697L5.35304 3.97172Z" fill="#515151"/>
<ellipse cx="5.35402" cy="9.08937" rx="1.36964" ry="1.36964" fill="#515151"/>
<path fill-rule="evenodd" clip-rule="evenodd" d="M1.47607 6.22559H9.23196C9.34149 6.9878 9.9458 7.59211 10.708 7.70166V10.4771C9.9458 10.5866 9.34149 11.1909 9.23194 11.9531H1.47607C1.36652 11.1909 0.762211 10.5866 0 10.4771V7.70166C0.762211 7.59211 1.36652 6.9878 1.47607 6.22559ZM0.995418 9.33872H2.48956C2.62709 9.33872 2.73858 9.22723 2.73858 9.08969C2.73858 8.95216 2.62709 8.84067 2.48956 8.84067H0.995418C0.857886 8.84067 0.746394 8.95216 0.746394 9.08969C0.746394 9.22723 0.857886 9.33872 0.995418 9.33872ZM5.35447 10.957C4.32462 10.957 3.48678 10.1192 3.48678 9.08934C3.48678 8.05948 4.32462 7.22168 5.35447 7.22168C6.38431 7.22168 7.22215 8.0595 7.22215 9.08937C7.22215 10.1192 6.38431 10.957 5.35447 10.957ZM9.71191 9.33872C9.84945 9.33872 9.96094 9.22723 9.96094 9.08969C9.96094 8.95216 9.84942 8.84067 9.71191 8.84067H8.21777C8.08024 8.84067 7.96875 8.95216 7.96875 9.08969C7.96875 9.22723 8.08024 9.33872 8.21777 9.33872H9.71191Z" fill="#515151"/>
<path fill-rule="evenodd" clip-rule="evenodd" d="M9.73828 6.22559C9.83756 6.71273 10.2222 7.09734 10.7093 7.19663V6.22559H9.73828Z" fill="#515151"/>
</svg>
