<svg width="10" height="10" viewBox="0 0 10 10" fill="none" xmlns="http://www.w3.org/2000/svg">
<path fill-rule="evenodd" clip-rule="evenodd" d="M8.61812 0.126283C8.03891 -0.15948 7.32617 0.0561089 7.02616 0.607806L5.71584 3.01744C5.70881 3.03035 5.70276 3.04351 5.69763 3.05682C5.0558 3.03585 4.42 3.30592 3.9912 3.78394C3.48599 4.34713 2.86442 4.96173 2.33329 5.27558C1.57605 5.72303 0.950027 5.8843 0.561265 5.94153C0.333898 5.97501 0.149353 6.11444 0.059458 6.29526C-0.0344448 6.48412 -0.0273668 6.73162 0.155113 6.92315C0.551809 7.33954 1.32523 8.02158 2.74383 8.88096C3.72638 9.4762 4.60729 9.80541 5.0814 9.95792C5.44474 10.0748 5.83304 9.94114 6.04152 9.64372C6.30509 9.26771 6.76802 8.5586 7.16548 7.69576C7.45952 7.05742 7.71282 6.39952 7.95525 5.74273C8.15977 5.18868 8.06778 4.60424 7.75685 4.14231L9.12241 1.6449C9.42421 1.09297 9.19824 0.412497 8.61812 0.126284L8.61812 0.126283ZM7.24186 3.62726L8.49587 1.33387C8.61715 1.11207 8.52634 0.838612 8.2932 0.723597C8.06044 0.608764 7.77402 0.6954 7.65346 0.917108L6.40869 3.20618C6.45037 3.22302 6.49173 3.24132 6.53271 3.26112L6.98757 3.48078C7.07714 3.52404 7.16202 3.5731 7.24186 3.62726L7.24186 3.62726ZM7.2888 5.51929C7.23847 5.65564 7.18542 5.79747 7.13041 5.94188L4.26367 4.50891C4.35596 4.4109 4.44449 4.31423 4.52828 4.22082C4.95497 3.74517 5.65533 3.59179 6.21324 3.86123L6.66808 4.08091C7.22848 4.35155 7.49347 4.96483 7.2888 5.51929V5.51929ZM2.70563 5.84754C3.0542 5.64158 3.41794 5.34057 3.75925 5.01709L3.76383 5.01942L6.88148 6.57781C6.76153 6.87483 6.63831 7.16544 6.5185 7.42555C6.14319 8.2403 5.70383 8.91373 5.45394 9.27021C5.41834 9.32101 5.36049 9.33765 5.30738 9.32055C5.09889 9.25348 4.801 9.14795 4.4459 8.99488C4.61072 8.82936 4.84978 8.55878 5.07888 8.18697C5.17787 8.02632 5.12066 7.82239 4.95109 7.73147C4.78152 7.64055 4.5638 7.69709 4.46481 7.85774C4.28066 8.15656 4.05574 8.45092 3.77995 8.68052C3.56962 8.57239 3.34915 8.4504 3.12288 8.31332C2.93891 8.20187 2.76661 8.09379 2.60534 7.98929C2.68926 7.93554 2.78127 7.86964 2.88005 7.78894C3.02862 7.66758 3.04338 7.45781 2.91301 7.32038C2.78264 7.18295 2.55654 7.16993 2.40798 7.29129C2.18933 7.46991 2.03663 7.53788 1.97507 7.5608C1.4126 7.15825 1.03576 6.82775 0.79187 6.58676C1.26437 6.50304 1.93183 6.30478 2.70563 5.84754H2.70563Z" fill="#282529"/>
</svg>
