<svg width="16" height="22" viewBox="0 0 16 22" fill="none" xmlns="http://www.w3.org/2000/svg">
<path fill-rule="evenodd" clip-rule="evenodd" d="M7.99891 14.0352C6.23573 14.0352 4.80664 12.6104 4.80664 10.8531V3.18202C4.80664 1.42478 6.23573 0 7.99891 0C9.7621 0 11.1912 1.42478 11.1912 3.18202V10.8531C11.1912 12.6107 9.7621 14.0352 7.99891 14.0352V14.0352Z" fill="#4183F3"/>
<path fill-rule="evenodd" clip-rule="evenodd" d="M6.74609 17.7236H9.25334V21.9996H6.74609V17.7236Z" fill="#35A551"/>
<path fill-rule="evenodd" clip-rule="evenodd" d="M13.4916 10.8433C13.4916 13.8666 11.0335 16.346 8.00011 16.346C6.5964 16.346 5.31602 15.8147 4.34517 14.9443L2.57812 16.7057C4.00363 18.0164 5.90807 18.8174 8.00039 18.8174C12.4184 18.8174 16.0002 15.2477 16.0002 10.8433H13.4916Z" fill="#E64236"/>
<path fill-rule="evenodd" clip-rule="evenodd" d="M2.50835 10.8433H0C0 13.1618 0.992913 15.2488 2.5776 16.706L4.34465 14.9446C3.21793 13.9343 2.50835 12.4674 2.50835 10.8433V10.8433Z" fill="#F7B809"/>
</svg>
