<?xml version="1.0" encoding="utf-8"?>
<svg width="14" height="12" viewBox="0 0 14 12" fill="none" xmlns="http://www.w3.org/2000/svg">
  <defs>
    <linearGradient id="gradient_1" gradientUnits="userSpaceOnUse" x1="7" y1="0.441" x2="7" y2="11.534">
      <stop offset="0" stop-color="#FDECED" />
      <stop offset="1" stop-color="#FAC7C8" />
    </linearGradient>
    <linearGradient id="gradient_2" gradientUnits="userSpaceOnUse" x1="8.053" y1="3.967" x2="0" y2="3.967">
      <stop offset="0" stop-color="#F0565B" />
      <stop offset="1" stop-color="#F7A1A4" />
    </linearGradient>
  </defs>
  <g>
    <path d="M12.9331 0C12.9331 0 13.4666 0 13.4666 0C13.6139 0 13.7396 0.0493364 13.8438 0.148009C13.8688 0.171745 13.8909 0.196663 13.9099 0.222764C14.0081 0.357431 14 0.640437 14 0.807093L14 11.1929C14 11.3596 14.0081 11.6426 13.9099 11.7772C13.8909 11.8033 13.8688 11.8283 13.8438 11.852C13.8189 11.8755 13.7929 11.8962 13.7656 11.9142C13.6198 12.0098 13.3252 12 13.1509 12L1.0669 12C1.0669 12 0.533448 12 0.533448 12C0.386141 12 0.260406 11.9507 0.156243 11.852C0.131187 11.8283 0.109145 11.8033 0.0901161 11.7772C-0.00806434 11.6426 0 11.3596 0 11.1929L0 0.807093C0 0.640437 -0.0080636 0.35743 0.0901162 0.222764C0.109145 0.196663 0.131188 0.171745 0.156244 0.148009C0.181076 0.124486 0.207135 0.103766 0.234419 0.0858505C0.380152 -0.00984129 0.67478 0 0.849122 0L12.9331 0Z" fill="url(#gradient_1)" fill-rule="evenodd" />
    <path d="M8.05241 3.96723L0.301725 0L4.76837e-07 0.375L1.27207 3.96723L0 7.55945L0.301724 7.93445L8.05483 3.96723L8.05241 3.96723Z" fill="url(#gradient_2)" fill-rule="evenodd" transform="translate(3.641 2.033)" />
  </g>
</svg>