<?xml version="1.0" encoding="utf-8"?>
<svg width="181" height="209" viewBox="0 0 181 209" fill="none" xmlns="http://www.w3.org/2000/svg">
  <defs>
    <linearGradient id="gradient_1" gradientUnits="userSpaceOnUse" x1="-0.958" y1="8.596" x2="10.422" y2="10.467">
      <stop offset="0" stop-color="#C55D00" />
      <stop offset="1" stop-color="#E88108" />
    </linearGradient>
  </defs>
  <g>
    <path d="M0 90.5C0 40.5182 40.5182 0 90.5 0C140.482 0 181 40.5182 181 90.5C181 140.482 140.482 181 90.5 181C40.5182 181 0 140.482 0 90.5Z" fill="#FFF5F5" fill-rule="evenodd" />
    <g transform="translate(26 21)">
      <path d="M57.0104 16.3507C57.2303 14.5767 57.4946 12.7877 57.6133 11.0044C57.8583 7.3213 57.5126 3.94646 60.7237 1.39925C62.1018 0.305932 65.5148 -0.193852 67.2451 0.0687104C68.9217 0.323188 70.2417 1.4812 71.1873 2.82039C71.8826 3.80578 72.3935 4.94902 72.5873 6.14165C72.8827 7.95595 72.782 9.92915 72.7764 11.7664C72.7764 11.7664 72.783 19.0437 72.783 19.0437C72.783 19.0437 72.8102 26.644 72.8102 26.644C72.815 27.8145 72.9137 29.0417 72.8159 30.2048C74.2517 30.4156 75.8549 30.8026 77.2031 31.3302C77.3697 30.2214 77.6801 29.2002 78.1873 28.1966C78.8383 26.9105 79.7049 25.7172 80.5103 24.5245C80.5103 24.5245 84.316 18.9417 84.316 18.9417C85.6756 16.9443 86.83 14.7779 88.3438 12.8828C89.1953 11.8172 90.3375 10.6185 91.4318 9.7934C92.6342 8.88636 94.5714 8.65429 96.026 8.88121C97.8842 9.17106 99.5363 10.3821 100.623 11.8777C101.817 13.5211 102.404 15.514 102.073 17.5353C101.963 18.2083 101.742 18.8561 101.464 19.4778C100.366 21.9367 98.9351 24.2925 97.7177 26.6992C97.7177 26.6992 94.3136 33.3412 94.3136 33.3412C93.607 34.7187 92.9447 36.1758 92.128 37.4905C91.6359 38.2822 91.0573 38.9957 90.3197 39.5734C91.1119 40.2992 91.9107 40.9924 92.4131 41.9604C93.1733 41.0671 93.9439 40.2287 94.8734 39.5074C96.8041 38.0101 99.0217 36.871 101.059 35.5325C102.567 34.5417 104.096 33.5682 105.589 32.5553C107.312 31.3855 109.168 30.0834 111.051 29.1901C112.146 28.6708 113.365 28.2644 114.58 28.1692C116.406 28.0262 118.378 28.7172 119.762 29.8983C121.264 31.1794 122.351 33.3223 122.49 35.2868C122.639 37.4228 121.834 39.401 120.422 40.9914C119.171 42.3994 117.521 43.4213 116.001 44.5162C116.001 44.5162 112.081 47.3972 112.081 47.3972C112.081 47.3972 107.157 51.0017 107.157 51.0017C106.149 51.7386 105.134 52.564 104.049 53.1795C103.347 53.5772 102.589 53.8631 101.777 53.9091C101.459 53.9256 101.14 53.9373 100.822 53.9443C101.094 54.2181 101.362 54.5064 101.653 54.7611C105.05 53.8458 108.634 53.6872 112.105 53.1398C115.21 52.6503 119.188 51.5397 122.22 51.5409C123.461 51.5415 124.73 51.9182 125.804 52.529C127.747 53.6334 129.165 55.4656 129.744 57.6174C130.278 59.668 129.967 61.7437 128.881 63.56C127.772 65.415 125.788 66.8927 123.687 67.4169C122.51 67.7106 121.293 67.8531 120.098 68.0592C120.098 68.0592 114.104 69.1497 114.104 69.1497C112.608 69.4248 111.115 69.7106 109.622 70.0072C108.603 70.2077 107.55 70.478 106.511 70.5319C105.494 70.5849 104.151 70.3972 103.225 69.9951C103.225 69.9951 103.103 70.0739 103.103 70.0739C102.959 72.3293 102.89 75.7998 101.834 77.7897C102.749 77.9848 103.542 78.2269 104.379 78.6453C107.226 80.0666 109.885 82.0253 112.549 83.7538C114.806 85.218 117.214 86.5725 119.305 88.2695C119.965 88.8055 120.582 89.415 121.043 90.132C122.08 91.7393 122.326 93.9887 121.91 95.8249C121.425 97.9655 120.115 99.6752 118.262 100.837C116.502 101.94 114.527 102.152 112.516 101.682C110.882 101.3 109.315 100.074 107.879 99.234C107.879 99.234 101.802 95.6778 101.802 95.6778C99.43 94.2969 96.8972 93.0696 94.6552 91.4864C92.2023 94.8374 87.4171 98.4321 83.6894 100.273C83.6894 100.273 83.7054 104.509 83.7054 104.509C83.7167 107.256 83.7609 108.928 82.1568 111.299C81.7814 111.852 81.3918 112.455 80.9073 112.923C80.1207 113.681 78.7885 113.678 77.7582 113.738C77.8138 115.624 77.7526 117.51 77.7573 119.396C77.7611 120.849 77.8514 122.33 77.7714 123.777C77.7714 123.777 77.8683 123.928 77.8683 123.928C77.8683 123.928 78.0885 123.9 78.0885 123.9C79.8206 123.863 81.3279 123.784 82.9198 124.593C85.0367 125.671 87.6006 128.05 88.2921 130.382C88.6318 131.529 88.5951 141.379 88.3627 142.603C88.1933 143.497 87.7775 144.255 87.3607 145.052C87.9882 146.068 88.4492 147.084 88.5828 148.28C88.6844 149.188 88.6468 150.139 88.6346 151.051C88.5913 154.021 88.1651 155.34 86.3116 157.674C86.3116 157.674 86.5694 157.95 86.5694 157.95C87.2082 158.643 87.8744 159.389 88.1905 160.293C88.6901 161.725 88.5857 167.939 88.4982 169.663C88.4191 171.253 87.8113 172.631 86.607 173.694C86.099 174.141 85.4319 174.6 84.7808 174.793C83.5135 175.168 79.067 175.059 77.5983 174.975C77.6237 176.791 77.6265 178.812 76.6828 180.424C75.7787 181.967 73.801 183.964 72.3351 184.974C71.5034 185.547 70.5644 186.013 69.6781 186.499C68.582 187.102 67.5471 187.675 66.3306 188C64.3942 187.464 61.9355 186.416 60.339 185.207C59.2529 184.385 58.3737 183.16 57.4574 182.156C55.8012 180.342 54.0496 178.551 52.5066 176.642C51.6549 175.589 51.5354 174.971 51.4057 173.646C51.0891 170.411 51.3028 167.023 51.3053 163.772C51.3053 163.772 51.2774 146.295 51.2774 146.295C51.2774 146.295 51.2745 126.343 51.2745 126.343C51.2786 121.956 51.138 117.499 51.5951 113.133C51.0406 112.052 50.2225 111.076 49.457 110.137C46.2583 106.215 46.4471 105.351 46.8431 100.365C46.9291 99.6434 47.0559 98.9361 47.1956 98.2222C46.258 97.3697 45.1997 96.623 44.2294 95.8033C41.9299 93.8585 39.8477 91.8378 37.9208 89.5218C37.3922 90.2882 36.7723 90.9856 36.0156 91.5369C34.17 92.8816 31.93 93.9315 29.9342 95.0585C29.9342 95.0585 23.8649 98.4321 23.8649 98.4321C22.5527 99.1675 21.2577 99.9601 19.9173 100.642C17.8633 101.688 15.9264 101.834 13.7232 101.103C11.6735 100.424 10.1396 98.9389 9.19614 97.0249C8.27504 95.1569 8.02167 93.1333 8.69532 91.1485C9.14825 90.1708 9.69028 89.2774 10.4403 88.4948C11.1003 87.8061 11.8152 87.2106 12.5951 86.6623C13.4993 86.0267 14.4667 85.4909 15.4042 84.9073C15.4042 84.9073 22.2835 80.6636 22.2835 80.6636C23.8338 79.7191 26.1186 78.0897 27.7246 77.4424C28.6432 77.0722 29.6296 76.9727 30.6118 76.9457C29.6916 74.5222 28.8873 71.5261 29.0624 68.9209C27.392 69.7391 25.6565 70.1723 23.7906 70.0438C21.7352 69.9024 19.6759 69.3547 17.644 69.0017C17.644 69.0017 11.951 67.9795 11.951 67.9795C9.95448 67.6389 7.85927 67.4433 5.96457 66.701C4.29181 66.0457 2.7965 65.0528 1.61544 63.6971C0.120981 61.9815 -0.128912 60.1316 0.050322 57.9292C0.206976 56.0036 0.934165 54.7227 2.40473 53.4889C6.44178 50.1014 9.84665 51.8006 14.4237 52.175C14.4237 52.175 14.6062 52.1889 14.6062 52.1889C17.1047 52.7717 19.6742 53.1814 22.2116 53.551C23.622 53.7565 25.0686 53.8974 26.4597 54.1979C27.6986 54.4382 28.776 55.1257 29.7101 55.9428C29.9118 55.1214 30.2613 54.3406 30.618 53.5765C30.4204 53.5682 30.2232 53.5543 30.0265 53.5349C29.2217 53.4517 28.4275 53.0605 27.7302 52.6687C25.3325 51.3217 23.0658 49.5345 20.793 47.982C20.793 47.982 15.1571 44.1425 15.1571 44.1425C13.5471 43.0402 11.6786 42.0573 10.4247 40.5342C9.1205 38.95 7.90039 36.6933 8.15358 34.5833C8.37251 32.7581 9.66356 30.7513 11.0879 29.6133C12.7403 28.2931 14.7181 27.8457 16.7991 28.0846C17.4781 28.1625 18.1824 28.288 18.7982 28.5928C20.5889 29.4787 22.2372 30.7255 23.9356 31.7795C26.5842 33.4232 36.1669 39.0177 37.8273 41.0815C38.8985 40.1255 39.8089 39.0221 40.9302 38.1153C39.7711 37.3422 38.7227 36.555 37.9009 35.4162C36.7583 33.8328 36.0283 31.9523 35.1275 30.2267C33.7454 27.612 32.3941 24.9814 31.0734 22.3355C30.2313 20.6835 29.0126 18.8013 28.6126 16.9817C28.2225 15.2078 28.7122 13.6749 29.6821 12.1876C30.9204 10.2887 32.6714 9.10605 34.9088 8.64697C36.6395 8.29187 38.4463 8.5612 39.9276 9.55114C40.6115 10.0081 41.2505 10.6336 41.7519 11.2822C42.459 12.197 43.0367 13.2262 43.6661 14.195C45.0018 16.2423 46.3171 18.3028 47.6117 20.3762C49.2771 23.0132 51.2159 25.6353 52.644 28.4043C53.1183 29.3239 53.4243 30.1667 53.634 31.1789C55.0096 30.646 56.5994 30.3863 58.0526 30.1339C57.6211 29.032 56.9375 28.0143 56.6514 26.8554C56.0818 24.5488 56.8018 18.9713 57.0104 16.3507C57.0104 16.3507 57.0104 16.3507 57.0104 16.3507ZM65.4707 60.0364C67.0146 59.8215 69.0939 59.6454 70.1054 58.2994C71.1224 56.9452 71.9513 55.4464 71.6258 53.6903C71.4103 52.529 70.5316 51.4614 69.555 50.8177C68.6847 50.245 67.6798 50.0006 66.6439 50.0784C64.8177 50.2276 63.1094 50.9488 61.8979 52.3498C60.9695 53.4234 60.3708 54.9253 60.487 56.3558C60.5811 57.5131 61.1714 58.6808 62.0888 59.4056C63.1305 60.2287 64.2287 60.1742 65.4707 60.0364C65.4707 60.0364 65.4707 60.0364 65.4707 60.0364Z" fill="#FBFAFA" />
      <path d="M8.30433 52.2751C4.35347 47.6257 1.96368 43.4786 0.673672 37.4776C-1.00153 29.6845 0.469406 20.8372 4.84206 14.1268C9.5346 6.92528 16.0781 2.38491 24.5259 0.611206C30.2921 -0.599373 36.118 0.0181885 41.5693 2.19895C42.6231 2.62062 43.833 3.05025 44.7852 3.66959C50.0427 5.96971 55.5072 10.7135 58.7089 15.4413C59.9208 17.2314 60.9059 19.24 61.6896 21.2523C64.7295 29.1383 64.5206 37.9003 61.1072 45.6333C57.9516 52.7623 51.8473 58.9558 44.5076 61.7832C44.5076 61.7832 44.3787 61.8319 44.3787 61.8319C44.3382 64.1122 44.3251 66.3934 44.3411 68.6736C44.342 69.8625 44.4398 71.1487 44.2959 72.3235C44.2451 72.746 44.1538 73.1292 43.9365 73.4964C42.9646 74.2525 38.5868 73.7007 38.3657 74.1616C38.4852 80.9668 38.3713 87.7907 38.377 94.5986C41.017 94.8282 43.7182 94.3551 46.3649 94.7111C47.3998 95.4221 48.2964 96.3524 49.2006 97.2199C49.1978 98.8434 49.4471 104.31 48.8412 105.441C48.5561 105.637 48.2823 105.694 47.9389 105.733C46.8127 105.861 45.5971 105.772 44.4615 105.768C44.4615 105.768 38.3986 105.768 38.3986 105.768C38.3986 105.768 38.4042 108.874 38.4042 108.874C39.6358 109.068 41.0659 108.932 42.3201 108.939C43.3061 108.943 44.3223 109.031 45.3017 108.976C45.7091 108.973 45.933 109.017 46.2915 109.22C47.3631 109.911 48.2776 110.938 49.1743 111.838C49.1338 113.51 49.306 116.391 49.083 117.923C49.0237 118.328 48.9296 118.791 48.6088 119.077C48.4799 119.192 48.3275 119.293 48.1807 119.383C44.9216 119.469 41.654 119.306 38.3967 119.403C38.3967 119.403 38.3882 124.292 38.3882 124.292C40.7554 124.454 43.2299 124.273 45.6122 124.291C45.6122 124.291 46.3404 124.337 46.3404 124.337C47.3848 125.06 48.2598 126.042 49.1912 126.901C49.1903 127.877 49.4029 134.094 48.8619 134.592C48.6182 134.817 48.1459 134.856 47.8307 134.884C46.7685 134.982 45.6423 134.908 44.5706 134.905C44.5706 134.905 38.392 134.903 38.392 134.903C38.392 134.903 38.3948 139.746 38.3948 139.746C38.3939 140.874 38.4682 142.059 38.2716 143.171C36.2948 144.564 33.9135 146.445 31.8718 147.642C31.1286 147.16 30.3589 146.688 29.6756 146.123C28.0718 144.797 25.5371 142.044 24.3187 140.344C23.8234 139.878 23.0797 138.898 22.9913 138.205C22.7691 136.459 22.9419 134.537 22.9441 132.774C22.9441 132.774 22.9401 122.106 22.9401 122.106C22.9401 122.106 22.9291 92.3502 22.9291 92.3502C22.9243 87.0655 23.0822 81.7481 22.8535 76.469C22.6804 75.4301 21.6161 74.8745 21.2471 73.903C20.2335 73.1948 19.3215 72.1305 18.4325 71.2621C17.9025 70.67 18.2063 62.0315 18.1345 60.6908C15.362 59.5713 10.2375 54.578 8.30433 52.2751C8.30433 52.2751 8.30433 52.2751 8.30433 52.2751ZM31.3554 25.2443C32.8994 25.0294 34.9787 24.8534 35.9901 23.5073C37.0072 22.1531 37.8361 20.6544 37.5106 18.8982C37.2951 17.7369 36.4163 16.6694 35.4397 16.0257C34.5694 15.4529 33.5646 15.2086 32.5287 15.2863C30.7025 15.4356 28.9942 16.1567 27.7826 17.5578C26.8543 18.6313 26.2556 20.1332 26.3718 21.5638C26.4659 22.721 27.0562 23.8887 27.9735 24.6135C29.0152 25.4366 30.1135 25.3821 31.3554 25.2443C31.3554 25.2443 31.3554 25.2443 31.3554 25.2443Z" fill="#FDD107" transform="translate(34.119 34.792)" />
      <path d="M23.5381 0C28.7956 2.30012 34.2601 7.04387 37.4619 11.7717C38.6737 13.5618 39.6588 15.5704 40.4425 17.5827C43.4824 25.4687 43.2735 34.2307 39.8601 41.9637C36.7045 49.0927 30.6002 55.2863 23.2605 58.1136C23.2605 58.1136 23.1316 58.1623 23.1316 58.1623C23.0911 60.4426 23.078 62.7238 23.094 65.004C23.0949 66.1929 23.1928 67.4791 23.0488 68.6539C22.998 69.0765 22.9067 69.4596 22.6894 69.8269C21.7175 70.5829 17.3397 70.0311 17.1186 70.492C17.2381 77.2972 17.1242 84.1211 17.1299 90.929C19.7699 91.1586 22.4711 90.6855 25.1178 91.0415C26.1527 91.7525 27.0494 92.6828 27.9535 93.5503C27.9507 95.1738 28.2 100.64 27.5941 101.771C27.309 101.968 27.0352 102.024 26.6918 102.063C25.5656 102.192 24.35 102.103 23.2144 102.098C23.2144 102.098 17.1515 102.098 17.1515 102.098C17.1515 102.098 17.1572 105.205 17.1572 105.205C18.3887 105.398 19.8188 105.263 21.073 105.269C22.059 105.274 23.0751 105.361 24.0546 105.307C24.462 105.304 24.6859 105.347 25.0444 105.55C26.116 106.242 27.0305 107.268 27.9272 108.169C27.8867 109.841 28.0589 112.722 27.8359 114.253C27.7766 114.658 27.6826 115.122 27.3617 115.408C27.2328 115.523 27.0804 115.623 26.9336 115.713C23.6745 115.799 20.4069 115.636 17.1496 115.734C17.1496 115.734 17.1412 120.622 17.1412 120.622C19.5084 120.784 21.9828 120.603 24.3651 120.621C24.3651 120.621 25.0933 120.668 25.0933 120.668C26.1377 121.39 27.0127 122.372 27.9441 123.231C27.9432 124.207 28.1558 130.424 27.6148 130.923C27.3711 131.147 26.8988 131.187 26.5836 131.215C25.5214 131.312 24.3952 131.238 23.3235 131.235C23.3235 131.235 17.1449 131.234 17.1449 131.234C17.1449 131.234 17.1477 136.076 17.1477 136.076C17.1468 137.204 17.2211 138.389 17.0245 139.501C15.0477 140.894 12.6664 142.775 10.6248 143.973C9.88148 143.49 9.11185 143.018 8.4285 142.453C6.82471 141.127 4.29004 138.374 3.07162 136.675C2.57635 136.208 1.8326 135.228 1.74426 134.535C1.52203 132.79 1.69477 130.867 1.69703 129.104C1.69703 129.104 1.69298 118.436 1.69298 118.436C1.69298 118.436 1.68197 88.6806 1.68197 88.6806C1.67718 83.396 1.83514 78.0785 1.60642 72.7994C1.4333 71.7605 0.369003 71.2049 0 70.2334C0.565361 70.2344 1.16845 70.3168 1.72629 70.2765C1.69439 69.7987 1.75179 69.3022 1.77888 68.8244C1.83693 66.6088 1.84898 64.3604 1.72036 62.1476C3.6177 62.0605 5.56754 62.0539 7.46572 62.1317C7.64025 62.35 7.60986 62.6947 7.62746 62.9645C7.62746 62.9645 7.82118 62.2807 7.82118 62.2807C8.02224 62.4287 8.09018 62.78 8.13966 63.0236C8.17372 63.1903 8.1757 63.3692 8.17842 63.5388C8.17842 63.5388 8.29932 63.6316 8.29932 63.6316C8.37196 63.1435 8.31174 62.5926 8.30337 62.098C8.89828 62.0914 9.49102 62.0764 10.0847 62.1317C10.9983 62.2066 12.9101 62.4193 13.7315 62.0361C14.0335 61.8947 14.0429 61.7026 14.153 61.416C14.3873 61.4394 14.6291 61.4675 14.8643 61.4328C15.1757 61.3879 15.4307 61.2314 15.6038 60.9681C16.2078 60.0519 16.0215 56.5931 15.7656 55.4764C15.4674 54.1769 14.026 52.635 12.9214 51.9338C14.7137 51.5493 16.4364 51.0656 18.1168 50.3252C22.7176 48.2968 27.0936 44.7383 29.8042 40.4949C30.8288 38.8901 31.6407 37.0714 32.3229 35.2956C35.3684 27.3651 34.4342 16.3066 30.5766 8.81008C29.9049 7.50536 29.0938 6.16072 28.2847 4.93627C27.7879 4.18512 26.8593 3.40961 26.5432 2.5836C26.482 2.42359 26.593 2.30855 26.6608 2.16259C25.639 1.49031 24.4291 0.827599 23.5381 0C23.5381 0 23.5381 0 23.5381 0Z" fill="#F38D0B" fill-rule="evenodd" transform="translate(55.365 38.462)" />
      <path d="M1.72036 0.070076C3.6177 -0.0170517 5.56754 -0.0236053 7.46573 0.0541458C7.64026 0.27243 7.60987 0.617188 7.62746 0.886993C7.62746 0.886993 7.82119 0.203102 7.82119 0.203102C8.02225 0.351128 8.09018 0.702446 8.13967 0.946014C8.17373 1.11278 8.1757 1.2917 8.17843 1.46127C8.17843 1.46127 8.29933 1.55402 8.29933 1.55402C8.4511 5.27325 8.36472 9.01965 8.37262 12.7417C8.37262 12.7417 8.38184 33.9029 8.38184 33.9029C8.38184 33.9029 8.3699 47.4805 8.3699 47.4805C8.36152 49.549 8.51705 51.7599 8.30987 53.8144C8.44469 58.1398 8.32031 62.5035 8.3222 66.8336C8.3222 66.8336 8.32465 72.8968 8.32465 72.8968C8.32492 73.8664 8.38109 74.8773 8.31598 75.8422C8.27863 76.3743 8.25116 76.9074 8.23357 77.4404C8.23357 77.4404 8.17344 76.9758 8.17344 76.9758C8.17344 76.9758 8.16451 77.1041 8.16451 77.1041C8.14399 77.3758 8.14974 77.6034 7.99158 77.8367C7.99158 77.8367 7.77433 77.9135 7.77433 77.9135C7.68429 77.5594 7.66877 77.2278 7.65522 76.8643C7.65522 76.8643 7.6221 77.4273 7.6221 77.4273C7.619 77.9445 7.64092 78.4634 7.65522 78.9806C6.93828 78.3642 6.23555 77.7056 5.5841 77.0207C4.63139 76.4024 4.06753 75.1358 3.07162 74.5971C2.57636 74.1306 1.83261 73.1507 1.74426 72.4574C1.52203 70.7121 1.69477 68.7897 1.69703 67.0266C1.69703 67.0266 1.69298 56.3588 1.69298 56.3588C1.69298 56.3588 1.68197 26.6031 1.68197 26.6031C1.67718 21.3184 1.83514 16.0009 1.60642 10.7219C1.4333 9.68294 0.369007 9.12739 0 8.15589C0.565361 8.15683 1.16845 8.23927 1.72629 8.199C1.69439 7.7212 1.75179 7.22469 1.77888 6.7469C1.83694 4.53129 1.84898 2.28288 1.72036 0.070076C1.72036 0.070076 1.72036 0.070076 1.72036 0.070076Z" fill="#FDD107" fill-rule="evenodd" transform="translate(55.365 100.539)" />
      <path d="M0.0860367 0.683891C0.0860367 0.683891 0.279762 0 0.279762 0C0.48082 0.148026 0.548756 0.499344 0.598244 0.742912C0.632305 0.909676 0.634281 1.0886 0.637009 1.25817C0.637009 1.25817 0.757908 1.35092 0.757908 1.35092C0.909672 5.07014 0.823296 8.81655 0.8312 12.5386C0.8312 12.5386 0.840424 33.6998 0.840424 33.6998C0.840424 33.6998 0.828472 47.2774 0.828472 47.2774C0.820099 49.3459 0.975624 51.5568 0.768444 53.6113C0.903267 57.9367 0.778889 62.3004 0.780773 66.6305C0.780773 66.6305 0.783218 72.6937 0.783218 72.6937C0.783501 73.6633 0.839668 74.6741 0.774559 75.6391C0.737209 76.1712 0.709736 76.7043 0.692142 77.2373C0.692142 77.2373 0.632019 76.7726 0.632019 76.7726C0.632019 76.7726 0.623081 76.901 0.623081 76.901C0.60257 77.1727 0.608311 77.4003 0.45015 77.6336C0.45015 77.6336 0.232903 77.7104 0.232903 77.7104C0.142864 77.3563 0.127342 77.0247 0.113789 76.6612C0.0290184 75.9848 0.0852814 75.2222 0.0807686 74.5383C0.0807686 74.5383 0.0565872 70.0228 0.0565872 70.0228C0.0412483 65.6852 -0.0768318 61.2999 0.0819931 56.968C-0.00645065 56.0845 0.03862 55.1608 0.0397453 54.2727C0.0430412 51.7339 0.190472 49.1192 0.0130234 46.5897C0.153214 45.5807 0.0286446 44.375 0.0256348 43.3417C0.0256348 43.3417 0.0130234 36.1262 0.0130234 36.1262L0.0268593 10.6181C0.0268593 10.6181 0.0179176 5.44208 0.0179176 5.44208C0.185955 3.87663 0.00323868 2.25871 0.0860367 0.683891C0.0860367 0.683891 0.0860367 0.683891 0.0860367 0.683891Z" fill="#3E0309" fill-rule="evenodd" transform="translate(62.906 100.742)" />
      <path d="M0.0819931 5.61821C0.370079 3.79044 -0.0825653 1.83527 0.164783 0C0.315514 0.422516 0.18351 2.7899 0.197247 3.42601C0.217476 4.35442 0.357384 5.2697 0.374599 6.1981C0.432835 9.34213 0.375542 12.4936 0.391533 15.6376C0.400471 17.3923 0.277687 19.1489 0.330471 20.9008C0.349293 21.5275 0.223022 24.5919 0.398212 24.9451C0.447609 24.9067 0.507259 24.8777 0.546589 24.8289C0.725166 24.6069 0.312218 21.52 0.504436 20.8155C0.504436 20.8155 0.592499 20.8474 0.592499 20.8474C0.621948 21.0029 0.638508 21.149 0.640675 21.3074C0.640675 21.3074 0.642178 21.4741 0.642178 21.4741C0.799774 20.2712 0.667583 18.8903 0.667488 17.6706C0.667206 15.1627 0.707287 12.6463 0.621479 10.1394C0.621479 10.1394 0.568226 12.6595 0.568226 12.6595C0.357475 10.5684 0.347126 7.13025 0.543201 5.02518C0.689693 5.84398 0.614426 6.80518 0.632866 7.6427C0.740406 5.89832 0.655445 4.1024 0.655727 2.35239C0.655914 1.64227 0.597862 0.88063 0.703617 0.181747C0.704933 0.83754 0.69891 1.49144 0.757153 2.14536C0.757153 2.14536 0.76844 2.26152 0.76844 2.26152C0.903263 6.58688 0.778885 10.9507 0.780769 15.2807C0.780769 15.2807 0.783218 21.3439 0.783218 21.3439C0.783497 22.3135 0.839664 23.3244 0.774555 24.2893C0.737206 24.8214 0.709736 25.3545 0.692139 25.8876C0.692139 25.8876 0.632015 25.4229 0.632015 25.4229C0.632015 25.4229 0.623081 25.5512 0.623081 25.5512C0.602566 25.8229 0.608311 26.0506 0.45015 26.2838C0.45015 26.2838 0.232903 26.3607 0.232903 26.3607C0.142864 26.0065 0.127342 25.6749 0.113789 25.3114C0.0290184 24.635 0.0852814 23.8724 0.0807686 23.1885C0.0807686 23.1885 0.0565872 18.673 0.0565872 18.673C0.0412483 14.3354 -0.076828 9.95013 0.0819931 5.61821C0.0819931 5.61821 0.0819931 5.61821 0.0819931 5.61821Z" fill="#1B0005" fill-rule="evenodd" transform="translate(62.906 152.092)" />
      <path d="M0 0.127411C0.812714 0.138649 0.737541 0.484344 1.25755 0.548981C1.35606 0.349434 1.4349 0.148956 1.6067 0C1.6067 0 1.70399 0.0524673 1.70399 0.0524673L1.55354 0.0252991L1.76373 0.138649L1.49042 0.102112L1.78725 0.185493L1.95963 0.673592L1.94579 26.1817C1.94579 26.1817 1.9584 33.3972 1.9584 33.3972C1.96141 34.4305 2.08598 35.6362 1.94579 36.6452C1.94579 36.6452 1.82743 36.5356 1.82743 36.5356C1.79516 35.8948 1.89197 35.0095 1.66909 34.4174C1.66909 34.4174 1.50895 34.2853 1.50895 34.2853C1.26772 34.3546 1.05837 34.5336 0.965607 34.779C0.74836 35.3533 0.963814 36.2798 0.896919 36.9188C0.861824 37.2532 0.745724 37.5952 0.648529 37.9165C0.735283 30.1473 0.756824 22.3791 0.713169 14.6099C0.713169 14.6099 0.709499 5.52451 0.709499 5.52451C0.707432 3.83166 0.765484 2.1135 0.669796 0.424385C0.478333 0.182686 0.294582 0.19767 0 0.127411C0 0.127411 0 0.127411 0 0.127411Z" fill="#FCD25E" fill-rule="evenodd" transform="translate(60.975 110.687)" />
      <path d="M0.25769 0C0.552273 0.0702591 0.736023 0.0552826 0.927486 0.296982C1.02317 1.98609 0.965126 3.70425 0.967194 5.3971C0.967194 5.3971 0.97086 14.4825 0.97086 14.4825C1.01451 22.2517 0.992977 30.0199 0.906223 37.7891C0.770927 37.8884 0.705826 37.9052 0.546909 37.9446C0.546909 37.9446 0.366638 37.835 0.366638 37.835C0.102825 37.3862 0.0934143 36.8738 0.0693283 36.366C-0.0611687 33.6239 0.0321655 30.8434 0.0345192 28.0957C0.0345192 28.0957 0.0419502 13.6469 0.0419502 13.6469C0.0419502 13.6469 0.0412903 6.08755 0.0412903 6.08755C0.0332947 4.09303 -0.125523 1.9608 0.25769 0C0.25769 0 0.25769 0 0.25769 0Z" fill="#FAFDE1" fill-rule="evenodd" transform="translate(60.715 110.815)" />
      <path d="M0 0.070076C1.89734 -0.0170517 3.84718 -0.0236053 5.74537 0.0541458C5.91989 0.27243 5.8895 0.617188 5.9071 0.886993C5.8243 2.46181 6.00702 4.07972 5.83898 5.64517C5.76785 4.34016 5.80238 3.02204 5.8053 1.71422C4.57625 1.74326 3.26666 1.8435 2.04364 1.71703C2.06801 3.15039 2.14404 4.61091 1.94005 6.03395C1.31843 6.38152 0.797756 6.75906 0.0585213 6.74689C0.116573 4.53128 0.128616 2.28288 0 0.070076C0 0.070076 0 0.070076 0 0.070076Z" fill="#CE5716" fill-rule="evenodd" transform="translate(57.086 100.539)" />
      <path d="M0 0C0.565361 0.000938416 1.16845 0.0833817 1.72629 0.0430984C1.90496 0.793495 1.68809 1.80247 1.60643 2.56599C1.4333 1.52705 0.369007 0.971497 0 0C0 0 0 0 0 0Z" fill="#FAFDE1" fill-rule="evenodd" transform="translate(55.365 108.695)" />
      <path d="M9.19086 0C14.4484 2.30011 19.9129 7.04387 23.1146 11.7717C24.3265 13.5618 25.3116 15.5704 26.0953 17.5827C29.1352 25.4687 28.9263 34.2307 25.5129 41.9637C22.3573 49.0927 16.253 55.2862 8.91331 58.1136C8.91331 58.1136 8.78441 58.1623 8.78441 58.1623C8.74395 60.4426 8.73077 62.7238 8.74677 65.004C8.74772 66.1929 8.84556 67.4791 8.70161 68.6539C8.6508 69.0764 8.55954 69.4596 8.3422 69.8268C7.37029 70.5829 2.99247 70.0311 2.77137 70.492C2.89086 77.2971 2.77701 84.121 2.78266 90.929C2.78266 90.929 2.32352 90.9047 2.32352 90.9047C1.55483 90.9028 0.786156 90.9075 0.0174713 90.9187C0.0814514 90.1927 0.0259323 89.4198 0.0221786 88.6891C0.0108871 87.2529 0.00806427 85.8167 0.0137024 84.3806C-0.0145187 78.8214 0.000541687 73.2622 0.0616837 67.704C1.98481 67.6272 3.9465 67.6759 5.86115 67.5269C6.08414 65.9315 5.97218 64.2283 5.97218 62.617C5.97124 60.3077 6.02392 57.9806 5.91384 55.6741C6.03992 55.6422 6.16599 55.6066 6.29113 55.5673C12.6109 53.5864 18.893 47.3714 21.8774 41.6174C25.686 34.1292 26.3898 25.4517 23.8382 17.4519C22.0317 11.8946 17.6473 4.88409 12.3136 2.16259C11.2918 1.49031 10.0818 0.827599 9.19086 0C9.19086 0 9.19086 0 9.19086 0Z" fill="#3F041A" fill-rule="evenodd" transform="translate(69.713 38.462)" />
      <path d="M0.014267 20.4586C0.014267 20.4586 0.0434341 20.2862 0.0434341 20.2862C0.253242 20.0848 0.178917 19.2548 0.184563 18.9306C0.184563 18.9306 0.164795 18.9484 0.164795 18.9484L0.18644 17.9479C0.18644 17.9479 0.184563 18.3338 0.184563 18.3338C0.338852 17.2303 0.391548 15.7857 0.229721 14.6849C0.0312042 14.8563 0.344505 15.7397 0.122467 16.0161C-0.0986328 14.6118 0.0283813 10.1206 0.12529 8.58421C0.208084 9.35804 0.200554 10.1497 0.221245 10.9272C0.275826 10.0532 0.218437 9.17067 0.225014 8.29473C0.246651 6.65246 0.254189 5.01112 0.247597 3.36885C0.236305 2.40017 0.0895386 1.49987 0.214668 0.539619C0.239128 0.349434 0.261711 0.183617 0.321922 0C0.321922 0 0.462112 0.0459061 0.462112 0.0459061C0.581604 6.85107 0.467751 13.675 0.473404 20.4829C0.473404 20.4829 0.014267 20.4586 0.014267 20.4586L0.014267 20.4586Z" fill="#3E0309" fill-rule="evenodd" transform="translate(72.021 108.908)" />
      <path d="M0.00658798 0.00689697C0.601494 0.000328064 1.19423 -0.0146484 1.78791 0.0406189C1.78791 0.0406189 1.8039 55.8104 1.8039 55.8104L1.79544 71.7806C1.79544 71.7806 1.84436 75.9364 1.84436 75.9364C1.85471 76.6334 1.79262 77.4325 1.91586 78.1154C1.48589 78.6391 0.615601 78.9764 0 79.2396C0.157684 78.1548 0.085144 76.9238 0.0191917 75.8286C0.084301 74.8637 0.0281334 73.8528 0.0278511 72.8832C0.0278511 72.8832 0.0254059 66.82 0.0254059 66.82C0.0235214 62.49 0.1479 58.1262 0.0130768 53.8008C0.220257 51.7464 0.0647316 49.5354 0.073101 47.4669C0.073101 47.4669 0.0850525 33.8894 0.0850525 33.8894C0.0850525 33.8894 0.0758286 12.7282 0.0758286 12.7282C0.0679283 9.00612 0.154301 5.25972 0.00253677 1.54049C0.0751762 1.05241 0.0149574 0.501549 0.00658798 0.00689697C0.00658798 0.00689697 0.00658798 0.00689697 0.00658798 0.00689697Z" fill="#CE5716" fill-rule="evenodd" transform="translate(63.662 100.553)" />
      <path d="M22.0217 0C23.066 0.722305 23.941 1.7041 24.8725 2.56319C24.8715 3.53937 25.0842 9.7562 24.5432 10.2546C24.2995 10.4794 23.8272 10.5188 23.512 10.5469C22.4498 10.6443 21.3235 10.5703 20.2519 10.5675C20.2519 10.5675 14.0733 10.5656 14.0733 10.5656C14.0733 10.5656 14.0761 15.4081 14.0761 15.4081C14.0752 16.5361 14.1495 17.7212 13.9529 18.8332C11.9761 20.2263 9.59479 22.1074 7.55313 23.3047C6.80985 22.8222 6.04022 22.3501 5.35688 21.7851C3.75309 20.4595 1.21841 17.7062 0 16.0068C0.995903 16.5454 1.55976 17.812 2.51247 18.4303C3.16392 19.1152 3.86665 19.7738 4.58358 20.3902C4.56929 19.8731 4.54737 19.3541 4.55047 18.8369C4.55047 18.8369 4.58358 18.2739 4.58358 18.2739C4.59714 18.6374 4.61266 18.969 4.7027 19.3232C4.7027 19.3232 4.91994 19.2463 4.91994 19.2463C5.07811 19.0131 5.07236 18.7854 5.09287 18.5137C5.09287 18.5137 5.10181 18.3854 5.10181 18.3854C5.10181 18.3854 5.16193 18.8501 5.16193 18.8501C5.17953 18.317 5.207 17.7839 5.24435 17.2518C5.31031 18.347 5.38284 19.578 5.22516 20.6628C5.84076 20.3996 6.71106 20.0623 7.14103 19.5386C8.56455 18.5812 9.93726 17.5413 11.3382 16.5511C11.3025 13.6216 11.2987 10.6911 11.326 7.76074C12.4098 7.85255 13.5558 7.76917 14.6482 7.77011C17.0906 7.75793 19.5331 7.77478 21.9746 7.82257C22.0245 5.21536 22.0395 2.60722 22.0217 0C22.0217 0 22.0217 0 22.0217 0Z" fill="#3F041A" fill-rule="evenodd" transform="translate(58.438 159.129)" />
      <path d="M10.6543 0C11.7259 0.691391 12.6405 1.71817 13.5371 2.61847C13.4966 4.29071 13.6688 7.17148 13.4458 8.7032C13.3866 9.10793 13.2925 9.57166 12.9716 9.85739C12.8427 9.97263 12.6903 10.0729 12.5435 10.1628C9.2844 10.249 6.0168 10.086 2.75954 10.1834C2.75954 10.1834 2.75108 15.0718 2.75108 15.0718C2.75108 15.0718 0 15.0615 0 15.0615C0.0940857 12.5171 -0.00470734 9.93515 0.00752258 7.38509C0.00752258 7.38509 10.6665 7.38976 10.6665 7.38976C10.644 4.93619 10.7747 2.44701 10.6543 0C10.6543 0 10.6543 0 10.6543 0Z" fill="#3F041A" fill-rule="evenodd" transform="translate(69.756 144.012)" />
      <path d="M10.7769 0C11.8119 0.71106 12.7085 1.64133 13.6127 2.50885C13.6099 4.13237 13.8592 9.5988 13.2533 10.7296C12.9682 10.9263 12.6944 10.9825 12.351 11.0219C11.2248 11.1502 10.0092 11.0612 8.87357 11.0565C8.87357 11.0565 2.81066 11.0565 2.81066 11.0565C2.81066 11.0565 2.81631 14.1631 2.81631 14.1631C2.169 14.0928 1.50381 14.1125 0.852737 14.1068C0.565765 14.0853 0.291031 14.1284 0.0680466 13.9401C0.0680466 13.9401 0.0934525 13.7012 0.0934525 13.7012C-0.081543 12.5124 0.0407715 11.1811 0.052063 9.97447C0.052063 9.97447 0.0586395 8.13171 0.0586395 8.13171C0.0586395 8.13171 10.712 8.13454 10.712 8.13454C10.7054 6.06694 10.9999 2.21655 10.712 0.375671C10.712 0.375671 10.7769 0 10.7769 0C10.7769 0 10.7769 0 10.7769 0Z" fill="#3F041A" fill-rule="evenodd" transform="translate(69.703 129.503)" />
      <path d="M0.052063 0.083374C0.052063 0.083374 0.20636 0 0.20636 0C0.291969 0.481537 0.422752 3.39977 0.216713 3.67332C0.180016 3.72205 0.134857 3.76421 0.0934525 3.8101C-0.081543 2.62126 0.0407715 1.29002 0.052063 0.083374C0.052063 0.083374 0.052063 0.083374 0.052063 0.083374Z" fill="#3E0309" fill-rule="evenodd" transform="translate(69.703 139.394)" />
      <path d="M2.80292 0.0254974C5.44297 0.25502 8.14419 -0.218079 10.7908 0.137924C10.7908 0.137924 10.7259 0.513596 10.7259 0.513596C10.6779 0.824631 10.7334 1.13098 10.6224 1.43356C10.5076 1.47011 10.4013 1.49634 10.2828 1.51881C10.0033 1.57129 8.56851 3.39436 8.17335 3.73819C7.20238 4.5804 4.74486 4.51295 3.55373 4.44925C2.49808 4.39209 1.46125 4.07544 0.752777 3.25197C-0.00836945 2.36853 -0.0619965 1.12253 0.0377274 0.0151978C0.806419 0.00395203 1.57509 -0.000732422 2.34378 0.00114441C2.34378 0.00114441 2.80292 0.0254974 2.80292 0.0254974C2.80292 0.0254974 2.80292 0.0254974 2.80292 0.0254974Z" fill="#FDD107" fill-rule="evenodd" transform="translate(69.693 129.365)" />
      <path d="M2.82456 0.0102997C5.19176 0.172379 7.66623 -0.00842285 10.0485 0.0093689C10.0325 0.0946198 10.0297 0.119919 9.99957 0.213608C9.62981 1.34341 9.07094 2.57162 7.95131 3.12622C6.73666 3.72768 3.52738 3.74361 2.24029 3.29393C1.43021 3.01006 0.616364 2.37209 0.250366 1.58513C0.0546722 1.16449 -0.0958786 0.443115 0.0734787 0C0.0734787 0 2.82456 0.0102997 2.82456 0.0102997C2.82456 0.0102997 2.82456 0.0102997 2.82456 0.0102997Z" fill="#FDD107" fill-rule="evenodd" transform="translate(69.682 159.073)" />
      <path d="M0.843056 0C1.49412 0.00561523 2.15932 -0.0140533 2.80663 0.0562134C4.03821 0.250122 5.46831 0.114288 6.72248 0.12085C7.7085 0.125534 8.72462 0.212662 9.70406 0.158325C9.59399 1.37808 8.98901 2.29993 8.21375 3.20491C6.66602 3.72485 4.29317 3.86256 2.70783 3.43442C1.63431 3.14589 0.728256 2.42546 0.20797 1.44647C-0.0272446 1.00334 -0.0564117 0.689514 0.0875397 0.2164C0.345337 -0.0252991 0.497749 0.0234222 0.843056 0C0.843056 0 0.843056 0 0.843056 0Z" fill="#FDD107" fill-rule="evenodd" transform="translate(69.715 143.61)" />
      <path d="M3.76429 0C8.16272 0.104927 12.5662 0.0131149 16.9676 0.0955582C16.8575 0.382233 16.8481 0.57428 16.5461 0.715744C15.7247 1.09891 13.8129 0.886253 12.8993 0.811302C12.3056 0.756035 11.7129 0.771011 11.118 0.77758C11.1263 1.27223 11.1866 1.82309 11.1139 2.31117C11.1139 2.31117 10.993 2.21843 10.993 2.21843C10.9903 2.04886 10.9883 1.86993 10.9543 1.70317C10.9048 1.45959 10.8368 1.10828 10.6358 0.960258C10.6358 0.960258 10.442 1.64415 10.442 1.64415C10.4244 1.37434 10.4548 1.02958 10.2803 0.811302C8.38213 0.733551 6.43229 0.740105 4.53495 0.827232C4.66356 3.04004 4.65152 5.28844 4.59347 7.50406C4.56637 7.98184 4.50898 8.47836 4.54087 8.95615C3.98304 8.99643 3.37995 8.91399 2.81459 8.91305C1.801 8.2048 0.889023 7.14056 0 6.27212C1.24852 6.28991 2.50024 6.26743 3.74905 6.26275C3.74905 6.26275 3.76429 0 3.76429 0C3.76429 0 3.76429 0 3.76429 0Z" fill="#3E0309" fill-rule="evenodd" transform="translate(52.549 99.782)" />
      <path d="M0 0C0.456039 0.178284 3.4396 2.97239 4.16161 3.55192C5.92723 4.96907 7.98 5.86936 9.96013 6.93089C9.88176 7.43304 9.83509 7.90707 9.8302 8.41577C7.05767 7.29626 1.93319 2.30293 0 0C0 0 0 0 0 0Z" fill="#3E0309" fill-rule="evenodd" transform="translate(42.42 87.067)" />
      <path d="M8.71997 24.0268C7.91309 24.0295 6.22218 22.9881 5.52848 22.5527C2.8285 20.8844 0.932568 18.1878 0.28215 15.0908C-0.441463 11.7964 0.251575 8.57421 2.07637 5.75631C3.88837 2.92679 6.77117 0.94585 10.0709 0.262901C13.4268 -0.422394 16.7471 0.243134 19.5904 2.12992C21.5126 3.40561 23.7546 5.84784 24.2204 8.16613C25.403 11.4292 25.5122 14.4163 24.0106 17.6474C22.6933 20.4815 20.0448 22.8325 17.1103 23.8982C14.3714 24.8928 11.6871 24.7849 8.89732 24.0563C8.77878 24.0252 8.83071 24.0335 8.71997 24.0268C8.71997 24.0268 8.71997 24.0268 8.71997 24.0268ZM13.4023 18.3386C14.9463 18.1237 17.0256 17.9477 18.037 16.6017C19.0541 15.2475 19.883 13.7487 19.5574 11.9925C19.342 10.8312 18.4632 9.76371 17.4866 9.12001C16.6163 8.54723 15.6115 8.3029 14.5756 8.38066C12.7494 8.5299 11.041 9.25108 9.8295 10.6521C8.90115 11.7256 8.30248 13.2276 8.41868 14.6581C8.51276 15.8154 9.10306 16.983 10.0204 17.7079C11.0621 18.531 12.1604 18.4765 13.4023 18.3386C13.4023 18.3386 13.4023 18.3386 13.4023 18.3386Z" fill="#FBFAFA" transform="translate(52.068 41.698)" />
      <path d="M8.71997 24.0268C7.91309 24.0294 6.22218 22.9881 5.52848 22.5527C2.8285 20.8844 0.932568 18.1878 0.28215 15.0908C-0.441463 11.7964 0.251575 8.57421 2.07637 5.75631C3.88837 2.92679 6.77117 0.94585 10.0709 0.262901C13.4268 -0.422394 16.7471 0.243134 19.5904 2.12992C21.5126 3.40561 23.7546 5.84784 24.2204 8.16612C22.7724 5.66693 20.6611 3.99169 17.8442 3.25487C14.7788 2.45322 11.4034 2.81203 8.66305 4.42825C6.05499 5.96654 4.01182 8.3993 3.28086 11.3597C2.57776 14.2067 2.94497 17.6978 4.51028 20.2148C5.31265 21.505 6.3904 22.508 7.64382 23.3579C7.99137 23.5935 8.38333 23.7812 8.71997 24.0268C8.71997 24.0268 8.71997 24.0268 8.71997 24.0268Z" fill="#3F041A" fill-rule="evenodd" transform="translate(52.068 41.698)" />
      <path d="M9.68259 0.0430336C10.0156 0.0087471 10.3237 -0.0583305 10.6314 0.105804C10.7338 0.261505 10.7948 0.311718 10.8096 0.503769C10.8984 1.64474 8.52542 3.9072 7.82721 4.75662C2.81647 10.8526 0.74799 20.769 3.01593 28.3229C3.33027 29.3696 3.74472 30.4229 4.19154 31.4209C4.58247 32.2941 5.47666 33.4286 5.56999 34.3684C5.56999 34.3684 5.44721 34.3866 5.44721 34.3866C5.44721 34.3866 5.17248 34.0769 5.17248 34.0769C3.8851 32.3257 2.76472 30.5456 1.87721 28.5596C-0.653984 22.896 -0.543339 15.5937 1.71519 9.85047C2.8765 6.89738 6.66732 1.34514 9.68259 0.0430336C9.68259 0.0430336 9.68259 0.0430336 9.68259 0.0430336Z" fill="#FBFAFA" fill-rule="evenodd" transform="translate(38.469 44.941)" />
      <path d="M0.195766 2.54112C-0.00312996 2.11542 -0.0781164 1.65141 0.102528 1.20332C0.301332 0.710171 0.746076 0.278759 1.24567 0.0936394C1.73831 -0.0888557 2.09226 0.0140076 2.54538 0.241943C3.39422 0.668762 4.18896 1.22281 4.99613 1.72223C4.99613 1.72223 9.05858 4.19145 9.05858 4.19145C9.05858 4.19145 14.4034 7.44339 14.4034 7.44339C15.4911 8.11182 16.661 8.74774 17.6335 9.57665C18.2269 10.1016 18.6841 10.6504 19.1183 11.3121C20.1466 11.8934 20.7308 12.6271 21.3395 13.6177C21.2826 14.321 21.3208 15.2981 20.8867 15.8788C20.1938 16.2703 19.3897 16.2579 18.6337 16.0597C17.8128 15.8446 16.3778 15.1898 15.9365 14.4413C15.8813 14.3476 15.8384 14.2496 15.7947 14.1505C15.7947 14.1505 15.7557 14.0633 15.7557 14.0633C14.8193 13.6508 13.9217 12.8815 13.0915 12.287C13.0915 12.287 8.40167 8.93033 8.40167 8.93033C6.10531 7.32066 3.29731 5.70594 1.19393 3.9148C0.74636 3.5336 0.440672 3.06978 0.195766 2.54112C0.195766 2.54112 0.195766 2.54112 0.195766 2.54112Z" fill="#FDD107" fill-rule="evenodd" transform="translate(13.99 33.645)" />
      <path d="M0 0C1.06044 0.784225 2.26879 1.35691 3.41335 2.00989C4.83028 2.81828 6.21325 3.69909 7.58729 4.57793C10.0336 6.14245 12.3078 8.06933 14.8025 9.53426C15.2213 9.78018 15.6499 9.9979 16.1486 9.90909C16.5877 9.83086 16.9194 9.53229 17.1446 9.1613C17.5923 8.42383 17.617 7.85555 17.4377 7.03553C18.0311 7.56044 18.4884 8.10924 18.9225 8.77102C19.9508 9.35223 20.535 10.086 21.1438 11.0766C21.0868 11.7799 21.125 12.757 20.6909 13.3377C19.998 13.7292 19.1939 13.7168 18.4379 13.5186C17.617 13.3035 16.182 12.6487 15.7407 11.9001C15.6856 11.8065 15.6427 11.7085 15.5989 11.6093C15.5989 11.6093 15.56 11.5222 15.56 11.5222C14.6235 11.1096 13.7259 10.3404 12.8957 9.74589C12.8957 9.74589 8.2059 6.38921 8.2059 6.38921C5.90955 4.77954 3.10155 3.16481 0.998159 1.37368C0.550593 0.992481 0.244905 0.528656 0 0C0 0 0 0 0 0Z" fill="#F38D0B" fill-rule="evenodd" transform="translate(14.188 36.186)" />
      <path d="M3.36253 0C4.3909 0.581211 4.97508 1.31494 5.58381 2.30555C5.52689 3.00883 5.56509 3.98595 5.13098 4.56669C4.43803 4.95819 3.63398 4.94574 2.87799 4.7476C2.05709 4.5325 0.622097 3.87765 0.180735 3.12912C0.125601 3.03544 0.0826988 2.93744 0.0389519 2.83833C0.0389519 2.83833 0 2.7512 0 2.7512C0.272284 2.76563 0.544193 2.77388 0.816568 2.75645C1.57349 2.70829 2.40672 2.42874 2.90133 1.82739C3.34362 1.28974 3.43028 0.668339 3.36253 0C3.36253 0 3.36253 0 3.36253 0Z" fill="#E6E3E3" fill-rule="evenodd" transform="translate(29.746 44.957)" />
      <path d="M0.465134 13.1151C0.291077 12.9288 0.142418 12.6652 0.0699692 12.4213C-0.0946808 11.8658 0.0483322 11.2729 0.321182 10.7769C0.689064 10.1067 1.37682 9.58784 1.98838 9.14332C4.28409 7.47528 6.91473 6.08212 9.33839 4.59264C10.4759 3.89751 11.6096 3.1947 12.7377 2.48411C14.1236 1.59562 15.4982 0.468323 17.0958 0C17.5333 0.160385 17.9181 0.333794 18.3227 0.569221C18.874 0.936646 19.4225 1.42933 19.5477 2.112C19.6041 2.42247 19.5608 2.91253 19.3727 3.17287C19.0048 3.6827 18.4215 4.14727 17.9228 4.52519C15.9922 5.98918 13.8677 7.23714 11.9032 8.6674C11.9032 8.6674 6.88368 12.3773 6.88368 12.3773C6.05666 12.9875 5.23906 13.6517 4.365 14.1924C3.82589 14.5263 3.33193 14.7092 2.70908 14.8437C1.90653 14.3888 1.05787 13.8311 0.465134 13.1151C0.465134 13.1151 0.465134 13.1151 0.465134 13.1151Z" fill="#FDD107" fill-rule="evenodd" transform="translate(97.658 33.563)" />
      <path d="M17.8575 0C18.4089 0.367428 18.9574 0.860107 19.0825 1.54278C19.139 1.85325 19.0957 2.3433 18.9075 2.60365C18.5396 3.11348 17.9563 3.57805 17.4576 3.95597C15.527 5.41996 13.4025 6.66792 11.438 8.09818C11.438 8.09818 6.41854 11.808 6.41854 11.808C5.59152 12.4183 4.77393 13.0825 3.89986 13.6232C3.36075 13.957 2.8668 14.14 2.24395 14.2744C1.44139 13.8196 0.592735 13.2618 0 12.5459C0.958733 12.5659 1.83468 12.3454 2.68333 11.9053C3.60725 11.4264 4.4672 10.7228 5.32338 10.1316C5.32338 10.1316 11.3675 5.89128 11.3675 5.89128C13.2407 4.60482 15.496 3.49776 17.1707 1.9845C17.58 1.61435 17.7935 1.11511 17.8039 0.56847C17.8067 0.41914 17.8086 0.282455 17.834 0.134716C17.834 0.134716 17.8575 0 17.8575 0C17.8575 0 17.8575 0 17.8575 0Z" fill="#F38D0B" fill-rule="evenodd" transform="translate(98.123 34.132)" />
      <path d="M8.68633 18.3071C8.64775 18.2868 8.6087 18.2672 8.5706 18.2461C8.1601 18.0172 7.79543 17.6355 7.54807 17.2411C6.73941 15.9517 6.13057 14.4688 5.46558 13.0988C4.53685 11.1854 3.5657 9.28936 2.62003 7.38365C1.95852 6.05063 0.317184 3.40155 0.0380325 2.14713C-0.070919 1.658 0.061554 1.07304 0.34174 0.660557C0.571125 0.323016 0.915569 0.0648232 1.3287 0.0113306C1.9539 -0.0697994 2.47985 0.2995 2.95573 0.649221C3.40556 0.960718 3.72969 1.27409 4.04243 1.71871C4.94151 2.99655 5.62411 4.43544 6.46731 5.75497C6.46731 5.75497 10.135 11.5691 10.135 11.5691C10.9897 12.9242 11.9361 14.2875 12.6193 15.7371C13.4839 16.1651 13.9973 16.8068 14.3073 17.7212C14.569 18.4931 14.6756 19.9058 14.2544 20.6514C14.0864 20.9488 13.8161 21.1635 13.4789 21.2363C12.8332 21.3758 11.619 20.7749 11.1112 20.4023C10.6365 20.054 10.2981 19.7578 10.2274 19.1578C9.69926 18.9262 9.18893 18.5924 8.68633 18.3071C8.68633 18.3071 8.68633 18.3071 8.68633 18.3071Z" fill="#FDD107" fill-rule="evenodd" transform="translate(34.375 14.375)" />
      <path d="M0 0C0.449825 0.311497 0.773952 0.624868 1.08669 1.06949C1.98578 2.34733 2.66837 3.78621 3.51157 5.10575C3.51157 5.10575 7.17923 10.9198 7.17923 10.9198C8.034 12.275 8.98032 13.6382 9.66357 15.0879C10.5281 15.5159 11.0416 16.1576 11.3516 17.0719C11.6132 17.8439 11.7198 19.2566 11.2987 20.0022C11.1307 20.2996 10.8603 20.5142 10.5231 20.5871C9.87743 20.7266 8.66325 20.1256 8.15547 19.7531C7.6808 19.4047 7.34238 19.1086 7.27162 18.5086C6.74352 18.277 6.2332 17.9432 5.73059 17.6579C6.33632 17.3163 7.18629 16.9409 7.61174 16.3862C7.99373 15.8881 7.8416 15.1997 7.67252 14.6495C7.01411 12.5073 5.42594 10.4232 4.3019 8.48219C3.28699 6.72966 2.353 4.92531 1.39878 3.13943C0.887512 2.18226 0.135296 1.08373 0 0C0 0 0 0 0 0Z" fill="url(#gradient_1)" fill-rule="evenodd" transform="translate(37.334 15.024)" />
      <path d="M2.39195 0C3.2565 0.427946 3.76993 1.06968 4.07994 1.98403C4.34159 2.75598 4.44819 4.16872 4.02706 4.91426C3.85902 5.2117 3.58872 5.42633 3.25151 5.49922C2.6058 5.63871 1.39162 5.03773 0.883846 4.66515C0.40918 4.31684 0.070755 4.02071 0 3.42066C0.705742 3.37232 1.30318 3.23573 1.80438 2.69771C2.49158 1.96004 2.45715 0.933086 2.39195 0C2.39195 0 2.39195 0 2.39195 0Z" fill="#E6E3E3" fill-rule="evenodd" transform="translate(44.604 30.112)" />
      <path d="M0.013092 20.5241C-0.0777931 17.3587 0.327618 13.565 0.517014 10.3622C0.682323 7.56754 0.664448 4.67 0.999302 1.89401C1.0534 1.44519 1.09809 0.627957 1.43087 0.303241C1.71812 0.0232401 2.19701 -0.0266275 2.57618 0.0109959C3.09084 0.062006 3.3985 0.165236 3.7278 0.563906C4.10226 1.00698 4.43814 1.44461 4.74769 1.93479C4.86906 5.14161 4.91045 8.34764 5.05347 11.5554C5.14944 13.5591 5.21059 15.5643 5.236 17.5701C5.25387 18.5971 5.33855 19.6886 5.23318 20.7092C5.18237 21.2023 5.13815 21.6117 4.79379 21.9875C4.27631 22.5517 3.35146 23.082 2.5743 23.1346C2.23841 23.1574 1.93922 22.9786 1.70589 22.7519C1.48779 22.5399 1.2889 22.2257 1.16658 21.9483C0.755428 21.4944 0.387081 21.0083 0.013092 20.5241C0.013092 20.5241 0.013092 20.5241 0.013092 20.5241Z" fill="#FDD107" fill-rule="evenodd" transform="translate(62.418 5.268)" />
      <path d="M2.56122 0C2.93568 0.443076 3.27156 0.880709 3.58111 1.37089C3.70248 4.5777 3.74387 7.78374 3.88689 10.9915C3.98286 12.9952 4.04401 15.0004 4.06942 17.0062C4.08729 18.0332 4.17197 19.1247 4.0666 20.1453C4.01579 20.6384 3.97157 21.0478 3.6272 21.4236C3.10973 21.9878 2.18488 22.5181 1.40772 22.5707C1.07183 22.5935 0.772636 22.4147 0.539299 22.188C0.321209 21.976 0.122318 21.6618 0 21.3844C0.742531 20.7376 1.54885 20.1764 2.27237 19.506C2.58662 17.9394 2.37305 16.1748 2.35799 14.5788C2.342 12.9724 2.23473 0.801396 2.56122 0C2.56122 0 2.56122 0 2.56122 0Z" fill="#F38D0B" fill-rule="evenodd" transform="translate(63.586 5.831)" />
      <path d="M1.15604 6.18245C0.767456 5.80153 0.0448837 5.24712 0.00254822 4.67517C-0.0435638 4.05124 0.545418 3.30159 0.940582 2.87571C1.19367 2.60327 1.53709 2.24484 1.9012 2.12755C2.97379 1.78176 4.26464 1.75713 5.38803 1.63355C5.38803 1.63355 11.5356 0.939453 11.5356 0.939453C13.8896 0.650906 16.3208 0.0364418 18.689 0.000370026C19.4464 -0.0111504 19.8349 0.244324 20.3693 0.751148C20.7824 1.14846 21.1399 1.53613 21.4777 1.99995C21.2801 2.74923 20.9988 3.56549 20.296 3.99269C19.8603 4.25725 19.2761 4.39581 18.7812 4.5118C15.6434 5.24636 12.3664 5.69698 9.19193 6.28719C7.10416 6.67532 4.54784 7.37775 2.46101 7.47819C1.95859 7.10617 1.51545 6.69705 1.15604 6.18245C1.15604 6.18245 1.15604 6.18245 1.15604 6.18245Z" fill="#FDD107" fill-rule="evenodd" transform="translate(103.438 57.51)" />
      <path d="M0 5.4313C1.12339 4.88634 2.81506 4.82133 4.07393 4.59733C7.79221 3.93574 11.5368 3.38807 15.2467 2.69087C16.3964 2.47483 18.0307 2.28934 18.6761 1.18313C18.8727 0.846245 18.9094 0.352718 19.1352 0.0744781C19.1578 0.0465622 19.187 0.024826 19.2133 0C19.6264 0.397316 19.9839 0.784977 20.3217 1.2488C20.1241 1.99808 19.8428 2.81435 19.1399 3.24154C18.7043 3.5061 18.12 3.64466 17.6252 3.76065C14.4874 4.49522 11.2104 4.94584 8.0359 5.53604C5.94813 5.92417 3.39181 6.62661 1.30497 6.72704C0.802559 6.35502 0.359413 5.94591 0 5.4313C0 5.4313 0 5.4313 0 5.4313Z" fill="#F38D0B" fill-rule="evenodd" transform="translate(104.596 58.261)" />
      <path d="M1.56627 18.9713C1.56627 18.9713 1.44866 18.873 1.44866 18.873C0.797585 18.3349 0.238716 17.6533 0.0627747 16.8077C-0.0294266 16.3621 -0.0341339 15.7706 0.14463 15.3463C0.697861 14.0405 1.66601 12.7665 2.46198 11.5918C2.46198 11.5918 5.71077 6.8146 5.71077 6.8146C6.8906 5.08221 7.94625 3.26531 9.13455 1.54238C9.50431 1.00632 10.0528 0.107244 10.7368 0.0104694C11.3268 -0.0730963 11.8226 0.360658 12.2479 0.704195C12.6299 1.12811 12.9196 1.56196 13.216 2.0479C13.1134 2.51575 13.0147 2.9778 12.818 3.41708C12.3137 4.54269 11.6363 5.59307 11.037 6.66902C10.3765 7.85327 9.76399 9.06713 9.12985 10.2661C9.12985 10.2661 6.66197 14.9625 6.66197 14.9625C6.11816 16.0131 5.61197 17.1266 4.96748 18.1182C4.68334 18.5545 4.37191 18.9083 3.92595 19.187C3.4781 19.4671 3.00767 19.6226 2.49678 19.7421C2.14773 19.507 1.85324 19.2789 1.56627 18.9713C1.56627 18.9713 1.56627 18.9713 1.56627 18.9713Z" fill="#FDD107" fill-rule="evenodd" transform="translate(83.479 14.318)" />
      <path d="M10.6816 0C11.0636 0.423917 11.3534 0.857764 11.6497 1.3437C11.5472 1.81156 11.4484 2.2736 11.2517 2.71288C10.7474 3.83849 10.07 4.88887 9.4707 5.96482C8.81021 7.14907 8.19771 8.36293 7.56358 9.56189C7.56358 9.56189 5.0957 14.2583 5.0957 14.2583C4.55188 15.3089 4.0457 16.4224 3.40121 17.414C3.11707 17.8503 2.80564 18.2041 2.35967 18.4828C1.91182 18.7629 1.44139 18.9184 0.930511 19.0379C0.581459 18.8028 0.286964 18.5747 0 18.2671C0.415863 16.8759 1.77352 15.8741 2.56102 14.6724C3.75967 12.844 4.70147 10.8582 5.80792 8.9745C7.30953 6.41759 9.02943 3.88674 10.3194 1.22154C10.5122 0.822353 10.6025 0.432817 10.6816 0C10.6816 0 10.6816 0 10.6816 0Z" fill="#F38D0B" fill-rule="evenodd" transform="translate(85.043 15.022)" />
      <path d="M0.428374 0.125751C0.653804 0.0834999 0.88234 0.0445251 1.11106 0.0256958C2.55528 -0.0932846 4.16293 0.228897 5.59925 0.420101C7.47551 0.679981 9.35479 0.917469 11.2368 1.13257C12.6999 1.29791 14.1644 1.45184 15.6299 1.59433C16.4988 1.67968 17.486 1.69888 18.3286 1.91585C18.8285 2.04448 19.211 2.32421 19.5942 2.65567C20.1653 3.15144 20.6499 3.73837 21.0803 4.35809C21.069 5.19421 20.9922 6.00729 20.3364 6.6152C19.6678 7.2351 18.9466 7.27773 18.0894 7.22255C16.6686 7.13111 15.2337 6.77811 13.8348 6.51009C13.8348 6.51009 6.80985 5.16254 6.80985 5.16254C5.31915 4.88037 3.58524 4.80364 2.15373 4.32576C1.58093 4.13456 1.0722 3.74699 0.674785 3.30096C0.580417 3.1951 0.492542 3.08717 0.405982 2.97513C0.302299 2.85522 0.208024 2.68265 0.144988 2.53838C-0.193536 1.76305 0.127393 0.857979 0.428374 0.125751C0.428374 0.125751 0.428374 0.125751 0.428374 0.125751Z" fill="#FDD107" fill-rule="evenodd" transform="translate(5.715 57.395)" />
      <path d="M19.1882 0C19.7593 0.495773 20.2439 1.0827 20.6744 1.70242C20.663 2.53854 20.5862 3.35162 19.9304 3.95953C19.2619 4.57942 18.5406 4.62206 17.6834 4.56687C16.2626 4.47544 14.8277 4.12244 13.4288 3.85442C13.4288 3.85442 6.40387 2.50687 6.40387 2.50687C4.91317 2.2247 3.17926 2.14797 1.74774 1.67009C1.17495 1.47889 0.666223 1.09132 0.268803 0.64529C0.174436 0.539429 0.0865602 0.431503 0 0.319458C0 0.319458 0.145835 0.261284 0.145835 0.261284C2.17461 0.728481 4.348 0.857479 6.40773 1.19643C6.40773 1.19643 12.7773 2.24652 12.7773 2.24652C14.2211 2.49582 15.6594 2.7971 17.1153 2.96751C17.2828 2.8862 17.4366 2.80478 17.5873 2.69452C18.5062 2.02243 19.0352 1.11493 19.1882 0C19.1882 0 19.1882 0 19.1882 0Z" fill="#F38D0B" fill-rule="evenodd" transform="translate(6.121 60.051)" />
      <path d="M0.805813 12.3015C0.487236 12.0373 0.230946 11.7422 0.0927334 11.3459C-0.0583677 10.9112 -0.0255318 10.3904 0.19651 9.98386C0.423729 9.56772 1.04809 9.17425 1.43835 8.90172C2.74332 7.99055 4.1645 7.21916 5.49873 6.34312C5.49873 6.34312 10.7366 2.9382 10.7366 2.9382C11.8466 2.20175 12.9258 1.40629 14.0522 0.696259C14.4107 0.47039 14.8879 0.133873 15.3031 0.0401001C16.0601 -0.130783 16.8718 0.27478 17.4771 0.684647C18.1428 1.18969 18.5592 1.72818 18.6927 2.57143C18.7813 3.13156 18.6929 3.81629 18.3488 4.28415C18.0391 4.70516 17.4248 5.08205 16.9765 5.35102C15.9047 5.99397 14.7516 6.53621 13.6484 7.12651C13.6484 7.12651 8.18601 10.0987 8.18601 10.0987C6.5859 10.9571 5.05088 11.9764 3.41867 12.7662C2.98569 12.976 2.55685 13.0875 2.08557 13.1793C1.60526 12.9226 1.21876 12.6612 0.805813 12.3015C0.805813 12.3015 0.805813 12.3015 0.805813 12.3015Z" fill="#FDD107" fill-rule="evenodd" transform="translate(13.936 82.817)" />
      <path d="M16.6713 0C17.3369 0.505051 17.7534 1.04354 17.8869 1.88678C17.9755 2.44691 17.8871 3.13165 17.543 3.59951C17.2333 4.02052 16.619 4.39741 16.1707 4.66637C15.0989 5.30933 13.9458 5.85156 12.8426 6.44186C12.8426 6.44186 7.3802 9.41407 7.3802 9.41407C5.78008 10.2725 4.24507 11.2918 2.61286 12.0815C2.17988 12.2914 1.75103 12.4028 1.27976 12.4947C0.79945 12.238 0.412944 11.9766 0 11.6169C1.66824 11.096 3.16044 10.0167 4.63863 9.11343C6.06017 8.24471 7.48981 7.38919 8.92754 6.54707C10.7226 5.49922 12.6324 4.57616 14.379 3.46001C15.0227 3.04865 15.7506 2.54322 16.239 1.95078C16.7595 1.31934 16.7437 0.765396 16.6713 0C16.6713 0 16.6713 0 16.6713 0Z" fill="#F38D0B" fill-rule="evenodd" transform="translate(14.742 83.501)" />
      <path d="M0.0760117 2.59766C0.00544739 1.87489 -0.144157 1.16983 0.367676 0.561546C0.688507 0.180252 1.18058 0.0327911 1.66512 0.00628662C2.21082 -0.0236053 2.90046 0.0504074 3.39536 0.286018C4.55733 0.839592 5.67507 1.72546 6.74012 2.44936C6.74012 2.44936 12.9282 6.65791 12.9282 6.65791C14.5248 7.73554 16.3425 8.61786 17.8122 9.85382C17.9533 9.99406 18.086 10.1308 18.2045 10.291C18.514 10.7126 18.7417 11.1867 18.6373 11.7207C18.4849 12.4917 17.7736 12.9479 17.1677 13.3592C16.6417 13.407 16.2089 13.4182 15.7131 13.2055C14.0995 12.5142 11.658 10.8972 10.0218 9.97495C8.25867 8.98078 6.51431 7.95129 4.7455 6.96678C3.59953 6.32861 2.33595 5.75171 1.26619 4.99792C0.401543 4.3886 0.244415 3.57862 0.0760117 2.59766C0.0760117 2.59766 0.0760117 2.59766 0.0760117 2.59766Z" fill="#FDD107" fill-rule="evenodd" transform="translate(98.273 82.985)" />
      <path d="M0 0C0.579559 0.600235 1.32849 0.918282 2.06142 1.29508C4.97997 2.79439 7.9371 4.47498 10.706 6.2336C12.0599 7.09325 13.3263 8.12714 14.7122 8.92813C15.1309 9.1689 15.6277 9.43402 16.1226 9.43308C16.4858 9.43214 16.7925 9.27194 17.0352 9.00964C17.4821 8.52904 17.6402 7.88355 17.7362 7.25616C17.8773 7.39641 18.0099 7.53318 18.1285 7.69338C18.438 8.11496 18.6657 8.589 18.5613 9.12299C18.4089 9.894 17.6976 10.3502 17.0917 10.7615C16.5657 10.8093 16.1329 10.8205 15.6371 10.6079C14.0235 9.91649 11.582 8.29951 9.94583 7.37729C8.18266 6.38313 6.4383 5.35364 4.66949 4.36912C3.52351 3.73094 2.25993 3.15405 1.19018 2.40027C0.325531 1.79095 0.168404 0.980957 0 0C0 0 0 0 0 0Z" fill="#F38D0B" fill-rule="evenodd" transform="translate(98.35 85.583)" />
      <path d="M6.30235 0L6.53681 0.0653915C6.53681 0.0653915 6.54905 0.222124 6.54905 0.222124C6.27441 0.490995 1.06223 1.52095 0.276516 1.68846C0.276516 1.68846 0.0764923 1.70551 0.0764923 1.70551C0.0764923 1.70551 0 1.59787 0 1.59787C1.12677 0.953791 4.73544 0.549173 6.30235 0C6.30235 0 6.30235 0 6.30235 0Z" fill="#E6E3E3" fill-rule="evenodd" transform="translate(53.053 30.851)" />
      <path d="M4.04006 0C4.04006 0 4.05041 0.0364418 4.05041 0.0364418C4.00148 0.072979 0.363174 1.38351 0.0188217 1.4801C0.00376892 1.34613 -0.0263443 1.35579 0.0489273 1.26754C0.610619 0.609505 3.18764 0.15617 4.04006 0C4.04006 0 4.04006 0 4.04006 0Z" fill="#E6E3E3" fill-rule="evenodd" transform="translate(101.326 55.157)" />
    </g>
  </g>
</svg>