<svg width="64" height="148" viewBox="0 0 64 148" fill="none" xmlns="http://www.w3.org/2000/svg">
<path fill-rule="evenodd" clip-rule="evenodd" d="M0.673671 37.4776C1.96368 43.4786 4.35347 47.6257 8.30433 52.2751C10.2375 54.578 15.362 59.5713 18.1345 60.6908C18.155 61.0737 18.1449 62.0518 18.1323 63.2677C18.1008 66.3093 18.0539 70.8391 18.4325 71.2621C18.6744 71.4984 18.918 71.7492 19.1648 72.0033C19.8253 72.6833 20.5093 73.3875 21.2471 73.903C21.4117 74.3365 21.7149 74.6872 22.0155 75.035C22.3885 75.4666 22.7576 75.8937 22.8535 76.469C23.0145 80.1852 22.9839 83.9204 22.9533 87.6498C22.9405 89.2183 22.9276 90.7857 22.9291 92.3502L22.9401 122.106L22.9441 132.774C22.9434 133.3 22.9276 133.84 22.9116 134.386C22.8739 135.668 22.8354 136.98 22.9914 138.205C23.0797 138.898 23.8234 139.878 24.3187 140.344C25.5371 142.044 28.0718 144.797 29.6756 146.123C30.2528 146.6 30.8916 147.011 31.5241 147.418C31.6404 147.493 31.7564 147.567 31.8718 147.642C33.29 146.811 34.872 145.649 36.3685 144.55C37.0264 144.067 37.6679 143.596 38.2716 143.171C38.4257 142.299 38.4134 141.383 38.4013 140.484C38.3979 140.236 38.3946 139.99 38.3948 139.746L38.392 134.903L44.5706 134.905C44.8831 134.906 45.2002 134.913 45.519 134.92C46.2936 134.936 47.0782 134.953 47.8307 134.884L47.8433 134.883C48.1584 134.855 48.6214 134.814 48.8619 134.592C49.3191 134.171 49.2381 129.666 49.2025 127.691C49.196 127.329 49.1911 127.052 49.1912 126.901C48.9164 126.647 48.6465 126.383 48.3758 126.118C47.7287 125.485 47.0767 124.847 46.3404 124.337L45.6122 124.291C44.7403 124.284 43.8562 124.304 42.9694 124.324C41.4331 124.359 39.8891 124.394 38.3882 124.292L38.3967 119.403C40.0612 119.353 41.7285 119.372 43.3959 119.39C44.9914 119.407 46.5871 119.425 48.1807 119.383C48.3275 119.293 48.4799 119.192 48.6088 119.077C48.9296 118.791 49.0237 118.328 49.083 117.923C49.2299 116.914 49.2053 115.32 49.183 113.871C49.1714 113.121 49.1605 112.409 49.1743 111.838C49.0139 111.677 48.8529 111.512 48.6906 111.346C47.9455 110.581 47.1714 109.788 46.2915 109.22C45.933 109.017 45.7091 108.973 45.3017 108.976C44.682 109.011 44.0477 108.988 43.4155 108.966C43.0485 108.953 42.6823 108.94 42.3201 108.939C41.9466 108.937 41.5574 108.947 41.1625 108.958C40.2316 108.984 39.269 109.01 38.4042 108.874L38.3986 105.768H44.4615C44.7759 105.769 45.0965 105.777 45.4195 105.784C46.2634 105.805 47.1245 105.826 47.9389 105.733C48.2823 105.694 48.5561 105.637 48.8412 105.441C49.3331 104.523 49.2613 100.747 49.2184 98.4898C49.2085 97.9668 49.2001 97.5253 49.2006 97.2199C49.0511 97.0764 48.9018 96.9313 48.752 96.7857C47.9961 96.0507 47.2287 95.3045 46.3649 94.7111C44.9318 94.5183 43.4827 94.5686 42.036 94.6189C40.8109 94.6614 39.5875 94.7039 38.377 94.5986C38.375 92.2933 38.3868 89.9862 38.3986 87.6785C38.4216 83.1714 38.4447 78.6624 38.3657 74.1616C38.4628 73.9591 39.3619 73.9521 40.4221 73.9437C41.7755 73.9331 43.3915 73.9204 43.9365 73.4964C44.1538 73.1292 44.2451 72.746 44.2959 72.3235C44.399 71.4818 44.3781 70.5828 44.3575 69.7034C44.3494 69.3555 44.3413 69.0106 44.3411 68.6736C44.3251 66.3934 44.3382 64.1122 44.3787 61.8319L44.5076 61.7832C51.8473 58.9558 57.9516 52.7623 61.1072 45.6333C64.5206 37.9003 64.7295 29.1383 61.6896 21.2523C60.9058 19.24 59.9208 17.2314 58.7089 15.4413C55.5072 10.7135 50.0427 5.96971 44.7852 3.6696C43.9805 3.14619 42.9917 2.75827 42.0687 2.39615C41.8995 2.32978 41.7325 2.26427 41.5693 2.19895C36.118 0.018189 30.2921 -0.599373 24.5259 0.611207C16.0781 2.38491 9.5346 6.92528 4.84206 14.1268C0.469408 20.8372 -1.00153 29.6845 0.673671 37.4776ZM31.7238 25.1944C31.5983 25.2112 31.4752 25.2276 31.3554 25.2443C30.1135 25.3821 29.0152 25.4366 27.9735 24.6135C27.0562 23.8887 26.4659 22.721 26.3718 21.5638C26.2556 20.1332 26.8543 18.6313 27.7826 17.5578C28.9942 16.1567 30.7025 15.4356 32.5287 15.2863C33.5646 15.2086 34.5694 15.4529 35.4397 16.0257C36.4163 16.6694 37.2951 17.7369 37.5106 18.8982C37.8361 20.6544 37.0072 22.1531 35.9901 23.5073C35.0572 24.7489 33.2156 24.995 31.7238 25.1944Z" fill="#FDD107"/>
</svg>
