<svg width="33" height="33" viewBox="0 0 33 33" fill="none" xmlns="http://www.w3.org/2000/svg">
<path fill-rule="evenodd" clip-rule="evenodd" d="M30.9937 13.5498C30.9693 13.3459 31.1275 13.1539 31.3343 13.1299C31.541 13.1059 31.7357 13.2619 31.76 13.4659V13.4659C32.4412 19.4893 29.4124 25.3448 24.0725 28.3325C23.8901 28.4405 23.659 28.3685 23.5495 28.1885C23.44 28.0086 23.513 27.7806 23.6954 27.6726V27.6726C28.7799 24.8288 31.6627 19.2733 31.0058 13.5498H30.9937Z" fill="#3D7DBD"/>
<path fill-rule="evenodd" clip-rule="evenodd" d="M9.30582 2.63077C9.12337 2.72676 8.89226 2.65476 8.79495 2.46278C8.7098 2.2948 8.75845 2.07882 8.92875 1.97082C13.6239 -0.656942 19.3652 -0.656942 24.0604 1.97082C24.2429 2.07882 24.3037 2.30679 24.2064 2.48678C24.1091 2.66676 23.8658 2.72676 23.6833 2.63077V2.63077C19.2192 0.146987 13.7577 0.146987 9.30582 2.63077H9.30582Z" fill="#3D7DBD"/>
<path fill-rule="evenodd" clip-rule="evenodd" d="M9.30514 27.6726C9.4876 27.7806 9.54842 28.0086 9.45111 28.1885C9.3538 28.3685 9.11052 28.4285 8.92807 28.3325C3.57603 25.3448 0.54727 19.5013 1.2406 13.4659C1.26493 13.2619 1.44738 13.1059 1.66633 13.1299C1.87311 13.1539 2.03124 13.3339 2.00692 13.5498V13.5498C1.36224 19.2733 4.23287 24.8288 9.31731 27.6726H9.30514Z" fill="#3D7DBD"/>
<ellipse cx="16.4947" cy="25.3205" rx="2.0435" ry="2.01582" fill="#3D7DBD"/>
<path fill-rule="evenodd" clip-rule="evenodd" d="M20.2895 32.9998H12.6993C12.4926 32.9998 12.3223 32.8319 12.3223 32.6279V30.0961C12.3223 28.8602 13.344 27.8643 14.5969 27.8523H18.4041C19.657 27.8523 20.6666 28.8602 20.6787 30.0961V32.6279C20.6787 32.8319 20.5084 32.9998 20.3017 32.9998H20.2895Z" fill="#3D7DBD"/>
<ellipse cx="28.8033" cy="3.4106" rx="2.0435" ry="2.01582" fill="#3D7DBD"/>
<path fill-rule="evenodd" clip-rule="evenodd" d="M32.5981 11.0779H25.0079C24.8012 11.0779 24.6309 10.9099 24.6309 10.706V8.17419C24.6309 6.93829 25.6526 5.94238 26.9055 5.94238H30.7249C31.9777 5.94238 32.9873 6.95029 32.9995 8.17419V10.706C32.9995 10.9099 32.8292 11.0779 32.6103 11.0779V11.0779H32.5981Z" fill="#3D7DBD"/>
<ellipse cx="4.17241" cy="3.4106" rx="2.0435" ry="2.01582" fill="#3D7DBD"/>
<path fill-rule="evenodd" clip-rule="evenodd" d="M7.96723 11.0779H0.377076C0.170292 11.0779 0 10.9099 0 10.706V10.706V8.17419C0 6.93829 1.02175 5.94238 2.26245 5.94238H6.06969C7.32255 5.94238 8.33214 6.95029 8.34431 8.17419V10.706C8.34431 10.9099 8.17402 11.0779 7.96723 11.0779H7.96723Z" fill="#3D7DBD"/>
<path fill-rule="evenodd" clip-rule="evenodd" d="M17.1137 5.8823L21.225 6.71023C21.8818 6.83022 22.3927 7.33417 22.5143 7.98211L23.3536 12.0378C23.4753 12.5777 23.305 13.1297 22.9036 13.5136L14.3282 21.9729C13.6835 22.6088 12.6374 22.6088 11.9927 21.9729L7.0421 17.0893C6.39742 16.4534 6.39742 15.4215 7.0421 14.7855L15.6175 6.32626C16.0068 5.93029 16.5785 5.76231 17.1137 5.8823L17.1137 5.8823ZM20.2155 8.97816C20.0452 8.81018 19.7776 8.81018 19.6073 8.97816C19.437 9.14615 19.437 9.41012 19.6073 9.57811C19.7776 9.74609 20.0452 9.74609 20.2155 9.57811C20.3858 9.41012 20.3858 9.14615 20.2155 8.97816V8.97816V8.97816Z" fill="#3D7DBD"/>
<path fill-rule="evenodd" clip-rule="evenodd" d="M17.4063 24.421C16.6035 23.629 15.2168 24.193 15.2168 25.3209C15.2168 26.4488 16.6035 27.0127 17.4063 26.2208C17.905 25.7288 17.905 24.9249 17.4063 24.433V24.421Z" fill="#9BC9F2"/>
<path fill-rule="evenodd" clip-rule="evenodd" d="M14.4379 32.2441V31.1522C14.4379 30.9482 14.6082 30.7802 14.815 30.7802C15.0217 30.7802 15.192 30.9482 15.192 31.1522V31.1522V32.2441H17.7707V31.1522C17.7707 30.9482 17.941 30.7802 18.1478 30.7802C18.3546 30.7802 18.5249 30.9482 18.5249 31.1522V31.1522V32.2441H19.8751V30.0963C19.8751 29.2803 19.2061 28.6204 18.3668 28.6084H14.5474C13.7202 28.6084 13.0512 29.2683 13.0391 30.0963V32.2441H14.3892H14.4379Z" fill="#9BC9F2"/>
<path fill-rule="evenodd" clip-rule="evenodd" d="M29.7168 2.51081C28.914 1.71888 27.5273 2.28283 27.5273 3.41073C27.5273 4.53863 28.914 5.10258 29.7168 4.31065C30.2155 3.81869 30.2155 3.01476 29.7168 2.52281V2.52281V2.51081Z" fill="#9BC9F2"/>
<path fill-rule="evenodd" clip-rule="evenodd" d="M26.749 10.3222V9.23026C26.749 9.02628 26.9315 8.85829 27.1505 8.87029C27.3451 8.87029 27.5032 9.03828 27.5154 9.23026V10.3222H30.0941V9.23026C30.0941 9.02628 30.2644 8.85829 30.4711 8.85829C30.6779 8.85829 30.8482 9.02628 30.8482 9.23026V10.3222H32.1984V8.17435C32.1984 7.35843 31.5294 6.69849 30.7023 6.69849H26.8829C26.0557 6.69849 25.3867 7.35843 25.3867 8.17435V10.3222H26.7369L26.749 10.3222Z" fill="#9BC9F2"/>
<path fill-rule="evenodd" clip-rule="evenodd" d="M5.084 2.51081C4.28119 1.71888 2.89453 2.28283 2.89453 3.41073C2.89453 4.53863 4.28119 5.10258 5.084 4.31065C5.58271 3.81869 5.58271 3.01476 5.084 2.52281V2.52281V2.51081Z" fill="#9BC9F2"/>
<path fill-rule="evenodd" clip-rule="evenodd" d="M2.1284 10.3222V9.23026C2.1284 9.02628 2.2987 8.85829 2.50548 8.85829C2.71226 8.85829 2.88256 9.02628 2.88256 9.23026V10.3222H5.46126V9.23026C5.46126 9.02628 5.64372 8.85829 5.86266 8.87029C6.05728 8.87029 6.21541 9.03828 6.22757 9.23026V10.3222H7.57775V8.17435C7.57775 7.35843 6.90874 6.69849 6.06945 6.69849H2.26221C1.43507 6.69849 0.766069 7.35843 0.753906 8.17435V10.3222H2.11624L2.1284 10.3222Z" fill="#9BC9F2"/>
<path fill-rule="evenodd" clip-rule="evenodd" d="M21.0673 7.45445L16.9559 6.62652C16.664 6.56653 16.3599 6.65052 16.1531 6.8665L7.5777 15.3258C7.23712 15.6737 7.23712 16.2257 7.5777 16.5616L12.5283 21.4452C12.8811 21.7812 13.4406 21.7812 13.7812 21.4452L22.3566 12.986C22.5756 12.782 22.6607 12.482 22.5999 12.194L21.7606 8.13839C21.6876 7.79042 21.42 7.52644 21.0673 7.45445H21.0673ZM16.0924 15.6137L13.8786 17.7975V17.7975C13.7327 17.9415 13.4894 17.9415 13.3434 17.7975C13.2948 17.7495 13.2583 17.6895 13.2461 17.6295L12.869 16.2376L11.4702 15.8656C11.2634 15.8176 11.1296 15.6257 11.1783 15.4217C11.1904 15.3497 11.2269 15.2897 11.2877 15.2297L13.5015 13.0459L13.7327 12.302V11.57C13.7327 11.45 13.7935 11.342 13.8908 11.2821V11.2821L14.5111 10.8141L14.9855 10.2141C15.0585 10.1182 15.1923 10.0582 15.3139 10.0702H16.0316L16.7371 9.84218C16.8466 9.80618 16.9804 9.83018 17.0777 9.90217L17.6859 10.3101L18.4157 10.5621C18.5252 10.5981 18.6103 10.6821 18.6468 10.7901L18.9022 11.51L19.328 12.122C19.3888 12.218 19.4131 12.338 19.3766 12.4459L19.1577 13.1419V13.8738C19.1577 13.9938 19.0969 14.0898 18.9995 14.1618V14.1618L18.3792 14.6298L17.9048 15.2417C17.8318 15.3377 17.698 15.3977 17.5764 15.3857H16.8587L16.1046 15.6257V15.6257L16.0924 15.6137ZM20.7632 8.43829C21.5173 9.18222 20.9821 10.4541 19.9117 10.4541C18.8413 10.4541 18.3061 9.18222 19.0603 8.43829C19.5225 7.97033 20.2888 7.97033 20.751 8.43829V8.43829H20.7632ZM9.07396 16.1417C8.91583 15.9977 8.91583 15.7578 9.06179 15.6018C9.20776 15.4458 9.45103 15.4458 9.60916 15.5898C9.60916 15.5898 9.60916 15.5898 9.62132 15.6018L13.5137 19.4414C13.6597 19.5854 13.6597 19.8254 13.5137 19.9814C13.3677 20.1254 13.1245 20.1254 12.9663 19.9814V19.9814L9.07396 16.1417V16.1417Z" fill="#9BC9F2"/>
<path fill-rule="evenodd" clip-rule="evenodd" d="M18.1838 11.798L17.9649 11.1981L17.3567 10.9821V10.9821C17.2594 10.9461 16.8702 10.6701 16.7607 10.5981L16.1768 10.7781V10.7781C16.0795 10.8021 15.593 10.8021 15.4592 10.8021C14.9361 11.4741 15.1672 11.2341 14.4861 11.762C14.4861 12.566 14.5226 12.266 14.2793 13.0459C14.7537 13.7179 14.6077 13.4419 14.8875 14.2338L15.4957 14.4498V14.4498C15.5808 14.4858 15.9822 14.7618 16.0917 14.8338L16.6755 14.6538V14.6538C16.7729 14.6298 17.2594 14.6298 17.3932 14.6298C17.9162 13.9578 17.6851 14.1978 18.3663 13.6699C18.3663 12.8659 18.3298 13.1659 18.5731 12.386C18.5001 12.29 18.2082 11.882 18.1838 11.798V11.798Z" fill="#9BC9F2"/>
<path fill-rule="evenodd" clip-rule="evenodd" d="M13.8543 13.7537L12.2852 15.3015L13.2704 15.5655C13.4042 15.6015 13.5137 15.7095 13.538 15.8415L13.8056 16.8134L15.3747 15.2655L15.1923 15.1455L14.4625 14.8936C14.353 14.8576 14.2678 14.7736 14.2313 14.6656L13.9759 13.9456L13.8543 13.7657L13.8543 13.7537Z" fill="#9BC9F2"/>
</svg>
