<svg width="33" height="33" viewBox="0 0 33 33" fill="none" xmlns="http://www.w3.org/2000/svg">
<path fill-rule="evenodd" clip-rule="evenodd" d="M11.9854 31.1789H21.002C21.0868 31.1789 21.1595 31.1427 21.208 31.0824C21.2565 31.0221 21.2807 30.9377 21.2565 30.8653L20.1536 26.9453C20.1294 26.8368 20.0203 26.7644 19.9113 26.7644H13.0761C12.9671 26.7644 12.8701 26.8368 12.8338 26.9453L11.7309 30.8653C11.7188 30.9377 11.7309 31.0221 11.7794 31.0824C11.8279 31.1427 11.9006 31.1789 11.9854 31.1789ZM20.6869 30.6722H12.3248L13.2822 27.2588H19.7295L20.6869 30.6722Z" fill="#425761"/>
<path fill-rule="evenodd" clip-rule="evenodd" d="M9.74473 33H23.2453C23.3907 33 23.4998 32.8914 23.4998 32.7467V32.4572C23.4998 31.4802 22.6999 30.6721 21.7062 30.6721H11.2838C10.3022 30.6721 9.49023 31.4682 9.49023 32.4572V32.7467C9.49023 32.8914 9.5993 33 9.74473 33ZM23.0028 32.4933H10.0113V32.4571C10.0113 31.7576 10.5809 31.1786 11.2959 31.1786H21.7182C22.4211 31.1786 23.0028 31.7455 23.0028 32.4571V32.4933Z" fill="#425761"/>
<path fill-rule="evenodd" clip-rule="evenodd" d="M26.772 33H6.2545C6.10907 33 6 32.8914 6 32.7467C6 32.602 6.10907 32.4934 6.2545 32.4934H26.772C26.9174 32.4934 27.0265 32.602 27.0265 32.7467C27.0265 32.8914 26.9174 33 26.772 33V33Z" fill="#425761"/>
<path fill-rule="evenodd" clip-rule="evenodd" d="M3.65994 27.2589H29.3522L29.3401 27.2468C31.3518 27.2468 33 25.6185 33 23.6043V3.64256C33 1.64036 31.364 0 29.3401 0H3.65994C1.64818 0 0 1.6283 0 3.64256V23.6163C0 25.6185 1.63607 27.2589 3.65994 27.2589ZM0.508903 3.64247C0.508903 1.91768 1.92683 0.506487 3.65984 0.506487H29.34C31.073 0.506487 32.4909 1.91768 32.4909 3.64247V23.6042C32.4909 25.329 31.073 26.7402 29.34 26.7402H3.65984C1.92683 26.7402 0.508903 25.329 0.508903 23.6042V3.64247Z" fill="#425761"/>
<path fill-rule="evenodd" clip-rule="evenodd" d="M3.79407 21.5778H29.2197H29.2318C30.0075 21.5778 30.6255 20.9506 30.6255 20.1907V3.98009C30.6255 3.22021 29.9953 2.59302 29.2318 2.59302H3.79407C3.01846 2.59302 2.40039 3.22021 2.40039 3.98009V20.1907C2.40039 20.9506 3.03058 21.5778 3.79407 21.5778ZM2.90929 3.97999C2.90929 3.49753 3.30922 3.0995 3.79398 3.0995V3.09951H29.2318C29.7165 3.09951 30.1164 3.49754 30.1164 3.97999V20.1906C30.1164 20.6731 29.7165 21.0711 29.2318 21.0711H3.79398C3.30922 21.0711 2.90929 20.6731 2.90929 20.1906V3.97999Z" fill="#425761"/>
<path fill-rule="evenodd" clip-rule="evenodd" d="M3.79407 21.5778H29.2197H29.2318C30.0075 21.5778 30.6255 20.9506 30.6255 20.1907V3.98009C30.6255 3.22021 29.9953 2.59302 29.2318 2.59302H3.79407C3.01846 2.59302 2.40039 3.22021 2.40039 3.98009V20.1907C2.40039 20.9506 3.03058 21.5778 3.79407 21.5778ZM2.90929 3.97999C2.90929 3.49753 3.30922 3.0995 3.79398 3.0995V3.09951H29.2318C29.7165 3.09951 30.1164 3.49754 30.1164 3.97999V20.1906C30.1164 20.6731 29.7165 21.0711 29.2318 21.0711H3.79398C3.30922 21.0711 2.90929 20.6731 2.90929 20.1906V3.97999Z" fill="#425761"/>
<path fill-rule="evenodd" clip-rule="evenodd" d="M15.1367 24.1711C15.1367 24.9189 15.7427 25.534 16.5062 25.534C17.2575 25.534 17.8756 24.9189 17.8756 24.1711C17.8756 23.4232 17.2575 22.8081 16.5062 22.8081C15.7548 22.8081 15.1367 23.4232 15.1367 24.1711ZM15.6456 24.1589C15.6456 23.6885 16.0334 23.3025 16.5061 23.3025C16.9787 23.3025 17.3665 23.6885 17.3665 24.1589C17.3665 24.6293 16.9787 25.0152 16.5061 25.0152C16.0334 25.0152 15.6456 24.6293 15.6456 24.1589Z" fill="#425761"/>
<path fill-rule="evenodd" clip-rule="evenodd" d="M7.10215 6.85066H14.1069H14.1191C14.2645 6.85066 14.3735 6.74211 14.3735 6.59737V6.00635C14.3735 5.63245 14.0706 5.33091 13.6949 5.33091H11.2832C11.2347 5.33091 11.162 5.28267 11.162 5.28267L10.7015 4.82433C10.5803 4.70372 10.4106 4.63135 10.2289 4.63135H7.52632C7.15063 4.63135 6.84766 4.93288 6.84766 5.30679V6.59737C6.84766 6.7421 6.95673 6.85066 7.10215 6.85066ZM13.8402 6.33192H7.35654H7.34443V5.29463C7.34443 5.2102 7.41714 5.13783 7.50197 5.13783H10.2045C10.253 5.13783 10.3257 5.18608 10.3257 5.18608L10.7862 5.64442C10.9195 5.76503 11.0892 5.8374 11.271 5.8374H13.6827C13.7675 5.8374 13.8402 5.90977 13.8402 5.9942V6.33192Z" fill="#F7A1A4"/>
<path fill-rule="evenodd" clip-rule="evenodd" d="M7.86544 11.4702H13.3432C13.6826 11.4702 13.9855 11.229 14.0461 10.8913L14.7733 7.04367C14.8096 6.83862 14.749 6.63358 14.6157 6.46472C14.4824 6.30792 14.2885 6.21143 14.0704 6.21143H7.1383C6.93228 6.21143 6.72625 6.29586 6.59294 6.46472C6.44752 6.62151 6.39904 6.83862 6.4354 7.04367L7.16254 10.8913C7.22313 11.229 7.52611 11.4702 7.86544 11.4702ZM6.98066 6.77821C7.00489 6.75409 7.05337 6.70584 7.1382 6.70584H14.0581C14.143 6.70584 14.1915 6.75408 14.2157 6.77821C14.2169 6.78008 14.2182 6.78198 14.2195 6.78391C14.2436 6.81947 14.2757 6.867 14.2642 6.94707L13.537 10.7947C13.5249 10.8912 13.4401 10.9635 13.3431 10.9635H7.86534C7.75627 10.9635 7.68356 10.8912 7.65932 10.7947L6.93218 6.94707C6.92006 6.86264 6.95642 6.80233 6.98066 6.77821Z" fill="#F7A1A4"/>
<path fill-rule="evenodd" clip-rule="evenodd" d="M12.6288 9.55272H11.0533C10.9079 9.55272 10.7988 9.44417 10.7988 9.29943C10.7988 9.1547 10.9079 9.04614 11.0533 9.04614H12.6288C12.7742 9.04614 12.8833 9.1547 12.8833 9.29943C12.8833 9.44417 12.7742 9.55272 12.6288 9.55272V9.55272Z" fill="#F7A1A4"/>
<path fill-rule="evenodd" clip-rule="evenodd" d="M11.8411 10.5898H11.0533C10.9079 10.5898 10.7988 10.4813 10.7988 10.3365C10.7988 10.1918 10.9079 10.0833 11.0533 10.0833H11.8411C11.9865 10.0833 12.0956 10.1918 12.0956 10.3365C12.0956 10.4813 11.9865 10.5898 11.8411 10.5898V10.5898Z" fill="#F7A1A4"/>
<path fill-rule="evenodd" clip-rule="evenodd" d="M18.9049 6.85066H25.9097H25.9218C26.0672 6.85066 26.1763 6.74211 26.1763 6.59737V6.00635C26.1763 5.63245 25.8733 5.33091 25.4976 5.33091H23.0859C23.0375 5.33091 22.9648 5.28267 22.9648 5.28267L22.5042 4.82433C22.383 4.70372 22.2134 4.63135 22.0316 4.63135H19.3291C18.9534 4.63135 18.6504 4.93288 18.6504 5.30679V6.59737C18.6504 6.7421 18.7595 6.85066 18.9049 6.85066ZM25.6429 6.33192H19.1593H19.1472V5.29463C19.1472 5.2102 19.2199 5.13783 19.3047 5.13783H22.0072C22.0557 5.13783 22.1284 5.18608 22.1284 5.18608L22.589 5.64442C22.7223 5.76503 22.8919 5.8374 23.0737 5.8374H25.4854C25.5702 5.8374 25.6429 5.90977 25.6429 5.9942V6.33192Z" fill="#F7A1A4"/>
<path fill-rule="evenodd" clip-rule="evenodd" d="M19.6701 11.4702H25.1479C25.4872 11.4702 25.7902 11.229 25.8508 10.8913L26.578 7.04367C26.6143 6.83862 26.5537 6.63358 26.4204 6.46472C26.2871 6.30792 26.0932 6.21143 25.8751 6.21143H18.943C18.737 6.21143 18.5309 6.29586 18.3976 6.46472C18.2522 6.62151 18.2037 6.83862 18.2401 7.04367L18.9672 10.8913C19.0278 11.229 19.3308 11.4702 19.6701 11.4702ZM18.7853 6.77821C18.8096 6.75409 18.8581 6.70584 18.9429 6.70584H25.8628C25.9477 6.70584 25.9961 6.75408 26.0204 6.77821C26.0216 6.78008 26.0229 6.78197 26.0242 6.78391C26.0482 6.81947 26.0804 6.867 26.0689 6.94707L25.3417 10.7947C25.3296 10.8912 25.2448 10.9635 25.1478 10.9635H19.67C19.561 10.9635 19.4882 10.8912 19.464 10.7947L18.7369 6.94707C18.7248 6.86264 18.7611 6.80233 18.7853 6.77821Z" fill="#F7A1A4"/>
<path fill-rule="evenodd" clip-rule="evenodd" d="M24.4315 9.55272H22.8561C22.7106 9.55272 22.6016 9.44417 22.6016 9.29943C22.6016 9.1547 22.7106 9.04614 22.8561 9.04614H24.4315C24.577 9.04614 24.686 9.1547 24.686 9.29943C24.686 9.44417 24.577 9.55272 24.4315 9.55272V9.55272Z" fill="#F7A1A4"/>
<path fill-rule="evenodd" clip-rule="evenodd" d="M23.6438 10.5898H22.8561C22.7106 10.5898 22.6016 10.4813 22.6016 10.3365C22.6016 10.1918 22.7106 10.0833 22.8561 10.0833H23.6438C23.7892 10.0833 23.8983 10.1918 23.8983 10.3365C23.8983 10.4813 23.7892 10.5898 23.6438 10.5898V10.5898Z" fill="#F7A1A4"/>
<path fill-rule="evenodd" clip-rule="evenodd" d="M7.10215 14.92H14.1069H14.1191C14.2645 14.92 14.3735 14.8114 14.3735 14.6667V14.0757C14.3735 13.7018 14.0706 13.4002 13.6949 13.4002H11.2832C11.2347 13.4002 11.162 13.352 11.162 13.352L10.7015 12.8937C10.5803 12.7731 10.4106 12.7007 10.2289 12.7007H7.52632C7.15063 12.7007 6.84766 13.0022 6.84766 13.3761V14.6667C6.84766 14.8114 6.95673 14.92 7.10215 14.92ZM13.8402 14.4133H7.35654H7.34443V13.376C7.34443 13.2916 7.41714 13.2192 7.50197 13.2192H10.2045C10.253 13.2192 10.3257 13.2675 10.3257 13.2675L10.7862 13.7258C10.9195 13.8464 11.0892 13.9188 11.271 13.9188H13.6827C13.7675 13.9188 13.8402 13.9912 13.8402 14.0756V14.4133Z" fill="#F7A1A4"/>
<path fill-rule="evenodd" clip-rule="evenodd" d="M7.86544 19.5393H13.3432C13.6826 19.5393 13.9855 19.2981 14.0461 18.9604L14.7733 15.1128C14.8096 14.9077 14.749 14.7027 14.6157 14.5338C14.4824 14.377 14.2885 14.2805 14.0704 14.2805H7.1383C6.93228 14.2805 6.72625 14.3649 6.59294 14.5338C6.44752 14.6906 6.39904 14.9077 6.4354 15.1128L7.16254 18.9604C7.22313 19.2981 7.52611 19.5393 7.86544 19.5393ZM6.98066 14.8473C7.00489 14.8232 7.05337 14.7749 7.1382 14.7749H14.0581C14.143 14.7749 14.1915 14.8232 14.2157 14.8473C14.2169 14.8492 14.2182 14.8511 14.2195 14.853C14.2436 14.8886 14.2757 14.9361 14.2642 15.0162L13.537 18.8638C13.5249 18.9603 13.4401 19.0326 13.3431 19.0326H7.86534C7.75627 19.0326 7.68356 18.9603 7.65932 18.8638L6.93218 15.0162C6.92006 14.9317 6.95642 14.8714 6.98066 14.8473Z" fill="#F7A1A4"/>
<path fill-rule="evenodd" clip-rule="evenodd" d="M12.6288 17.6218H11.0533C10.9079 17.6218 10.7988 17.5133 10.7988 17.3685C10.7988 17.2238 10.9079 17.1152 11.0533 17.1152H12.6288C12.7742 17.1152 12.8833 17.2238 12.8833 17.3685C12.8833 17.5133 12.7742 17.6218 12.6288 17.6218V17.6218Z" fill="#F7A1A4"/>
<path fill-rule="evenodd" clip-rule="evenodd" d="M11.8411 18.6709H11.0533C10.9079 18.6709 10.7988 18.5623 10.7988 18.4176C10.7988 18.2729 10.9079 18.1643 11.0533 18.1643H11.8411C11.9865 18.1643 12.0956 18.2729 12.0956 18.4176C12.0956 18.5623 11.9865 18.6709 11.8411 18.6709V18.6709Z" fill="#F7A1A4"/>
<path fill-rule="evenodd" clip-rule="evenodd" d="M18.9049 14.92H25.9097H25.9218C26.0672 14.92 26.1763 14.8114 26.1763 14.6667V14.0757C26.1763 13.7018 25.8733 13.4002 25.4976 13.4002H23.0859C23.0375 13.4002 22.9648 13.352 22.9648 13.352L22.5042 12.8937C22.383 12.7731 22.2134 12.7007 22.0316 12.7007H19.3291C18.9534 12.7007 18.6504 13.0022 18.6504 13.3761V14.6667C18.6504 14.8114 18.7595 14.92 18.9049 14.92ZM25.6429 14.4133H19.1593H19.1472V13.376C19.1472 13.2916 19.2199 13.2192 19.3047 13.2192H22.0072C22.0557 13.2192 22.1284 13.2675 22.1284 13.2675L22.589 13.7258C22.7223 13.8464 22.8919 13.9188 23.0737 13.9188H25.4854C25.5702 13.9188 25.6429 13.9912 25.6429 14.0756V14.4133Z" fill="#F7A1A4"/>
<path fill-rule="evenodd" clip-rule="evenodd" d="M19.6701 19.5393H25.1479C25.4872 19.5393 25.7902 19.2981 25.8508 18.9604L26.578 15.1128C26.6143 14.9077 26.5537 14.7027 26.4204 14.5338C26.2871 14.377 26.0932 14.2805 25.8751 14.2805H18.943C18.737 14.2805 18.5309 14.3649 18.3976 14.5338C18.2522 14.6906 18.2037 14.9077 18.2401 15.1128L18.9672 18.9604C19.0278 19.2981 19.3308 19.5393 19.6701 19.5393ZM18.7853 14.8473C18.8096 14.8232 18.8581 14.7749 18.9429 14.7749H25.8628C25.9477 14.7749 25.9961 14.8232 26.0204 14.8473C26.0216 14.8492 26.0229 14.8511 26.0242 14.853C26.0482 14.8886 26.0804 14.9361 26.0689 15.0162L25.3417 18.8638C25.3296 18.9603 25.2448 19.0326 25.1478 19.0326H19.67C19.561 19.0326 19.4882 18.9603 19.464 18.8638L18.7369 15.0162C18.7248 14.9317 18.7611 14.8714 18.7853 14.8473Z" fill="#F7A1A4"/>
<path fill-rule="evenodd" clip-rule="evenodd" d="M24.4315 17.6218H22.8561C22.7106 17.6218 22.6016 17.5133 22.6016 17.3685C22.6016 17.2238 22.7106 17.1152 22.8561 17.1152H24.4315C24.577 17.1152 24.686 17.2238 24.686 17.3685C24.686 17.5133 24.577 17.6218 24.4315 17.6218V17.6218Z" fill="#F7A1A4"/>
<path fill-rule="evenodd" clip-rule="evenodd" d="M23.6438 18.6709H22.8561C22.7106 18.6709 22.6016 18.5623 22.6016 18.4176C22.6016 18.2729 22.7106 18.1643 22.8561 18.1643H23.6438C23.7892 18.1643 23.8983 18.2729 23.8983 18.4176C23.8983 18.5623 23.7892 18.6709 23.6438 18.6709V18.6709Z" fill="#F7A1A4"/>
</svg>
