<svg width="32" height="33" viewBox="0 0 32 33" fill="none" xmlns="http://www.w3.org/2000/svg">
<path fill-rule="evenodd" clip-rule="evenodd" d="M9.64807 3.80402L5.34007 4.90802L1.03207 3.80402V2.71202H9.66007V3.80402H9.64807ZM2.51989 7.81199H3.41989C3.67189 7.81199 3.87589 8.01599 3.87589 8.26799C3.87589 8.51998 3.67189 8.72398 3.41989 8.72398H2.51989C2.26789 8.72398 2.06389 8.51998 2.06389 8.26799C2.06389 8.01599 2.26789 7.81199 2.51989 7.81199Z" fill="#57A4FF"/>
<path fill-rule="evenodd" clip-rule="evenodd" d="M12.4912 5.7359C12.4552 5.3999 12.4552 5.0639 12.4912 4.7279L13.1872 4.5359C13.3312 4.4999 13.4512 4.3799 13.4992 4.2359C13.5592 4.0199 13.6432 3.8159 13.7512 3.6239C13.8232 3.4919 13.8232 3.3239 13.7512 3.1919L13.3912 2.5559C13.5952 2.2919 13.8352 2.0519 14.0992 1.8479L14.7352 2.2079C14.8672 2.2799 15.0352 2.2799 15.1672 2.2079C15.3592 2.0999 15.5632 2.0159 15.7792 1.9559C15.9232 1.9079 16.0432 1.7879 16.0792 1.6439L16.2712 0.947898C16.6072 0.911899 16.9432 0.911899 17.2792 0.947898L17.4712 1.6439C17.5072 1.7879 17.6272 1.9079 17.7712 1.9559C17.9872 2.0159 18.1912 2.0999 18.3832 2.2079C18.5152 2.2799 18.6832 2.2799 18.8152 2.2079L19.4512 1.8479C19.7152 2.0519 19.9552 2.2919 20.1592 2.5559L19.7992 3.1919C19.7272 3.3239 19.7152 3.4919 19.7992 3.6239C19.9072 3.8159 19.9912 4.0199 20.0512 4.2359C20.0992 4.3799 20.2192 4.4999 20.3632 4.5359L21.0592 4.7279C21.0952 5.0639 21.0952 5.3999 21.0592 5.7359L20.3632 5.9279C20.2192 5.9639 20.0992 6.0839 20.0512 6.2279C19.9912 6.4439 19.9072 6.6479 19.7992 6.8399C19.7272 6.9719 19.7272 7.1399 19.7992 7.2719L20.1592 7.9079C19.9552 8.1719 19.7152 8.4119 19.4512 8.6279L18.8152 8.2679C18.6832 8.1959 18.5152 8.1959 18.3832 8.2679C18.1912 8.3759 17.9872 8.4599 17.7712 8.5199C17.6272 8.5679 17.5072 8.6879 17.4712 8.8319L17.2792 9.5279C16.9432 9.5639 16.6072 9.5639 16.2712 9.5279L16.0792 8.8319C16.0432 8.6879 15.9232 8.5679 15.7792 8.5199C15.5632 8.4599 15.3592 8.3639 15.1672 8.2679C15.0352 8.1959 14.8672 8.1959 14.7352 8.2679L14.0992 8.6279C13.8352 8.4239 13.5952 8.1839 13.3912 7.9079L13.7512 7.2719C13.8232 7.1399 13.8232 6.9719 13.7512 6.8399C13.6432 6.6479 13.5592 6.4439 13.4992 6.2279C13.4512 6.0839 13.3312 5.9639 13.1872 5.9279L12.4912 5.7359ZM1.04325 2.71186H9.65925V3.80386L5.35125 4.90786L1.04325 3.80386V2.71186ZM16.7874 7.692C15.4314 7.692 14.3274 6.588 14.3274 5.232C14.3274 3.876 15.4314 2.772 16.7874 2.772C18.1434 2.772 19.2474 3.876 19.2474 5.232C19.2474 6.588 18.1434 7.692 16.7874 7.692ZM28.4634 1.54795V3.09595H30.0114L28.4634 1.54795ZM25.607 26.2561C25.547 26.2561 25.439 26.2081 25.439 26.2081H25.415L25.187 25.4401H26.639L26.411 26.2081C26.363 26.2441 26.303 26.2561 26.243 26.2561H25.607ZM25.6673 27.156L25.4273 30.132L25.9193 30.636L26.4113 30.132L26.1713 27.156H25.6673ZM7.33119 26.2561C7.27119 26.2561 7.16319 26.2081 7.16319 26.2081H7.13919L6.91119 25.4401H8.36319L8.13519 26.2081C8.08719 26.2441 8.02719 26.2561 7.96719 26.2561H7.33119ZM7.39147 27.156L7.15147 30.132L7.64347 30.636L8.13547 30.132L7.89547 27.156H7.39147ZM18.4433 25.4516C19.4153 25.5356 20.3273 25.9796 20.9753 26.7116H20.9633C20.9753 26.7236 20.9873 26.7386 20.9993 26.7536C21.0113 26.7686 21.0233 26.7836 21.0353 26.7956C21.4913 27.3476 21.7433 28.0436 21.7433 28.7636V32.0876H11.7953V28.7636C11.7953 28.0436 12.0473 27.3476 12.5033 26.7956L12.5033 26.7956C12.5273 26.7716 12.5513 26.7476 12.5753 26.7116C13.2233 25.9796 14.1353 25.5356 15.1073 25.4516L15.4193 26.4716C15.4553 26.6036 15.5393 26.7356 15.6353 26.8316L15.3593 30.2516C15.3473 30.3836 15.3953 30.5036 15.4913 30.5996L16.4513 31.5716C16.5353 31.6556 16.6553 31.7036 16.7753 31.7036C16.8953 31.7036 17.0153 31.6556 17.0993 31.5716L18.0593 30.5996C18.1553 30.5156 18.1913 30.3836 18.1913 30.2516L17.9153 26.8316C18.0113 26.7356 18.0833 26.6036 18.1313 26.4716L18.4433 25.4516Z" fill="#9BC9FF"/>
</svg>
