<svg width="33" height="33" viewBox="0 0 33 33" fill="none" xmlns="http://www.w3.org/2000/svg">
<path fill-rule="evenodd" clip-rule="evenodd" d="M15.0974 0.317719L7.23977 4.8647C7.32531 7.13217 7.28865 9.45993 7.30087 11.7395C7.23977 12.837 7.53306 13.1506 8.6451 13.0782C9.6105 13.0662 10.9669 13.0662 11.9323 13.0662C13.6798 12.9335 13.8265 13.9225 14.6208 15.1407C15.1829 14.2602 15.6473 12.9697 16.9426 13.0662C18.2258 13.0903 19.6311 13.0903 20.9142 13.1144C21.4886 13.1868 22.0262 12.8611 22.0262 12.246C22.0507 9.83383 22.0262 7.36133 22.124 4.96119C22.0873 3.42945 19.7411 4.08074 18.6901 3.91189C19.2523 4.8044 19.8388 5.86577 20.401 6.75828C21.3175 8.31414 18.9712 9.65291 18.018 8.14529C16.5638 8.49506 15.0852 8.67597 13.6432 9.07399C14.0831 9.35139 14.3153 9.83383 14.5963 10.2439C15.3418 11.1364 15.134 11.848 14.1198 12.3666C13.1788 12.8611 12.6533 12.1254 12.2378 11.3776C11.969 10.8349 11.578 10.3042 11.5657 9.67704C9.72048 10.1715 8.26627 8.02468 9.30499 6.49294C10.0993 5.57631 11.0647 4.78028 11.8712 3.85159C10.6126 3.9722 9.37831 3.98426 8.11963 4.00838C7.66748 4.00838 7.21533 4.40639 7.21533 4.86471V4.86471L15.0974 0.317719ZM13.5943 11.4138V11.4138C13.5943 11.4138 13.5821 11.4138 13.5943 11.4138V11.4138ZM14.0343 11.1486C13.8999 11.221 13.7777 11.2934 13.6554 11.3899C13.2522 10.7145 12.8611 10.027 12.3112 9.47217C12.5434 9.39981 12.8611 9.31538 13.1055 9.24302C13.24 9.36363 13.2277 9.56866 13.3377 9.71339C13.4844 10.2079 13.8265 10.6662 14.0465 11.1486V11.1486H14.0343ZM14.0341 11.1605C14.0341 11.1605 14.0586 11.2088 14.0586 11.2329C14.0341 11.2329 14.0097 11.1846 14.0341 11.1605V11.1605ZM12.8611 4.49089C13.521 3.69486 13.9853 2.77823 14.4864 1.89778C15.4029 3.8999 16.6005 5.81759 17.737 7.6991C16.906 7.75941 16.0506 7.66292 15.2196 7.83177C13.8876 8.00063 12.58 8.36246 11.2847 8.6881C10.6614 8.77253 10.0382 8.1936 10.1238 7.56643C10.1604 7.16842 10.5026 6.91514 10.7714 6.6498C11.5046 5.97438 12.2012 5.25073 12.8489 4.50295L12.8611 4.49089ZM6.12772 12.0893C6.12772 9.78563 6.16438 7.39756 6.18882 5.09391C6.13993 4.06873 7.01979 3.09179 8.08295 3.12797C9.46384 3.22446 10.8692 3.28476 12.2378 3.51392C12.8733 2.72996 13.5332 1.97012 14.2908 1.2947C14.1931 0.75196 14.4375 0.173033 15.0607 0.233338C14.8652 0.474557 14.8652 0.76402 14.9385 1.05348C16.4294 3.07973 17.688 5.34719 18.9712 7.5061C19.13 7.89205 19.6433 7.7232 19.4844 7.32519C18.6657 5.80551 17.798 4.27376 16.9548 2.75408C16.5516 2.07867 16.2094 1.34295 15.8672 0.63135C15.5373 0.26952 15.5373 0.39013 15.1096 0.329825C15.1462 0.305703 15.1707 0.281582 15.1096 0.329825C15.134 0.26952 15.1951 0.257459 15.2318 0.221276C15.1707 0.221276 15.2073 0.185094 15.2196 0.14891C15.1951 0.124788 15.1585 0.14891 15.134 0.14891C16.4294 -0.767724 17.8714 2.81438 18.5312 3.62247C23.1749 3.07973 22.9794 3.59835 22.9794 7.91618C22.9794 8.94136 23.0038 9.9786 23.0161 11.0038C23.2727 13.7416 22.2829 14.2964 19.6677 14.1276H17.1381C16.8693 14.1035 16.5638 14.1517 16.4049 14.3929C16.2094 14.7065 16.0139 15.0563 15.8306 15.3819C15.4273 15.8282 15.2073 17.1066 14.413 16.7448C14.2419 16.6724 14.1075 16.3347 14.0098 16.2021L13.4599 15.2975C13.1421 14.9236 12.9955 14.1517 12.3845 14.212C10.3559 14.019 6.1155 15.2854 6.16438 12.1134V12.1134L6.12772 12.0893ZM3.81808 29.7949C3.96472 29.9275 4.1358 29.8793 4.30688 29.9034C8.1196 30.2049 12.0789 30.3376 15.8917 29.9034C15.9772 29.819 16.0872 29.8552 16.1727 29.7949C16.1972 29.7587 16.2338 29.7708 16.2705 29.7587C16.2949 29.7225 16.3194 29.7104 16.356 29.6984C15.4517 28.5526 11.0891 29.1436 9.5738 29.0833C7.67967 29.228 5.72443 28.9506 3.91584 29.614C3.85473 29.6381 3.9525 29.6501 3.9525 29.6743C3.9525 29.7104 3.90361 29.7346 3.9525 29.7466C3.90361 29.7708 3.86695 29.7587 3.83029 29.7949C3.83029 29.7949 3.83029 29.8069 3.84251 29.819V29.819L3.81808 29.7949ZM3.81808 26.9965C3.96472 27.1292 4.1358 27.0809 4.30688 27.093C8.1196 27.3945 12.0789 27.5272 15.8917 27.093C15.9772 27.0086 16.0872 27.0448 16.1727 26.9844C16.1972 26.9483 16.2338 26.9603 16.2705 26.9483C16.2949 26.9121 16.3194 26.9 16.356 26.888C15.4517 25.7422 11.0891 26.3211 9.5738 26.2729C7.67967 26.4176 5.72443 26.1402 3.91584 26.8035C3.85473 26.8277 3.9525 26.8518 3.9525 26.8638C3.9525 26.9 3.90361 26.9241 3.9525 26.9362C3.90361 26.9603 3.86695 26.9362 3.83029 26.9845C3.83029 26.9845 3.83029 26.9965 3.84251 27.0086V27.0086L3.81808 26.9965ZM3.81808 24.1986C3.96472 24.3312 4.1358 24.283 4.30688 24.2951C8.1196 24.5966 12.0789 24.7293 15.8917 24.2951C15.9772 24.2106 16.0872 24.2468 16.1727 24.1865C16.1972 24.1503 16.2338 24.1624 16.2705 24.1383C16.2949 24.1021 16.3194 24.09 16.356 24.078C15.4517 22.9322 11.0891 23.5111 9.5738 23.4628C7.67967 23.6076 5.72443 23.3302 3.91584 23.9935C3.85473 24.0177 3.9525 24.0418 3.9525 24.0538C3.9525 24.09 3.90361 24.1141 3.9525 24.1383C3.90361 24.1624 3.86695 24.1383 3.83029 24.1865C3.83029 24.1865 3.83029 24.1986 3.84251 24.2106V24.2106L3.81808 24.1986ZM3.80584 21.3762C3.97693 21.5692 4.29465 21.4365 4.35575 21.5209C4.79568 21.533 5.28449 21.5933 5.73664 21.6415C9.12164 21.7019 12.5433 21.9551 15.9039 21.4848C15.9894 21.4003 16.0994 21.4365 16.1849 21.3762C16.2094 21.34 16.246 21.3521 16.2827 21.328C16.3071 21.2918 16.3316 21.2797 16.3682 21.2677C15.4639 20.1219 11.1013 20.7008 9.58601 20.6525C7.69187 20.7973 5.73664 20.5199 3.92804 21.1832C3.86694 21.2074 3.9647 21.2194 3.9647 21.2435C3.9647 21.2797 3.91582 21.3038 3.9647 21.3159C3.91582 21.34 3.87916 21.328 3.8425 21.3641V21.3641L3.80584 21.3762ZM26.12 28.649C26.0222 27.9253 25.4478 27.2016 24.6413 27.262C24.5558 27.274 24.1158 27.274 24.2503 27.4067C24.2503 27.4308 24.2136 27.467 24.2503 27.479C24.2136 27.4911 24.1892 27.479 24.1647 27.5273C24.238 27.6961 24.4702 27.6358 24.4824 27.7203C24.4824 27.7685 24.5558 27.7444 24.5924 27.7565C25.3012 28.1424 25.4601 29.3847 24.568 29.6862C23.1504 30.2651 22.6739 28.2027 23.8592 27.6961C23.9203 27.5997 23.9814 27.5997 24.0425 27.5273C24.0547 27.4911 24.0792 27.5032 24.1036 27.479C24.1036 27.4429 24.1403 27.4308 24.1647 27.4187C23.8103 26.8036 22.8327 27.1293 22.4783 27.6117C20.3031 30.8199 26.2544 32.4482 26.1322 28.649V28.649L26.12 28.649ZM23.8959 22.5221C23.8959 22.5221 23.957 22.4256 23.9937 22.4015C24.0181 22.4015 24.0425 22.4015 24.0425 22.3653C24.0425 22.2809 24.0914 22.305 24.1036 22.2447C24.1036 22.2085 24.1159 22.2205 24.1281 22.1964C24.1281 22.1602 24.1403 22.1482 24.1525 22.1361C23.6148 21.0024 22.1728 22.5462 22.8938 23.5593C23.5659 24.7413 25.5945 24.1744 25.4234 22.7995C25.4234 22.2085 24.6902 21.6054 24.177 22.0758C24.2136 22.112 24.177 22.1482 24.1892 22.1844C24.1036 22.2205 24.177 22.3773 24.2503 22.3532C24.3114 22.3894 24.2381 22.4376 24.3236 22.4135C24.3725 22.4135 24.3847 22.4979 24.4091 22.5341C24.4214 22.5341 24.4458 22.5824 24.4336 22.5944C24.4091 22.6306 24.4336 22.6186 24.4336 22.6427C24.7024 23.1372 23.737 23.3302 23.8714 22.7392C23.8714 22.715 23.8714 22.6909 23.8714 22.6668C23.8714 22.6427 23.847 22.6186 23.8714 22.6065C23.8714 22.5944 23.8714 22.5824 23.8714 22.5824C23.8714 22.5824 23.8592 22.5341 23.8714 22.5221V22.5221H23.8959ZM27.1099 22.5703C27.3176 27.9857 18.8734 26.0439 21.5008 21.2798C21.9896 20.4717 23.346 19.736 24.1526 20.4597C23.9815 20.5682 23.7737 20.6285 23.6149 20.7612C21.9163 21.316 21.623 23.9453 23.4071 24.6448C24.397 25.067 25.6801 24.5001 26.0589 23.5111C26.45 22.5221 25.8878 21.316 24.9469 20.8577C24.8736 20.8215 24.7758 20.8577 24.7391 20.7853C24.6903 20.6888 24.3237 20.7371 24.1526 20.5562C24.2015 20.52 24.2503 20.532 24.2992 20.5079C24.2503 20.4838 24.2992 20.4597 24.2992 20.4355C24.287 20.4114 24.2503 20.4235 24.2381 20.3994C25.6312 19.9893 26.9632 21.1954 27.0977 22.5583L27.1099 22.5703ZM28.1853 19.5792C28.173 23.0166 28.1242 26.7676 28.1242 30.2049C28.0997 30.8562 28.3441 31.8211 27.3543 31.7849C24.9713 31.7849 22.3196 31.7849 19.9244 31.7849C20.2177 27.5515 20.3765 23.101 19.9122 18.8556C21.8185 18.8556 23.7249 18.8676 25.6312 18.8797C26.3767 19.0003 28.1608 18.4817 28.1975 19.5792V19.5792H28.1853ZM24.7758 17.9269C25.3379 17.9269 26.0956 17.9269 26.6577 17.9269C26.3522 15.7559 26.3278 13.5005 26.34 11.2933C25.8756 11.3295 25.4357 11.5104 24.9835 11.4501C24.9835 13.609 24.898 15.7921 24.7758 17.9389V17.9389L24.7758 17.9269ZM25.0079 10.0268V10.2922C25.4601 10.2681 25.8878 10.2439 26.3277 10.3525C26.3155 10.0268 26.3277 9.64089 26.3155 9.30318C26.3155 8.68807 25.4478 8.48304 25.1423 9.01372C24.9713 9.2067 25.0324 9.79768 25.0079 10.0268L25.0079 10.0268ZM29.2484 30.9646C29.3584 31.9294 28.5641 32.8702 27.562 32.8823C27.342 32.8823 26.4988 32.8823 26.2544 32.8823C17.908 32.822 9.46384 33.232 1.14186 32.7978C0.408647 32.5204 -0.0557202 31.7606 0.00537998 30.9887C0.0420403 28.8298 0.0176005 26.6588 0.127583 24.5119C0.213124 23.0405 0.237565 21.5329 0.347547 20.0614C0.323106 19.1086 0.701934 18.385 1.80175 18.4694C0.494191 18.6865 0.873017 19.977 0.921898 20.9057C0.921898 24.2225 1.0441 27.5634 1.09298 30.8801C1.0441 31.5073 1.39849 31.8812 2.04616 31.8088C7.85077 31.8088 13.6676 31.8088 19.4722 31.7847C18.9467 29.8188 19.2156 27.7443 19.0689 25.7301C19.0812 23.4506 18.6901 21.0746 19.3378 18.8674C13.4965 18.795 7.6308 18.8674 1.80175 18.59C2.05838 18.5538 2.35166 18.5538 2.60829 18.5418C2.35166 18.5176 2.52275 18.5176 2.64495 18.4694C2.55941 18.4453 2.38832 18.4573 2.29056 18.4332C9.61048 17.9387 17.0404 17.999 24.4092 17.9387C24.0181 15.9969 24.0303 14.0068 23.9937 12.0288C24.067 10.9434 23.6515 9.0136 24.397 8.19345C25.3501 7.08384 27.3054 7.72307 27.4642 9.14627C27.5009 12.053 27.7331 15.0682 27.0854 17.9267C28.4663 17.794 29.3339 18.6503 29.2117 20.0253C29.2117 23.4626 29.2362 27.5634 29.2606 30.9766V30.9766L29.2484 30.9646ZM30.2015 8.38669C30.2382 8.76058 30.0427 9.23096 29.6639 9.33951C29.6516 9.32745 29.6394 9.31539 29.6028 9.30333C29.5783 9.29127 29.6028 9.26714 29.5539 9.25508C29.4928 9.2189 29.5172 9.1586 29.4317 9.13447C29.395 9.11035 29.4072 9.06211 29.395 9.03799C29.3461 8.91738 29.3217 8.77264 29.2362 8.67616C29.0284 8.37463 28.9429 7.98868 28.7351 7.66304C28.1241 6.69816 27.061 5.91419 25.9367 5.6971C25.9122 5.6971 25.9122 5.64885 25.9 5.64885C25.79 5.62473 25.7167 5.64885 25.6678 5.51618C25.6801 5.48 25.7045 5.49206 25.7289 5.46794C25.6923 5.43176 25.7656 5.39557 25.7045 5.35939C27.3909 4.26184 30.1038 6.62579 30.1893 8.38669V8.38669H30.2015ZM33 8.31431C32.9144 8.70026 32.8778 9.13446 32.499 9.33949C32.4867 9.31537 32.4745 9.29125 32.4379 9.26713C32.4134 9.243 32.4379 9.20682 32.389 9.19476C32.3156 9.13446 32.3523 9.03797 32.2668 8.97766C31.668 5.95036 29.2606 3.29695 26.12 2.86275C25.9856 2.77833 25.7778 2.87481 25.6678 2.70596C25.6923 2.66978 25.7289 2.66978 25.7778 2.65772C25.7412 2.63359 25.7778 2.60947 25.7778 2.58535C25.6434 2.51298 25.8634 2.4768 25.9245 2.46474C29.2606 1.69284 32.9511 5.05785 33 8.32637V8.32637L33 8.31431Z" fill="#425761"/>
</svg>
