<?xml version="1.0" encoding="utf-8"?>
<svg width="67.736" height="74.033" viewBox="0 0 67.736 74.033" fill="none" xmlns="http://www.w3.org/2000/svg">
  <g transform="matrix(0.966 -0.259 0.259 0.966 0 13.827)">
    <g transform="scale(1 1)">
      <path d="M43.0428 4.26456L32.0889 4.26456C32.0889 4.26456 22.7992 0.28753 22.7992 0.28753C20.992 -0.485613 18.8926 0.354524 18.1184 2.15916C18.1184 2.15916 17.2157 4.26469 17.2157 4.26469C17.2157 4.26469 15.7955 4.26469 15.7955 4.26469C15.6768 4.26469 15.5239 4.32472 15.4341 4.414C15.4341 4.414 7.81482 12.0193 7.81482 12.0193C7.7218 12.1123 7.66502 12.2718 7.66502 12.3809C7.66502 12.3809 7.66502 26.5394 7.66502 26.5394C7.66502 26.5394 0.290385 43.7393 0.290385 43.7393C-0.0851464 44.6139 -0.0966796 45.5818 0.257179 46.465C0.610658 47.3487 1.28783 48.0416 2.16297 48.4164C2.16297 48.4164 7.66502 50.7719 7.66502 50.7719C7.66502 50.7719 7.66502 53.9095 7.66502 53.9095C7.66502 55.4066 8.88375 56.6244 10.3821 56.6244C10.3821 56.6244 22.6022 56.6244 22.6022 56.6244C22.6022 56.6244 22.6022 61.8181 22.6022 61.8181C22.6022 62.0037 22.7029 62.1746 22.8651 62.2647C22.9425 62.3074 23.0281 62.3289 23.1135 62.3289C23.2074 62.3289 23.3008 62.3034 23.3831 62.2519C23.3831 62.2519 26.7113 60.1864 26.7113 60.1864C26.7113 60.1864 30.0391 62.2519 30.0391 62.2519C30.1965 62.3501 30.3946 62.3541 30.5572 62.2647C30.9815 62.0287 30.7606 61.5602 30.8201 60.6735C32.6285 61.3286 34.573 60.4397 35.3063 58.7299C35.3063 58.7299 36.2091 56.6244 36.2091 56.6244C36.2091 56.6244 43.0425 56.6244 43.0425 56.6244C44.5408 56.6244 45.7596 55.4066 45.7596 53.9095C45.7596 53.9095 45.7596 34.3509 45.7596 34.3509C45.7596 34.3509 53.1351 17.1498 53.1351 17.1498C53.5097 16.2752 53.5214 15.3073 53.1678 14.4241C52.8139 13.5408 52.1371 12.8479 51.262 12.473C51.262 12.473 45.7596 10.1174 45.7596 10.1174C45.7596 10.1174 45.7596 6.97961 45.7596 6.97961C45.7598 5.48233 44.5411 4.26455 43.0428 4.26455C43.0428 4.26455 43.0428 4.26456 43.0428 4.26456ZM19.0603 2.56113C19.6123 1.27522 21.1096 0.674564 22.3986 1.22685C22.3986 1.22685 29.4936 4.26433 29.4936 4.26433L18.3301 4.26433C18.3301 4.26433 19.0603 2.56113 19.0603 2.56113ZM15.2827 6.00879C15.2827 6.00879 15.2827 10.1774 15.2827 10.1774C15.2827 11.111 14.5225 11.8706 13.5881 11.8706C13.5881 11.8706 9.41015 11.8706 9.41015 11.8706L15.2827 6.00879ZM2.56585 47.4778C1.94153 47.2107 1.4589 46.7167 1.20656 46.0864C0.954475 45.4566 0.96284 44.7664 1.23052 44.1426C1.23052 44.1426 7.66537 29.1347 7.66537 29.1347L7.66537 49.661C7.66537 49.661 2.56585 47.4778 2.56585 47.4778ZM26.9812 59.1525C26.8166 59.0496 26.6066 59.0496 26.4419 59.1525C26.4419 59.1525 23.625 60.9008 23.625 60.9008L23.625 56.6259L29.7977 56.6259L29.7977 60.9007C29.7977 60.9007 26.9812 59.1525 26.9812 59.1525ZM18.0754 42.0551C17.2077 40.7244 16.9617 39.5912 17.382 38.8644C17.801 38.1376 18.9018 37.7827 20.4922 37.8694C22.0804 37.9568 23.5699 37.0951 24.2902 35.6792C25.0105 34.2626 25.8696 33.4824 26.7101 33.4824C27.5493 33.4824 28.4077 34.2619 29.1271 35.6777C29.8469 37.0943 31.3345 37.9556 32.9259 37.8694C34.5101 37.7851 35.6166 38.1372 36.0365 38.8632C36.4568 39.5905 36.2102 40.7241 35.3426 42.0556C34.4758 43.386 34.4758 45.1059 35.3426 46.4366C36.2102 47.7674 36.4566 48.9002 36.0369 49.6266C35.617 50.3522 34.5122 50.7067 32.9259 50.6208C31.3337 50.5342 29.8465 51.3956 29.1271 52.8121C28.4077 54.2278 27.5493 55.0074 26.7101 55.0074C25.8696 55.0074 25.0103 54.228 24.291 52.8117C23.6039 51.4602 22.2146 50.6153 20.7098 50.6153C20.6379 50.6153 20.5659 50.6173 20.4937 50.6212C18.907 50.7054 17.8017 50.353 17.3816 49.6266C16.9617 48.9002 17.2078 47.7674 18.0755 46.4362C18.9423 45.1058 18.9423 43.3858 18.0754 42.0551C18.0754 42.0551 18.0754 42.0551 18.0754 42.0551ZM34.3662 58.3272C33.815 59.6141 32.3238 60.2168 31.0284 59.6615C31.0284 59.6615 30.8203 59.5723 30.8203 59.5723L30.8203 56.624L35.0965 56.624C35.0965 56.624 34.3662 58.3272 34.3662 58.3272ZM44.7391 53.9092C44.7391 54.8428 43.9789 55.6023 43.0445 55.6023C43.0445 55.6023 28.1216 55.6023 28.1216 55.6023C28.8311 55.1597 29.4816 54.3781 30.0428 53.2738C30.5793 52.2176 31.6885 51.5791 32.8749 51.6401C34.8934 51.7503 36.2946 51.2287 36.9262 50.1365C37.5577 49.0449 37.308 47.572 36.204 45.8781C35.5576 44.8859 35.5576 43.6041 36.204 42.6119C37.3077 40.9176 37.5577 39.4444 36.9262 38.3511C36.2942 37.2594 34.8937 36.7385 32.8749 36.8483C31.6909 36.9114 30.5793 36.27 30.0428 35.2147C29.1272 33.4126 27.976 32.4599 26.7141 32.4599C25.451 32.4599 24.2989 33.4126 23.3826 35.2156C22.8457 36.2705 21.7324 36.9099 20.5512 36.8485C18.532 36.7363 17.1302 37.2599 16.5003 38.3532C15.8684 39.4452 16.1181 40.9181 17.2221 42.612C17.8685 43.6043 17.8685 44.886 17.2221 45.8778C16.1185 47.5718 15.8688 49.0446 16.5003 50.1367C17.1315 51.2291 18.5327 51.7516 20.5528 51.6406C21.7313 51.5783 22.8465 52.2186 23.3833 53.2736C23.9445 54.3782 24.5951 55.16 25.3051 55.6026C25.3051 55.6026 10.384 55.6026 10.384 55.6026C9.44964 55.6026 8.68945 54.843 8.68945 53.9094C8.68945 53.9094 8.68945 12.8913 8.68945 12.8913C8.68945 12.8913 13.5915 12.8913 13.5915 12.8913C15.0898 12.8913 16.3086 11.6735 16.3086 10.1764C16.3086 10.1764 16.3086 5.28613 16.3086 5.28613C16.3086 5.28613 43.0444 5.28613 43.0444 5.28613C43.9787 5.28613 44.7389 6.04572 44.7389 6.97932C44.7389 6.97932 44.7389 53.9092 44.7389 53.9092C44.7389 53.9092 44.7391 53.9092 44.7391 53.9092ZM50.8616 13.4137C51.4855 13.6808 51.968 14.1745 52.2205 14.8048C52.4726 15.4346 52.4646 16.1251 52.1969 16.7486C52.1969 16.7486 45.7617 31.7568 45.7617 31.7568L45.7617 11.2305C45.7617 11.2305 50.8616 13.4137 50.8616 13.4137Z" fill="#5362A8" transform="matrix(1 -0 0 1 0 0)" />
      <path d="M4.88697 9.76769C7.58286 9.76769 9.77585 7.57642 9.77585 4.88264C9.77585 2.19038 7.58286 0 4.88697 0C2.19222 0 0 2.19051 0 4.88264C0 7.57642 2.19222 9.76769 4.88697 9.76769C4.88697 9.76769 4.88697 9.76769 4.88697 9.76769ZM4.88579 1.02246C7.01768 1.02246 8.75213 2.75427 8.75213 4.88336C8.75213 7.01359 7.01769 8.74667 4.88579 8.74667C2.75516 8.74667 1.02148 7.01359 1.02148 4.88336C1.02148 2.75427 2.75516 1.02246 4.88579 1.02246C4.88579 1.02246 4.88579 1.02246 4.88579 1.02246Z" fill="#5362A8" transform="matrix(1 -0 0 1 21.824 39.358)" />
    </g>
  </g>
</svg>