<svg width="27" height="27" viewBox="0 0 27 27" fill="none" xmlns="http://www.w3.org/2000/svg">
<path fill-rule="evenodd" clip-rule="evenodd" d="M26.8418 0.158426C26.7366 0.0532221 26.5936 -0.00537857 26.4446 0.000389241C26.3576 0.00269632 24.28 0.0702947 21.5225 0.797497C18.9685 1.46494 15.3338 2.8506 12.5232 5.66158C11.3267 6.85828 10.2606 8.10481 9.35126 9.37004L6.49253 9.72348C6.37304 9.73848 6.26209 9.7927 6.17697 9.87783L0.158253 15.8975C0.00785393 16.048 -0.0403567 16.2725 0.035304 16.4713C0.110734 16.67 0.295734 16.8059 0.507953 16.8183L6.04226 17.1459C6.01135 18.3396 6.34398 19.3142 7.01639 19.9869C7.6865 20.6571 8.6604 20.9928 9.85251 20.9568L10.1801 26.4918C10.1925 26.7041 10.3286 26.8893 10.5275 26.9645C10.5895 26.9883 10.6543 27.0001 10.7189 27.0001C10.8596 27.0001 10.9976 26.9449 11.1007 26.8418L17.1194 20.8219C17.2045 20.7367 17.2585 20.6257 17.2733 20.5065L17.6273 17.647C18.8928 16.7371 20.1391 15.6705 21.335 14.4745C23.5856 12.2237 25.2232 9.19746 26.2026 5.47978C26.9297 2.72071 26.9975 0.64292 26.9998 0.555711C27.004 0.407364 26.947 0.263631 26.8418 0.158426ZM25.3155 4.57727C24.7052 4.2612 24.1451 3.85284 23.6466 3.35427C23.1481 2.8557 22.7399 2.29554 22.4238 1.68508C23.9322 1.32886 25.185 1.17959 25.8816 1.11914C25.8214 1.81473 25.6722 3.06588 25.3155 4.57727ZM16.8095 16.9041C18.0918 15.9997 19.3575 14.9258 20.5713 13.7118C23.0506 11.2318 24.3608 8.03187 25.0392 5.64009C24.245 5.26034 23.5182 4.75577 22.8822 4.11924C22.2456 3.48294 21.7411 2.75551 21.3614 1.96094C18.9709 2.63438 15.7722 3.93998 13.2867 6.42589C12.0722 7.64059 10.9982 8.9065 10.0946 10.1886C10.007 10.3129 9.87087 10.3946 9.71955 10.4135L6.80915 10.7734L1.77148 15.8121L6.65068 16.1008C6.79854 16.1095 6.93648 16.1785 7.03175 16.2923C7.12725 16.4055 7.17177 16.5534 7.15516 16.7006C7.02668 17.8318 7.23659 18.6808 7.77982 19.2239C8.4527 19.8967 9.52002 19.9327 10.2981 19.8443C10.3184 19.842 10.3387 19.8408 10.359 19.8408C10.4856 19.8408 10.6088 19.8856 10.7066 19.9677C10.8201 20.0632 10.8893 20.2012 10.8978 20.3491L11.1869 25.2291L16.2245 20.1904L16.5848 17.279C16.6033 17.1281 16.685 16.992 16.8095 16.9041Z" fill="white"/>
<path fill-rule="evenodd" clip-rule="evenodd" d="M18.2704 8.73127C17.2894 7.75006 17.2871 6.15538 18.2658 5.17693C19.2446 4.19849 20.8387 4.20033 21.8198 5.18132C22.7981 6.15999 22.7981 7.75236 21.8198 8.73127C21.3303 9.22061 20.6877 9.46516 20.045 9.46516C19.4026 9.46516 18.7597 9.22061 18.2704 8.73127ZM19.0346 7.96736C19.5922 8.52453 20.4987 8.52499 21.0569 7.96736C21.6143 7.40973 21.6143 6.50235 21.0569 5.94472C20.7762 5.66394 20.4074 5.52344 20.0392 5.52344C19.6734 5.52344 19.308 5.66233 19.0298 5.94033C18.4725 6.49796 18.4748 7.40696 19.0346 7.96736Z" fill="white"/>
<path fill-rule="evenodd" clip-rule="evenodd" d="M4.18632 19.9502H4.18978C4.95238 19.9511 5.6707 20.2501 6.21278 20.7925C6.75279 21.3324 7.05012 22.0494 7.05012 22.8119C7.05012 23.5742 6.75279 24.2915 6.21278 24.8316C5.24026 25.8043 1.54973 26.668 0.819879 26.8314C0.780895 26.8402 0.741219 26.8443 0.702005 26.8443C0.560372 26.8443 0.422891 26.7887 0.320472 26.6865C0.18968 26.5559 0.135011 26.3677 0.174917 26.1872C0.33708 25.4561 1.19634 21.7599 2.16932 20.787C2.70863 20.2474 3.42487 19.9502 4.18632 19.9502ZM1.43164 25.5739C2.98545 25.1775 4.96255 24.5553 5.44973 24.0681C5.78559 23.7319 5.97082 23.2859 5.97082 22.8121C5.97082 22.3384 5.78559 21.8922 5.44973 21.5563C5.11134 21.2178 4.66337 21.0307 4.18887 21.0303H4.1868C3.71392 21.0303 3.26895 21.2151 2.93332 21.5508C2.44545 22.0383 1.82586 24.0184 1.43164 25.5739Z" fill="white"/>
</svg>
