<svg width="73" height="73" viewBox="0 0 73 73" fill="none" xmlns="http://www.w3.org/2000/svg">
<path fill-rule="evenodd" clip-rule="evenodd" d="M44.7554 19.006L66.8126 28.9362C68.3104 29.607 69.0431 30.9541 68.6931 32.3809C68.4841 33.8302 67.3011 34.805 65.6601 34.8705L57.9152 35.1718L55.2887 48.6839C54.2417 54.0701 43.7003 54.5238 33.7183 52.5835C28.6181 51.5922 23.9726 50.0416 20.6375 48.2175C15.495 45.406 14.8309 42.6797 15.1793 40.8874L17.8186 27.3091L12.9556 25.1205L10.4688 37.9138C11.0287 38.1864 11.5194 38.588 11.8824 39.1172C12.6113 40.1783 12.6977 41.4929 12.2385 42.6058L12.2658 48.8676C12.2676 49.451 12.0098 49.9869 11.5391 50.3753C11.0045 50.8178 10.2464 51.0096 9.56053 50.8763L4.48587 49.8899C3.79729 49.7561 3.16471 49.2919 2.83465 48.6794C2.54587 48.1423 2.50888 47.5492 2.73147 47.0113L5.25942 40.8297C5.36701 39.8025 5.88588 38.8243 6.79405 38.1915C7.32614 37.8196 7.93513 37.616 8.56352 37.5615L11.1406 24.3037L11.0205 24.2496C9.52245 23.5748 8.79067 22.2279 9.14 20.8049C9.35007 19.35 10.5341 18.3755 12.1763 18.3159L36.3534 17.3699C38.2664 17.2714 39.5061 17.2224 40.6916 17.4528C41.8775 17.6833 43.0081 18.1931 44.7554 19.006ZM4.85567 47.9881L9.93033 48.9745C10.1146 49.0103 10.3037 48.9053 10.334 48.8516L10.3114 44.5736C9.65693 44.8576 8.93498 44.9437 8.21934 44.814L8.17379 44.8051C7.39791 44.6543 6.71565 44.2524 6.18965 43.6745L4.52354 47.7481C4.53474 47.7849 4.67176 47.9523 4.85567 47.9881ZM9.846 42.6263C9.46881 42.8883 9.01368 42.9888 8.56498 42.9074C8.1295 42.8199 7.72346 42.5713 7.46303 42.193C6.92336 41.4068 7.12067 40.3252 7.90209 39.7804L7.90371 39.7797C8.28014 39.5165 8.73431 39.4159 9.18349 39.4974L9.20441 39.5015C9.64508 39.5871 10.0282 39.8399 10.2851 40.2137C10.8247 40.9999 10.6275 42.0815 9.846 42.6263ZM17.0812 41.2571C16.4279 44.6178 23.739 48.67 34.0879 50.6816C44.4368 52.6932 52.7335 51.6749 53.3868 48.3142L53.7309 46.5441C48.7252 48.9805 39.9042 47.8678 36.9858 47.4025C36.339 47.299 35.6858 47.1835 35.0297 47.056C28.0628 45.7018 20.8053 42.9918 17.4481 39.3696L17.0812 41.2571ZM54.2446 43.9011C51.8469 46.1312 45.2626 46.7604 37.2912 45.4891C27.7847 43.9766 19.9288 40.429 17.9463 36.8065L19.6336 28.126L33.0748 34.1753C34.8225 34.9882 35.9536 35.4981 37.1391 35.7286C38.325 35.9591 39.5642 35.9099 41.4767 35.8113L55.9265 35.2491L54.2447 43.9011L54.2446 43.9011ZM65.5837 32.9339C66.2903 32.9055 66.7152 32.6016 66.7788 32.0781C66.7843 32.0329 66.7929 31.9883 66.8048 31.9444C66.9422 31.4334 66.6632 30.9927 66.0191 30.7037L43.949 20.7681C42.1686 19.9392 41.2353 19.5322 40.322 19.3547C39.405 19.1765 38.4352 19.2028 36.4414 19.3058L12.2498 20.252C11.5428 20.2774 11.1188 20.5814 11.0546 21.1077C11.0492 21.1529 11.0405 21.1974 11.0286 21.2414C10.8915 21.7515 11.171 22.1923 11.8167 22.4826L33.8814 32.4133C35.7025 33.2607 36.5919 33.6485 37.5089 33.8268C38.4223 34.0043 39.44 33.9766 41.3891 33.8756L65.5837 32.9339Z" fill="#E34B4F"/>
</svg>
