<svg width="67" height="37" viewBox="0 0 67 37" fill="none" xmlns="http://www.w3.org/2000/svg">
<path fill-rule="evenodd" clip-rule="evenodd" d="M42.1674 1.71839L64.2246 11.6486C65.7224 12.3194 66.4551 13.6665 66.1052 15.0933C65.8962 16.5426 64.7131 17.5174 63.0721 17.5829L55.3272 17.8842L52.7007 31.3963C51.6538 36.7825 41.1123 37.2362 31.1303 35.2959C26.0301 34.3046 21.3846 32.754 18.0495 30.9299C12.907 28.1184 12.243 25.3921 12.5913 23.5998L15.2307 10.0215L10.3676 7.83289L7.88083 20.6262C8.44071 20.8988 8.93138 21.3004 9.29443 21.8296C10.0233 22.8907 10.1098 24.2053 9.65055 25.3182L9.67785 31.58C9.67962 32.1634 9.4218 32.6993 8.95114 33.0877C8.41649 33.5302 7.65838 33.722 6.97256 33.5887L1.8979 32.6023C1.20932 32.4685 0.576741 32.0043 0.246683 31.3918C-0.0421011 30.8547 -0.0790906 30.2616 0.1435 29.7237L2.67145 23.5421C2.77904 22.5149 3.29791 21.5367 4.20608 20.9039C4.73817 20.532 5.34716 20.3284 5.97555 20.2739L8.55262 7.01605L8.43255 6.96203C6.93448 6.28723 6.2027 4.9403 6.55203 3.51732C6.7621 2.06244 7.94611 1.0879 9.58831 1.02834L33.7655 0.0823497C35.6784 -0.0161543 36.9181 -0.0652281 38.1036 0.165201C39.2895 0.395723 40.4202 0.905546 42.1674 1.71839ZM2.2677 30.7005L7.34236 31.6869C7.52665 31.7227 7.71572 31.6177 7.74599 31.564L7.7234 27.286C7.06896 27.57 6.34701 27.6561 5.63137 27.5264L5.58582 27.5175C4.80994 27.3667 4.12768 26.9648 3.60168 26.3869L1.93557 30.4605C1.94677 30.4973 2.08379 30.6647 2.2677 30.7005ZM7.25803 25.3387C6.88084 25.6007 6.42571 25.7012 5.97701 25.6198C5.54153 25.5323 5.13549 25.2837 4.87506 24.9054C4.33539 24.1192 4.5327 23.0376 5.31412 22.4928L5.31574 22.4921C5.69216 22.2289 6.14634 22.1283 6.59552 22.2098L6.61644 22.2139C7.05711 22.2995 7.44023 22.5523 7.6971 22.9261C8.23677 23.7123 8.03956 24.7939 7.25803 25.3387ZM14.4932 23.9695C13.84 27.3302 21.151 31.3824 31.5 33.394C41.8488 35.4056 50.1456 34.3873 50.7988 31.0266L51.1429 29.2565C46.1372 31.693 37.3163 30.5802 34.3978 30.1149C33.751 30.0114 33.0978 29.8959 32.4418 29.7684C25.4748 28.4142 18.2173 25.7042 14.8601 22.082L14.4932 23.9695ZM51.6566 26.6135C49.259 28.8436 42.6747 29.4728 34.7032 28.2015C25.1967 26.689 17.3408 23.1414 15.3583 19.5189L17.0457 10.8384L30.4868 16.8877C32.2345 17.7006 33.3657 18.2105 34.5511 18.441C35.737 18.6715 36.9763 18.6223 38.8888 18.5237L53.3385 17.9615L51.6567 26.6135L51.6566 26.6135ZM62.9957 15.6463C63.7024 15.6179 64.1272 15.3141 64.1908 14.7905C64.1963 14.7453 64.205 14.7007 64.2168 14.6568C64.3543 14.1458 64.0752 13.7051 63.4312 13.4161L41.361 3.48052C39.5806 2.65158 38.6473 2.24465 37.734 2.06712C36.817 1.88888 35.8472 1.91521 33.8534 2.01824L9.66181 2.96439C8.95481 2.98979 8.53085 3.29385 8.46665 3.82011C8.46122 3.86533 8.45257 3.90984 8.44066 3.95381C8.30351 4.46392 8.58308 4.90472 9.22871 5.19503L31.2934 15.1257C33.1145 15.9731 34.0039 16.3609 34.9209 16.5392C35.8343 16.7167 36.852 16.689 38.8011 16.588L62.9957 15.6463Z" fill="#E34B4F"/>
</svg>
