<svg width="407" height="252" viewBox="0 0 407 252" fill="none" xmlns="http://www.w3.org/2000/svg">
<g clip-path="url(#clip0_0_126176)">
<g filter="url(#filter0_d_0_126176)">
<path fill-rule="evenodd" clip-rule="evenodd" d="M0 12C0 5.37258 5.37258 0 12 0H394.56C401.188 0 406.56 5.37258 406.56 12V238.286C406.56 244.913 401.188 250.286 394.56 250.286H12C5.37259 250.286 0 244.913 0 238.286V12Z" fill="url(#paint0_linear_0_126176)"/>
</g>
<path d="M42.462 54.238C42.462 56.21 41.782 57.8533 40.422 59.168C39.0847 60.46 37.0333 61.106 34.268 61.106H29.712V71H26.618V47.302H34.268C36.9427 47.302 38.9713 47.948 40.354 49.24C41.7593 50.532 42.462 52.198 42.462 54.238ZM34.268 58.556C35.9907 58.556 37.26 58.182 38.076 57.434C38.892 56.686 39.3 55.6207 39.3 54.238C39.3 51.314 37.6227 49.852 34.268 49.852H29.712V58.556H34.268ZM63.3075 60.97C63.3075 61.5593 63.2735 62.1827 63.2055 62.84H48.3135C48.4268 64.676 49.0501 66.1153 50.1835 67.158C51.3395 68.178 52.7335 68.688 54.3655 68.688C55.7028 68.688 56.8135 68.382 57.6975 67.77C58.6041 67.1353 59.2388 66.2967 59.6015 65.254H62.9335C62.4348 67.0447 61.4375 68.5067 59.9415 69.64C58.4455 70.7507 56.5868 71.306 54.3655 71.306C52.5975 71.306 51.0108 70.9093 49.6055 70.116C48.2228 69.3227 47.1348 68.2007 46.3415 66.75C45.5481 65.2767 45.1515 63.5767 45.1515 61.65C45.1515 59.7233 45.5368 58.0347 46.3075 56.584C47.0781 55.1333 48.1548 54.0227 49.5375 53.252C50.9428 52.4587 52.5521 52.062 54.3655 52.062C56.1335 52.062 57.6975 52.4473 59.0575 53.218C60.4175 53.9887 61.4601 55.054 62.1855 56.414C62.9335 57.7513 63.3075 59.27 63.3075 60.97ZM60.1115 60.324C60.1115 59.1453 59.8508 58.1367 59.3295 57.298C58.8081 56.4367 58.0941 55.7907 57.1875 55.36C56.3035 54.9067 55.3175 54.68 54.2295 54.68C52.6655 54.68 51.3281 55.1787 50.2175 56.176C49.1295 57.1733 48.5061 58.556 48.3475 60.324H60.1115ZM70.4854 55.394C71.0294 54.3287 71.8001 53.5013 72.7974 52.912C73.8174 52.3227 75.0528 52.028 76.5034 52.028V55.224H75.6874C72.2194 55.224 70.4854 57.1053 70.4854 60.868V71H67.3914V52.368H70.4854V55.394ZM86.671 71.306C85.243 71.306 83.9624 71.068 82.829 70.592C81.6957 70.0933 80.8004 69.4133 80.143 68.552C79.4857 67.668 79.123 66.6593 79.055 65.526H82.251C82.3417 66.4553 82.7724 67.2147 83.543 67.804C84.3364 68.3933 85.3677 68.688 86.637 68.688C87.8157 68.688 88.745 68.4273 89.425 67.906C90.105 67.3847 90.445 66.7273 90.445 65.934C90.445 65.118 90.0824 64.5173 89.357 64.132C88.6317 63.724 87.5097 63.3273 85.991 62.942C84.6084 62.5793 83.475 62.2167 82.591 61.854C81.7297 61.4687 80.9817 60.9133 80.347 60.188C79.735 59.44 79.429 58.4653 79.429 57.264C79.429 56.312 79.7124 55.4393 80.279 54.646C80.8457 53.8527 81.6504 53.2293 82.693 52.776C83.7357 52.3 84.9257 52.062 86.263 52.062C88.3257 52.062 89.9917 52.5833 91.261 53.626C92.5304 54.6687 93.2104 56.0967 93.301 57.91H90.207C90.139 56.9353 89.7424 56.1533 89.017 55.564C88.3144 54.9747 87.3624 54.68 86.161 54.68C85.0504 54.68 84.1664 54.918 83.509 55.394C82.8517 55.87 82.523 56.4933 82.523 57.264C82.523 57.876 82.7157 58.386 83.101 58.794C83.509 59.1793 84.0077 59.4967 84.597 59.746C85.209 59.9727 86.0477 60.2333 87.113 60.528C88.4504 60.8907 89.5384 61.2533 90.377 61.616C91.2157 61.956 91.9297 62.4773 92.519 63.18C93.131 63.8827 93.4484 64.8007 93.471 65.934C93.471 66.954 93.1877 67.872 92.621 68.688C92.0544 69.504 91.2497 70.15 90.207 70.626C89.187 71.0793 88.0084 71.306 86.671 71.306ZM105.965 71.306C104.219 71.306 102.633 70.9093 101.205 70.116C99.7994 69.3227 98.6887 68.2007 97.8727 66.75C97.0794 65.2767 96.6827 63.5767 96.6827 61.65C96.6827 59.746 97.0907 58.0687 97.9067 56.618C98.7454 55.1447 99.8787 54.0227 101.307 53.252C102.735 52.4587 104.333 52.062 106.101 52.062C107.869 52.062 109.467 52.4587 110.895 53.252C112.323 54.0227 113.445 55.1333 114.261 56.584C115.099 58.0347 115.519 59.7233 115.519 61.65C115.519 63.5767 115.088 65.2767 114.227 66.75C113.388 68.2007 112.243 69.3227 110.793 70.116C109.342 70.9093 107.733 71.306 105.965 71.306ZM105.965 68.586C107.075 68.586 108.118 68.3253 109.093 67.804C110.067 67.2827 110.849 66.5007 111.439 65.458C112.051 64.4153 112.357 63.146 112.357 61.65C112.357 60.154 112.062 58.8847 111.473 57.842C110.883 56.7993 110.113 56.0287 109.161 55.53C108.209 55.0087 107.177 54.748 106.067 54.748C104.933 54.748 103.891 55.0087 102.939 55.53C102.009 56.0287 101.261 56.7993 100.695 57.842C100.128 58.8847 99.8447 60.154 99.8447 61.65C99.8447 63.1687 100.117 64.4493 100.661 65.492C101.227 66.5347 101.975 67.3167 102.905 67.838C103.834 68.3367 104.854 68.586 105.965 68.586ZM128.665 52.028C130.931 52.028 132.767 52.7193 134.173 54.102C135.578 55.462 136.281 57.434 136.281 60.018V71H133.221V60.46C133.221 58.6013 132.756 57.1847 131.827 56.21C130.897 55.2127 129.628 54.714 128.019 54.714C126.387 54.714 125.083 55.224 124.109 56.244C123.157 57.264 122.681 58.7487 122.681 60.698V71H119.587V52.368H122.681V55.02C123.293 54.068 124.12 53.3313 125.163 52.81C126.228 52.2887 127.395 52.028 128.665 52.028ZM140.179 61.616C140.179 59.712 140.564 58.046 141.335 56.618C142.105 55.1673 143.159 54.0453 144.497 53.252C145.857 52.4587 147.364 52.062 149.019 52.062C150.651 52.062 152.067 52.4133 153.269 53.116C154.47 53.8187 155.365 54.7027 155.955 55.768V52.368H159.083V71H155.955V67.532C155.343 68.62 154.425 69.5267 153.201 70.252C151.999 70.9547 150.594 71.306 148.985 71.306C147.33 71.306 145.834 70.898 144.497 70.082C143.159 69.266 142.105 68.1213 141.335 66.648C140.564 65.1747 140.179 63.4973 140.179 61.616ZM155.955 61.65C155.955 60.2447 155.671 59.0207 155.105 57.978C154.538 56.9353 153.767 56.142 152.793 55.598C151.841 55.0313 150.787 54.748 149.631 54.748C148.475 54.748 147.421 55.02 146.469 55.564C145.517 56.108 144.757 56.9013 144.191 57.944C143.624 58.9867 143.341 60.2107 143.341 61.616C143.341 63.044 143.624 64.2907 144.191 65.356C144.757 66.3987 145.517 67.2033 146.469 67.77C147.421 68.314 148.475 68.586 149.631 68.586C150.787 68.586 151.841 68.314 152.793 67.77C153.767 67.2033 154.538 66.3987 155.105 65.356C155.671 64.2907 155.955 63.0553 155.955 61.65ZM167.405 45.84V71H164.311V45.84H167.405ZM174.277 49.342C173.687 49.342 173.189 49.138 172.781 48.73C172.373 48.322 172.169 47.8233 172.169 47.234C172.169 46.6447 172.373 46.146 172.781 45.738C173.189 45.33 173.687 45.126 174.277 45.126C174.843 45.126 175.319 45.33 175.705 45.738C176.113 46.146 176.317 46.6447 176.317 47.234C176.317 47.8233 176.113 48.322 175.705 48.73C175.319 49.138 174.843 49.342 174.277 49.342ZM175.773 52.368V71H172.679V52.368H175.773ZM183.358 68.45H192.504V71H179.822V68.45L188.866 54.884H179.89V52.368H192.436V54.884L183.358 68.45ZM213.518 60.97C213.518 61.5593 213.484 62.1827 213.416 62.84H198.524C198.638 64.676 199.261 66.1153 200.394 67.158C201.55 68.178 202.944 68.688 204.576 68.688C205.914 68.688 207.024 68.382 207.908 67.77C208.815 67.1353 209.45 66.2967 209.812 65.254H213.144C212.646 67.0447 211.648 68.5067 210.152 69.64C208.656 70.7507 206.798 71.306 204.576 71.306C202.808 71.306 201.222 70.9093 199.816 70.116C198.434 69.3227 197.346 68.2007 196.552 66.75C195.759 65.2767 195.362 63.5767 195.362 61.65C195.362 59.7233 195.748 58.0347 196.518 56.584C197.289 55.1333 198.366 54.0227 199.748 53.252C201.154 52.4587 202.763 52.062 204.576 52.062C206.344 52.062 207.908 52.4473 209.268 53.218C210.628 53.9887 211.671 55.054 212.396 56.414C213.144 57.7513 213.518 59.27 213.518 60.97ZM210.322 60.324C210.322 59.1453 210.062 58.1367 209.54 57.298C209.019 56.4367 208.305 55.7907 207.398 55.36C206.514 54.9067 205.528 54.68 204.44 54.68C202.876 54.68 201.539 55.1787 200.428 56.176C199.34 57.1733 198.717 58.556 198.558 60.324H210.322ZM216.446 61.616C216.446 59.712 216.832 58.046 217.602 56.618C218.373 55.1673 219.427 54.0453 220.764 53.252C222.124 52.4587 223.643 52.062 225.32 52.062C226.771 52.062 228.12 52.402 229.366 53.082C230.613 53.7393 231.565 54.612 232.222 55.7V45.84H235.35V71H232.222V67.498C231.61 68.6087 230.704 69.5267 229.502 70.252C228.301 70.9547 226.896 71.306 225.286 71.306C223.632 71.306 222.124 70.898 220.764 70.082C219.427 69.266 218.373 68.1213 217.602 66.648C216.832 65.1747 216.446 63.4973 216.446 61.616ZM232.222 61.65C232.222 60.2447 231.939 59.0207 231.372 57.978C230.806 56.9353 230.035 56.142 229.06 55.598C228.108 55.0313 227.054 54.748 225.898 54.748C224.742 54.748 223.688 55.02 222.736 55.564C221.784 56.108 221.025 56.9013 220.458 57.944C219.892 58.9867 219.608 60.2107 219.608 61.616C219.608 63.044 219.892 64.2907 220.458 65.356C221.025 66.3987 221.784 67.2033 222.736 67.77C223.688 68.314 224.742 68.586 225.898 68.586C227.054 68.586 228.108 68.314 229.06 67.77C230.035 67.2033 230.806 66.3987 231.372 65.356C231.939 64.2907 232.222 63.0553 232.222 61.65ZM34.302 100.062C35.9113 100.062 37.3167 100.413 38.518 101.116C39.742 101.819 40.6487 102.703 41.238 103.768V100.368H44.366V119.408C44.366 121.108 44.0033 122.615 43.278 123.93C42.5527 125.267 41.51 126.31 40.15 127.058C38.8127 127.806 37.2487 128.18 35.458 128.18C33.01 128.18 30.97 127.602 29.338 126.446C27.706 125.29 26.7427 123.715 26.448 121.72H29.508C29.848 122.853 30.5507 123.76 31.616 124.44C32.6813 125.143 33.962 125.494 35.458 125.494C37.158 125.494 38.5407 124.961 39.606 123.896C40.694 122.831 41.238 121.335 41.238 119.408V115.498C40.626 116.586 39.7193 117.493 38.518 118.218C37.3167 118.943 35.9113 119.306 34.302 119.306C32.6473 119.306 31.14 118.898 29.78 118.082C28.4427 117.266 27.3887 116.121 26.618 114.648C25.8473 113.175 25.462 111.497 25.462 109.616C25.462 107.712 25.8473 106.046 26.618 104.618C27.3887 103.167 28.4427 102.045 29.78 101.252C31.14 100.459 32.6473 100.062 34.302 100.062ZM41.238 109.65C41.238 108.245 40.9547 107.021 40.388 105.978C39.8213 104.935 39.0507 104.142 38.076 103.598C37.124 103.031 36.07 102.748 34.914 102.748C33.758 102.748 32.704 103.02 31.752 103.564C30.8 104.108 30.0407 104.901 29.474 105.944C28.9073 106.987 28.624 108.211 28.624 109.616C28.624 111.044 28.9073 112.291 29.474 113.356C30.0407 114.399 30.8 115.203 31.752 115.77C32.704 116.314 33.758 116.586 34.914 116.586C36.07 116.586 37.124 116.314 38.076 115.77C39.0507 115.203 39.8213 114.399 40.388 113.356C40.9547 112.291 41.238 111.055 41.238 109.65ZM66.1186 100.368V119H63.0246V116.246C62.4352 117.198 61.6079 117.946 60.5426 118.49C59.4999 119.011 58.3439 119.272 57.0746 119.272C55.6239 119.272 54.3206 118.977 53.1646 118.388C52.0086 117.776 51.0906 116.869 50.4106 115.668C49.7532 114.467 49.4246 113.005 49.4246 111.282V100.368H52.4846V110.874C52.4846 112.71 52.9492 114.127 53.8786 115.124C54.8079 116.099 56.0772 116.586 57.6866 116.586C59.3412 116.586 60.6446 116.076 61.5966 115.056C62.5486 114.036 63.0246 112.551 63.0246 110.602V100.368H66.1186ZM72.9406 97.342C72.3513 97.342 71.8526 97.138 71.4446 96.73C71.0366 96.322 70.8326 95.8233 70.8326 95.234C70.8326 94.6447 71.0366 94.146 71.4446 93.738C71.8526 93.33 72.3513 93.126 72.9406 93.126C73.5073 93.126 73.9833 93.33 74.3686 93.738C74.7766 94.146 74.9806 94.6447 74.9806 95.234C74.9806 95.8233 74.7766 96.322 74.3686 96.73C73.9833 97.138 73.5073 97.342 72.9406 97.342ZM74.4366 100.368V119H71.3426V100.368H74.4366ZM78.5538 109.616C78.5538 107.712 78.9391 106.046 79.7098 104.618C80.4805 103.167 81.5345 102.045 82.8718 101.252C84.2318 100.459 85.7505 100.062 87.4278 100.062C88.8785 100.062 90.2271 100.402 91.4738 101.082C92.7205 101.739 93.6725 102.612 94.3298 103.7V93.84H97.4578V119H94.3298V115.498C93.7178 116.609 92.8111 117.527 91.6098 118.252C90.4085 118.955 89.0031 119.306 87.3938 119.306C85.7391 119.306 84.2318 118.898 82.8718 118.082C81.5345 117.266 80.4805 116.121 79.7098 114.648C78.9391 113.175 78.5538 111.497 78.5538 109.616ZM94.3298 109.65C94.3298 108.245 94.0465 107.021 93.4798 105.978C92.9131 104.935 92.1425 104.142 91.1678 103.598C90.2158 103.031 89.1618 102.748 88.0058 102.748C86.8498 102.748 85.7958 103.02 84.8438 103.564C83.8918 104.108 83.1325 104.901 82.5658 105.944C81.9991 106.987 81.7158 108.211 81.7158 109.616C81.7158 111.044 81.9991 112.291 82.5658 113.356C83.1325 114.399 83.8918 115.203 84.8438 115.77C85.7958 116.314 86.8498 116.586 88.0058 116.586C89.1618 116.586 90.2158 116.314 91.1678 115.77C92.1425 115.203 92.9131 114.399 93.4798 113.356C94.0465 112.291 94.3298 111.055 94.3298 109.65ZM101.53 109.616C101.53 107.712 101.916 106.046 102.686 104.618C103.457 103.167 104.511 102.045 105.848 101.252C107.208 100.459 108.716 100.062 110.37 100.062C112.002 100.062 113.419 100.413 114.62 101.116C115.822 101.819 116.717 102.703 117.306 103.768V100.368H120.434V119H117.306V115.532C116.694 116.62 115.776 117.527 114.552 118.252C113.351 118.955 111.946 119.306 110.336 119.306C108.682 119.306 107.186 118.898 105.848 118.082C104.511 117.266 103.457 116.121 102.686 114.648C101.916 113.175 101.53 111.497 101.53 109.616ZM117.306 109.65C117.306 108.245 117.023 107.021 116.456 105.978C115.89 104.935 115.119 104.142 114.144 103.598C113.192 103.031 112.138 102.748 110.982 102.748C109.826 102.748 108.772 103.02 107.82 103.564C106.868 104.108 106.109 104.901 105.542 105.944C104.976 106.987 104.692 108.211 104.692 109.616C104.692 111.044 104.976 112.291 105.542 113.356C106.109 114.399 106.868 115.203 107.82 115.77C108.772 116.314 109.826 116.586 110.982 116.586C112.138 116.586 113.192 116.314 114.144 115.77C115.119 115.203 115.89 114.399 116.456 113.356C117.023 112.291 117.306 111.055 117.306 109.65ZM134.741 100.028C137.008 100.028 138.844 100.719 140.249 102.102C141.654 103.462 142.357 105.434 142.357 108.018V119H139.297V108.46C139.297 106.601 138.832 105.185 137.903 104.21C136.974 103.213 135.704 102.714 134.095 102.714C132.463 102.714 131.16 103.224 130.185 104.244C129.233 105.264 128.757 106.749 128.757 108.698V119H125.663V100.368H128.757V103.02C129.369 102.068 130.196 101.331 131.239 100.81C132.304 100.289 133.472 100.028 134.741 100.028ZM146.255 109.65C146.255 107.723 146.64 106.046 147.411 104.618C148.182 103.167 149.247 102.045 150.607 101.252C151.99 100.459 153.565 100.062 155.333 100.062C157.622 100.062 159.504 100.617 160.977 101.728C162.473 102.839 163.459 104.38 163.935 106.352H160.603C160.286 105.219 159.662 104.323 158.733 103.666C157.826 103.009 156.693 102.68 155.333 102.68C153.565 102.68 152.137 103.292 151.049 104.516C149.961 105.717 149.417 107.429 149.417 109.65C149.417 111.894 149.961 113.628 151.049 114.852C152.137 116.076 153.565 116.688 155.333 116.688C156.693 116.688 157.826 116.371 158.733 115.736C159.64 115.101 160.263 114.195 160.603 113.016H163.935C163.436 114.92 162.439 116.45 160.943 117.606C159.447 118.739 157.577 119.306 155.333 119.306C153.565 119.306 151.99 118.909 150.607 118.116C149.247 117.323 148.182 116.201 147.411 114.75C146.64 113.299 146.255 111.599 146.255 109.65ZM185.063 108.97C185.063 109.559 185.029 110.183 184.961 110.84H170.069C170.183 112.676 170.806 114.115 171.939 115.158C173.095 116.178 174.489 116.688 176.121 116.688C177.459 116.688 178.569 116.382 179.453 115.77C180.36 115.135 180.995 114.297 181.357 113.254H184.689C184.191 115.045 183.193 116.507 181.697 117.64C180.201 118.751 178.343 119.306 176.121 119.306C174.353 119.306 172.767 118.909 171.361 118.116C169.979 117.323 168.891 116.201 168.097 114.75C167.304 113.277 166.907 111.577 166.907 109.65C166.907 107.723 167.293 106.035 168.063 104.584C168.834 103.133 169.911 102.023 171.293 101.252C172.699 100.459 174.308 100.062 176.121 100.062C177.889 100.062 179.453 100.447 180.813 101.218C182.173 101.989 183.216 103.054 183.941 104.414C184.689 105.751 185.063 107.27 185.063 108.97ZM181.867 108.324C181.867 107.145 181.607 106.137 181.085 105.298C180.564 104.437 179.85 103.791 178.943 103.36C178.059 102.907 177.073 102.68 175.985 102.68C174.421 102.68 173.084 103.179 171.973 104.176C170.885 105.173 170.262 106.556 170.103 108.324H181.867Z" fill="#282529"/>
<path fill-rule="evenodd" clip-rule="evenodd" d="M294.298 242.362C319.939 242.362 343.534 242.745 362.26 243.387C408.086 217.241 392.217 166.28 375.763 137.453C352.864 97.3339 298.754 82.9142 276.373 114.924C245.993 158.372 216.687 143.21 200.862 176.207C185.038 209.205 209.07 240.838 226.335 243.387C245.061 242.745 268.657 242.362 294.298 242.362V242.362H294.298ZM254.144 131.108C242.415 140.019 223.015 146.923 216.572 137.45C211.759 130.372 217.688 117.094 229.3 107.024C240.904 96.9635 256.451 90.8735 264.924 98.2828C274.98 107.073 263.177 124.245 254.144 131.107V131.108Z" fill="#F5F5F5"/>
<path fill-rule="evenodd" clip-rule="evenodd" d="M355.56 155.519C355.205 160.4 354.484 161.073 349.822 161.449C354.484 161.824 355.205 162.498 355.56 167.379C355.916 162.498 356.637 161.824 361.299 161.449C356.637 161.073 355.915 160.4 355.56 155.519V155.519V155.519ZM374.51 168.391C374.32 170.996 373.934 171.356 371.445 171.556C373.934 171.757 374.32 172.116 374.51 174.723C374.699 172.116 375.085 171.757 377.573 171.556C375.085 171.356 374.7 170.996 374.51 168.391V168.391V168.391ZM366.211 148.337C366.019 150.975 365.628 151.34 363.108 151.543C365.628 151.745 366.019 152.111 366.211 154.749C366.403 152.111 366.793 151.745 369.314 151.543C366.793 151.339 366.403 150.975 366.211 148.337V148.337Z" fill="white"/>
<path fill-rule="evenodd" clip-rule="evenodd" d="M287.278 111.198C286.633 120.033 285.327 121.252 276.89 121.932C285.328 122.612 286.634 123.83 287.278 132.665C287.922 123.83 289.227 122.612 297.665 121.932C289.227 121.252 287.922 120.033 287.278 111.198V111.198L287.278 111.198ZM321.577 134.497C321.233 139.214 320.536 139.865 316.031 140.227C320.536 140.592 321.233 141.241 321.577 145.958C321.92 141.241 322.618 140.591 327.123 140.227C322.618 139.865 321.92 139.215 321.577 134.497V134.497V134.497ZM306.556 98.1982C306.208 102.974 305.501 103.633 300.939 104.001C305.501 104.37 306.208 105.028 306.556 109.805C306.904 105.028 307.611 104.37 312.174 104.001C307.611 103.633 306.904 102.974 306.556 98.1982V98.1982Z" fill="white"/>
<path fill-rule="evenodd" clip-rule="evenodd" d="M233.662 118.326C233.017 127.161 231.711 128.379 223.274 129.06C231.712 129.739 233.018 130.958 233.662 139.792C234.307 130.958 235.613 129.739 244.051 129.06C235.613 128.379 234.307 127.161 233.662 118.326V118.326V118.326ZM267.962 141.625C267.617 146.342 266.92 146.991 262.415 147.355C266.92 147.719 267.617 148.369 267.962 153.085C268.305 148.369 269.002 147.719 273.507 147.355C269.002 146.992 268.305 146.342 267.962 141.625V141.625V141.625ZM252.94 105.325C252.592 110.102 251.886 110.761 247.324 111.129C251.886 111.497 252.593 112.156 252.94 116.933C253.289 112.156 253.994 111.497 258.557 111.129C253.994 110.761 253.288 110.102 252.94 105.325L252.94 105.325Z" fill="white"/>
<path fill-rule="evenodd" clip-rule="evenodd" d="M220.343 211.467L218.594 212.482C218.004 212.825 217.802 213.587 218.145 214.175L218.531 214.838C218.987 215.62 218.789 215.973 218.647 216.099C218.257 216.448 217.897 216.824 217.534 217.201C217.429 217.311 217.091 217.689 216.201 217.172L215.591 216.819C215.001 216.476 214.238 216.678 213.895 217.267L212.879 219.013C212.535 219.602 212.737 220.363 213.328 220.705L213.932 221.055C214.765 221.54 214.745 221.788 214.638 222.14C214.493 222.624 214.338 223.109 214.231 223.611C214.137 224.057 214.181 224.377 213.046 224.377H212.35C211.667 224.377 211.109 224.933 211.109 225.616V227.635C211.109 228.317 211.667 228.873 212.35 228.873H213.046C214.18 228.873 214.137 229.193 214.231 229.64C214.337 230.141 214.493 230.627 214.638 231.11C214.745 231.464 214.765 231.711 213.932 232.196L213.328 232.546C212.737 232.888 212.535 233.65 212.879 234.239L213.895 235.984C214.238 236.573 215.001 236.774 215.591 236.432L216.201 236.079C217.091 235.562 217.429 235.94 217.534 236.05C217.897 236.427 218.257 236.804 218.647 237.152C218.789 237.279 218.986 237.632 218.531 238.413L218.145 239.076C217.802 239.664 218.004 240.427 218.594 240.769L220.343 241.784C220.933 242.127 221.696 241.926 222.039 241.337L222.425 240.675C222.887 239.881 223.342 239.913 223.535 239.974C224.092 240.152 224.607 240.267 225.183 240.416C225.394 240.471 225.753 240.624 225.753 241.569V242.277C225.753 242.96 226.31 243.516 226.994 243.516H229.017C229.701 243.516 230.257 242.96 230.257 242.277V241.569C230.257 240.624 230.619 240.471 230.828 240.416C231.404 240.267 231.92 240.152 232.477 239.974C232.669 239.913 233.124 239.882 233.587 240.675L233.971 241.337C234.315 241.926 235.078 242.127 235.667 241.784L237.417 240.769C238.006 240.427 238.208 239.664 237.866 239.076L237.479 238.413C237.023 237.632 237.222 237.278 237.364 237.152C237.753 236.805 238.114 236.427 238.477 236.05C238.583 235.94 238.921 235.562 239.81 236.079L240.42 236.432C241.01 236.774 241.773 236.574 242.116 235.984L243.134 234.239C243.477 233.65 243.275 232.888 242.684 232.546L242.08 232.196C241.247 231.711 241.268 231.464 241.374 231.11C241.519 230.626 241.674 230.141 241.781 229.64C241.875 229.193 241.832 228.873 242.967 228.873H243.662C244.346 228.873 244.903 228.318 244.903 227.635V225.616C244.903 224.933 244.346 224.377 243.662 224.377H242.967C241.832 224.377 241.875 224.057 241.781 223.611C241.675 223.109 241.519 222.624 241.374 222.14C241.268 221.787 241.246 221.539 242.08 221.055L242.684 220.705C243.275 220.363 243.477 219.602 243.134 219.013L242.116 217.267C241.773 216.679 241.01 216.477 240.42 216.819L239.81 217.172C238.921 217.689 238.583 217.311 238.477 217.201C238.114 216.824 237.753 216.447 237.364 216.099C237.222 215.972 237.024 215.619 237.479 214.838L237.866 214.175C238.208 213.587 238.006 212.826 237.417 212.482L235.667 211.467C235.078 211.125 234.315 211.326 233.971 211.915L233.587 212.576C233.124 213.37 232.669 213.338 232.477 213.277C231.919 213.1 231.404 212.985 230.828 212.836C230.619 212.781 230.257 212.629 230.257 211.683V210.975C230.257 210.292 229.701 209.736 229.017 209.736H226.994C226.31 209.736 225.753 210.292 225.753 210.975V211.683C225.753 212.63 225.393 212.782 225.183 212.836C224.607 212.985 224.092 213.1 223.535 213.277C223.342 213.338 222.887 213.37 222.425 212.576L222.039 211.915C221.696 211.326 220.933 211.125 220.343 211.467V211.467V211.467ZM228.005 223.959C229.48 223.959 230.677 225.153 230.677 226.626C230.677 228.099 229.48 229.293 228.005 229.293C226.53 229.293 225.333 228.099 225.333 226.626C225.333 225.153 226.53 223.959 228.005 223.959V223.959V223.959ZM219.629 226.627C219.629 226.311 219.885 226.055 220.201 226.055C220.516 226.055 220.773 226.311 220.773 226.627C220.773 228.62 221.582 230.426 222.891 231.731C224.2 233.038 226.008 233.846 228.006 233.846C228.321 233.846 228.577 234.101 228.577 234.417C228.577 234.733 228.321 234.987 228.006 234.987C225.693 234.987 223.598 234.051 222.083 232.538C220.567 231.026 219.629 228.936 219.629 226.627V226.627V226.627ZM236.271 225.28C236.32 225.59 236.109 225.881 235.798 225.93C235.487 225.979 235.195 225.768 235.146 225.459C234.901 223.946 234.182 222.591 233.147 221.548C232.111 220.503 230.76 219.774 229.246 219.511C228.935 219.459 228.726 219.165 228.779 218.855C228.832 218.545 229.128 218.336 229.438 218.388C231.191 218.69 232.757 219.536 233.956 220.745C235.153 221.953 235.986 223.525 236.271 225.281V225.281L236.271 225.28ZM228.006 216.719C233.487 216.719 237.931 221.155 237.931 226.627C237.931 232.099 233.487 236.533 228.006 236.533C222.524 236.533 218.08 232.097 218.08 226.627C218.08 221.156 222.524 216.719 228.006 216.719H228.006Z" fill="white"/>
<path fill-rule="evenodd" clip-rule="evenodd" d="M300.69 217.529L298.941 218.544C298.351 218.886 298.15 219.648 298.493 220.237L298.88 220.899C299.335 221.682 299.136 222.035 298.995 222.161C298.606 222.508 298.245 222.886 297.882 223.263C297.776 223.372 297.438 223.75 296.549 223.234L295.939 222.881C295.349 222.538 294.586 222.739 294.243 223.329L293.225 225.074C292.882 225.663 293.084 226.425 293.673 226.767L294.278 227.118C295.112 227.602 295.091 227.85 294.985 228.203C294.84 228.687 294.684 229.172 294.578 229.673C294.483 230.12 294.526 230.44 293.392 230.44H292.697C292.013 230.44 291.456 230.996 291.456 231.678V233.697C291.456 234.38 292.013 234.936 292.697 234.936H293.392C294.526 234.936 294.483 235.256 294.578 235.702C294.684 236.204 294.84 236.689 294.985 237.172C295.091 237.526 295.112 237.774 294.278 238.259L293.673 238.608C293.084 238.95 292.881 239.712 293.225 240.301L294.243 242.047C294.586 242.636 295.349 242.837 295.939 242.494L296.549 242.141C297.438 241.625 297.776 242.002 297.882 242.113C298.245 242.489 298.605 242.867 298.995 243.214C299.136 243.342 299.335 243.694 298.88 244.476L298.493 245.139C298.151 245.727 298.351 246.488 298.941 246.831L300.69 247.847C301.28 248.189 302.043 247.989 302.386 247.399L302.772 246.738C303.235 245.944 303.689 245.975 303.882 246.037C304.44 246.214 304.955 246.329 305.531 246.479C305.741 246.532 306.101 246.686 306.101 247.631V248.339C306.101 249.022 306.659 249.578 307.341 249.578H309.365C310.048 249.578 310.606 249.022 310.606 248.339V247.631C310.606 246.686 310.966 246.532 311.176 246.479C311.752 246.329 312.267 246.214 312.825 246.037C313.017 245.975 313.472 245.944 313.935 246.738L314.32 247.399C314.662 247.988 315.426 248.189 316.016 247.847L317.765 246.831C318.355 246.489 318.557 245.727 318.213 245.139L317.827 244.476C317.372 243.694 317.569 243.341 317.711 243.214C318.101 242.868 318.461 242.489 318.823 242.113C318.929 242.002 319.268 241.625 320.157 242.141L320.768 242.494C321.357 242.836 322.121 242.636 322.463 242.047L323.481 240.301C323.824 239.712 323.623 238.95 323.032 238.608L322.428 238.259C321.594 237.774 321.615 237.526 321.722 237.172C321.866 236.688 322.022 236.204 322.128 235.702C322.222 235.256 322.18 234.936 323.314 234.936H324.009C324.692 234.936 325.25 234.381 325.25 233.697V231.678C325.25 230.996 324.693 230.44 324.009 230.44H323.314C322.18 230.44 322.222 230.12 322.128 229.673C322.022 229.172 321.866 228.687 321.722 228.203C321.616 227.849 321.594 227.602 322.428 227.118L323.032 226.767C323.622 226.425 323.824 225.663 323.481 225.074L322.463 223.329C322.121 222.74 321.357 222.539 320.768 222.881L320.157 223.233C319.268 223.75 318.929 223.372 318.823 223.263C318.462 222.886 318.101 222.508 317.711 222.161C317.569 222.034 317.372 221.681 317.827 220.899L318.213 220.237C318.556 219.648 318.355 218.886 317.765 218.544L316.016 217.529C315.426 217.186 314.662 217.387 314.32 217.976L313.935 218.638C313.472 219.431 313.017 219.4 312.825 219.339C312.267 219.161 311.752 219.046 311.176 218.898C310.966 218.843 310.606 218.69 310.606 217.745V217.037C310.606 216.354 310.048 215.799 309.365 215.799H307.341C306.659 215.799 306.101 216.354 306.101 217.037V217.745C306.101 218.69 305.74 218.844 305.531 218.898C304.956 219.047 304.44 219.162 303.882 219.339C303.689 219.4 303.235 219.431 302.772 218.638L302.386 217.976C302.043 217.387 301.28 217.186 300.69 217.529V217.529V217.529ZM308.352 230.021C309.828 230.021 311.025 231.215 311.025 232.688C311.025 234.16 309.828 235.355 308.352 235.355C306.876 235.355 305.68 234.161 305.68 232.688C305.68 231.214 306.877 230.021 308.352 230.021V230.021V230.021ZM299.977 232.689C299.977 232.373 300.233 232.117 300.549 232.117C300.865 232.117 301.121 232.373 301.121 232.689C301.121 234.681 301.931 236.487 303.239 237.793C304.548 239.099 306.356 239.908 308.353 239.908C308.67 239.908 308.925 240.162 308.925 240.478C308.925 240.794 308.67 241.049 308.353 241.049C306.04 241.049 303.947 240.113 302.431 238.6C300.914 237.087 299.977 234.997 299.977 232.689V232.689H299.977ZM316.619 231.342C316.668 231.652 316.456 231.943 316.145 231.992C315.835 232.041 315.543 231.829 315.494 231.52C315.248 230.007 314.53 228.652 313.496 227.609C312.46 226.565 311.107 225.834 309.594 225.573C309.284 225.521 309.075 225.226 309.127 224.916C309.18 224.606 309.476 224.397 309.786 224.45C311.538 224.752 313.105 225.597 314.303 226.807C315.501 228.015 316.333 229.587 316.618 231.342V231.342L316.619 231.342ZM308.352 222.781C313.834 222.781 318.277 227.217 318.277 232.688C318.277 238.16 313.834 242.595 308.352 242.595C302.87 242.595 298.428 238.159 298.428 232.688C298.428 227.218 302.871 222.781 308.352 222.781V222.781Z" fill="white"/>
<path fill-rule="evenodd" clip-rule="evenodd" d="M339.13 179.004L335.78 180.948C334.652 181.604 334.265 183.062 334.921 184.189L335.66 185.458C336.533 186.955 336.153 187.631 335.883 187.873C335.136 188.539 334.446 189.262 333.752 189.982C333.55 190.195 332.902 190.917 331.199 189.929L330.031 189.252C328.902 188.596 327.441 188.982 326.784 190.109L324.836 193.452C324.179 194.581 324.565 196.038 325.696 196.694L326.853 197.365C328.449 198.292 328.407 198.768 328.206 199.443C327.928 200.37 327.63 201.299 327.426 202.258C327.246 203.114 327.328 203.725 325.155 203.725H323.824C322.516 203.725 321.448 204.79 321.448 206.096V209.964C321.448 211.269 322.516 212.335 323.824 212.335H325.155C327.328 212.335 327.246 212.945 327.426 213.801C327.629 214.761 327.928 215.689 328.206 216.617C328.408 217.292 328.45 217.767 326.853 218.695L325.696 219.365C324.565 220.021 324.179 221.479 324.836 222.607L326.784 225.95C327.441 227.077 328.902 227.463 330.031 226.807L331.199 226.131C332.902 225.142 333.55 225.865 333.752 226.078C334.446 226.797 335.136 227.521 335.883 228.186C336.154 228.428 336.533 229.105 335.66 230.602L334.921 231.87C334.265 232.997 334.652 234.456 335.78 235.111L339.13 237.055C340.259 237.711 341.721 237.325 342.376 236.198L343.115 234.933C343.999 233.414 344.871 233.472 345.239 233.59C346.307 233.929 347.294 234.148 348.396 234.435C348.797 234.541 349.487 234.833 349.487 236.643V238C349.487 239.306 350.555 240.371 351.863 240.371H355.737C357.046 240.371 358.113 239.306 358.113 238V236.643C358.113 234.833 358.801 234.541 359.204 234.435C360.307 234.149 361.293 233.93 362.362 233.59C362.729 233.472 363.601 233.413 364.486 234.933L365.223 236.198C365.879 237.326 367.341 237.712 368.471 237.055L371.819 235.111C372.949 234.456 373.335 232.997 372.678 231.87L371.938 230.602C371.066 229.104 371.447 228.428 371.718 228.186C372.462 227.521 373.154 226.797 373.847 226.078C374.052 225.865 374.699 225.142 376.401 226.131L377.569 226.807C378.698 227.463 380.16 227.077 380.816 225.95L382.764 222.607C383.42 221.479 383.034 220.022 381.905 219.365L380.748 218.695C379.152 217.767 379.192 217.292 379.394 216.617C379.672 215.689 379.97 214.761 380.173 213.801C380.354 212.945 380.272 212.335 382.444 212.335H383.775C385.084 212.335 386.15 211.269 386.15 209.964V206.096C386.15 204.79 385.084 203.725 383.775 203.725H382.444C380.272 203.725 380.353 203.114 380.173 202.258C379.97 201.298 379.671 200.37 379.394 199.443C379.192 198.767 379.151 198.292 380.748 197.365L381.905 196.694C383.034 196.039 383.42 194.581 382.764 193.452L380.816 190.109C380.16 188.982 378.698 188.596 377.569 189.252L376.401 189.929C374.699 190.917 374.051 190.195 373.847 189.982C373.154 189.262 372.462 188.54 371.718 187.873C371.447 187.631 371.067 186.955 371.938 185.458L372.678 184.189C373.335 183.062 372.948 181.604 371.819 180.948L368.471 179.004C367.341 178.349 365.879 178.734 365.223 179.862L364.486 181.127C363.601 182.646 362.729 182.587 362.362 182.469C361.293 182.13 360.307 181.91 359.204 181.623C358.801 181.519 358.113 181.227 358.113 179.416V178.058C358.113 176.753 357.046 175.688 355.737 175.688H351.863C350.555 175.688 349.487 176.753 349.487 178.058V179.416C349.487 181.226 348.797 181.518 348.396 181.623C347.293 181.909 346.307 182.129 345.239 182.469C344.87 182.587 343.999 182.646 343.115 181.127L342.376 179.862C341.72 178.733 340.259 178.349 339.13 179.004V179.004V179.004ZM353.8 202.923C356.626 202.923 358.916 205.21 358.916 208.029C358.916 210.849 356.626 213.137 353.8 213.137C350.974 213.137 348.684 210.85 348.684 208.029C348.684 205.209 350.975 202.923 353.8 202.923V202.923V202.923ZM337.763 208.03C337.763 207.426 338.252 206.937 338.858 206.937C339.463 206.937 339.951 207.426 339.951 208.03C339.951 211.847 341.501 215.303 344.009 217.804C346.515 220.305 349.975 221.854 353.8 221.854C354.405 221.854 354.895 222.342 354.895 222.945C354.895 223.548 354.405 224.038 353.8 224.038C349.372 224.038 345.362 222.247 342.46 219.35C339.559 216.453 337.763 212.45 337.763 208.031V208.031V208.03ZM369.627 205.451C369.722 206.045 369.316 206.604 368.721 206.698C368.126 206.792 367.567 206.387 367.472 205.793C367.001 202.896 365.626 200.302 363.646 198.304C361.664 196.305 359.074 194.907 356.178 194.408C355.583 194.307 355.183 193.743 355.284 193.148C355.386 192.555 355.95 192.155 356.546 192.256C359.901 192.835 362.9 194.454 365.194 196.768C367.489 199.081 369.082 202.091 369.628 205.451V205.451L369.627 205.451ZM353.8 189.061C364.295 189.061 372.803 197.554 372.803 208.03C372.803 218.506 364.295 226.998 353.8 226.998C343.305 226.998 334.797 218.505 334.797 208.03C334.797 197.555 343.305 189.061 353.8 189.061V189.061Z" fill="white"/>
<path fill-rule="evenodd" clip-rule="evenodd" d="M294.296 242.362C355.174 242.362 404.525 244.519 404.525 247.181C404.525 249.842 355.174 252 294.296 252C233.418 252 184.067 249.842 184.067 247.181C184.067 244.519 233.418 242.362 294.296 242.362V242.362Z" fill="#E5E5E5"/>
<path fill-rule="evenodd" clip-rule="evenodd" d="M329.844 109.342C357.375 115.465 374.895 140.737 376.611 152.937C377.316 157.945 376.01 146.228 361.965 135.559C349.414 126.024 339.642 124.258 324.71 123.106C314.157 122.292 303.107 120.997 303.892 114.715C304.512 109.753 312.069 105.389 329.843 109.342V109.342L329.844 109.342ZM257.855 99.1211C262.594 99.4049 265.48 103.289 265.677 107.769C265.762 109.675 264.263 104.692 259.009 103.999C255.75 103.569 255.26 104.528 254.092 103.184C252.924 101.842 254.033 98.891 257.855 99.1211V99.1211Z" fill="white"/>
<path fill-rule="evenodd" clip-rule="evenodd" d="M223.289 231.259C222.032 229.688 220.263 228.39 219.744 226.447C219.13 224.155 220.48 221.742 220.146 219.393C219.726 216.436 216.873 214.519 215.324 211.965C213.808 209.462 214.518 208.62 214.381 205.699C214.173 201.297 210.556 195.742 205.736 197.231C200.844 198.746 201.643 203.286 202.504 206.702C203.118 209.134 202.717 209.483 202.121 211.921C201.401 214.864 199.079 217.709 200.05 220.581C200.65 222.355 202.394 223.554 203.025 225.319C203.74 227.318 202.874 229.487 202.541 231.585C201.838 236 202.846 239.672 206.06 243.318C206.406 243.646 206.764 243.951 207.136 244.232C211.638 243.978 216.702 243.744 222.255 243.535L222.296 243.49C225.237 240.286 226.115 234.787 223.29 231.26L223.289 231.259Z" fill="#DFDFDF"/>
<path fill-rule="evenodd" clip-rule="evenodd" d="M207.955 201.206C207.879 201.007 207.656 200.907 207.456 200.984C207.257 201.06 207.156 201.283 207.233 201.481C207.616 202.479 207.937 203.525 208.211 204.611C208.1 204.51 207.985 204.413 207.868 204.319C207.344 203.897 206.747 203.53 206.081 203.215C205.887 203.124 205.658 203.208 205.566 203.399C205.475 203.592 205.558 203.822 205.751 203.913C206.364 204.202 206.908 204.537 207.386 204.92C207.837 205.283 208.231 205.688 208.563 206.137C209.057 208.492 209.38 211.025 209.671 213.694C209.223 213 208.745 212.376 208.237 211.825C207.354 210.867 206.376 210.122 205.304 209.592C205.113 209.498 204.882 209.575 204.787 209.766C204.693 209.956 204.77 210.188 204.962 210.281C205.944 210.767 206.847 211.457 207.667 212.348C208.484 213.234 209.219 214.317 209.872 215.598L209.947 216.323C210.112 217.915 210.28 219.547 210.48 221.214C210.48 221.23 210.482 221.246 210.485 221.262C210.694 223.004 210.938 224.784 211.244 226.593C210.408 225.305 209.51 224.167 208.547 223.178C207.136 221.729 205.589 220.599 203.906 219.79C203.712 219.697 203.483 219.778 203.39 219.97C203.297 220.163 203.379 220.392 203.571 220.485C205.172 221.253 206.645 222.331 207.992 223.715C209.336 225.096 210.553 226.781 211.645 228.772C212.121 231.168 212.727 233.609 213.531 236.078H213.532L213.535 236.087V236.087C213.929 237.299 214.372 238.516 214.87 239.737C213.701 238.734 212.458 237.868 211.144 237.138C209.313 236.121 207.347 235.369 205.246 234.883C205.038 234.835 204.83 234.964 204.781 235.172C204.733 235.38 204.863 235.587 205.071 235.636C207.106 236.106 209.007 236.832 210.769 237.812C212.514 238.781 214.13 240.003 215.617 241.476C215.96 242.236 216.326 242.996 216.717 243.758L217.568 243.722C216.199 241.096 215.129 238.477 214.282 235.886C214.137 234.003 214.361 232.122 214.953 230.241C215.553 228.334 216.533 226.423 217.893 224.509C218.017 224.335 217.976 224.095 217.802 223.972C217.628 223.848 217.387 223.889 217.264 224.063C215.858 226.041 214.843 228.024 214.217 230.009C213.863 231.136 213.633 232.263 213.53 233.39C212.37 229.21 211.728 225.123 211.257 221.223C211.711 219.571 212.218 218.172 212.778 217.026C213.334 215.888 213.94 215.01 214.591 214.395C214.746 214.249 214.753 214.004 214.607 213.85C214.461 213.694 214.216 213.688 214.061 213.834C213.338 214.517 212.678 215.469 212.081 216.69C211.709 217.45 211.361 218.317 211.035 219.292C210.921 218.262 210.816 217.247 210.713 216.247L210.633 215.47C210.633 215.456 210.63 215.441 210.628 215.427C210.079 210.128 209.524 205.304 207.953 201.208L207.955 201.206Z" fill="white"/>
<path fill-rule="evenodd" clip-rule="evenodd" d="M210.347 233.33C209.005 232.608 207.388 232.226 206.45 231.027C205.341 229.61 205.566 227.532 204.635 225.993C203.464 224.057 200.909 223.567 199.071 222.245C197.272 220.95 197.517 220.154 196.555 218.16C195.103 215.155 190.935 212.354 188.019 214.818C185.062 217.321 186.965 220.245 188.579 222.371C189.728 223.883 189.552 224.245 189.86 226.119C190.232 228.382 189.459 231.051 190.988 232.763C191.933 233.822 193.503 234.141 194.467 235.184C195.558 236.365 195.599 238.132 195.989 239.691C196.506 241.761 197.41 243.425 198.839 244.77C202.695 244.479 207.229 244.208 212.343 243.959C212.737 243.399 213.055 242.789 213.283 242.144C214.381 239.042 213.359 234.952 210.345 233.33H210.347Z" fill="#E3E3E3"/>
<path fill-rule="evenodd" clip-rule="evenodd" d="M190.748 216.929C190.636 216.813 190.451 216.811 190.335 216.922C190.218 217.034 190.214 217.218 190.327 217.334C190.889 217.917 191.423 218.549 191.938 219.225C191.831 219.189 191.722 219.154 191.612 219.124C191.122 218.986 190.597 218.905 190.04 218.884C189.878 218.876 189.741 219.002 189.736 219.165C189.73 219.325 189.857 219.46 190.017 219.467C190.53 219.486 191.009 219.561 191.455 219.686C191.878 219.804 192.271 219.971 192.637 220.185C193.68 221.679 194.657 223.348 195.652 225.122C195.134 224.77 194.615 224.477 194.098 224.243C193.198 223.836 192.296 223.607 191.393 223.556C191.232 223.546 191.093 223.668 191.084 223.829C191.074 223.99 191.197 224.127 191.357 224.136C192.187 224.185 193.019 224.397 193.856 224.775C194.688 225.151 195.521 225.689 196.357 226.388L196.624 226.87C197.21 227.93 197.814 229.017 198.447 230.12C198.453 230.13 198.458 230.141 198.465 230.151C199.127 231.303 199.825 232.47 200.575 233.639C199.612 232.99 198.647 232.462 197.684 232.058C196.271 231.466 194.857 231.136 193.444 231.071C193.283 231.063 193.146 231.187 193.139 231.349C193.131 231.51 193.256 231.647 193.417 231.654C194.761 231.717 196.107 232.032 197.456 232.598C198.801 233.162 200.15 233.976 201.501 235.04C202.544 236.568 203.691 238.089 204.984 239.571V239.571L204.987 239.578H204.988C205.623 240.305 206.291 241.021 207.001 241.725C205.89 241.373 204.767 241.135 203.634 241.015C202.057 240.848 200.465 240.906 198.856 241.189C198.696 241.217 198.59 241.368 198.619 241.527C198.647 241.687 198.798 241.792 198.958 241.765C200.515 241.49 202.054 241.434 203.574 241.595C205.077 241.754 206.565 242.127 208.038 242.713C208.545 243.181 209.074 243.642 209.622 244.094L210.495 244.049C208.581 242.523 206.92 240.895 205.448 239.213C204.788 237.944 204.386 236.568 204.241 235.083C204.091 233.577 204.208 231.955 204.586 230.22C204.621 230.063 204.521 229.907 204.364 229.873C204.206 229.838 204.05 229.938 204.016 230.095C203.624 231.889 203.505 233.57 203.659 235.137C203.746 236.027 203.921 236.881 204.184 237.697C202.136 235.128 200.475 232.471 198.989 229.893C198.815 228.608 198.753 227.483 198.803 226.521C198.853 225.563 199.014 224.773 199.286 224.151C199.35 224.004 199.283 223.831 199.135 223.767C198.986 223.702 198.814 223.77 198.75 223.917C198.45 224.607 198.272 225.466 198.218 226.492C198.185 227.132 198.199 227.839 198.262 228.615C197.877 227.931 197.502 227.254 197.134 226.589L196.847 226.07C196.842 226.061 196.837 226.051 196.832 226.042C194.874 222.513 193.058 219.318 190.748 216.929V216.929Z" fill="white"/>
<path fill-rule="evenodd" clip-rule="evenodd" d="M360.434 229.769C361.807 228.055 363.736 226.639 364.302 224.519C364.971 222.018 363.5 219.385 363.864 216.821C364.322 213.593 367.436 211.502 369.126 208.714C370.78 205.983 370.005 205.065 370.156 201.877C370.383 197.074 374.33 191.01 379.589 192.636C384.928 194.289 384.056 199.243 383.116 202.97C382.447 205.625 382.884 206.007 383.535 208.666C384.32 211.877 386.854 214.981 385.796 218.115C385.14 220.052 383.238 221.359 382.549 223.285C381.768 225.467 382.714 227.834 383.077 230.123C383.843 234.941 382.743 238.948 379.237 242.928C378.812 243.331 378.37 243.702 377.908 244.041C373.057 243.793 367.644 243.569 361.759 243.37C361.677 243.287 361.598 243.202 361.519 243.116C358.309 239.619 357.352 233.619 360.434 229.769V229.769Z" fill="#DFDFDF"/>
<path fill-rule="evenodd" clip-rule="evenodd" d="M377.169 196.974C377.252 196.757 377.496 196.648 377.713 196.73C377.931 196.813 378.041 197.057 377.957 197.274C377.54 198.363 377.189 199.503 376.889 200.689C377.01 200.58 377.135 200.474 377.265 200.371C377.837 199.911 378.487 199.51 379.215 199.166C379.426 199.067 379.677 199.157 379.776 199.368C379.875 199.578 379.785 199.828 379.574 199.927C378.907 200.243 378.312 200.61 377.791 201.027C377.298 201.422 376.87 201.865 376.506 202.355C375.967 204.924 375.614 207.689 375.297 210.602C375.786 209.844 376.307 209.164 376.862 208.562C377.826 207.516 378.893 206.703 380.062 206.125C380.271 206.021 380.523 206.107 380.626 206.314C380.729 206.523 380.643 206.774 380.436 206.878C379.364 207.408 378.38 208.161 377.483 209.132C376.592 210.1 375.79 211.282 375.078 212.681L374.996 213.471C374.816 215.208 374.631 216.99 374.415 218.808C374.415 218.826 374.411 218.843 374.408 218.861C374.179 220.761 373.915 222.704 373.58 224.676C374.492 223.272 375.473 222.029 376.523 220.95C378.063 219.368 379.751 218.135 381.588 217.252C381.797 217.152 382.05 217.24 382.15 217.451C382.252 217.66 382.163 217.912 381.953 218.012C380.206 218.852 378.597 220.027 377.129 221.537C375.662 223.043 374.334 224.883 373.143 227.056C372.624 229.671 371.963 232.334 371.084 235.028V235.028L371.08 235.039V235.039C370.65 236.36 370.167 237.688 369.623 239.021C370.9 237.927 372.255 236.981 373.689 236.185C375.687 235.074 377.833 234.254 380.127 233.724C380.354 233.671 380.581 233.813 380.633 234.039C380.686 234.266 380.544 234.492 380.318 234.545C378.097 235.058 376.024 235.85 374.099 236.919C372.195 237.978 370.431 239.31 368.808 240.917C368.408 241.802 367.98 242.69 367.52 243.578L366.589 243.542C368.127 240.619 369.321 237.701 370.264 234.816C370.423 232.762 370.18 230.708 369.534 228.656C368.877 226.576 367.808 224.49 366.325 222.401C366.19 222.212 366.235 221.949 366.425 221.815C366.614 221.681 366.878 221.725 367.012 221.915C368.545 224.074 369.654 226.236 370.336 228.403C370.724 229.633 370.974 230.862 371.087 232.093C372.352 227.531 373.054 223.07 373.567 218.814C373.071 217.01 372.519 215.484 371.908 214.235C371.301 212.993 370.641 212.035 369.928 211.363C369.759 211.204 369.753 210.937 369.912 210.768C370.07 210.6 370.337 210.592 370.506 210.751C371.296 211.496 372.016 212.536 372.667 213.867C373.072 214.696 373.453 215.642 373.81 216.707C373.933 215.582 374.048 214.475 374.16 213.384L374.248 212.535C374.249 212.519 374.251 212.503 374.252 212.488C374.853 206.705 375.459 201.442 377.171 196.971L377.169 196.974Z" fill="white"/>
<path fill-rule="evenodd" clip-rule="evenodd" d="M374.558 232.03C376.022 231.24 377.787 230.825 378.811 229.516C380.019 227.971 379.775 225.702 380.79 224.024C382.067 221.911 384.857 221.376 386.862 219.933C388.825 218.52 388.557 217.65 389.609 215.475C391.193 212.196 395.743 209.14 398.923 211.827C402.151 214.558 400.073 217.751 398.312 220.069C397.058 221.721 397.25 222.115 396.913 224.161C396.507 226.63 397.351 229.542 395.684 231.411C394.652 232.566 392.937 232.916 391.887 234.053C390.696 235.342 390.651 237.27 390.226 238.972C389.652 241.262 388.645 243.098 387.046 244.576C382.836 244.29 377.95 244.025 372.491 243.784C372.01 243.131 371.622 242.412 371.353 241.647C370.155 238.262 371.269 233.798 374.559 232.029L374.558 232.03Z" fill="#E3E3E3"/>
<path fill-rule="evenodd" clip-rule="evenodd" d="M395.948 214.133C396.071 214.007 396.273 214.002 396.401 214.125C396.527 214.247 396.531 214.45 396.409 214.575C395.795 215.21 395.212 215.901 394.651 216.639C394.767 216.599 394.886 216.561 395.006 216.527C395.543 216.377 396.114 216.288 396.723 216.265C396.899 216.258 397.047 216.396 397.054 216.571C397.06 216.747 396.923 216.895 396.747 216.902C396.188 216.924 395.665 217.003 395.178 217.141C394.718 217.27 394.289 217.452 393.891 217.685C392.752 219.315 391.685 221.137 390.599 223.073C391.165 222.689 391.73 222.37 392.295 222.114C393.277 221.67 394.262 221.421 395.248 221.364C395.423 221.354 395.575 221.488 395.585 221.663C395.595 221.838 395.461 221.988 395.285 221.999C394.382 222.051 393.472 222.283 392.559 222.696C391.651 223.106 390.742 223.693 389.83 224.455L389.538 224.983C388.898 226.14 388.24 227.325 387.549 228.529C387.543 228.54 387.536 228.553 387.53 228.563C386.807 229.82 386.046 231.094 385.226 232.37C386.277 231.661 387.33 231.087 388.383 230.645C389.925 229.999 391.466 229.639 393.008 229.566C393.184 229.559 393.333 229.695 393.342 229.87C393.35 230.046 393.214 230.195 393.038 230.204C391.572 230.272 390.102 230.615 388.63 231.232C387.161 231.848 385.691 232.736 384.215 233.898C383.078 235.565 381.827 237.225 380.415 238.842V238.842L380.409 238.848V238.848C379.717 239.642 378.986 240.423 378.211 241.19C379.425 240.807 380.65 240.548 381.886 240.417C383.607 240.235 385.345 240.298 387.1 240.607C387.274 240.638 387.39 240.802 387.359 240.976C387.328 241.15 387.163 241.266 386.99 241.235C385.29 240.936 383.61 240.875 381.953 241.05C380.313 241.224 378.688 241.631 377.081 242.27C376.478 242.827 375.849 243.373 375.193 243.909L374.23 243.864C376.39 242.16 378.257 240.336 379.906 238.452C380.625 237.068 381.065 235.565 381.225 233.944C381.386 232.3 381.259 230.532 380.847 228.638C380.809 228.467 380.917 228.297 381.09 228.259C381.262 228.223 381.432 228.331 381.47 228.502C381.898 230.46 382.028 232.294 381.86 234.004C381.765 234.976 381.574 235.907 381.287 236.796C383.523 233.994 385.336 231.095 386.956 228.281C387.147 226.878 387.214 225.652 387.16 224.602C387.105 223.556 386.93 222.693 386.633 222.015C386.563 221.854 386.637 221.666 386.797 221.596C386.959 221.526 387.147 221.599 387.218 221.76C387.546 222.512 387.739 223.449 387.798 224.57C387.833 225.268 387.819 226.038 387.75 226.886C388.17 226.139 388.578 225.402 388.98 224.674L389.293 224.11C389.298 224.099 389.304 224.088 389.311 224.079C391.445 220.228 393.429 216.74 395.949 214.133H395.948Z" fill="white"/>
<path fill-rule="evenodd" clip-rule="evenodd" d="M349.696 213.86L242.216 214.479C240.068 214.491 238.317 212.764 238.305 210.62L237.886 138.262C237.873 136.119 239.605 134.371 241.751 134.358L349.231 133.738C351.38 133.726 353.13 135.454 353.143 137.597L353.562 209.956C353.574 212.099 351.844 213.847 349.695 213.86H349.696Z" fill="#D8D8D8"/>
<path fill-rule="evenodd" clip-rule="evenodd" d="M346.035 209.637L245.827 210.214C243.868 210.225 242.27 208.649 242.259 206.694L241.886 142.143C241.874 140.188 243.453 138.594 245.413 138.582L345.62 138.005C347.581 137.994 349.177 139.569 349.188 141.525L349.562 206.075C349.573 208.03 347.994 209.625 346.035 209.637H346.035Z" fill="#B4B4B4"/>
<path fill-rule="evenodd" clip-rule="evenodd" d="M349.191 141.791L349.201 143.622L241.768 144.242L241.757 142.41C241.746 140.265 243.217 138.518 245.754 138.503L345.149 137.93C347.824 137.914 349.176 139.248 349.191 141.791V141.791Z" fill="#D2D2D2"/>
<path fill-rule="evenodd" clip-rule="evenodd" d="M336.531 140.838C336.535 141.435 336.053 141.922 335.453 141.926C334.856 141.929 334.368 141.448 334.365 140.851C334.361 140.253 334.843 139.767 335.441 139.763C336.04 139.76 336.527 140.241 336.53 140.838V140.838H336.531ZM344.31 140.792C344.314 141.39 343.831 141.877 343.234 141.88C342.635 141.884 342.148 141.403 342.144 140.805C342.141 140.208 342.623 139.721 343.221 139.718C343.819 139.714 344.306 140.196 344.31 140.792V140.792V140.792ZM340.42 140.815C340.424 141.412 339.942 141.899 339.344 141.903C338.745 141.906 338.258 141.425 338.254 140.827C338.25 140.231 338.732 139.743 339.331 139.74C339.929 139.737 340.417 140.217 340.42 140.815V140.815Z" fill="white"/>
<path fill-rule="evenodd" clip-rule="evenodd" d="M319.807 159.076H310.561C309.379 159.076 308.421 158.119 308.421 156.939V147.709C308.421 146.53 309.379 145.573 310.561 145.573H319.807C320.989 145.573 321.947 146.53 321.947 147.709V156.939C321.947 158.119 320.989 159.076 319.807 159.076V159.076Z" fill="white"/>
<path fill-rule="evenodd" clip-rule="evenodd" d="M338.838 149.246H325.89V148.059H338.838V149.246V149.246V149.246ZM335.648 157.279H325.891V156.091H335.648V157.279V157.279V157.279ZM343.49 151.924H325.891V150.736H343.49V151.924V151.924V151.924ZM348.275 154.602H325.891V153.415H348.275V154.602V154.602Z" fill="white"/>
<path fill-rule="evenodd" clip-rule="evenodd" d="M349.336 156.934C350.182 156.688 351.037 156.141 351.727 155.33C351.818 155.224 351.905 155.115 351.984 155.005C352.51 156.112 353.582 157.129 355.01 157.732C356.163 158.219 357.347 158.351 358.372 158.179C358.542 157.107 358.469 156.011 358.035 154.99C357.839 154.526 357.564 154.096 357.226 153.721C355.803 152.139 353.354 151.865 351.615 153.095C350.707 153.735 350.031 154.699 349.67 155.74C349.556 156.071 349.459 156.411 349.378 156.754C349.364 156.813 349.349 156.875 349.337 156.934H349.336Z" fill="#858585"/>
<path fill-rule="evenodd" clip-rule="evenodd" d="M348.241 152.622C349.086 152.375 349.941 151.828 350.631 151.018C350.723 150.913 350.807 150.803 350.889 150.694C351.414 151.799 352.486 152.816 353.914 153.42C355.067 153.906 356.252 154.039 357.276 153.866C357.446 152.793 357.373 151.699 356.939 150.677C356.743 150.213 356.468 149.783 356.13 149.408C354.706 147.826 352.259 147.552 350.52 148.782C349.612 149.423 348.936 150.386 348.575 151.429C348.461 151.759 348.362 152.099 348.282 152.442C348.268 152.502 348.254 152.562 348.242 152.622L348.241 152.622Z" fill="#858585"/>
<path fill-rule="evenodd" clip-rule="evenodd" d="M349.668 147.572C344.946 149.021 345.988 153.056 347.585 155.655C347.246 156.565 346.944 158.234 348.381 159.757C348.141 160.632 348.051 161.721 349.098 162.427C349.098 162.427 349.084 162.027 349.135 161.577C349.473 162.407 350.126 162.863 350.128 162.866C349.957 162.544 349.431 162.35 349.404 160.621C349.496 160.469 349.32 160.417 349.771 160.333C350.222 160.249 353.746 168.891 358.714 163.598C358.714 163.598 358.876 163.504 359.125 163.344C359.248 163.265 359.394 163.17 359.549 163.062C360.167 163.335 360.765 162.939 360.765 162.939C360.511 162.95 360.261 162.862 360.028 162.72C360.171 162.614 360.771 162.482 360.704 162.312C360.646 162.159 359.921 161.967 360.039 161.858C360.091 161.81 360.933 161.963 360.982 161.914C362.041 161.868 362.115 161.484 362.115 161.484C360.634 161.642 362.974 160.487 362.973 160.477C362.973 160.477 355.274 156.889 355.989 154.165C356.832 150.951 354.919 146.93 351.646 147.468C351.112 147.243 350.14 147.428 349.668 147.572V147.572L349.668 147.572ZM347.879 156.254C348.852 158.041 348.864 158.222 348.737 158.672C348.61 159.122 348.572 159.31 348.494 159.537C347.595 158.462 347.677 157.041 347.879 156.254V156.254Z" fill="#858585"/>
<path fill-rule="evenodd" clip-rule="evenodd" d="M331.912 162.707C331.939 162.74 331.968 162.778 331.963 162.82C331.954 162.888 331.869 162.914 331.8 162.919C331.284 162.953 330.806 162.643 330.295 162.57C330.024 162.44 329.782 162.25 329.593 162.017C329.571 161.991 329.55 161.964 329.53 161.937C329.471 161.856 329.416 161.758 329.447 161.663C329.469 161.602 329.527 161.557 329.587 161.533C329.742 161.472 329.919 161.526 330.077 161.583C330.435 161.715 330.792 161.865 331.12 162.058C331.417 162.233 331.689 162.444 331.912 162.706V162.707Z" fill="#F7C49E"/>
<path fill-rule="evenodd" clip-rule="evenodd" d="M331.911 162.707C331.939 162.74 331.967 162.777 331.963 162.82C331.954 162.888 331.869 162.914 331.8 162.919C331.284 162.953 330.806 162.642 330.295 162.57C330.023 162.44 329.781 162.25 329.592 162.017C329.74 162.042 329.889 162.06 330.039 162.069C330.399 162.093 330.761 162.075 331.121 162.058C331.417 162.233 331.689 162.444 331.912 162.706L331.911 162.707Z" fill="#F4AE7C"/>
<path fill-rule="evenodd" clip-rule="evenodd" d="M330.201 162.9C330.311 162.987 330.485 163.145 330.393 163.301C330.294 163.464 330.107 163.373 329.981 163.312C329.57 163.117 329.135 162.977 328.688 162.9C328.469 162.862 328.249 162.838 328.027 162.808C327.51 162.735 327 162.62 326.502 162.462C326.454 162.448 326.404 162.431 326.368 162.395C326.295 162.321 326.315 162.19 326.385 162.113C326.392 162.106 326.399 162.1 326.406 162.093C326.476 162.031 326.57 162.001 326.661 161.982C326.726 161.968 326.792 161.957 326.86 161.95C327.204 161.912 327.558 161.961 327.901 162.022C328.718 162.165 329.552 162.386 330.201 162.901V162.9Z" fill="#F7C49E"/>
<path fill-rule="evenodd" clip-rule="evenodd" d="M329.574 162.804C328.566 162.433 327.494 162.294 326.439 162.097C326.429 162.095 326.418 162.093 326.406 162.091C326.475 162.029 326.569 162 326.661 161.981C326.726 161.966 326.792 161.955 326.86 161.948C326.942 161.957 327.024 161.965 327.106 161.974C327.243 161.988 327.381 162.001 327.517 162.025C327.686 162.056 327.85 162.103 328.015 162.15C328.573 162.31 329.103 162.464 329.574 162.804L329.574 162.804Z" fill="#F4AE7C"/>
<path fill-rule="evenodd" clip-rule="evenodd" d="M330.245 162.705C330.286 162.738 330.329 162.773 330.348 162.822C330.398 162.948 330.248 163.101 330.136 163.178C329.897 163.004 329.639 162.857 329.369 162.736C328.532 162.366 327.597 162.207 326.697 162.04C326.589 162.02 326.452 161.97 326.458 161.859C326.459 161.823 326.479 161.793 326.5 161.764C326.58 161.658 326.697 161.603 326.828 161.575C326.967 161.546 327.121 161.55 327.264 161.558C327.405 161.568 327.548 161.578 327.687 161.607C328.003 161.676 328.287 161.846 328.583 161.976C328.598 161.983 328.613 161.989 328.629 161.994C329.172 162.228 329.773 162.348 330.245 162.703L330.245 162.705Z" fill="#F7C49E"/>
<path fill-rule="evenodd" clip-rule="evenodd" d="M329.132 162.391C328.849 162.254 328.567 162.119 328.285 161.984C328.141 161.914 327.997 161.844 327.847 161.789C327.643 161.714 327.431 161.667 327.218 161.634C327.108 161.616 326.997 161.605 326.887 161.592C326.863 161.589 326.843 161.582 326.827 161.576C326.967 161.546 327.121 161.55 327.264 161.559C327.405 161.569 327.548 161.579 327.686 161.608C328.003 161.677 328.286 161.847 328.583 161.977C328.598 161.984 328.612 161.99 328.628 161.995C328.784 162.142 328.946 162.282 329.131 162.39L329.132 162.391Z" fill="#F4AE7C"/>
<path fill-rule="evenodd" clip-rule="evenodd" d="M327.637 161.518C327.71 161.518 327.781 161.539 327.851 161.559C328.287 161.694 328.72 161.87 329.168 161.968H329.169V161.969C329.21 161.978 329.251 161.987 329.294 161.994H329.295C329.456 162.025 329.62 162.043 329.785 162.043C330.269 162.047 330.748 161.979 331.229 161.953C331.431 161.942 331.634 161.937 331.839 161.95C332.084 161.964 332.327 162.005 332.561 162.073C332.833 162.154 333.113 162.272 333.354 162.433C333.434 162.485 333.51 162.544 333.579 162.606C333.713 162.728 333.827 162.866 333.936 163.008C333.988 163.074 334.026 163.137 334.066 163.2C334.546 163.787 339.093 169.934 339.093 169.934L343.736 164.872L345.875 169.019C345.875 169.019 343.33 172.61 341.903 174.081C341.522 174.474 340.198 175.906 338.854 175.906C337.509 175.906 336.299 173.667 335.891 172.979C334.892 171.297 332.151 164.22 332.09 164.053V164.053C331.247 163.816 330.44 163.502 329.641 163.15C329.63 163.145 329.619 163.141 329.609 163.136L329.603 163.133C329.523 163.095 329.444 163.042 329.431 162.958C329.427 162.929 329.431 162.894 329.416 162.867C329.401 162.84 329.371 162.827 329.341 162.814C329.311 162.801 329.28 162.79 329.248 162.776V162.776C329.228 162.768 329.211 162.76 329.193 162.752H329.192C329.065 162.7 328.937 162.646 328.811 162.593H328.81C328.61 162.51 328.409 162.426 328.208 162.345H328.206C328.124 162.309 328.042 162.276 327.96 162.241H327.959H327.958L327.955 162.24C327.842 162.193 327.728 162.145 327.615 162.098C327.553 162.073 327.492 162.047 327.441 162.004L327.436 161.997L327.42 161.982C327.264 161.812 327.41 161.521 327.637 161.518H327.637Z" fill="#F7C49E"/>
<path fill-rule="evenodd" clip-rule="evenodd" d="M333.356 162.434C333.435 162.487 333.511 162.545 333.58 162.607C333.714 162.728 333.827 162.868 333.937 163.009C333.836 163.1 333.725 163.181 333.611 163.255C333.454 163.356 333.3 163.433 333.132 163.513C333.279 163.377 333.388 163.202 333.448 163.011C333.471 162.939 333.485 162.865 333.485 162.79C333.481 162.661 333.431 162.539 333.355 162.434L333.356 162.434Z" fill="#F4AE7C"/>
<path fill-rule="evenodd" clip-rule="evenodd" d="M357.009 238.076C356.981 237.968 345.097 205.443 345.097 205.443L352.549 205.278C352.549 205.278 355.195 215.168 356.357 217.196C357.518 219.224 359.798 236.616 360.022 236.926C360.074 237.436 360.31 237.801 360.422 238.302C360.676 239.433 360.714 240.611 360.535 241.756C360.453 242.282 360.315 242.82 359.98 243.236C359.775 243.493 359.503 243.689 359.219 243.857C358.657 244.188 357.866 244.413 357.243 244.219C357.364 243.156 357.526 241.877 357.456 240.806C357.421 240.251 357.26 238.994 357.009 238.076V238.076Z" fill="#F6BE96"/>
<path fill-rule="evenodd" clip-rule="evenodd" d="M359.401 246.342C359.914 245.979 360.962 245.025 361.057 244.867C361.138 244.731 361.402 241.644 361.393 240.86L363.028 244.124L363.517 243.879C363.085 242.102 362.547 240.349 361.908 238.633C361.73 238.157 361.539 237.674 361.209 237.285C360.879 236.899 360.487 236.608 359.981 236.67C360.01 238.287 359.855 239.976 359.777 241.593C359.744 242.27 359.545 242.938 358.965 243.309C358.711 243.47 358.375 243.421 358.089 243.509C358.007 243.533 357.267 243.619 357.26 243.645C357.012 244.465 355.277 245.422 355.086 245.512C354.775 245.661 354.746 246.418 355.067 246.595L359.403 246.34L359.401 246.342Z" fill="#858585"/>
<path fill-rule="evenodd" clip-rule="evenodd" d="M344.969 242.185C345.192 241.657 345.627 239.564 345.69 239.004C345.731 238.631 346.314 225.488 346.065 218.199C345.894 213.22 348.249 209.729 348.249 209.729C348.249 209.729 355.177 208.237 356.111 209.729C356.736 210.726 352.616 217.515 352.616 217.515C352.616 217.515 354.425 219.01 349.247 238.257C349.174 238.527 349.045 239.408 349.111 239.796C348.924 240.289 348.972 240.733 348.845 241.244C348.558 242.399 348.052 243.498 347.361 244.468C347.043 244.914 346.669 245.344 346.172 245.573C345.864 245.715 345.524 245.771 345.186 245.795C344.519 245.842 343.687 245.687 343.204 245.223C343.806 244.301 344.541 243.2 344.97 242.186L344.969 242.185Z" fill="#F7C49E"/>
<path fill-rule="evenodd" clip-rule="evenodd" d="M349.084 239.503C349.576 239.678 349.908 240.163 350.033 240.67C350.159 241.177 350.112 241.709 350.056 242.227C349.855 244.097 349.543 245.953 349.124 247.786H348.561V244.037C348.209 244.762 347.851 245.489 347.5 246.214C347.325 246.575 347.15 246.936 346.949 247.283C346.869 247.419 346.784 247.589 346.646 247.676C346.472 247.787 345.062 248.064 344.587 248.129C343.846 248.234 343.096 248.293 342.345 248.271C341.958 248.261 341.572 248.228 341.19 248.17C340.968 248.137 340.529 248.106 340.471 247.827C340.38 247.383 340.611 247.061 340.961 246.838C341.143 246.721 341.324 246.6 341.5 246.475C342.217 245.963 342.876 245.345 343.481 244.705C343.499 244.685 344.218 244.946 344.304 244.959C344.609 245.011 344.921 245.029 345.229 244.996C345.933 244.922 346.397 244.579 346.737 243.973C347.553 242.523 348.367 241.005 349.084 239.504L349.084 239.503Z" fill="#858585"/>
<path fill-rule="evenodd" clip-rule="evenodd" d="M340.021 168.585C341.267 170.021 342.308 171.047 343.58 172.46C343.716 172.311 343.852 172.158 343.983 172.008C343.997 171.992 344.011 171.976 344.024 171.96C344.55 171.354 344.985 170.803 345.002 170.781H345.003L345.007 170.879V170.879C345.05 171.861 345.956 179.714 346.018 180.017C346.133 180.591 344.356 185.054 344.615 185.312C347.918 188.61 357.62 187.702 359.432 184.15C359.642 183.739 356.336 179.112 356.336 179.112C356.336 179.112 357.46 175.677 358.169 173.185C358.25 172.901 358.325 172.628 358.392 172.376C358.652 171.406 358.837 170.711 358.849 170.655V170.652C358.921 170.864 359.044 171.427 359.238 172.073C359.885 171.88 364.16 170.988 364.609 170.781C363.099 166.004 361.174 163.594 360.291 162.89C359.667 162.391 355.542 160.84 350.944 161.185C348.357 161.379 345.277 162.541 344.754 163.014C343.444 164.198 341.384 166.814 340.021 168.585V168.585Z" fill="#BCBCBC"/>
<path fill-rule="evenodd" clip-rule="evenodd" d="M349.812 162.534C350.085 163.404 351.002 163.609 351.813 163.6C352.709 163.59 353.891 163.383 354.21 162.406C354.43 161.731 354.272 160.957 354.269 160.263C354.266 159.8 354.281 159.338 354.318 158.878C354.341 158.594 354.372 158.313 354.413 158.032C354.446 157.805 354.484 157.579 354.526 157.352C354.554 157.201 354.585 157.05 354.617 156.9C354.641 156.794 354.767 156.51 354.645 156.437C354.533 156.371 354.299 156.57 354.205 156.626C352.816 157.458 351.365 158.189 349.867 158.807C349.809 158.831 349.748 158.857 349.713 158.911C349.681 158.962 349.678 159.025 349.678 159.086C349.678 159.571 349.678 160.057 349.678 160.542C349.677 160.73 349.672 160.92 349.669 161.109C349.66 161.589 349.667 162.067 349.813 162.534H349.812Z" fill="#F7C49E"/>
<path fill-rule="evenodd" clip-rule="evenodd" d="M349.667 161.108C350.966 160.752 352.215 160.219 353.356 159.507C353.673 159.309 353.999 159.1 354.317 158.877C354.34 158.593 354.371 158.312 354.412 158.031C354.445 157.804 354.483 157.578 354.524 157.352C354.553 157.201 354.583 157.049 354.616 156.899C354.639 156.793 354.765 156.509 354.643 156.437C354.531 156.37 354.298 156.569 354.204 156.625C352.814 157.457 351.364 158.188 349.866 158.806C349.808 158.83 349.746 158.857 349.712 158.91C349.679 158.961 349.677 159.024 349.677 159.085C349.676 159.57 349.676 160.056 349.676 160.541C349.675 160.73 349.67 160.919 349.668 161.108L349.667 161.108Z" fill="#F4AE7C"/>
<path fill-rule="evenodd" clip-rule="evenodd" d="M347.51 157.267C347.788 157.946 348.174 158.563 348.806 158.96C349.368 159.312 350.043 159.485 350.705 159.456C351.435 159.424 352.139 159.17 352.762 158.778C353.072 158.584 353.363 158.354 353.625 158.102C354.085 157.661 354.471 157.15 354.804 156.609C355.344 155.729 355.779 154.725 355.997 153.69C356.021 153.57 356.043 153.45 356.064 153.33C356.231 152.272 356.16 151.19 355.731 150.182C355.537 149.722 355.266 149.298 354.932 148.928C353.526 147.365 351.11 147.096 349.391 148.309C348.495 148.941 347.828 149.893 347.471 150.921C347.358 151.248 347.261 151.583 347.181 151.923C347.168 151.982 347.154 152.041 347.142 152.101C346.774 153.811 346.847 155.651 347.51 157.267L347.51 157.267Z" fill="#F7C49E"/>
<path fill-rule="evenodd" clip-rule="evenodd" d="M351.371 154.271C351.475 154.267 351.601 154.091 351.618 153.845C351.628 153.716 351.603 153.59 351.551 153.497C351.534 153.466 351.485 153.393 351.422 153.389H351.412C351.309 153.392 351.182 153.568 351.165 153.814C351.157 153.944 351.181 154.07 351.232 154.162C351.249 154.193 351.298 154.267 351.362 154.271H351.371H351.371Z" fill="#858585"/>
<path fill-rule="evenodd" clip-rule="evenodd" d="M348.268 154.258C348.354 154.254 348.487 154.096 348.503 153.846C348.512 153.721 348.488 153.599 348.439 153.51C348.404 153.446 348.358 153.408 348.316 153.405H348.307C348.22 153.408 348.087 153.566 348.07 153.817C348.062 153.942 348.085 154.064 348.135 154.152C348.172 154.215 348.215 154.254 348.258 154.257H348.268L348.268 154.258Z" fill="#858585"/>
<path fill-rule="evenodd" clip-rule="evenodd" d="M349.863 154.672C349.774 154.592 349.634 154.567 349.509 154.602C349.379 154.636 349.268 154.741 349.219 154.866C349.167 154.988 349.173 155.141 349.24 155.256C349.306 155.369 349.423 155.449 349.543 155.453C349.452 155.378 349.397 155.289 349.371 155.199C349.346 155.108 349.354 155.018 349.388 154.935C349.423 154.851 349.479 154.781 349.562 154.735C349.645 154.689 349.747 154.663 349.864 154.673L349.863 154.672Z" fill="#F4AE7C"/>
<path fill-rule="evenodd" clip-rule="evenodd" d="M351.207 152.496C351.217 152.496 351.226 152.493 351.236 152.491C351.346 152.446 351.471 152.423 351.596 152.425C351.612 152.425 351.629 152.426 351.647 152.427C351.759 152.434 351.871 152.464 351.97 152.51C351.977 152.514 351.987 152.516 351.994 152.517C352.006 152.517 352.014 152.516 352.023 152.514C352.04 152.508 352.057 152.493 352.065 152.476C352.082 152.44 352.066 152.398 352.03 152.381C351.916 152.327 351.788 152.294 351.657 152.285C351.639 152.283 351.619 152.282 351.599 152.282C351.455 152.279 351.31 152.306 351.18 152.358C351.144 152.372 351.125 152.414 351.141 152.451C351.151 152.476 351.175 152.493 351.203 152.496H351.206L351.207 152.496Z" fill="#858585"/>
<path fill-rule="evenodd" clip-rule="evenodd" d="M348.743 152.29L348.756 152.284C348.77 152.276 348.781 152.262 348.787 152.245C348.8 152.207 348.779 152.168 348.741 152.155C348.556 152.095 348.348 152.092 348.157 152.15C348.14 152.155 348.123 152.16 348.106 152.167C348.06 152.183 348.014 152.204 347.972 152.226C347.938 152.244 347.924 152.289 347.943 152.323C347.96 152.354 347.993 152.368 348.026 152.358C348.033 152.355 348.037 152.354 348.04 152.352C348.076 152.332 348.114 152.315 348.155 152.301C348.169 152.296 348.183 152.292 348.197 152.287C348.361 152.239 348.539 152.241 348.697 152.292C348.71 152.296 348.725 152.296 348.739 152.292H348.743V152.29Z" fill="#858585"/>
<path fill-rule="evenodd" clip-rule="evenodd" d="M351.365 153.554C351.512 153.509 351.582 153.737 351.434 153.783C351.288 153.827 351.218 153.599 351.365 153.554V153.554Z" fill="white"/>
<path fill-rule="evenodd" clip-rule="evenodd" d="M348.211 153.541C348.358 153.496 348.428 153.725 348.281 153.77C348.134 153.815 348.064 153.586 348.211 153.541V153.541Z" fill="white"/>
<path fill-rule="evenodd" clip-rule="evenodd" d="M348.104 156.025C348.1 156.444 348.212 156.832 348.406 157.154C348.714 157.67 349.233 158.01 349.825 158.014C350.429 158.021 350.965 157.673 351.279 157.142C351.465 156.832 351.575 156.459 351.579 156.055C351.579 156.042 351.577 156.027 351.577 156.012L348.108 155.981C348.108 155.996 348.105 156.012 348.105 156.026L348.104 156.025Z" fill="#F4AE7C"/>
<path fill-rule="evenodd" clip-rule="evenodd" d="M348.248 155.983C348.633 156.397 349.2 156.661 349.835 156.666C350.471 156.672 351.043 156.418 351.435 156.01L348.248 155.983V155.983Z" fill="#FCE7DA"/>
<path fill-rule="evenodd" clip-rule="evenodd" d="M348.406 157.154C348.714 157.67 349.234 158.01 349.826 158.014C350.43 158.02 350.965 157.673 351.279 157.142C350.688 157.007 350.078 156.957 349.471 156.995C349.112 157.017 348.756 157.072 348.406 157.155L348.406 157.154Z" fill="#F6B78B"/>
<path fill-rule="evenodd" clip-rule="evenodd" d="M347.083 152.085C347.929 151.838 348.784 151.291 349.474 150.481C349.566 150.375 349.651 150.266 349.732 150.157C350.257 151.262 351.329 152.279 352.757 152.882C353.91 153.369 355.095 153.502 356.119 153.329C356.289 152.256 356.217 151.162 355.782 150.14C355.586 149.676 355.311 149.246 354.973 148.872C353.549 147.289 351.101 147.015 349.361 148.245C348.455 148.886 347.779 149.849 347.417 150.89C347.304 151.221 347.204 151.56 347.125 151.904C347.111 151.964 347.096 152.025 347.084 152.085L347.083 152.085Z" fill="#858585"/>
<path fill-rule="evenodd" clip-rule="evenodd" d="M353.08 155.59C353.656 155.992 354.451 156.062 355.085 155.758C355.622 155.502 356.024 154.988 356.153 154.41C356.177 154.305 356.191 154.199 356.197 154.09C356.206 153.901 356.184 153.709 356.12 153.531C355.958 153.092 355.51 152.783 355.044 152.752C354.577 152.721 354.106 152.958 353.827 153.332L353.539 154.2L353.079 155.589L353.08 155.59Z" fill="#F7C49E"/>
<path fill-rule="evenodd" clip-rule="evenodd" d="M349.681 161.185C349.751 161.794 349.842 162.439 350.326 162.875C350.749 163.258 351.343 163.422 351.909 163.418C352.503 163.413 353.095 163.222 353.577 162.876C354.121 162.485 354.285 161.828 354.303 161.191C354.312 160.894 354.782 160.891 354.774 161.191C354.753 161.928 354.554 162.703 353.947 163.177C353.371 163.626 352.643 163.874 351.909 163.88C351.219 163.887 350.506 163.669 349.993 163.203C349.414 162.677 349.295 161.918 349.211 161.185C349.176 160.889 349.648 160.891 349.682 161.185L349.681 161.185Z" fill="#D2D2D2"/>
<path fill-rule="evenodd" clip-rule="evenodd" d="M342.615 206.163C343.086 211.315 343.424 215.6 343.568 215.708C343.833 215.908 344.131 216.091 344.457 216.257C348.034 218.072 353.916 217.848 357.297 215.895C357.814 209.63 361.957 195.895 361.505 189.963C361.15 185.327 358.667 182.149 356.337 179.113C352.842 180.469 349.772 180.857 346.018 180.018C345.051 182.286 343.737 183.979 342.656 190.006C342.023 193.538 342.132 200.869 342.616 206.163L342.615 206.163Z" fill="#928E89"/>
<path fill-rule="evenodd" clip-rule="evenodd" d="M342.616 206.163C343.087 211.315 343.424 215.6 343.569 215.708C343.834 215.908 344.131 216.091 344.458 216.256C344.995 210.078 345.839 203.925 346.988 197.83C345.925 200.498 345.149 202.89 343.413 205.18C343.157 205.518 342.892 205.845 342.616 206.163H342.616Z" fill="#858585"/>
<path fill-rule="evenodd" clip-rule="evenodd" d="M350.235 188.425L361.467 184.445L355.684 168.186L344.452 172.167L350.235 188.425V188.425Z" fill="#D1A383"/>
<path fill-rule="evenodd" clip-rule="evenodd" d="M349.89 188.517L361.317 185.133L356.4 168.593L344.976 171.976L349.89 188.517V188.517Z" fill="#E3BB9B"/>
<path fill-rule="evenodd" clip-rule="evenodd" d="M357.857 170.302C357.892 171.248 358.044 172.377 358.169 173.186C358.25 172.901 358.325 172.629 358.393 172.377C358.652 171.407 358.837 170.711 358.849 170.655V170.652C358.849 170.652 358.294 168.496 358.231 167.749C358.169 167.001 358.108 166.254 358.108 166.254C358.108 166.254 357.795 168.621 357.857 170.303L357.857 170.302Z" fill="#D2D2D2"/>
<path fill-rule="evenodd" clip-rule="evenodd" d="M343.912 170.88C343.922 171.148 343.95 171.57 343.983 172.008C343.997 171.993 344.01 171.977 344.024 171.961C344.55 171.355 344.985 170.803 345.002 170.782H345.002C345.002 170.782 344.815 168.558 344.877 167.499C344.958 166.135 345.108 164.99 345.128 164.946C345.092 164.996 344.252 166.58 344.066 167.686C343.879 168.807 343.882 170.089 343.912 170.88V170.88Z" fill="#D2D2D2"/>
<path fill-rule="evenodd" clip-rule="evenodd" d="M348.633 183.171C348.567 183.179 348.278 183.142 348.038 183.146C347.71 183.153 347.421 183.202 347.421 183.202C347.421 183.202 347.292 183.09 347.045 182.977C346.94 182.929 346.775 182.912 346.661 182.859C346.542 182.804 346.442 182.703 346.331 182.655C346.04 182.527 345.773 182.499 345.686 182.652C345.612 182.777 347.229 183.764 347.229 183.764C348.729 183.773 350.272 184.172 353.769 182.253C355.751 181.388 364.034 177.254 364.501 176.357C364.611 175.775 364.925 174.35 364.243 170.896L359.587 171.982C359.818 174.155 359.37 174.468 359.244 174.816C359.039 175.413 354.302 178.418 352.435 180.04L350.581 179.847C350.581 179.847 347.64 180.05 347.549 180.383C347.512 180.537 347.757 180.613 348.055 180.658H348.065C348.108 180.662 348.153 180.669 348.198 180.673H348.202C348.527 180.711 348.867 180.718 348.95 180.747C349.041 180.779 349.231 180.853 349.393 180.963C347.558 181.711 347.7 181.444 347.093 181.406C346.939 181.394 346.778 181.44 346.632 181.428C346.388 181.406 346.189 181.259 346.001 181.247C345.721 181.233 345.494 181.362 345.445 181.414C345.379 181.478 345.501 181.574 345.735 181.679C347.151 182.293 348.324 182.057 348.699 182.148C348.951 182.21 348.49 182.305 347.77 182.227C347.592 182.21 347.355 182.275 347.119 182.219C346.959 182.184 346.815 182.082 346.661 182.045C346.516 182.007 346.37 182.01 346.248 181.989C346.091 181.96 345.869 181.838 345.743 181.825C345.273 181.769 345.046 181.853 344.992 181.895C344.883 181.993 347.019 182.811 347.019 182.811C347.019 182.811 348.491 183.022 348.819 183.022C348.819 183.022 349.018 183.112 348.633 183.171V183.171Z" fill="#F7C49E"/>
<path fill-rule="evenodd" clip-rule="evenodd" d="M269.063 174.564H322.953V178.191H269.063V174.564Z" fill="white"/>
<rect x="269.062" y="190.928" width="69.9407" height="3.62793" fill="white"/>
<path fill-rule="evenodd" clip-rule="evenodd" d="M269.06 182.745H296.686V186.374H269.06V182.745Z" fill="white"/>
<rect x="269.062" y="199.108" width="39.882" height="3.62939" fill="white"/>
<path fill-rule="evenodd" clip-rule="evenodd" d="M282.735 149.246H269.787V148.059H282.735V149.246V149.246V149.246ZM279.545 157.279H269.787V156.091H279.545V157.279V157.279V157.279ZM287.387 151.924H269.788V150.736H287.387V151.924V151.924V151.924ZM292.172 154.602H269.788V153.415H292.172V154.602H292.172Z" fill="white"/>
<path fill-rule="evenodd" clip-rule="evenodd" d="M246 245.941C246 245.941 246.283 250.494 247.168 250.56C247.283 250.568 251.642 250.568 251.642 250.568L257.21 250.536C257.21 250.536 257.172 249.198 255.546 248.915C253.917 248.632 251.194 247.491 250.208 245.345C249.173 243.087 246 245.942 246 245.942V245.941Z" fill="#393939"/>
<path fill-rule="evenodd" clip-rule="evenodd" d="M245.678 246.257C245.678 246.257 247.37 246.821 248.692 246.821C250.167 246.821 251.505 246.421 251.505 246.421C251.505 246.421 251.823 243.347 253.575 236.573C254.494 233.021 255.805 228.457 257.676 222.784C262.838 207.105 264.404 197.933 264.551 197.065C264.558 197.019 264.558 196.996 264.558 196.996L264.544 196.988L248.671 190.034C248.671 190.034 250.635 211.641 248.133 219.937C247.782 221.095 247.483 222.446 247.224 223.91C245.643 232.918 245.678 246.257 245.678 246.257L245.678 246.257Z" fill="#858585"/>
<path fill-rule="evenodd" clip-rule="evenodd" d="M247.224 223.909L253.574 236.573C254.494 233.021 255.805 228.456 257.675 222.784C262.837 207.104 264.403 197.933 264.55 197.065C264.547 197.04 264.547 197.014 264.543 196.988L248.67 190.034C248.67 190.034 250.635 211.641 248.132 219.937C247.782 221.095 247.482 222.446 247.223 223.91L247.224 223.909Z" fill="#686868"/>
<path fill-rule="evenodd" clip-rule="evenodd" d="M258.395 245.941C258.395 245.941 258.678 250.494 259.563 250.56C259.678 250.568 264.037 250.568 264.037 250.568L269.605 250.536C269.605 250.536 269.567 249.198 267.941 248.915C266.312 248.632 263.592 247.491 262.607 245.345C261.568 243.087 258.395 245.942 258.395 245.942L258.395 245.941Z" fill="#393939"/>
<path fill-rule="evenodd" clip-rule="evenodd" d="M267.392 190.542C267.392 190.542 267.599 204.543 265.173 221.737C262.743 238.929 263.568 246.227 263.568 246.227C263.568 246.227 261.9 246.767 261.226 246.82C259.514 246.961 257.755 246.421 257.755 246.421C257.755 246.421 254.28 229.22 255.277 220.615C256.273 212.01 250.52 191.088 250.52 191.088L267.392 190.541V190.542Z" fill="#928E89"/>
<path fill-rule="evenodd" clip-rule="evenodd" d="M254.57 157.339C254.57 157.339 246.528 165.531 246.129 168.762C245.731 171.991 250.084 177.044 250.084 177.044L254.571 157.339L254.57 157.339Z" fill="#BEBEBE"/>
<path fill-rule="evenodd" clip-rule="evenodd" d="M256.14 157.774L259.236 159.801L263.711 158.968C263.652 158.608 263.354 157.114 263.085 155.759C263.072 155.679 263.054 155.6 263.04 155.521C262.81 154.37 262.611 153.38 262.611 153.38L258.43 151.539L256.87 150.853C256.873 150.877 256.989 152.131 257.006 152.314C257.3 155.566 256.14 157.774 256.14 157.774V157.774Z" fill="#F4AE7C"/>
<path fill-rule="evenodd" clip-rule="evenodd" d="M262.569 156.751C262.481 156.714 257.5 154.899 256.923 155.089C256.35 155.28 255.238 156.821 255.238 156.821L264.357 158.603C264.357 158.603 263.677 157.217 262.568 156.751H262.569Z" fill="#BEBEBE"/>
<path fill-rule="evenodd" clip-rule="evenodd" d="M248.286 192.27C249.184 196.364 264.145 196.849 268.004 193.134C268.442 192.71 268.462 190.739 268.298 188.083C267.973 182.892 266.934 175.083 266.893 171.095C266.875 169.169 266.61 167.198 266.256 165.409C265.505 161.595 264.358 158.603 264.358 158.603C264.358 158.603 257.053 156.246 255.682 156.645C249.096 158.578 247.387 188.177 248.285 192.27H248.286Z" fill="#C1C1C1"/>
<path fill-rule="evenodd" clip-rule="evenodd" d="M268.298 188.083C267.973 182.892 266.935 175.082 266.893 171.095C266.876 169.169 266.611 167.198 266.256 165.409L261.859 164.635C261.859 164.635 257.563 182.157 268.298 188.083V188.083Z" fill="#BEBEBE"/>
<path fill-rule="evenodd" clip-rule="evenodd" d="M257.322 152.37C258.238 153.924 261.66 155.265 263.085 155.758C263.072 155.679 263.054 155.599 263.04 155.521C262.81 154.369 262.611 153.379 262.611 153.379L258.43 151.538C257.503 151.525 256.94 151.732 257.321 152.37H257.322Z" fill="#F29F69"/>
<path fill-rule="evenodd" clip-rule="evenodd" d="M264.187 153.126C264.187 153.126 257.451 155.223 256.207 151.017C254.962 146.811 253.257 144.249 257.504 142.732C261.751 141.216 263.065 142.573 263.824 143.876C264.579 145.179 265.903 152.473 264.187 153.126V153.126Z" fill="#F4AE7C"/>
<path fill-rule="evenodd" clip-rule="evenodd" d="M284.022 164.993C283.757 164.494 283.667 164.091 283.894 163.213C284.184 162.109 285.438 159.956 285.438 159.956C285.438 159.956 285.71 159.317 286.111 159.424C286.474 159.522 286.56 159.831 286.451 160.223C286.339 160.615 286.119 162.162 286.153 162.121C286.23 162.027 287.434 161.784 290.163 159.923C290.376 159.778 290.774 159.624 291.048 159.979C291.347 160.367 290.973 160.837 290.973 160.837C290.973 160.837 291.504 160.39 291.849 160.74C292.254 161.152 291.758 161.752 291.758 161.752C291.758 161.752 292.012 161.657 292.221 161.915C292.488 162.245 292.078 162.712 292.078 162.712C292.078 162.712 292.48 163.007 291.906 163.661C291.058 164.623 289.786 165.25 288.61 165.675C287.788 165.972 285.592 166.395 285.089 166.29C284.381 166.142 284.264 165.451 284.022 164.99L284.022 164.993Z" fill="#F6BD94"/>
<path fill-rule="evenodd" clip-rule="evenodd" d="M263.558 143.47C263.558 143.47 263.128 148.364 262.114 148.152C261.1 147.94 260.181 147.782 260.327 149.257C260.478 150.732 260.327 152.812 257.203 153.072C254.075 153.333 251.138 144.914 251.998 143.39C254.477 138.995 267.137 138.108 263.558 143.47V143.47Z" fill="#686868"/>
<path fill-rule="evenodd" clip-rule="evenodd" d="M259.256 160.365C259.256 160.365 259.753 164.689 264.534 168.443C269.314 172.202 272.889 174.701 274.743 174.201C276.596 173.706 285.824 167.298 285.894 166.314C285.963 165.328 285.486 162.671 283.879 162.471C283.879 162.471 274.775 167.488 273.673 166.998C266.997 164.021 268.868 160.941 263.618 158.459C261.909 157.651 259.799 157.714 259.256 160.367L259.256 160.365Z" fill="#C1C1C1"/>
<path fill-rule="evenodd" clip-rule="evenodd" d="M225.732 242.87C225.732 242.87 225.38 246.26 226.15 246.624C226.92 246.989 236.019 246.672 236.019 246.672C236.019 246.672 235.995 245.532 234.423 245.31C232.852 245.089 230.081 244.216 229.572 242.157C229.063 240.095 225.732 242.87 225.732 242.87V242.87Z" fill="#343434"/>
<path fill-rule="evenodd" clip-rule="evenodd" d="M223.575 156.7C223.575 156.7 229.537 159.029 230.162 157.693C230.253 157.154 230.326 156.662 230.383 156.223C230.589 154.635 230.597 153.732 230.597 153.732L226.663 150.567L225.781 149.857C225.805 150.608 225.76 151.303 225.661 151.944C225.653 151.996 225.645 152.046 225.637 152.096C224.998 155.905 223.575 156.699 223.575 156.699L223.575 156.7Z" fill="#F6BD94"/>
<path fill-rule="evenodd" clip-rule="evenodd" d="M225.607 152.039C225.607 152.039 225.617 152.058 225.638 152.097C225.886 152.541 227.582 155.403 230.383 156.223C230.589 154.635 230.597 153.732 230.597 153.732L226.663 150.567C226.145 151.175 225.79 151.731 225.661 151.945C225.625 152.006 225.606 152.038 225.606 152.038L225.607 152.039Z" fill="#EFB188"/>
<path fill-rule="evenodd" clip-rule="evenodd" d="M231.732 153.644C231.732 153.644 225.604 154.66 225.031 150.842C224.454 147.024 223.277 144.583 227.164 143.774C231.051 142.964 232.033 144.307 232.535 145.534C233.038 146.763 233.31 153.281 231.732 153.644V153.644Z" fill="#F6BD94"/>
<path fill-rule="evenodd" clip-rule="evenodd" d="M226.151 149.858C226.151 149.858 225.337 149.037 225.806 148.521C226.276 148.004 226.545 148.791 226.916 148.767C227.285 148.742 227.951 147.659 228 146.676C228.051 145.692 231.608 147.193 233.038 146.726C234.468 146.259 235.722 144.35 233.486 143.323C232.172 142.717 225.606 139.606 223.113 142.764C219.938 146.789 224.179 151.007 224.746 151.647C225.313 152.287 225.639 152.099 225.639 152.099C225.639 152.099 226.637 150.746 226.152 149.86L226.151 149.858Z" fill="#686868"/>
<path fill-rule="evenodd" clip-rule="evenodd" d="M222.981 143.132C222.998 142.836 223.064 142.057 223.326 141.581C223.326 141.581 223.309 142.385 223.424 142.795C223.539 143.205 222.981 143.131 222.981 143.131V143.132Z" fill="#575757"/>
<path fill-rule="evenodd" clip-rule="evenodd" d="M222.331 142.477C222.331 142.477 223.105 142.559 223.153 143.166L222.871 143.527C222.871 143.527 222.921 142.756 222.33 142.477H222.331Z" fill="#575757"/>
<path fill-rule="evenodd" clip-rule="evenodd" d="M216.669 242.87C216.669 242.87 216.306 246.343 217.071 246.715C217.395 246.873 227.33 246.772 227.33 246.772C227.33 246.772 226.933 245.531 225.36 245.31C223.788 245.088 221.017 244.216 220.509 242.156C219.999 240.095 216.669 242.87 216.669 242.87V242.87Z" fill="#575757"/>
<path fill-rule="evenodd" clip-rule="evenodd" d="M221.383 190.841C221.383 190.841 221.39 191.213 221.404 191.882C221.498 196.199 221.868 212.89 222.218 222.194C222.233 222.532 222.246 222.861 222.258 223.18C222.264 223.347 222.271 223.516 222.277 223.684C222.488 228.182 223.099 232.588 223.716 236.11C224.504 240.604 225.303 243.663 225.303 243.663C228.307 244.269 230.253 243.131 230.253 243.131C230.253 243.131 231.062 236.158 231.369 231.937C231.471 230.568 231.965 225.896 232.585 220.214C233.067 215.817 233.622 210.818 234.132 206.269C234.16 206.028 234.185 205.785 234.213 205.545C235.037 198.194 235.72 192.204 235.72 192.204L230.41 191.7L221.381 190.843L221.383 190.841Z" fill="#858585"/>
<path fill-rule="evenodd" clip-rule="evenodd" d="M223.716 236.109L232.585 220.212C233.067 215.816 233.623 210.816 234.133 206.267C234.16 206.026 234.186 205.783 234.213 205.544C235.037 198.192 235.72 192.203 235.72 192.203L230.411 191.699L221.403 191.881L223.716 236.109V236.109Z" fill="#686868"/>
<path fill-rule="evenodd" clip-rule="evenodd" d="M234.738 192.244C234.738 192.244 229.776 216.729 225.732 228.546C221.689 240.365 221.639 243.648 221.639 243.648C221.639 243.648 217.928 244.45 216.293 243.518C216.293 243.518 215.358 221.116 217.805 215.164C219.423 211.23 220.662 202.853 220.24 199.836C219.82 196.821 219.428 190.77 219.428 190.77L234.738 192.243L234.738 192.244Z" fill="#928E89"/>
<path fill-rule="evenodd" clip-rule="evenodd" d="M220.748 193.552C221.921 194.381 223.77 194.68 225.805 194.649C228.183 194.612 230.814 194.12 232.918 193.493C234.05 193.155 235.027 192.779 235.733 192.41C238.876 190.774 236.4 166.24 232.226 159.577C230.313 156.525 224.514 155.585 224.514 155.585C223.575 156.033 221.014 160.91 220.857 164.281C220.682 168.026 221.021 172.747 221.021 177.053C221.021 180.613 220.348 183.759 219.858 186.369C219.224 189.758 218.897 192.241 220.748 193.551V193.552Z" fill="#C1C1C1"/>
<path fill-rule="evenodd" clip-rule="evenodd" d="M225.805 194.649C228.183 194.612 230.814 194.12 232.918 193.493C233.804 191.376 234.192 187.847 233.374 182.017C232.75 177.575 228.205 159.7 228.205 159.7C224.536 159.223 217.096 184.804 225.805 194.649V194.649Z" fill="#BEBEBE"/>
<path fill-rule="evenodd" clip-rule="evenodd" d="M229.668 194.738C229.668 194.738 231.185 197.658 230.425 198.792C229.668 199.928 226.959 198.469 226.742 197.819C226.526 197.171 226.742 194.034 226.742 194.034L229.668 194.738V194.738Z" fill="#D99054"/>
<path fill-rule="evenodd" clip-rule="evenodd" d="M229.91 194.652C229.91 194.652 230.594 195.292 230.638 195.775C230.683 196.259 231.22 197.322 231.081 197.42C230.632 197.733 229.91 196.436 229.91 196.436L229.657 195.004L229.91 194.652V194.652Z" fill="#D99054"/>
<path fill-rule="evenodd" clip-rule="evenodd" d="M221.908 165.448C221.908 165.448 222.623 175.616 222.614 179.822C222.605 184.027 225.957 195.215 225.957 195.215C225.957 195.215 228.176 195.392 229.046 195.281C230.05 195.151 230.648 194.692 230.648 194.692C230.648 194.692 229.911 181.473 231.317 176.408C232.722 171.341 232.795 161.167 232.795 161.167C232.795 161.167 232.015 158.97 227.343 159.663C221.8 160.485 221.908 165.448 221.908 165.448L221.908 165.448Z" fill="#C1C1C1"/>
<path fill-rule="evenodd" clip-rule="evenodd" d="M229.863 149.499C229.602 149.528 229.286 148.566 229.917 148.494C230.253 148.453 230.288 149.449 229.863 149.499V149.499Z" fill="#686868"/>
<path fill-rule="evenodd" clip-rule="evenodd" d="M232.531 149.331C232.271 149.331 232.061 148.34 232.695 148.339C233.034 148.338 232.961 149.329 232.531 149.331V149.331Z" fill="#686868"/>
<path fill-rule="evenodd" clip-rule="evenodd" d="M231.614 150.829L231.629 150.826C231.985 150.769 232.172 150.733 232.246 150.605C232.314 150.486 232.261 150.35 232.164 150.095C232.056 149.815 231.896 149.389 231.775 148.699C231.765 148.649 231.717 148.616 231.666 148.623C231.616 148.633 231.581 148.679 231.591 148.73C231.715 149.439 231.881 149.874 231.992 150.161C232.055 150.328 232.108 150.47 232.085 150.511C232.052 150.569 231.801 150.611 231.601 150.644C231.551 150.651 231.516 150.7 231.524 150.75C231.531 150.796 231.571 150.827 231.615 150.827L231.614 150.829Z" fill="#EFB188"/>
<path fill-rule="evenodd" clip-rule="evenodd" d="M232.229 148.033C232.102 148.031 231.977 147.99 231.901 147.906C231.711 147.698 231.974 147.497 232.221 147.418C232.415 147.356 232.631 147.347 232.849 147.375L232.896 148.031C232.705 148.035 232.485 148.037 232.23 148.033L232.229 148.033Z" fill="#686868"/>
<path fill-rule="evenodd" clip-rule="evenodd" d="M229.753 148.236C229.876 148.205 229.989 148.134 230.042 148.036C230.178 147.788 229.875 147.655 229.614 147.638C229.088 147.6 228.514 147.938 228.102 148.328C228.014 148.412 228.083 148.56 228.202 148.549C228.463 148.524 228.929 148.447 229.753 148.236V148.236Z" fill="#686868"/>
<path fill-rule="evenodd" clip-rule="evenodd" d="M229.988 151.777C230.813 151.828 231.276 151.771 232.087 151.622C232.412 151.562 231.628 153.994 229.935 151.904C229.896 151.855 229.923 151.771 229.987 151.777L229.988 151.777Z" fill="#EFB188"/>
<path fill-rule="evenodd" clip-rule="evenodd" d="M230.041 151.82C229.742 152.112 231.634 152.225 231.978 151.944C232.015 151.912 232.138 151.746 232.1 151.692C232.065 151.637 231.839 151.72 231.78 151.732C231.199 151.846 230.653 151.875 230.041 151.82H230.041Z" fill="white"/>
<path d="M34 153H32.544L26.688 144.12V153H25.232V141.832H26.688L32.544 150.696V141.832H34V153ZM40.306 153.144C39.4847 153.144 38.738 152.957 38.066 152.584C37.4047 152.211 36.882 151.683 36.498 151C36.1247 150.307 35.938 149.507 35.938 148.6C35.938 147.704 36.13 146.915 36.514 146.232C36.9087 145.539 37.442 145.011 38.114 144.648C38.786 144.275 39.538 144.088 40.37 144.088C41.202 144.088 41.954 144.275 42.626 144.648C43.298 145.011 43.826 145.533 44.21 146.216C44.6047 146.899 44.802 147.693 44.802 148.6C44.802 149.507 44.5993 150.307 44.194 151C43.7993 151.683 43.2607 152.211 42.578 152.584C41.8953 152.957 41.138 153.144 40.306 153.144ZM40.306 151.864C40.8287 151.864 41.3193 151.741 41.778 151.496C42.2367 151.251 42.6047 150.883 42.882 150.392C43.17 149.901 43.314 149.304 43.314 148.6C43.314 147.896 43.1753 147.299 42.898 146.808C42.6207 146.317 42.258 145.955 41.81 145.72C41.362 145.475 40.8767 145.352 40.354 145.352C39.8207 145.352 39.33 145.475 38.882 145.72C38.4447 145.955 38.0927 146.317 37.826 146.808C37.5593 147.299 37.426 147.896 37.426 148.6C37.426 149.315 37.554 149.917 37.81 150.408C38.0767 150.899 38.4287 151.267 38.866 151.512C39.3033 151.747 39.7833 151.864 40.306 151.864ZM48.4924 145.432V150.6C48.4924 151.027 48.583 151.331 48.7644 151.512C48.9457 151.683 49.2604 151.768 49.7084 151.768H50.7804V153H49.4684C48.6577 153 48.0497 152.813 47.6444 152.44C47.239 152.067 47.0364 151.453 47.0364 150.6V145.432H45.9004V144.232H47.0364V142.024H48.4924V144.232H50.7804V145.432H48.4924ZM60.6341 153.144C59.8128 153.144 59.0661 152.957 58.3941 152.584C57.7328 152.211 57.2101 151.683 56.8261 151C56.4528 150.307 56.2661 149.507 56.2661 148.6C56.2661 147.704 56.4581 146.915 56.8421 146.232C57.2368 145.539 57.7701 145.011 58.4421 144.648C59.1141 144.275 59.8661 144.088 60.6981 144.088C61.5301 144.088 62.2821 144.275 62.9541 144.648C63.6261 145.011 64.1541 145.533 64.5381 146.216C64.9328 146.899 65.1301 147.693 65.1301 148.6C65.1301 149.507 64.9275 150.307 64.5221 151C64.1275 151.683 63.5888 152.211 62.9061 152.584C62.2235 152.957 61.4661 153.144 60.6341 153.144ZM60.6341 151.864C61.1568 151.864 61.6475 151.741 62.1061 151.496C62.5648 151.251 62.9328 150.883 63.2101 150.392C63.4981 149.901 63.6421 149.304 63.6421 148.6C63.6421 147.896 63.5035 147.299 63.2261 146.808C62.9488 146.317 62.5861 145.955 62.1381 145.72C61.6901 145.475 61.2048 145.352 60.6821 145.352C60.1488 145.352 59.6581 145.475 59.2101 145.72C58.7728 145.955 58.4208 146.317 58.1541 146.808C57.8875 147.299 57.7541 147.896 57.7541 148.6C57.7541 149.315 57.8821 149.917 58.1381 150.408C58.4048 150.899 58.7568 151.267 59.1941 151.512C59.6315 151.747 60.1115 151.864 60.6341 151.864ZM71.3165 144.072C72.3832 144.072 73.2472 144.397 73.9085 145.048C74.5698 145.688 74.9005 146.616 74.9005 147.832V153H73.4605V148.04C73.4605 147.165 73.2418 146.499 72.8045 146.04C72.3672 145.571 71.7698 145.336 71.0125 145.336C70.2445 145.336 69.6312 145.576 69.1725 146.056C68.7245 146.536 68.5005 147.235 68.5005 148.152V153H67.0445V144.232H68.5005V145.48C68.7885 145.032 69.1778 144.685 69.6685 144.44C70.1698 144.195 70.7192 144.072 71.3165 144.072ZM85.2789 148.28C85.2789 148.557 85.2629 148.851 85.2309 149.16H78.2229C78.2762 150.024 78.5695 150.701 79.1029 151.192C79.6469 151.672 80.3029 151.912 81.0709 151.912C81.7002 151.912 82.2229 151.768 82.6389 151.48C83.0655 151.181 83.3642 150.787 83.5349 150.296H85.1029C84.8682 151.139 84.3989 151.827 83.6949 152.36C82.9909 152.883 82.1162 153.144 81.0709 153.144C80.2389 153.144 79.4922 152.957 78.8309 152.584C78.1802 152.211 77.6682 151.683 77.2949 151C76.9215 150.307 76.7349 149.507 76.7349 148.6C76.7349 147.693 76.9162 146.899 77.2789 146.216C77.6415 145.533 78.1482 145.011 78.7989 144.648C79.4602 144.275 80.2175 144.088 81.0709 144.088C81.9029 144.088 82.6389 144.269 83.2789 144.632C83.9189 144.995 84.4095 145.496 84.7509 146.136C85.1029 146.765 85.2789 147.48 85.2789 148.28ZM83.7749 147.976C83.7749 147.421 83.6522 146.947 83.4069 146.552C83.1615 146.147 82.8255 145.843 82.3989 145.64C81.9829 145.427 81.5189 145.32 81.0069 145.32C80.2709 145.32 79.6415 145.555 79.1189 146.024C78.6069 146.493 78.3135 147.144 78.2389 147.976H83.7749ZM93.2808 146.52V147.752H86.8968V146.52H93.2808ZM99.1173 153.144C98.4453 153.144 97.8426 153.032 97.3093 152.808C96.7759 152.573 96.3546 152.253 96.0453 151.848C95.7359 151.432 95.5653 150.957 95.5333 150.424H97.0373C97.0799 150.861 97.2826 151.219 97.6453 151.496C98.0186 151.773 98.5039 151.912 99.1013 151.912C99.6559 151.912 100.093 151.789 100.413 151.544C100.733 151.299 100.893 150.989 100.893 150.616C100.893 150.232 100.723 149.949 100.381 149.768C100.04 149.576 99.5119 149.389 98.7973 149.208C98.1466 149.037 97.6133 148.867 97.1973 148.696C96.7919 148.515 96.4399 148.253 96.1413 147.912C95.8533 147.56 95.7093 147.101 95.7093 146.536C95.7093 146.088 95.8426 145.677 96.1093 145.304C96.3759 144.931 96.7546 144.637 97.2453 144.424C97.7359 144.2 98.2959 144.088 98.9253 144.088C99.8959 144.088 100.68 144.333 101.277 144.824C101.875 145.315 102.195 145.987 102.237 146.84H100.781C100.749 146.381 100.563 146.013 100.221 145.736C99.8906 145.459 99.4426 145.32 98.8773 145.32C98.3546 145.32 97.9386 145.432 97.6293 145.656C97.3199 145.88 97.1653 146.173 97.1653 146.536C97.1653 146.824 97.2559 147.064 97.4373 147.256C97.6293 147.437 97.8639 147.587 98.1413 147.704C98.4293 147.811 98.8239 147.933 99.3253 148.072C99.9546 148.243 100.467 148.413 100.861 148.584C101.256 148.744 101.592 148.989 101.869 149.32C102.157 149.651 102.307 150.083 102.317 150.616C102.317 151.096 102.184 151.528 101.917 151.912C101.651 152.296 101.272 152.6 100.781 152.824C100.301 153.037 99.7466 153.144 99.1173 153.144ZM105.125 142.808C104.847 142.808 104.613 142.712 104.421 142.52C104.229 142.328 104.133 142.093 104.133 141.816C104.133 141.539 104.229 141.304 104.421 141.112C104.613 140.92 104.847 140.824 105.125 140.824C105.391 140.824 105.615 140.92 105.797 141.112C105.989 141.304 106.085 141.539 106.085 141.816C106.085 142.093 105.989 142.328 105.797 142.52C105.615 142.712 105.391 142.808 105.125 142.808ZM105.829 144.232V153H104.373V144.232H105.829ZM109.398 151.8H113.702V153H107.734V151.8L111.99 145.416H107.766V144.232H113.67V145.416L109.398 151.8ZM123.591 148.28C123.591 148.557 123.575 148.851 123.543 149.16H116.535C116.589 150.024 116.882 150.701 117.415 151.192C117.959 151.672 118.615 151.912 119.383 151.912C120.013 151.912 120.535 151.768 120.951 151.48C121.378 151.181 121.677 150.787 121.847 150.296H123.415C123.181 151.139 122.711 151.827 122.007 152.36C121.303 152.883 120.429 153.144 119.383 153.144C118.551 153.144 117.805 152.957 117.143 152.584C116.493 152.211 115.981 151.683 115.607 151C115.234 150.307 115.047 149.507 115.047 148.6C115.047 147.693 115.229 146.899 115.591 146.216C115.954 145.533 116.461 145.011 117.111 144.648C117.773 144.275 118.53 144.088 119.383 144.088C120.215 144.088 120.951 144.269 121.591 144.632C122.231 144.995 122.722 145.496 123.063 146.136C123.415 146.765 123.591 147.48 123.591 148.28ZM122.087 147.976C122.087 147.421 121.965 146.947 121.719 146.552C121.474 146.147 121.138 145.843 120.711 145.64C120.295 145.427 119.831 145.32 119.319 145.32C118.583 145.32 117.954 145.555 117.431 146.024C116.919 146.493 116.626 147.144 116.551 147.976H122.087ZM131.593 146.52V147.752H125.209V146.52H131.593ZM137.894 145.432H136.054V153H134.598V145.432H133.462V144.232H134.598V143.608C134.598 142.627 134.848 141.912 135.35 141.464C135.862 141.005 136.678 140.776 137.798 140.776V141.992C137.158 141.992 136.704 142.12 136.438 142.376C136.182 142.621 136.054 143.032 136.054 143.608V144.232H137.894V145.432ZM140.343 142.808C140.066 142.808 139.831 142.712 139.639 142.52C139.447 142.328 139.351 142.093 139.351 141.816C139.351 141.539 139.447 141.304 139.639 141.112C139.831 140.92 140.066 140.824 140.343 140.824C140.61 140.824 140.834 140.92 141.015 141.112C141.207 141.304 141.303 141.539 141.303 141.816C141.303 142.093 141.207 142.328 141.015 142.52C140.834 142.712 140.61 142.808 140.343 142.808ZM141.047 144.232V153H139.591V144.232H141.047ZM145.305 145.432V150.6C145.305 151.027 145.396 151.331 145.577 151.512C145.758 151.683 146.073 151.768 146.521 151.768H147.593V153H146.281C145.47 153 144.862 152.813 144.457 152.44C144.052 152.067 143.849 151.453 143.849 150.6V145.432H142.713V144.232H143.849V142.024H145.305V144.232H147.593V145.432H145.305ZM152.461 153.144C151.789 153.144 151.186 153.032 150.653 152.808C150.12 152.573 149.698 152.253 149.389 151.848C149.08 151.432 148.909 150.957 148.877 150.424H150.381C150.424 150.861 150.626 151.219 150.989 151.496C151.362 151.773 151.848 151.912 152.445 151.912C153 151.912 153.437 151.789 153.757 151.544C154.077 151.299 154.237 150.989 154.237 150.616C154.237 150.232 154.066 149.949 153.725 149.768C153.384 149.576 152.856 149.389 152.141 149.208C151.49 149.037 150.957 148.867 150.541 148.696C150.136 148.515 149.784 148.253 149.485 147.912C149.197 147.56 149.053 147.101 149.053 146.536C149.053 146.088 149.186 145.677 149.453 145.304C149.72 144.931 150.098 144.637 150.589 144.424C151.08 144.2 151.64 144.088 152.269 144.088C153.24 144.088 154.024 144.333 154.621 144.824C155.218 145.315 155.538 145.987 155.581 146.84H154.125C154.093 146.381 153.906 146.013 153.565 145.736C153.234 145.459 152.786 145.32 152.221 145.32C151.698 145.32 151.282 145.432 150.973 145.656C150.664 145.88 150.509 146.173 150.509 146.536C150.509 146.824 150.6 147.064 150.781 147.256C150.973 147.437 151.208 147.587 151.485 147.704C151.773 147.811 152.168 147.933 152.669 148.072C153.298 148.243 153.81 148.413 154.205 148.584C154.6 148.744 154.936 148.989 155.213 149.32C155.501 149.651 155.65 150.083 155.661 150.616C155.661 151.096 155.528 151.528 155.261 151.912C154.994 152.296 154.616 152.6 154.125 152.824C153.645 153.037 153.09 153.144 152.461 153.144ZM163.796 146.52V147.752H157.412V146.52H163.796ZM165.985 148.584C165.985 147.688 166.166 146.904 166.529 146.232C166.892 145.549 167.388 145.021 168.017 144.648C168.657 144.275 169.366 144.088 170.145 144.088C170.913 144.088 171.58 144.253 172.145 144.584C172.71 144.915 173.132 145.331 173.409 145.832V144.232H174.881V153H173.409V151.368C173.121 151.88 172.689 152.307 172.113 152.648C171.548 152.979 170.886 153.144 170.129 153.144C169.35 153.144 168.646 152.952 168.017 152.568C167.388 152.184 166.892 151.645 166.529 150.952C166.166 150.259 165.985 149.469 165.985 148.584ZM173.409 148.6C173.409 147.939 173.276 147.363 173.009 146.872C172.742 146.381 172.38 146.008 171.921 145.752C171.473 145.485 170.977 145.352 170.433 145.352C169.889 145.352 169.393 145.48 168.945 145.736C168.497 145.992 168.14 146.365 167.873 146.856C167.606 147.347 167.473 147.923 167.473 148.584C167.473 149.256 167.606 149.843 167.873 150.344C168.14 150.835 168.497 151.213 168.945 151.48C169.393 151.736 169.889 151.864 170.433 151.864C170.977 151.864 171.473 151.736 171.921 151.48C172.38 151.213 172.742 150.835 173.009 150.344C173.276 149.843 173.409 149.261 173.409 148.6ZM178.797 141.16V153H177.341V141.16H178.797ZM182.735 141.16V153H181.279V141.16H182.735Z" fill="#282529"/>
<path fill-rule="evenodd" clip-rule="evenodd" d="M24 161C24 160.448 24.4477 160 25 160H183C183.552 160 184 160.448 184 161C184 161.552 183.552 162 183 162H25C24.4477 162 24 161.552 24 161Z" fill="#686868"/>
</g>
<defs>
<filter id="filter0_d_0_126176" x="-33" y="-33" width="474.56" height="318.286" filterUnits="userSpaceOnUse" color-interpolation-filters="sRGB">
<feFlood flood-opacity="0" result="BackgroundImageFix"/>
<feColorMatrix in="SourceAlpha" type="matrix" values="0 0 0 0 0 0 0 0 0 0 0 0 0 0 0 0 0 0 127 0" result="hardAlpha"/>
<feOffset dx="1" dy="1"/>
<feGaussianBlur stdDeviation="17"/>
<feColorMatrix type="matrix" values="0 0 0 0 0 0 0 0 0 0 0 0 0 0 0 0 0 0 0.0392157 0"/>
<feBlend mode="normal" in2="BackgroundImageFix" result="effect1_dropShadow_0_126176"/>
<feBlend mode="normal" in="SourceGraphic" in2="effect1_dropShadow_0_126176" result="shape"/>
</filter>
<linearGradient id="paint0_linear_0_126176" x1="-194.114" y1="123.739" x2="30.3709" y2="475.897" gradientUnits="userSpaceOnUse">
<stop stop-color="#F1EFE9"/>
<stop offset="0.98235" stop-color="white"/>
</linearGradient>
<clipPath id="clip0_0_126176">
<rect width="406.561" height="252" fill="white"/>
</clipPath>
</defs>
</svg>
