<svg width="65" height="64" viewBox="0 0 65 64" fill="none" xmlns="http://www.w3.org/2000/svg">
<path fill-rule="evenodd" clip-rule="evenodd" d="M0 32V18.75C0 13.5723 1.83443 9.15291 5.50328 5.49175C9.17213 1.83058 13.6008 0 18.7894 0H45.345C50.5336 0 54.9623 1.83058 58.6311 5.49175C62.3 9.15291 64.1344 13.5723 64.1344 18.75V45.25C64.1344 50.4277 62.3 54.8471 58.6311 58.5082C54.9623 62.1694 50.5336 64 45.345 64H18.7894C13.6008 64 9.17213 62.1694 5.50328 58.5082C1.83443 54.8471 0 50.4277 0 45.25V32Z" fill="#EC1E24"/>
<path fill-rule="evenodd" clip-rule="evenodd" d="M43.1516 14.3237H28.3443L19.8052 23.9687L26.8086 41.1075L32.0671 54.2662L41.8226 64.0012H45.3449C55.7217 64.0012 64.1343 55.6062 64.1343 45.2512V35.2637L43.1516 14.3237Z" fill="url(#paint0_linear_0_125277)"/>
<path fill-rule="evenodd" clip-rule="evenodd" d="M16.4094 25.36C16.4094 16.73 23.4191 9.73499 32.0672 9.73499C40.7154 9.73499 47.725 16.73 47.725 25.36C47.725 33.99 32.0672 54.2662 32.0672 54.2662C32.0672 54.2662 16.4094 33.99 16.4094 25.36ZM23.7011 25.36C23.7011 29.9712 27.4464 33.7087 32.0674 33.7087C36.6883 33.7087 40.4336 29.9712 40.4336 25.36C40.4336 20.7487 36.6883 17.0112 32.0674 17.0112C27.4464 17.0112 23.7011 20.7487 23.7011 25.36Z" fill="white"/>
<defs>
<linearGradient id="paint0_linear_0_125277" x1="6.37139" y1="40.5762" x2="47.345" y2="73.1339" gradientUnits="userSpaceOnUse">
<stop stop-opacity="0.501961"/>
<stop offset="1" stop-opacity="0.01"/>
</linearGradient>
</defs>
</svg>
