<svg width="15" height="14" viewBox="0 0 15 14" fill="none" xmlns="http://www.w3.org/2000/svg">
<path fill-rule="evenodd" clip-rule="evenodd" d="M1.46389 6.3937C0.898421 6.39568 0.38373 6.72855 0.141483 7.2496C-0.100822 7.77102 -0.0277933 8.3878 0.329288 8.83551L4.05845 13.4938C4.32815 13.8351 4.7431 14.0231 5.17247 13.9978C5.62517 13.9732 6.03378 13.7262 6.29432 13.3204L14.041 0.59929C14.0422 0.596773 14.0435 0.594627 14.045 0.592768C14.1177 0.479046 14.0942 0.253603 13.9439 0.111764C13.8607 0.0331653 13.7491 -0.00693509 13.6362 0.000987735C13.5228 0.00888196 13.4178 0.0645133 13.3458 0.153724C13.3431 0.157127 13.3402 0.161303 13.3373 0.164106L5.52498 9.16509C5.46481 9.23391 5.38 9.27587 5.28953 9.2809C5.19918 9.28568 5.11025 9.25359 5.04317 9.19149L2.45067 6.78567C2.18114 6.53377 1.8295 6.39416 1.46389 6.3937V6.3937Z" fill="#282529"/>
</svg>
