<svg width="77" height="65" viewBox="0 0 77 65" fill="none" xmlns="http://www.w3.org/2000/svg">
<g style="mix-blend-mode:luminosity" opacity="0.42">
<path fill-rule="evenodd" clip-rule="evenodd" d="M32.1353 46.4553C32.6669 46.7669 33.1935 47.1012 33.7411 47.3835C34.4044 47.6415 35.0651 47.9054 35.7241 48.176L35.5013 48.3946C34.2921 48.2212 32.6408 46.7477 31.4839 47.5125C31.0569 47.7948 30.7312 48.1961 30.6477 48.6887C30.9776 49.2734 31.4527 49.6797 31.8645 50.1983C32.9969 51.6241 32.5775 53.746 32.1632 55.3829C32.0619 55.7825 31.7986 56.0506 31.559 56.3698C31.1624 56.8976 30.9059 57.9866 30.2949 58.15C30.2798 58.1541 30.2637 58.1508 30.2485 58.1516C29.2402 56.8649 28.0276 57.7261 26.9171 56.8029C25.8286 56.6253 24.0008 56.446 23.049 55.9442C24.0169 54.7312 25.0649 53.5735 26.0826 52.4006C27.3534 51.0276 28.7246 49.7342 30.0553 48.4173C30.7405 47.7538 31.4341 47.0995 32.137 46.4545L32.1353 46.4553Z" fill="url(#paint0_linear_0_127699)"/>
</g>
<g style="mix-blend-mode:luminosity">
<path fill-rule="evenodd" clip-rule="evenodd" d="M26.0819 52.4015C26.2093 53.8005 27.5746 53.6572 27.3501 55.0261C26.9316 55.4014 26.5755 55.4232 26.0186 55.3972C25.7182 55.3838 25.4178 55.357 25.1174 55.3319C25.1849 55.357 25.2532 55.3804 25.3207 55.4064C25.9477 55.6468 26.5299 55.8337 26.8008 56.5013C26.8413 56.601 26.8784 56.7032 26.9164 56.8037C25.8279 56.6261 24.0001 56.4469 23.0483 55.9451C24.0162 54.732 25.0642 53.5743 26.0819 52.4015H26.0819Z" fill="#B78C15"/>
</g>
<g style="mix-blend-mode:luminosity" opacity="0.42">
<path fill-rule="evenodd" clip-rule="evenodd" d="M26.9909 41.5143C27.5512 42.0144 27.952 42.6092 28.3858 43.2149L29.5916 44.4555L31.4278 45.749C31.6624 45.9517 32.0117 46.1729 32.1357 46.4552C31.4337 47.1002 30.7392 47.7545 30.054 48.418C28.7242 49.7349 27.3529 51.0283 26.0813 52.4014C25.0645 53.5742 24.0156 54.7319 23.0477 55.9449L22.3406 56.4526C21.8723 56.2775 21.4715 56.0848 21.0369 55.8377C20.7964 55.5244 20.5289 55.1592 20.4175 54.7772C20.1053 53.7049 21.1441 52.4064 21.6714 51.5134C21.744 51.1423 22.0368 50.736 22.2191 50.3992L23.0283 49.0463L23.3777 48.4498C24.0645 47.7453 24.5877 46.2617 24.9852 45.3519C25.8129 44.3885 26.4213 42.6745 26.9892 41.5143L26.9909 41.5143Z" fill="url(#paint1_linear_0_127699)"/>
</g>
<path fill-rule="evenodd" clip-rule="evenodd" d="M26.9904 41.5143C27.5507 42.0144 27.9515 42.6092 28.3853 43.2148C25.9871 44.8141 23.1848 50.7837 21.6735 51.5125C21.746 51.1414 22.0388 50.7351 22.2211 50.3983L23.0303 49.0454L23.3797 48.449C24.0666 47.7444 24.5897 46.2608 24.9872 45.3511C25.815 44.3877 26.4234 42.6737 26.9913 41.5134L26.9904 41.5143Z" fill="#83878A"/>
<path fill-rule="evenodd" clip-rule="evenodd" d="M29.5916 44.4556L31.4278 45.749C31.6624 45.9517 32.0117 46.1729 32.1357 46.4552C31.4337 47.1003 30.7392 47.7545 30.054 48.418C28.7242 49.7349 27.3529 51.0284 26.0813 52.4014C25.0645 53.5742 24.0156 54.7319 23.0477 55.945L22.3406 56.4526C21.8723 56.2775 21.4715 56.0849 21.0369 55.8377C23.0815 52.9141 27.1108 46.513 29.5899 44.4564L29.5916 44.4556Z" fill="#554E37"/>
<path fill-rule="evenodd" clip-rule="evenodd" d="M31.4278 45.7501C31.6624 45.9529 32.0117 46.174 32.1357 46.4563C31.4337 47.1014 30.7392 47.7556 30.054 48.4191C30.0987 47.1089 30.5629 46.6557 31.4269 45.751L31.4278 45.7501Z" fill="#626142"/>
<g style="mix-blend-mode:luminosity" opacity="0.42">
<path fill-rule="evenodd" clip-rule="evenodd" d="M21.0335 48.9005C21.5752 48.7346 22.0418 48.5344 22.6123 48.6802L23.03 49.0463L22.2207 50.3992C22.0385 50.736 21.7456 51.1414 21.6731 51.5134C20.4689 52.4768 16.9122 53.6069 15.3899 53.4435C15.1157 53.4133 15.1587 53.4175 14.9326 53.3639C13.1369 53.6102 11.7556 54.2418 10.6468 55.7229C10.4063 56.0438 10.3067 56.3219 10.2105 56.7064C10.2983 57.1337 10.3228 57.2635 10.6856 57.5567C12.5454 59.0571 17.0633 58.2587 19.1416 57.7645C20.3457 57.4771 21.3575 57.2384 22.3414 56.4543L23.0485 55.9466C24.0004 56.4476 25.8281 56.6277 26.9166 56.8053C28.0271 57.7285 29.2397 56.8673 30.248 58.154C26.0382 59.4525 23.9514 57.5333 20.62 58.1247C18.9872 58.4146 17.4059 59.517 15.8549 60.1051L15.7756 59.9024C16.2414 59.4357 17.0219 59.2138 17.6286 58.9633C15.6448 58.9809 13.1218 59.0755 11.3126 58.1331C10.7675 57.8491 10.2485 57.4227 10.1186 56.7936C10.003 56.2356 10.219 55.6811 10.5185 55.2178C12.0746 52.8085 18.2126 49.476 21.0343 48.903L21.0335 48.9005Z" fill="#EBC61F"/>
</g>
<g style="mix-blend-mode:luminosity" opacity="0.42">
<path fill-rule="evenodd" clip-rule="evenodd" d="M21.5174 49.6638L22.2212 50.3993C22.0389 50.7361 21.7461 51.1416 21.6735 51.5135C20.4694 52.4769 16.9127 53.607 15.3904 53.4436C15.1162 53.4135 15.1592 53.4177 14.9331 53.3641C15.9684 52.807 20.9487 50.1715 21.5183 49.6647L21.5174 49.6638Z" fill="#D0AF39"/>
</g>
<g style="mix-blend-mode:luminosity" opacity="0.42">
<path fill-rule="evenodd" clip-rule="evenodd" d="M14.9326 53.3631C15.1588 53.4167 15.1158 53.4125 15.39 53.4427C16.9131 53.6069 20.469 52.476 21.6731 51.5126C21.1449 52.4056 20.107 53.7041 20.4192 54.7764C20.5306 55.1592 20.7972 55.5236 21.0386 55.8369C21.4731 56.084 21.874 56.2767 22.3423 56.4518C21.3584 57.2359 20.3466 57.4755 19.1425 57.762C17.065 58.2571 12.5472 59.0555 10.6865 57.5543C10.3237 57.2611 10.2992 57.1312 10.2114 56.704C10.3076 56.3203 10.4072 56.0422 10.6477 55.7205C11.7565 54.2394 13.1378 53.6077 14.9335 53.3614L14.9326 53.3631Z" fill="url(#paint2_linear_0_127699)"/>
</g>
<path fill-rule="evenodd" clip-rule="evenodd" d="M40.0118 6.02759C40.0059 6.09544 40.0084 6.16497 39.9957 6.23199C39.8202 7.1292 38.854 8.19814 38.406 9.03167C36.5091 12.556 35.4382 17.4207 37.5411 21.0405C40.1527 25.5349 46.4206 29.3968 51.3874 30.6936C54.2767 31.4484 56.7702 31.4258 59.7016 30.9055C60.4813 30.7673 61.5083 30.3769 62.2871 30.4741C61.1581 31.4643 59.916 32.3389 58.4663 32.8047C56.8816 33.4497 55.4538 33.3827 53.8666 33.8007L53.7223 33.8577C54.0843 37.563 53.27 41.0471 50.8288 43.9489C50.6828 44.1207 50.5335 44.2891 50.379 44.4541C50.2255 44.6191 50.0668 44.78 49.9048 44.9366C49.7428 45.0933 49.5766 45.2457 49.4069 45.394C49.2373 45.5423 49.0635 45.6864 48.8863 45.8263C48.7091 45.9662 48.5285 46.1011 48.3446 46.2326C48.1606 46.3633 47.9733 46.4898 47.7826 46.6112C47.5919 46.7327 47.3986 46.8492 47.2029 46.9614C47.0063 47.0737 46.8071 47.18 46.6054 47.2823C46.4038 47.3845 46.1996 47.4808 45.9928 47.5729C45.7861 47.6651 45.5768 47.7514 45.3659 47.8326C45.1549 47.9139 44.9423 47.9901 44.7271 48.0605C44.5119 48.1317 44.2959 48.197 44.0773 48.2574C43.8588 48.3177 43.6394 48.3721 43.4183 48.4207C43.1972 48.4701 42.9753 48.5137 42.7525 48.5514C42.5298 48.5891 42.3053 48.6218 42.0808 48.6486C41.8564 48.6754 41.6311 48.6963 41.4049 48.7122C39.4608 48.8563 37.6187 48.5866 35.7226 48.1778C35.0636 47.9072 34.4029 47.6433 33.7396 47.3853C33.192 47.103 32.6654 46.7687 32.1338 46.4571C32.0089 46.1748 31.6604 45.9536 31.4258 45.7509L29.5897 44.4574L28.3838 43.2168C27.9501 42.6111 27.5493 42.0163 26.989 41.5162C26.0751 40.1297 25.2068 38.7567 24.6339 37.1927C23.2205 33.3341 23.4888 29.1639 25.2212 25.4687C25.4473 25.1043 25.6844 24.7466 25.9325 24.3964C28.3695 21.0103 31.1718 19.6976 35.2247 19.0551C34.9463 17.6678 35.0214 15.9178 35.2045 14.5121C35.6458 11.1084 37.2845 8.14033 40.0101 6.02926L40.0118 6.02759Z" fill="#CA0F08"/>
<path fill-rule="evenodd" clip-rule="evenodd" d="M53.5975 33.8257L53.7232 33.8558C54.0852 37.5611 53.2709 41.0452 50.8297 43.9471C50.6837 44.1188 50.5344 44.2872 50.38 44.4522C50.2264 44.6173 50.0677 44.7781 49.9057 44.9348C49.7437 45.0914 49.5775 45.2439 49.4079 45.3922C49.2383 45.5404 49.0644 45.6845 48.8872 45.8244C48.71 45.9643 48.5294 46.0992 48.3455 46.2307C48.1615 46.3614 47.9742 46.4879 47.7835 46.6094C47.5928 46.7308 47.3996 46.8473 47.2038 46.9595C47.0072 47.0718 46.808 47.1782 46.6064 47.2804C46.4047 47.3826 46.2005 47.4789 45.9937 47.5711C45.787 47.6632 45.5777 47.7495 45.3668 47.8308C45.1558 47.912 44.9432 47.9883 44.728 48.0586C44.5128 48.1298 44.2968 48.1952 44.0783 48.2555C43.8597 48.3158 43.6403 48.3703 43.4192 48.4189C43.1981 48.4683 42.9762 48.5118 42.7534 48.5495C42.5307 48.5872 42.3062 48.6199 42.0818 48.6467C41.8573 48.6735 41.632 48.6945 41.4059 48.7104C39.4617 48.8545 37.6196 48.5847 35.7235 48.1759C35.0645 47.9053 34.4038 47.6414 33.7405 47.3834L33.7203 47.1145C34.1101 46.8766 35.0316 47.6088 35.5463 47.7018C36.499 47.8743 37.4238 48.2128 38.3841 48.3476C40.6253 48.6635 43.4741 48.3317 45.5524 47.4337C48.2898 46.2517 51.8887 43.1437 52.5942 40.1254C52.649 39.8908 52.4937 39.2675 52.4676 39.0062C52.3284 37.5988 52.3123 35.5095 52.9081 34.2219C53.0287 33.9605 53.3426 33.9279 53.5975 33.8248L53.5975 33.8257Z" fill="#F33519"/>
<path fill-rule="evenodd" clip-rule="evenodd" d="M40.0118 6.02759C40.0059 6.09544 40.0084 6.16497 39.9958 6.23199C39.8202 7.1292 38.8541 8.19814 38.406 9.03167C36.5091 12.556 35.4382 17.4207 37.5411 21.0405C40.1527 25.5349 46.4206 29.3968 51.3874 30.6936C54.2767 31.4484 56.7702 31.4258 59.7016 30.9055C60.4813 30.7673 61.5083 30.3769 62.2871 30.4741C61.1581 31.4643 59.916 32.3389 58.4663 32.8047C56.8816 33.4497 55.4538 33.3827 53.8666 33.8007L53.7223 33.8577L53.5965 33.8275C53.0557 33.8342 52.5055 33.7697 52.0304 34.0629C51.8127 34.3796 51.6709 34.682 51.514 35.0339C50.7022 36.8517 49.3167 37.8101 47.4763 38.4903C44.0968 39.7394 38.4305 41.4994 34.9843 40.118C34.8028 40.0451 34.6653 39.9438 34.5092 39.829C34.7666 39.5551 35.1539 39.5928 35.5252 39.5743C35.8416 39.5584 36.2441 39.6606 36.4913 39.4629L36.3892 39.1689C36.7386 39.1739 36.4542 39.1504 36.7605 39.2258C37.3892 39.38 38.4035 39.256 39.0254 39.0717C38.5874 39.0139 38.2085 39.0181 37.7706 39.0432L38.0381 38.724C38.0761 38.4828 38.1174 38.3177 38.1976 38.0924C39.2144 38.1167 40.5063 38.4065 41.4851 38.2273C44.1913 37.7313 47.2577 37.2756 49.7436 36.0542C50.1537 35.8523 50.32 35.7308 50.4432 35.2977C50.309 35.095 50.228 35.0422 50.0044 34.9367C48.4863 34.2204 47.4493 33.0861 46.0249 32.2694C44.1254 31.3613 42.4429 30.2831 40.8641 28.8925C40.1265 28.2432 39.3519 27.0972 38.4988 26.6708L38.3258 26.8643C37.2339 28.064 34.8197 28.5197 33.2097 28.606C33.1489 28.5507 33.089 28.4929 33.0257 28.4393C32.8258 28.2675 32.7262 28.2047 32.4823 28.1293C32.2486 28.0078 32.0199 27.8788 31.7895 27.7515L31.8916 27.3511L31.625 27.6284L31.7414 27.2899C31.3828 27.248 31.0537 27.176 30.7052 27.0847C31.7676 26.1313 36.1943 25.9797 37.7723 25.6672C37.4938 25.1386 37.2305 24.6025 36.9833 24.0588C36.0078 22.5618 35.6349 20.7657 35.2248 19.0567C34.9463 17.6695 35.0214 15.9195 35.2045 14.5138C35.6458 11.1101 37.2845 8.14201 40.0101 6.03094L40.0118 6.02759Z" fill="#851004"/>
<path fill-rule="evenodd" clip-rule="evenodd" d="M38.3265 26.861L38.4995 26.6675C39.3526 27.0947 40.1272 28.2399 40.8647 28.8891C42.4435 30.2789 44.1261 31.3571 46.0256 32.266C47.45 33.0836 48.4862 34.2171 50.0051 34.9333C50.2287 35.0389 50.3097 35.0925 50.4438 35.2944C50.3206 35.7275 50.1544 35.8498 49.7443 36.0508C47.2584 37.2723 44.1919 37.728 41.4858 38.2239C40.5069 38.4032 39.215 38.1133 38.1982 38.089C38.1181 38.3144 38.0776 38.4794 38.0388 38.7207L37.7713 39.0399C35.8566 38.9921 33.5099 37.9751 32.1953 36.623C31.0856 35.482 30.4561 34.0219 30.5211 32.4268C30.5861 30.8335 31.294 29.1999 32.483 28.1251C32.7269 28.2005 32.8264 28.2633 33.0264 28.4351C33.0897 28.4895 33.1488 28.5465 33.2104 28.6018C34.8212 28.5155 37.2354 28.0589 38.3265 26.8602L38.3265 26.861Z" fill="#6B0A03"/>
<path fill-rule="evenodd" clip-rule="evenodd" d="M38.3266 26.861L38.4996 26.6675C39.3527 27.0947 40.1273 28.2399 40.8648 28.8891C42.4436 30.2789 44.1262 31.3571 46.0257 32.266C45.2823 33.0736 44.7102 34.0688 44.1102 34.9878C45.3827 34.9526 46.9201 34.77 48.1209 35.2466L48.1538 35.4611C48.0964 35.4979 48.0416 35.5398 47.9808 35.5717C45.8687 36.6858 42.1171 36.1715 39.9172 35.5583C37.8169 34.9727 36.6069 33.1925 35.7791 31.2775C35.5293 30.6986 35.3783 30.0008 35.0543 29.4655C35.0315 29.4278 35.0045 29.3934 34.9792 29.3566C35.2635 29.2184 35.4897 29.189 35.8027 29.158C36.0576 29.3172 36.2508 29.4688 36.5596 29.4956C36.8634 29.5224 37.433 29.1279 37.6558 28.9293C38.2338 28.4125 38.3013 27.7842 38.3224 27.057C38.3241 26.9908 38.3249 26.9247 38.3258 26.8593L38.3266 26.861Z" fill="url(#paint3_linear_0_127699)"/>
<path fill-rule="evenodd" clip-rule="evenodd" d="M40.0118 6.02737C42.5146 3.94227 46.138 3.2302 49.3403 3.51335C53.2607 3.86017 57.6435 5.4351 60.5277 8.16608C62.2871 9.58938 63.8406 11.4106 64.8751 13.4253C66.659 15.962 66.9577 19.6898 66.4354 22.6529C66.3383 23.2008 66.2649 23.9756 66.0185 24.4699C65.6708 25.4065 65.3342 26.3397 64.8912 27.2378C64.1621 28.3343 63.3993 29.7183 62.2871 30.4739C61.5083 30.3759 60.4822 30.7671 59.7016 30.9053C56.7693 31.4255 54.2758 31.4482 51.3874 30.6934C46.4206 29.3966 40.1527 25.5355 37.5411 21.0403C35.4382 17.4204 36.5091 12.5558 38.406 9.03145C38.8541 8.19792 39.8202 7.12982 39.9957 6.23177C40.0084 6.16476 40.0059 6.09523 40.0118 6.02737H40.0118Z" fill="#F33519"/>
<path fill-rule="evenodd" clip-rule="evenodd" d="M60.5276 8.16529C62.287 9.58858 63.8405 11.4098 64.875 13.4245L64.6826 13.6792C64.4725 13.3634 64.3316 13.0744 64.1957 12.7208C64.005 12.5918 63.8447 12.5131 63.6084 12.503C62.7857 12.4695 61.963 12.7451 61.147 12.8205C59.7724 12.9487 58.4645 12.8984 57.0899 13.1657C53.7888 13.809 50.6101 16.1228 48.7815 18.9074C47.6221 20.6717 46.7935 23.5175 47.2129 25.6227C47.3605 26.3666 48.6052 26.8415 49.1081 27.4305C47.9656 27.0543 46.8804 26.364 45.8881 25.6997C45.1598 25.2122 43.2039 24.0017 43.0342 23.1128L43.1507 23.3231L43.2005 23.2234C43.3777 23.3466 43.5338 23.3935 43.7372 23.4622C43.9194 20.0635 45.4012 17.6475 47.5546 15.079C51.7434 10.0828 54.4082 10.2839 60.4964 9.67738C60.844 9.64303 61.1326 9.70419 61.3579 9.43025C61.0744 9.12448 60.8364 8.84719 60.6601 8.46519C60.6137 8.3655 60.5706 8.26497 60.5259 8.16528L60.5276 8.16529Z" fill="#F76248"/>
<path fill-rule="evenodd" clip-rule="evenodd" d="M49.1087 27.4315C48.6058 26.8426 47.3612 26.3676 47.2135 25.6237C46.7949 23.5193 47.6236 20.6735 48.7822 18.9085C50.6107 16.1239 53.7894 13.8109 57.0905 13.1667C58.4651 12.8986 59.773 12.9489 61.1476 12.8215C61.9636 12.7453 62.7871 12.4705 63.609 12.504C63.8453 12.5133 64.0048 12.5928 64.1963 12.7218C64.3322 13.0754 64.4731 13.3644 64.6832 13.6802L64.8756 13.4255C66.6595 15.9622 66.9582 19.6901 66.4358 22.6531C66.3388 23.201 66.2654 23.9759 66.019 24.4701L65.8266 24.2649C63.4141 27.0252 61.2649 28.766 57.4778 29.0248C54.5185 29.2276 51.8284 28.5247 49.1087 27.4323V27.4315Z" fill="#F79A84"/>
<defs>
<linearGradient id="paint0_linear_0_127699" x1="26.8498" y1="48.5775" x2="34.5068" y2="47.4055" gradientUnits="userSpaceOnUse">
<stop stop-color="#B88605"/>
<stop offset="1" stop-color="#E3CB52"/>
</linearGradient>
<linearGradient id="paint1_linear_0_127699" x1="36.2564" y1="48.0633" x2="26.9078" y2="57.0086" gradientUnits="userSpaceOnUse">
<stop stop-color="#A8A9A4"/>
<stop offset="1" stop-color="#C5C3C8"/>
</linearGradient>
<linearGradient id="paint2_linear_0_127699" x1="19.2478" y1="58.1174" x2="15.2836" y2="51.4405" gradientUnits="userSpaceOnUse">
<stop stop-color="#A0760E"/>
<stop offset="1" stop-color="#D8B11E"/>
</linearGradient>
<linearGradient id="paint3_linear_0_127699" x1="38.5428" y1="35.1294" x2="38.1646" y2="26.4718" gradientUnits="userSpaceOnUse">
<stop stop-color="#120403"/>
<stop offset="1" stop-color="#5E1108"/>
</linearGradient>
</defs>
</svg>
