<?xml version="1.0" encoding="utf-8"?>
<svg width="14.999" height="14.629" viewBox="0 0 14.999 14.629" fill="none" xmlns="http://www.w3.org/2000/svg">
  <path d="M11.3204 3.84863C11.2267 3.73145 11.0861 3.68359 10.9454 3.68359C10.8282 3.68359 10.7111 3.73145 10.6173 3.80078C10.5236 3.89453 10.4532 4.01172 10.4532 4.15234C10.4298 4.29297 10.4767 4.41016 10.5704 4.50391C10.7345 4.71484 11.0626 4.73828 11.2736 4.55176C11.3673 4.45801 11.4376 4.34082 11.4376 4.19922C11.4376 4.08203 11.3907 3.94141 11.3204 3.84863C11.3204 3.84863 11.3204 3.84863 11.3204 3.84863ZM11.3204 3.84863C11.2267 3.73145 11.0861 3.68359 10.9454 3.68359C10.8282 3.68359 10.7111 3.73145 10.6173 3.80078C10.5236 3.89453 10.4532 4.01172 10.4532 4.15234C10.4298 4.29297 10.4767 4.41016 10.5704 4.50391C10.7345 4.71484 11.0626 4.73828 11.2736 4.55176C11.3673 4.45801 11.4376 4.34082 11.4376 4.19922C11.4376 4.08203 11.3907 3.94141 11.3204 3.84863C11.3204 3.84863 11.3204 3.84863 11.3204 3.84863ZM11.3204 3.84863C11.2267 3.73145 11.0861 3.68359 10.9454 3.68359C10.8282 3.68359 10.7111 3.73145 10.6173 3.80078C10.5236 3.89453 10.4532 4.01172 10.4532 4.15234C10.4298 4.29297 10.4767 4.41016 10.5704 4.50391C10.7345 4.71484 11.0626 4.73828 11.2736 4.55176C11.3673 4.45801 11.4376 4.34082 11.4376 4.19922C11.4376 4.08203 11.3907 3.94141 11.3204 3.84863C11.3204 3.84863 11.3204 3.84863 11.3204 3.84863ZM11.3204 3.84863C11.2267 3.73145 11.0861 3.68359 10.9454 3.68359C10.8282 3.68359 10.7111 3.73145 10.6173 3.80078C10.5236 3.89453 10.4532 4.01172 10.4532 4.15234C10.4298 4.29297 10.4767 4.41016 10.5704 4.50391C10.7345 4.71484 11.0626 4.73828 11.2736 4.55176C11.3673 4.45801 11.4376 4.34082 11.4376 4.19922C11.4376 4.08203 11.3907 3.94141 11.3204 3.84863C11.3204 3.84863 11.3204 3.84863 11.3204 3.84863ZM11.3204 3.84863C11.2267 3.73145 11.0861 3.68359 10.9454 3.68359C10.8282 3.68359 10.7111 3.73145 10.6173 3.80078C10.5236 3.89453 10.4532 4.01172 10.4532 4.15234C10.4298 4.29297 10.4767 4.41016 10.5704 4.50391C10.7345 4.71484 11.0626 4.73828 11.2736 4.55176C11.3673 4.45801 11.4376 4.34082 11.4376 4.19922C11.4376 4.08203 11.3907 3.94141 11.3204 3.84863C11.3204 3.84863 11.3204 3.84863 11.3204 3.84863ZM11.3204 3.84863C11.2267 3.73145 11.0861 3.68359 10.9454 3.68359C10.8282 3.68359 10.7111 3.73145 10.6173 3.80078C10.5236 3.89453 10.4532 4.01172 10.4532 4.15234C10.4298 4.29297 10.4767 4.41016 10.5704 4.50391C10.7345 4.71484 11.0626 4.73828 11.2736 4.55176C11.3673 4.45801 11.4376 4.34082 11.4376 4.19922C11.4376 4.08203 11.3907 3.94141 11.3204 3.84863C11.3204 3.84863 11.3204 3.84863 11.3204 3.84863ZM14.8125 4.69238C14.8125 4.69238 11.0625 0.262695 11.0625 0.262695C10.9219 0.0986328 10.7578 0.00488281 10.5469 0.00488281C10.3359 -0.0185547 10.1484 0.0517578 9.98438 0.192383C9.98438 0.192383 2.08594 6.75488 2.08594 6.75488C2.08594 6.75488 12.6797 6.75488 12.6797 6.75488C12.9141 6.75488 13.1484 6.8252 13.3359 6.94238C13.3359 6.94238 14.7422 5.74707 14.7422 5.74707C15.0469 5.48926 15.0938 4.99707 14.8125 4.69238C14.8125 4.69238 14.8125 4.69238 14.8125 4.69238ZM9.65695 6.23828C9.61008 6.26172 9.58664 6.26172 9.53976 6.26172C9.44601 6.26172 9.35226 6.21484 9.30539 6.12109C9.25851 6.00391 9.16476 5.86328 9.07101 5.74609C8.48508 5.04297 7.43039 4.94922 6.72726 5.55859C6.53976 5.72266 6.39914 5.91016 6.30539 6.12109C6.23508 6.23828 6.09445 6.30859 5.97726 6.23828C5.86008 6.16797 5.78976 6.02734 5.86008 5.91016C6.0007 5.62891 6.1882 5.37109 6.42258 5.16016C7.33664 4.38672 8.71945 4.50391 9.49289 5.41797C9.63351 5.58203 9.72726 5.74609 9.79758 5.91016C9.84445 6.02734 9.79758 6.16797 9.65695 6.23828C9.65695 6.23828 9.65695 6.23828 9.65695 6.23828ZM11.5778 4.94922C11.3903 5.11426 11.1559 5.18359 10.9215 5.18359C10.6169 5.18359 10.3356 5.04297 10.1481 4.83203C9.98404 4.62207 9.89029 4.36328 9.91373 4.10547C9.93716 3.84766 10.0544 3.58984 10.2653 3.42578C10.4528 3.26172 10.6872 3.19141 10.9215 3.19141C11.2262 3.19141 11.5075 3.33203 11.695 3.54297C11.859 3.75391 11.9528 4.01172 11.9294 4.26953C11.9059 4.52832 11.7887 4.7627 11.5778 4.94922C11.5778 4.94922 11.5778 4.94922 11.5778 4.94922ZM13.5695 4.52832C13.4054 4.66895 13.2882 4.87988 13.2648 5.09082C13.2413 5.3252 13.3116 5.53613 13.4523 5.7002C13.4991 5.74707 13.5226 5.81738 13.5226 5.8877C13.5226 5.95801 13.4757 6.02832 13.4288 6.05176C13.4288 6.05176 13.2413 6.21582 13.2413 6.21582C13.1945 6.2627 13.1476 6.28613 13.0773 6.28613C13.007 6.28613 12.9366 6.2627 12.8898 6.19238C12.796 6.0752 12.8195 5.93457 12.9132 5.84082C12.9132 5.84082 12.9366 5.81738 12.9366 5.81738C12.796 5.58301 12.7491 5.3252 12.7726 5.04395C12.796 4.7627 12.8898 4.50488 13.0773 4.29395C13.0773 4.29395 11.1554 2.02051 11.1554 2.02051C10.6866 2.30176 10.0773 2.23145 9.63196 1.90332C9.63196 1.90332 4.56946 6.19238 4.56946 6.19238C4.45227 6.28613 4.31165 6.2627 4.2179 6.16895C4.12415 6.05176 4.14758 5.91113 4.24133 5.81738C4.24133 5.81738 9.4679 1.36426 9.4679 1.36426C9.58508 1.27051 9.72571 1.29395 9.81946 1.3877C9.96008 1.55176 10.171 1.66895 10.4054 1.69238C10.6398 1.71582 10.8507 1.64551 11.0148 1.50488C11.0616 1.45801 11.132 1.43457 11.2023 1.43457C11.2726 1.43457 11.3429 1.48145 11.3663 1.52832C11.3663 1.52832 13.5929 4.17676 13.5929 4.17676C13.6866 4.27051 13.6866 4.43457 13.5695 4.52832C13.5695 4.52832 13.5695 4.52832 13.5695 4.52832ZM10.922 3.68359C10.8048 3.68359 10.6876 3.73145 10.5939 3.80078C10.5001 3.89453 10.4298 4.01172 10.4298 4.15234C10.4064 4.29297 10.4532 4.41016 10.547 4.50391C10.7111 4.71484 11.0392 4.73828 11.2501 4.55176C11.3439 4.45801 11.4142 4.34082 11.4142 4.19922C11.4142 4.05859 11.3907 3.94141 11.297 3.84863C11.2032 3.73145 11.0861 3.68359 10.922 3.68359C10.922 3.68359 10.922 3.68359 10.922 3.68359ZM11.3204 3.84863C11.2267 3.73145 11.0861 3.68359 10.9454 3.68359C10.8282 3.68359 10.7111 3.73145 10.6173 3.80078C10.5236 3.89453 10.4532 4.01172 10.4532 4.15234C10.4298 4.29297 10.4767 4.41016 10.5704 4.50391C10.7345 4.71484 11.0626 4.73828 11.2736 4.55176C11.3673 4.45801 11.4376 4.34082 11.4376 4.19922C11.4376 4.08203 11.3907 3.94141 11.3204 3.84863C11.3204 3.84863 11.3204 3.84863 11.3204 3.84863ZM11.3204 3.84863C11.2267 3.73145 11.0861 3.68359 10.9454 3.68359C10.8282 3.68359 10.7111 3.73145 10.6173 3.80078C10.5236 3.89453 10.4532 4.01172 10.4532 4.15234C10.4298 4.29297 10.4767 4.41016 10.5704 4.50391C10.7345 4.71484 11.0626 4.73828 11.2736 4.55176C11.3673 4.45801 11.4376 4.34082 11.4376 4.19922C11.4376 4.08203 11.3907 3.94141 11.3204 3.84863C11.3204 3.84863 11.3204 3.84863 11.3204 3.84863ZM11.3204 3.84863C11.2267 3.73145 11.0861 3.68359 10.9454 3.68359C10.8282 3.68359 10.7111 3.73145 10.6173 3.80078C10.5236 3.89453 10.4532 4.01172 10.4532 4.15234C10.4298 4.29297 10.4767 4.41016 10.5704 4.50391C10.7345 4.71484 11.0626 4.73828 11.2736 4.55176C11.3673 4.45801 11.4376 4.34082 11.4376 4.19922C11.4376 4.08203 11.3907 3.94141 11.3204 3.84863C11.3204 3.84863 11.3204 3.84863 11.3204 3.84863ZM11.3204 3.84863C11.2267 3.73145 11.0861 3.68359 10.9454 3.68359C10.8282 3.68359 10.7111 3.73145 10.6173 3.80078C10.5236 3.89453 10.4532 4.01172 10.4532 4.15234C10.4298 4.29297 10.4767 4.41016 10.5704 4.50391C10.7345 4.71484 11.0626 4.73828 11.2736 4.55176C11.3673 4.45801 11.4376 4.34082 11.4376 4.19922C11.4376 4.08203 11.3907 3.94141 11.3204 3.84863C11.3204 3.84863 11.3204 3.84863 11.3204 3.84863ZM6.72656 9.26172C5.8125 9.26172 5.0625 10.0117 5.0625 10.9258C5.0625 11.8398 5.8125 12.5898 6.72656 12.5898C7.64063 12.5898 8.39063 11.8398 8.39063 10.9258C8.39063 10.0117 7.64063 9.26172 6.72656 9.26172C6.72656 9.26172 6.72656 9.26172 6.72656 9.26172ZM10.8047 10.4336C10.5234 10.4336 10.3125 10.668 10.3125 10.9258C10.3125 11.207 10.5469 11.418 10.8047 11.418C11.0859 11.418 11.2969 11.1836 11.2969 10.9258C11.2969 10.668 11.0859 10.4336 10.8047 10.4336C10.8047 10.4336 10.8047 10.4336 10.8047 10.4336ZM10.8047 10.4336C10.5234 10.4336 10.3125 10.668 10.3125 10.9258C10.3125 11.207 10.5469 11.418 10.8047 11.418C11.0859 11.418 11.2969 11.1836 11.2969 10.9258C11.2969 10.668 11.0859 10.4336 10.8047 10.4336C10.8047 10.4336 10.8047 10.4336 10.8047 10.4336ZM6.72656 9.26172C5.8125 9.26172 5.0625 10.0117 5.0625 10.9258C5.0625 11.8398 5.8125 12.5898 6.72656 12.5898C7.64063 12.5898 8.39063 11.8398 8.39063 10.9258C8.39063 10.0117 7.64063 9.26172 6.72656 9.26172C6.72656 9.26172 6.72656 9.26172 6.72656 9.26172ZM11.2734 8.37109C11.2734 8.37109 2.17969 8.37109 2.17969 8.37109C2.08594 8.91016 1.64063 9.33203 1.10156 9.44922C1.10156 9.44922 1.10156 12.4492 1.10156 12.4492C1.64063 12.543 2.0625 12.9883 2.17969 13.5273C2.17969 13.5273 11.2734 13.5273 11.2734 13.5273C11.3672 12.9883 11.8125 12.5664 12.3516 12.4492C12.3516 12.4492 12.3516 9.44922 12.3516 9.44922C11.7891 9.33203 11.3672 8.91016 11.2734 8.37109C11.2734 8.37109 11.2734 8.37109 11.2734 8.37109ZM2.625 11.9336C2.0625 11.9336 1.61719 11.4883 1.61719 10.9258C1.61719 10.3633 2.0625 9.91797 2.625 9.91797C3.1875 9.91797 3.63281 10.3633 3.63281 10.9258C3.63281 11.4883 3.1875 11.9336 2.625 11.9336C2.625 11.9336 2.625 11.9336 2.625 11.9336ZM6.72656 13.1055C5.53125 13.1055 4.54688 12.1211 4.54688 10.9258C4.54688 9.73047 5.53125 8.74609 6.72656 8.74609C7.92188 8.74609 8.90625 9.73047 8.90625 10.9258C8.88281 12.1445 7.92188 13.1055 6.72656 13.1055C6.72656 13.1055 6.72656 13.1055 6.72656 13.1055ZM10.8047 11.9336C10.2422 11.9336 9.79688 11.4883 9.79688 10.9258C9.79688 10.3633 10.2422 9.91797 10.8047 9.91797C11.3672 9.91797 11.8125 10.3633 11.8125 10.9258C11.8125 11.4883 11.3672 11.9336 10.8047 11.9336C10.8047 11.9336 10.8047 11.9336 10.8047 11.9336ZM10.8047 10.4336C10.5234 10.4336 10.3125 10.668 10.3125 10.9258C10.3125 11.207 10.5469 11.418 10.8047 11.418C11.0859 11.418 11.2969 11.1836 11.2969 10.9258C11.2969 10.668 11.0859 10.4336 10.8047 10.4336C10.8047 10.4336 10.8047 10.4336 10.8047 10.4336ZM6.72656 9.26172C5.8125 9.26172 5.0625 10.0117 5.0625 10.9258C5.0625 11.8398 5.8125 12.5898 6.72656 12.5898C7.64063 12.5898 8.39063 11.8398 8.39063 10.9258C8.39063 10.0117 7.64063 9.26172 6.72656 9.26172C6.72656 9.26172 6.72656 9.26172 6.72656 9.26172ZM2.625 10.4336C2.34375 10.4336 2.13281 10.668 2.13281 10.9258C2.13281 11.207 2.36719 11.418 2.625 11.418C2.90625 11.418 3.11719 11.1836 3.11719 10.9258C3.14063 10.668 2.90625 10.4336 2.625 10.4336C2.625 10.4336 2.625 10.4336 2.625 10.4336ZM10.8047 10.4336C10.5234 10.4336 10.3125 10.668 10.3125 10.9258C10.3125 11.207 10.5469 11.418 10.8047 11.418C11.0859 11.418 11.2969 11.1836 11.2969 10.9258C11.2969 10.668 11.0859 10.4336 10.8047 10.4336C10.8047 10.4336 10.8047 10.4336 10.8047 10.4336ZM10.8047 10.4336C10.5234 10.4336 10.3125 10.668 10.3125 10.9258C10.3125 11.207 10.5469 11.418 10.8047 11.418C11.0859 11.418 11.2969 11.1836 11.2969 10.9258C11.2969 10.668 11.0859 10.4336 10.8047 10.4336C10.8047 10.4336 10.8047 10.4336 10.8047 10.4336ZM6.72656 9.26172C5.8125 9.26172 5.0625 10.0117 5.0625 10.9258C5.0625 11.8398 5.8125 12.5898 6.72656 12.5898C7.64063 12.5898 8.39063 11.8398 8.39063 10.9258C8.39063 10.0117 7.64063 9.26172 6.72656 9.26172C6.72656 9.26172 6.72656 9.26172 6.72656 9.26172ZM10.8047 10.4336C10.5234 10.4336 10.3125 10.668 10.3125 10.9258C10.3125 11.207 10.5469 11.418 10.8047 11.418C11.0859 11.418 11.2969 11.1836 11.2969 10.9258C11.2969 10.668 11.0859 10.4336 10.8047 10.4336C10.8047 10.4336 10.8047 10.4336 10.8047 10.4336ZM10.8047 10.4336C10.5234 10.4336 10.3125 10.668 10.3125 10.9258C10.3125 11.207 10.5469 11.418 10.8047 11.418C11.0859 11.418 11.2969 11.1836 11.2969 10.9258C11.2969 10.668 11.0859 10.4336 10.8047 10.4336C10.8047 10.4336 10.8047 10.4336 10.8047 10.4336ZM6.72656 9.26172C5.8125 9.26172 5.0625 10.0117 5.0625 10.9258C5.0625 11.8398 5.8125 12.5898 6.72656 12.5898C7.64063 12.5898 8.39063 11.8398 8.39063 10.9258C8.39063 10.0117 7.64063 9.26172 6.72656 9.26172C6.72656 9.26172 6.72656 9.26172 6.72656 9.26172ZM11.2734 8.37109C11.2734 8.37109 2.17969 8.37109 2.17969 8.37109C2.08594 8.91016 1.64063 9.33203 1.10156 9.44922C1.10156 9.44922 1.10156 12.4492 1.10156 12.4492C1.64063 12.543 2.0625 12.9883 2.17969 13.5273C2.17969 13.5273 11.2734 13.5273 11.2734 13.5273C11.3672 12.9883 11.8125 12.5664 12.3516 12.4492C12.3516 12.4492 12.3516 9.44922 12.3516 9.44922C11.7891 9.33203 11.3672 8.91016 11.2734 8.37109C11.2734 8.37109 11.2734 8.37109 11.2734 8.37109ZM2.625 11.9336C2.0625 11.9336 1.61719 11.4883 1.61719 10.9258C1.61719 10.3633 2.0625 9.91797 2.625 9.91797C3.1875 9.91797 3.63281 10.3633 3.63281 10.9258C3.63281 11.4883 3.1875 11.9336 2.625 11.9336C2.625 11.9336 2.625 11.9336 2.625 11.9336ZM6.72656 13.1055C5.53125 13.1055 4.54688 12.1211 4.54688 10.9258C4.54688 9.73047 5.53125 8.74609 6.72656 8.74609C7.92188 8.74609 8.90625 9.73047 8.90625 10.9258C8.88281 12.1445 7.92188 13.1055 6.72656 13.1055C6.72656 13.1055 6.72656 13.1055 6.72656 13.1055ZM10.8047 11.9336C10.2422 11.9336 9.79688 11.4883 9.79688 10.9258C9.79688 10.3633 10.2422 9.91797 10.8047 9.91797C11.3672 9.91797 11.8125 10.3633 11.8125 10.9258C11.8125 11.4883 11.3672 11.9336 10.8047 11.9336C10.8047 11.9336 10.8047 11.9336 10.8047 11.9336ZM10.8047 10.4336C10.5234 10.4336 10.3125 10.668 10.3125 10.9258C10.3125 11.207 10.5469 11.418 10.8047 11.418C11.0859 11.418 11.2969 11.1836 11.2969 10.9258C11.2969 10.668 11.0859 10.4336 10.8047 10.4336C10.8047 10.4336 10.8047 10.4336 10.8047 10.4336ZM6.72656 9.26172C5.8125 9.26172 5.0625 10.0117 5.0625 10.9258C5.0625 11.8398 5.8125 12.5898 6.72656 12.5898C7.64063 12.5898 8.39063 11.8398 8.39063 10.9258C8.39063 10.0117 7.64063 9.26172 6.72656 9.26172C6.72656 9.26172 6.72656 9.26172 6.72656 9.26172ZM2.625 10.4336C2.34375 10.4336 2.13281 10.668 2.13281 10.9258C2.13281 11.207 2.36719 11.418 2.625 11.418C2.90625 11.418 3.11719 11.1836 3.11719 10.9258C3.14063 10.668 2.90625 10.4336 2.625 10.4336C2.625 10.4336 2.625 10.4336 2.625 10.4336ZM10.8047 10.4336C10.5234 10.4336 10.3125 10.668 10.3125 10.9258C10.3125 11.207 10.5469 11.418 10.8047 11.418C11.0859 11.418 11.2969 11.1836 11.2969 10.9258C11.2969 10.668 11.0859 10.4336 10.8047 10.4336C10.8047 10.4336 10.8047 10.4336 10.8047 10.4336ZM10.8047 10.4336C10.5234 10.4336 10.3125 10.668 10.3125 10.9258C10.3125 11.207 10.5469 11.418 10.8047 11.418C11.0859 11.418 11.2969 11.1836 11.2969 10.9258C11.2969 10.668 11.0859 10.4336 10.8047 10.4336C10.8047 10.4336 10.8047 10.4336 10.8047 10.4336ZM6.72656 9.26172C5.8125 9.26172 5.0625 10.0117 5.0625 10.9258C5.0625 11.8398 5.8125 12.5898 6.72656 12.5898C7.64063 12.5898 8.39063 11.8398 8.39063 10.9258C8.39063 10.0117 7.64063 9.26172 6.72656 9.26172C6.72656 9.26172 6.72656 9.26172 6.72656 9.26172ZM10.8047 10.4336C10.5234 10.4336 10.3125 10.668 10.3125 10.9258C10.3125 11.207 10.5469 11.418 10.8047 11.418C11.0859 11.418 11.2969 11.1836 11.2969 10.9258C11.2969 10.668 11.0859 10.4336 10.8047 10.4336C10.8047 10.4336 10.8047 10.4336 10.8047 10.4336ZM10.8047 10.4336C10.5234 10.4336 10.3125 10.668 10.3125 10.9258C10.3125 11.207 10.5469 11.418 10.8047 11.418C11.0859 11.418 11.2969 11.1836 11.2969 10.9258C11.2969 10.668 11.0859 10.4336 10.8047 10.4336C10.8047 10.4336 10.8047 10.4336 10.8047 10.4336ZM6.72656 9.26172C5.8125 9.26172 5.0625 10.0117 5.0625 10.9258C5.0625 11.8398 5.8125 12.5898 6.72656 12.5898C7.64063 12.5898 8.39063 11.8398 8.39063 10.9258C8.39063 10.0117 7.64063 9.26172 6.72656 9.26172C6.72656 9.26172 6.72656 9.26172 6.72656 9.26172ZM11.2734 8.37109C11.2734 8.37109 2.17969 8.37109 2.17969 8.37109C2.08594 8.91016 1.64063 9.33203 1.10156 9.44922C1.10156 9.44922 1.10156 12.4492 1.10156 12.4492C1.64063 12.543 2.0625 12.9883 2.17969 13.5273C2.17969 13.5273 11.2734 13.5273 11.2734 13.5273C11.3672 12.9883 11.8125 12.5664 12.3516 12.4492C12.3516 12.4492 12.3516 9.44922 12.3516 9.44922C11.7891 9.33203 11.3672 8.91016 11.2734 8.37109C11.2734 8.37109 11.2734 8.37109 11.2734 8.37109ZM2.625 11.9336C2.0625 11.9336 1.61719 11.4883 1.61719 10.9258C1.61719 10.3633 2.0625 9.91797 2.625 9.91797C3.1875 9.91797 3.63281 10.3633 3.63281 10.9258C3.63281 11.4883 3.1875 11.9336 2.625 11.9336C2.625 11.9336 2.625 11.9336 2.625 11.9336ZM6.72656 13.1055C5.53125 13.1055 4.54688 12.1211 4.54688 10.9258C4.54688 9.73047 5.53125 8.74609 6.72656 8.74609C7.92188 8.74609 8.90625 9.73047 8.90625 10.9258C8.88281 12.1445 7.92188 13.1055 6.72656 13.1055C6.72656 13.1055 6.72656 13.1055 6.72656 13.1055ZM10.8047 11.9336C10.2422 11.9336 9.79688 11.4883 9.79688 10.9258C9.79688 10.3633 10.2422 9.91797 10.8047 9.91797C11.3672 9.91797 11.8125 10.3633 11.8125 10.9258C11.8125 11.4883 11.3672 11.9336 10.8047 11.9336C10.8047 11.9336 10.8047 11.9336 10.8047 11.9336ZM10.8047 10.4336C10.5234 10.4336 10.3125 10.668 10.3125 10.9258C10.3125 11.207 10.5469 11.418 10.8047 11.418C11.0859 11.418 11.2969 11.1836 11.2969 10.9258C11.2969 10.668 11.0859 10.4336 10.8047 10.4336C10.8047 10.4336 10.8047 10.4336 10.8047 10.4336ZM6.72656 9.26172C5.8125 9.26172 5.0625 10.0117 5.0625 10.9258C5.0625 11.8398 5.8125 12.5898 6.72656 12.5898C7.64063 12.5898 8.39063 11.8398 8.39063 10.9258C8.39063 10.0117 7.64063 9.26172 6.72656 9.26172C6.72656 9.26172 6.72656 9.26172 6.72656 9.26172ZM2.625 10.4336C2.34375 10.4336 2.13281 10.668 2.13281 10.9258C2.13281 11.207 2.36719 11.418 2.625 11.418C2.90625 11.418 3.11719 11.1836 3.11719 10.9258C3.14063 10.668 2.90625 10.4336 2.625 10.4336C2.625 10.4336 2.625 10.4336 2.625 10.4336ZM11.2734 8.37109C11.2734 8.37109 2.17969 8.37109 2.17969 8.37109C2.08594 8.91016 1.64063 9.33203 1.10156 9.44922C1.10156 9.44922 1.10156 12.4492 1.10156 12.4492C1.64063 12.543 2.0625 12.9883 2.17969 13.5273C2.17969 13.5273 11.2734 13.5273 11.2734 13.5273C11.3672 12.9883 11.8125 12.5664 12.3516 12.4492C12.3516 12.4492 12.3516 9.44922 12.3516 9.44922C11.7891 9.33203 11.3672 8.91016 11.2734 8.37109C11.2734 8.37109 11.2734 8.37109 11.2734 8.37109ZM2.625 11.9336C2.0625 11.9336 1.61719 11.4883 1.61719 10.9258C1.61719 10.3633 2.0625 9.91797 2.625 9.91797C3.1875 9.91797 3.63281 10.3633 3.63281 10.9258C3.63281 11.4883 3.1875 11.9336 2.625 11.9336C2.625 11.9336 2.625 11.9336 2.625 11.9336ZM6.72656 13.1055C5.53125 13.1055 4.54688 12.1211 4.54688 10.9258C4.54688 9.73047 5.53125 8.74609 6.72656 8.74609C7.92188 8.74609 8.90625 9.73047 8.90625 10.9258C8.88281 12.1445 7.92188 13.1055 6.72656 13.1055C6.72656 13.1055 6.72656 13.1055 6.72656 13.1055ZM10.8047 11.9336C10.2422 11.9336 9.79688 11.4883 9.79688 10.9258C9.79688 10.3633 10.2422 9.91797 10.8047 9.91797C11.3672 9.91797 11.8125 10.3633 11.8125 10.9258C11.8125 11.4883 11.3672 11.9336 10.8047 11.9336C10.8047 11.9336 10.8047 11.9336 10.8047 11.9336ZM10.8047 10.4336C10.5234 10.4336 10.3125 10.668 10.3125 10.9258C10.3125 11.207 10.5469 11.418 10.8047 11.418C11.0859 11.418 11.2969 11.1836 11.2969 10.9258C11.2969 10.668 11.0859 10.4336 10.8047 10.4336C10.8047 10.4336 10.8047 10.4336 10.8047 10.4336ZM6.72656 9.26172C5.8125 9.26172 5.0625 10.0117 5.0625 10.9258C5.0625 11.8398 5.8125 12.5898 6.72656 12.5898C7.64063 12.5898 8.39063 11.8398 8.39063 10.9258C8.39063 10.0117 7.64063 9.26172 6.72656 9.26172C6.72656 9.26172 6.72656 9.26172 6.72656 9.26172ZM2.625 10.4336C2.34375 10.4336 2.13281 10.668 2.13281 10.9258C2.13281 11.207 2.36719 11.418 2.625 11.418C2.90625 11.418 3.11719 11.1836 3.11719 10.9258C3.14063 10.668 2.90625 10.4336 2.625 10.4336C2.625 10.4336 2.625 10.4336 2.625 10.4336ZM12.6797 7.27051C12.6797 7.27051 0.773438 7.27051 0.773438 7.27051C0.351563 7.27051 0 7.62207 0 8.04395C0 8.04395 0 13.8555 0 13.8555C0 14.2773 0.351563 14.6289 0.773438 14.6289C0.773438 14.6289 12.6797 14.6289 12.6797 14.6289C13.1016 14.6289 13.4531 14.2773 13.4531 13.8555C13.4531 13.8555 13.4531 8.01953 13.4531 8.01953C13.4297 7.59863 13.1016 7.26953 12.6797 7.26953C12.6797 7.26953 12.6797 7.27051 12.6797 7.27051ZM12.8438 12.6602C12.8438 12.8008 12.7266 12.918 12.5859 12.918C12.1172 12.918 11.7422 13.293 11.7422 13.7617C11.7422 13.9023 11.625 14.0195 11.4844 14.0195C11.4844 14.0195 1.94531 14.0195 1.94531 14.0195C1.80469 14.0195 1.6875 13.9023 1.6875 13.7617C1.6875 13.293 1.3125 12.918 0.84375 12.918C0.703125 12.918 0.585938 12.8008 0.585938 12.6602C0.585938 12.6602 0.585938 9.21484 0.585938 9.21484C0.585938 9.07422 0.703125 8.95703 0.84375 8.95703C1.3125 8.95703 1.6875 8.58203 1.6875 8.11328C1.6875 7.97266 1.80469 7.85547 1.94531 7.85547C1.94531 7.85547 11.5078 7.85547 11.5078 7.85547C11.6484 7.85547 11.7656 7.97266 11.7656 8.11328C11.7656 8.58203 12.1406 8.95703 12.6094 8.95703C12.75 8.95703 12.8672 9.07422 12.8672 9.21484C12.8672 9.21484 12.8438 12.6602 12.8438 12.6602ZM11.2734 8.37109C11.2734 8.37109 2.17969 8.37109 2.17969 8.37109C2.08594 8.91016 1.64063 9.33203 1.10156 9.44922C1.10156 9.44922 1.10156 12.4492 1.10156 12.4492C1.64063 12.543 2.0625 12.9883 2.17969 13.5273C2.17969 13.5273 11.2734 13.5273 11.2734 13.5273C11.3672 12.9883 11.8125 12.5664 12.3516 12.4492C12.3516 12.4492 12.3516 9.44922 12.3516 9.44922C11.7891 9.33203 11.3672 8.91016 11.2734 8.37109C11.2734 8.37109 11.2734 8.37109 11.2734 8.37109ZM2.625 11.9336C2.0625 11.9336 1.61719 11.4883 1.61719 10.9258C1.61719 10.3633 2.0625 9.91797 2.625 9.91797C3.1875 9.91797 3.63281 10.3633 3.63281 10.9258C3.63281 11.4883 3.1875 11.9336 2.625 11.9336C2.625 11.9336 2.625 11.9336 2.625 11.9336ZM6.72656 13.1055C5.53125 13.1055 4.54688 12.1211 4.54688 10.9258C4.54688 9.73047 5.53125 8.74609 6.72656 8.74609C7.92188 8.74609 8.90625 9.73047 8.90625 10.9258C8.88281 12.1445 7.92188 13.1055 6.72656 13.1055C6.72656 13.1055 6.72656 13.1055 6.72656 13.1055ZM10.8047 11.9336C10.2422 11.9336 9.79688 11.4883 9.79688 10.9258C9.79688 10.3633 10.2422 9.91797 10.8047 9.91797C11.3672 9.91797 11.8125 10.3633 11.8125 10.9258C11.8125 11.4883 11.3672 11.9336 10.8047 11.9336C10.8047 11.9336 10.8047 11.9336 10.8047 11.9336ZM10.8047 10.4336C10.5234 10.4336 10.3125 10.668 10.3125 10.9258C10.3125 11.207 10.5469 11.418 10.8047 11.418C11.0859 11.418 11.2969 11.1836 11.2969 10.9258C11.2969 10.668 11.0859 10.4336 10.8047 10.4336C10.8047 10.4336 10.8047 10.4336 10.8047 10.4336ZM6.72656 9.26172C5.8125 9.26172 5.0625 10.0117 5.0625 10.9258C5.0625 11.8398 5.8125 12.5898 6.72656 12.5898C7.64063 12.5898 8.39063 11.8398 8.39063 10.9258C8.39063 10.0117 7.64063 9.26172 6.72656 9.26172C6.72656 9.26172 6.72656 9.26172 6.72656 9.26172ZM2.625 10.4336C2.34375 10.4336 2.13281 10.668 2.13281 10.9258C2.13281 11.207 2.36719 11.418 2.625 11.418C2.90625 11.418 3.11719 11.1836 3.11719 10.9258C3.14063 10.668 2.90625 10.4336 2.625 10.4336C2.625 10.4336 2.625 10.4336 2.625 10.4336ZM6.72656 9.26172C5.8125 9.26172 5.0625 10.0117 5.0625 10.9258C5.0625 11.8398 5.8125 12.5898 6.72656 12.5898C7.64063 12.5898 8.39063 11.8398 8.39063 10.9258C8.39063 10.0117 7.64063 9.26172 6.72656 9.26172C6.72656 9.26172 6.72656 9.26172 6.72656 9.26172ZM10.8047 10.4336C10.5234 10.4336 10.3125 10.668 10.3125 10.9258C10.3125 11.207 10.5469 11.418 10.8047 11.418C11.0859 11.418 11.2969 11.1836 11.2969 10.9258C11.2969 10.668 11.0859 10.4336 10.8047 10.4336C10.8047 10.4336 10.8047 10.4336 10.8047 10.4336ZM10.8047 10.4336C10.5234 10.4336 10.3125 10.668 10.3125 10.9258C10.3125 11.207 10.5469 11.418 10.8047 11.418C11.0859 11.418 11.2969 11.1836 11.2969 10.9258C11.2969 10.668 11.0859 10.4336 10.8047 10.4336C10.8047 10.4336 10.8047 10.4336 10.8047 10.4336ZM6.72656 9.26172C5.8125 9.26172 5.0625 10.0117 5.0625 10.9258C5.0625 11.8398 5.8125 12.5898 6.72656 12.5898C7.64063 12.5898 8.39063 11.8398 8.39063 10.9258C8.39063 10.0117 7.64063 9.26172 6.72656 9.26172C6.72656 9.26172 6.72656 9.26172 6.72656 9.26172ZM11.2734 8.37109C11.2734 8.37109 2.17969 8.37109 2.17969 8.37109C2.08594 8.91016 1.64063 9.33203 1.10156 9.44922C1.10156 9.44922 1.10156 12.4492 1.10156 12.4492C1.64063 12.543 2.0625 12.9883 2.17969 13.5273C2.17969 13.5273 11.2734 13.5273 11.2734 13.5273C11.3672 12.9883 11.8125 12.5664 12.3516 12.4492C12.3516 12.4492 12.3516 9.44922 12.3516 9.44922C11.7891 9.33203 11.3672 8.91016 11.2734 8.37109C11.2734 8.37109 11.2734 8.37109 11.2734 8.37109ZM2.625 11.9336C2.0625 11.9336 1.61719 11.4883 1.61719 10.9258C1.61719 10.3633 2.0625 9.91797 2.625 9.91797C3.1875 9.91797 3.63281 10.3633 3.63281 10.9258C3.63281 11.4883 3.1875 11.9336 2.625 11.9336C2.625 11.9336 2.625 11.9336 2.625 11.9336ZM6.72656 13.1055C5.53125 13.1055 4.54688 12.1211 4.54688 10.9258C4.54688 9.73047 5.53125 8.74609 6.72656 8.74609C7.92188 8.74609 8.90625 9.73047 8.90625 10.9258C8.88281 12.1445 7.92188 13.1055 6.72656 13.1055C6.72656 13.1055 6.72656 13.1055 6.72656 13.1055ZM10.8047 11.9336C10.2422 11.9336 9.79688 11.4883 9.79688 10.9258C9.79688 10.3633 10.2422 9.91797 10.8047 9.91797C11.3672 9.91797 11.8125 10.3633 11.8125 10.9258C11.8125 11.4883 11.3672 11.9336 10.8047 11.9336C10.8047 11.9336 10.8047 11.9336 10.8047 11.9336ZM10.8047 10.4336C10.5234 10.4336 10.3125 10.668 10.3125 10.9258C10.3125 11.207 10.5469 11.418 10.8047 11.418C11.0859 11.418 11.2969 11.1836 11.2969 10.9258C11.2969 10.668 11.0859 10.4336 10.8047 10.4336C10.8047 10.4336 10.8047 10.4336 10.8047 10.4336ZM6.72656 9.26172C5.8125 9.26172 5.0625 10.0117 5.0625 10.9258C5.0625 11.8398 5.8125 12.5898 6.72656 12.5898C7.64063 12.5898 8.39063 11.8398 8.39063 10.9258C8.39063 10.0117 7.64063 9.26172 6.72656 9.26172C6.72656 9.26172 6.72656 9.26172 6.72656 9.26172ZM2.625 10.4336C2.34375 10.4336 2.13281 10.668 2.13281 10.9258C2.13281 11.207 2.36719 11.418 2.625 11.418C2.90625 11.418 3.11719 11.1836 3.11719 10.9258C3.14063 10.668 2.90625 10.4336 2.625 10.4336C2.625 10.4336 2.625 10.4336 2.625 10.4336ZM6.72656 9.26172C5.8125 9.26172 5.0625 10.0117 5.0625 10.9258C5.0625 11.8398 5.8125 12.5898 6.72656 12.5898C7.64063 12.5898 8.39063 11.8398 8.39063 10.9258C8.39063 10.0117 7.64063 9.26172 6.72656 9.26172C6.72656 9.26172 6.72656 9.26172 6.72656 9.26172ZM10.8047 10.4336C10.5234 10.4336 10.3125 10.668 10.3125 10.9258C10.3125 11.207 10.5469 11.418 10.8047 11.418C11.0859 11.418 11.2969 11.1836 11.2969 10.9258C11.2969 10.668 11.0859 10.4336 10.8047 10.4336C10.8047 10.4336 10.8047 10.4336 10.8047 10.4336ZM10.8047 10.4336C10.5234 10.4336 10.3125 10.668 10.3125 10.9258C10.3125 11.207 10.5469 11.418 10.8047 11.418C11.0859 11.418 11.2969 11.1836 11.2969 10.9258C11.2969 10.668 11.0859 10.4336 10.8047 10.4336C10.8047 10.4336 10.8047 10.4336 10.8047 10.4336ZM6.72656 9.26172C5.8125 9.26172 5.0625 10.0117 5.0625 10.9258C5.0625 11.8398 5.8125 12.5898 6.72656 12.5898C7.64063 12.5898 8.39063 11.8398 8.39063 10.9258C8.39063 10.0117 7.64063 9.26172 6.72656 9.26172C6.72656 9.26172 6.72656 9.26172 6.72656 9.26172ZM11.2734 8.37109C11.2734 8.37109 2.17969 8.37109 2.17969 8.37109C2.08594 8.91016 1.64063 9.33203 1.10156 9.44922C1.10156 9.44922 1.10156 12.4492 1.10156 12.4492C1.64063 12.543 2.0625 12.9883 2.17969 13.5273C2.17969 13.5273 11.2734 13.5273 11.2734 13.5273C11.3672 12.9883 11.8125 12.5664 12.3516 12.4492C12.3516 12.4492 12.3516 9.44922 12.3516 9.44922C11.7891 9.33203 11.3672 8.91016 11.2734 8.37109C11.2734 8.37109 11.2734 8.37109 11.2734 8.37109ZM2.625 11.9336C2.0625 11.9336 1.61719 11.4883 1.61719 10.9258C1.61719 10.3633 2.0625 9.91797 2.625 9.91797C3.1875 9.91797 3.63281 10.3633 3.63281 10.9258C3.63281 11.4883 3.1875 11.9336 2.625 11.9336C2.625 11.9336 2.625 11.9336 2.625 11.9336ZM6.72656 13.1055C5.53125 13.1055 4.54688 12.1211 4.54688 10.9258C4.54688 9.73047 5.53125 8.74609 6.72656 8.74609C7.92188 8.74609 8.90625 9.73047 8.90625 10.9258C8.88281 12.1445 7.92188 13.1055 6.72656 13.1055C6.72656 13.1055 6.72656 13.1055 6.72656 13.1055ZM10.8047 11.9336C10.2422 11.9336 9.79688 11.4883 9.79688 10.9258C9.79688 10.3633 10.2422 9.91797 10.8047 9.91797C11.3672 9.91797 11.8125 10.3633 11.8125 10.9258C11.8125 11.4883 11.3672 11.9336 10.8047 11.9336C10.8047 11.9336 10.8047 11.9336 10.8047 11.9336ZM10.8047 10.4336C10.5234 10.4336 10.3125 10.668 10.3125 10.9258C10.3125 11.207 10.5469 11.418 10.8047 11.418C11.0859 11.418 11.2969 11.1836 11.2969 10.9258C11.2969 10.668 11.0859 10.4336 10.8047 10.4336C10.8047 10.4336 10.8047 10.4336 10.8047 10.4336ZM6.72656 9.26172C5.8125 9.26172 5.0625 10.0117 5.0625 10.9258C5.0625 11.8398 5.8125 12.5898 6.72656 12.5898C7.64063 12.5898 8.39063 11.8398 8.39063 10.9258C8.39063 10.0117 7.64063 9.26172 6.72656 9.26172C6.72656 9.26172 6.72656 9.26172 6.72656 9.26172ZM2.625 10.4336C2.34375 10.4336 2.13281 10.668 2.13281 10.9258C2.13281 11.207 2.36719 11.418 2.625 11.418C2.90625 11.418 3.11719 11.1836 3.11719 10.9258C3.14063 10.668 2.90625 10.4336 2.625 10.4336C2.625 10.4336 2.625 10.4336 2.625 10.4336ZM10.8047 10.4336C10.5234 10.4336 10.3125 10.668 10.3125 10.9258C10.3125 11.207 10.5469 11.418 10.8047 11.418C11.0859 11.418 11.2969 11.1836 11.2969 10.9258C11.2969 10.668 11.0859 10.4336 10.8047 10.4336C10.8047 10.4336 10.8047 10.4336 10.8047 10.4336ZM10.8047 10.4336C10.5234 10.4336 10.3125 10.668 10.3125 10.9258C10.3125 11.207 10.5469 11.418 10.8047 11.418C11.0859 11.418 11.2969 11.1836 11.2969 10.9258C11.2969 10.668 11.0859 10.4336 10.8047 10.4336C10.8047 10.4336 10.8047 10.4336 10.8047 10.4336Z" fill="#61AB58" />
</svg>