<?xml version="1.0" encoding="utf-8"?>
<svg width="27.98" height="26.466" viewBox="0 0 27.98 26.466" fill="none" xmlns="http://www.w3.org/2000/svg">
  <g transform="translate(-0.001 -0)">
    <path d="M1.87175 9.61967L0 6.91355C0 6.91355 1.91156 6.91355 1.91156 6.91355C2.03657 6.91355 2.13824 6.81183 2.13824 6.68682C2.13824 6.68682 2.13824 0 2.13824 0L5.47075 0C5.47075 0 5.47075 6.68682 5.47075 6.68682C5.47075 6.81183 5.57248 6.91355 5.69754 6.91355C5.69754 6.91355 7.6091 6.91355 7.6091 6.91355L5.73736 9.61956L3.80449 12.412L1.87175 9.61967Z" fill="#FFBDBD" fill-rule="evenodd" transform="translate(18.389 10.035)" />
    <path d="M0 3.13019L0 0C0 0 0.849043 0 0.849043 0C1.31803 0 1.69967 0.381588 1.69967 0.850629C1.69967 0.850629 1.69967 2.2812 1.69967 2.2812C1.69967 2.74933 1.31808 3.13019 0.849043 3.13019C0.849043 3.13019 0 3.13019 0 3.13019Z" fill="#FFBDBD" fill-rule="evenodd" transform="translate(6.604 11.172)" />
    <path d="M0 6.21982L6.22124 0C6.22124 0 6.22124 5.69193 6.22124 5.69193C6.22124 5.983 5.98442 6.21982 5.69346 6.21982C5.69346 6.21982 0 6.21982 0 6.21982Z" fill="#FFBDBD" fill-rule="evenodd" transform="translate(4.858 0)" />
    <path d="M0 1.74617L0 0C0 0 0.849043 0 0.849043 0C1.31803 0 1.69967 0.381588 1.69967 0.85063C1.69967 0.85063 1.69967 0.895602 1.69967 0.895602C1.69967 1.36464 1.31808 1.74623 0.849043 1.74623C0.849043 1.74623 0 1.74623 0 1.74623L0 1.74617Z" fill="#FFBDBD" fill-rule="evenodd" transform="translate(3.004 11.172)" />
    <path d="M0.349699 5.93667C0.156895 5.93667 0 5.77978 0 5.58698C0 5.58698 0 0.349643 0 0.349643C0 0.156837 0.156895 0 0.349699 0C0.349699 0 14.6215 0 14.6215 0C14.8119 0 14.9727 0.160123 14.9727 0.349643C14.9727 0.349643 14.9727 5.58698 14.9727 5.58698C14.9727 5.77978 14.8151 5.93667 14.6215 5.93667C14.6215 5.93667 0.349699 5.93667 0.349699 5.93667ZM10.0425 0.949708C9.9174 0.949708 9.81567 1.05143 9.81567 1.17644C9.81567 1.17644 9.81567 4.76009 9.81567 4.76009C9.81567 4.8851 9.9174 4.98683 10.0425 4.98683C10.1675 4.98683 10.2691 4.8851 10.2691 4.76009C10.2691 4.76009 10.2691 2.99749 10.2691 2.99749C10.2691 2.99749 11.9274 2.99749 11.9274 2.99749C12.0524 2.99749 12.1541 2.89577 12.1541 2.77076C12.1541 2.64575 12.0524 2.54403 11.9274 2.54403C11.9274 2.54403 10.2691 2.54403 10.2691 2.54403L10.2691 1.40317C10.2691 1.40317 12.1955 1.40317 12.1955 1.40317C12.3205 1.40317 12.4223 1.30145 12.4223 1.17644C12.4223 1.05143 12.3205 0.949707 12.1955 0.949707C12.1955 0.949707 10.0425 0.949708 10.0425 0.949708ZM6.37669 0.949707C6.25163 0.949707 6.1499 1.05143 6.1499 1.17644C6.1499 1.17644 6.1499 4.76009 6.1499 4.76009C6.1499 4.8851 6.25163 4.98682 6.37669 4.98682C6.37669 4.98682 7.45241 4.98682 7.45241 4.98682C8.17146 4.98682 8.75645 4.40258 8.75645 3.68437C8.75645 3.68437 8.75645 2.2538 8.75645 2.2538C8.75645 1.53475 8.17146 0.949764 7.45241 0.949764C7.45241 0.949764 6.37669 0.949764 6.37669 0.949764C6.37669 0.949764 6.37669 0.949707 6.37669 0.949707ZM2.77708 0.949707C2.65202 0.949707 2.55029 1.05143 2.55029 1.17644C2.55029 1.17644 2.55029 4.76009 2.55029 4.76009C2.55029 4.8851 2.65202 4.98682 2.77708 4.98682C2.90209 4.98682 3.00376 4.8851 3.00376 4.76009C3.00376 4.76009 3.00376 3.60281 3.00376 3.60281C3.00376 3.60281 3.8528 3.60281 3.8528 3.60281C4.57185 3.60281 5.15684 3.01783 5.15684 2.29877C5.15684 2.29877 5.15684 2.2538 5.15684 2.2538C5.15684 1.53475 4.57185 0.949764 3.8528 0.949764C3.8528 0.949764 2.77708 0.949764 2.77708 0.949764C2.77708 0.949764 2.77708 0.949707 2.77708 0.949707Z" fill="#FFBDBD" transform="translate(0 9.769)" />
    <path d="M2.74044 22.9396C1.22933 22.9396 0 21.7103 0 20.1992C0 20.1992 0 19.5461 0 19.5461L11.5769 19.5461L11.5769 19.5441C11.5769 19.5441 11.637 19.5456 11.637 19.5456C11.637 19.5456 11.6429 19.546 11.643 19.546C11.7178 19.546 11.7874 19.5095 11.8297 19.4484C11.8297 19.4484 13.9491 16.3865 13.9491 16.3865C13.9491 16.3865 16.0669 13.3246 16.0669 13.3246C16.115 13.2551 16.1204 13.1654 16.0812 13.0904C16.0419 13.0155 15.965 12.9689 15.8803 12.9689C15.8803 12.9689 13.7629 12.9689 13.7629 12.9689C13.7629 12.9689 13.7629 6.28224 13.7629 6.28224C13.7629 6.15723 13.6613 6.05551 13.5363 6.05551C13.5363 6.05551 11.87 6.05551 11.87 6.05551L11.87 0C11.87 0 14.689 0 14.689 0C16.2001 0 17.4293 1.22859 17.4293 2.7388C17.4293 2.7388 17.4293 20.1993 17.4293 20.1993C17.4293 21.7104 16.2001 22.9396 14.689 22.9396C14.689 22.9396 2.74044 22.9396 2.74044 22.9396C2.74044 22.9396 2.74044 22.9396 2.74044 22.9396Z" fill="#FFBDBD" fill-rule="evenodd" transform="translate(10.55 3.526)" />
  </g>
</svg>