<svg width="9" height="9" viewBox="0 0 9 9" fill="none" xmlns="http://www.w3.org/2000/svg">
<path id="Shape" fill-rule="evenodd" clip-rule="evenodd" d="M6.59109 6.22385L8.91479 8.51037C9.02845 8.62234 9.02845 8.80407 8.91452 8.91603C8.80086 9.02799 8.61633 9.02799 8.50267 8.91603L6.16995 6.62049C5.51896 7.14008 4.6902 7.45262 3.78659 7.45262C1.69524 7.45262 0 5.78443 0 3.72631C0 1.6682 1.69524 0 3.78659 0C5.87794 0 7.57318 1.6682 7.57347 3.72631C7.57347 4.68841 7.19959 5.56274 6.59109 6.22385ZM0.58316 3.72624C0.58316 5.46759 2.01762 6.87923 3.78713 6.87923C5.55665 6.87923 6.9911 5.46759 6.9911 3.72624C6.9911 1.98488 5.55665 0.573242 3.78713 0.573242C2.01762 0.573242 0.58316 1.98488 0.58316 3.72624Z" fill="#282529" fill-opacity="0.498039"/>
</svg>
