<?xml version="1.0" encoding="utf-8"?>
<svg width="1440.004" height="543.709" viewBox="0 0 1440.004 543.709" fill="none" xmlns="http://www.w3.org/2000/svg">
  <defs>
    <mask id="mask_1" x="-28313" y="-7528" width="1440.004" height="543.709">
      <path d="M3 1.70289L0 491.397C0 491.397 383.017 652.847 869.175 408.484C1150.33 267.162 1440 341.049 1440 341.049L1440 0L3 1.70289Z" fill="#FDEFED" fill-rule="evenodd" />
    </mask>
    <filter color-interpolation-filters="sRGB" x="-549" y="-549" width="551" height="551" id="filter_2">
      <feFlood flood-opacity="0" result="BackgroundImageFix_1" />
      <feBlend mode="normal" in="SourceGraphic" in2="BackgroundImageFix_1" result="Shape_2" />
      <feGaussianBlur stdDeviation="225" />
    </filter>
    <mask id="mask_3" x="-28313" y="-7528" width="1440.004" height="543.709">
      <g mask="url(#mask_1)">
        <path d="M0 275.5C0 123.346 123.346 0 275.5 0C427.654 0 551 123.346 551 275.5C551 427.654 427.654 551 275.5 551C123.346 551 0 427.654 0 275.5Z" fill="#FBF0D3" fill-rule="evenodd" filter="url(#filter_2)" transform="translate(443.844 269)" />
      </g>
    </mask>
    <filter color-interpolation-filters="sRGB" x="-543" y="-515" width="545" height="517" id="filter_4">
      <feFlood flood-opacity="0" result="BackgroundImageFix_1" />
      <feBlend mode="normal" in="SourceGraphic" in2="BackgroundImageFix_1" result="Shape_2" />
      <feGaussianBlur stdDeviation="123.5" />
    </filter>
    <filter color-interpolation-filters="sRGB" x="-292" y="-272" width="294" height="274" id="filter_5">
      <feFlood flood-opacity="0" result="BackgroundImageFix_1" />
      <feBlend mode="normal" in="SourceGraphic" in2="BackgroundImageFix_1" result="Shape_2" />
      <feGaussianBlur stdDeviation="225" />
    </filter>
  </defs>
  <g mask="url(#mask_3)">
    <path d="M0 258.5C0 115.734 122.002 0 272.5 0C422.998 0 545 115.734 545 258.5C545 401.266 422.998 517 272.5 517C122.002 517 0 401.266 0 258.5Z" fill="#FCD6D6" fill-rule="evenodd" filter="url(#filter_4)" transform="translate(-138.156 -328)" />
    <path d="M0 137C0 61.337 65.8141 0 147 0C228.186 0 294 61.337 294 137C294 212.663 228.186 274 147 274C65.8141 274 0 212.663 0 137Z" fill="#FC5842" fill-rule="evenodd" filter="url(#filter_5)" transform="translate(1212.844 120)" />
  </g>
</svg>