<svg width="132" height="25" viewBox="0 0 132 25" fill="none" xmlns="http://www.w3.org/2000/svg">
<path fill-rule="evenodd" clip-rule="evenodd" d="M4.53767e-05 5.59368C4.53767e-05 5.59368 1.0161 0.0187263 2.78799 0.0187263C4.16338 0.0187263 128.134 0.00625453 129.274 0.0187263C130.798 0.031198 132 5.59368 132 5.59368L4.53767e-05 5.59368Z" fill="url(#paint0_linear_0_72727)"/>
<path fill-rule="evenodd" clip-rule="evenodd" d="M129.274 0.0192674C128.977 0.0192674 128.159 -0.055564 127.279 1.32882C124.863 5.13276 115.594 20.81 115.594 20.81C114.169 23.2919 111.53 24.8135 108.68 24.8135H22.8487C19.9988 24.8135 17.3595 23.2919 15.9346 20.81C15.9346 20.81 7.70702 6.52962 4.95625 1.76534C3.95259 0.0192674 2.73828 0.0192674 2.73828 0.0192674H129.274Z" fill="url(#paint1_linear_0_72727)"/>
<path fill-rule="evenodd" clip-rule="evenodd" d="M114.318 22.4557C113.352 23.441 112.137 24.1893 110.812 24.5635C110.142 24.763 109.449 24.8628 108.767 24.8753L106.71 24.9002L98.4827 25H82.0276H49.1298H32.6871H24.4596H23.4311H22.9107C22.7496 25 22.5638 25 22.3903 24.9875C21.684 24.9501 20.9901 24.8129 20.321 24.6009C18.9828 24.1644 17.7561 23.3787 16.8144 22.331C16.5749 22.0733 16.3518 21.7989 16.1453 21.5079C15.9471 21.221 15.7612 20.9092 15.6001 20.6099L14.5593 18.8264L12.5024 15.2469L8.37623 8.08805L6.35652 4.47119L5.34046 2.67523L4.83244 1.77725C4.67136 1.47792 4.4855 1.19107 4.26246 0.941629C4.05182 0.69219 3.804 0.455223 3.50662 0.318032C3.22163 0.180841 2.88708 0.143425 2.56492 0.230729C2.41623 0.268145 2.27993 0.342976 2.14363 0.455224C2.01972 0.555 1.9082 0.679719 1.80907 0.804439C1.59843 1.07882 1.42496 1.36568 1.27627 1.67747C0.978882 2.2886 0.74346 2.93714 0.545201 3.59815C0.346943 4.25501 0.165209 4.92018 0 5.59366C0.140433 4.92018 0.301513 4.25085 0.483247 3.58568C0.656722 2.9122 0.867361 2.25118 1.16475 1.61511C1.30104 1.30332 1.47452 0.991518 1.68516 0.717136C1.79668 0.579944 1.9082 0.442753 2.0445 0.318034C2.1808 0.205786 2.34189 0.106011 2.52775 0.0561233C2.70122 0.0062354 2.87882 -0.0103936 3.06055 0.0062354C3.24642 0.0187071 3.41989 0.0685951 3.59336 0.143427C3.92792 0.293089 4.20052 0.530056 4.43594 0.791967C4.67137 1.05388 4.86962 1.3532 5.04309 1.65253L5.5759 2.53804L6.62913 4.32153L8.73557 7.87603L12.8617 15.0349L14.9186 18.6144L15.9471 20.4103C16.1205 20.7097 16.294 20.9965 16.4799 21.2709C16.6781 21.5453 16.8888 21.8072 17.1118 22.0566C18.0163 23.0419 19.1811 23.7902 20.4449 24.2018C21.0893 24.4138 21.746 24.5385 22.4151 24.576C22.5762 24.576 22.7496 24.5884 22.9107 24.5884H23.4311H24.4596H32.6871H49.1298H82.0276H98.4827L106.71 24.6757L108.755 24.7007C109.436 24.7007 110.118 24.6258 110.774 24.4512C112.1 24.1145 113.327 23.4161 114.318 22.4557V22.4557Z" fill="url(#paint2_linear_0_72727)"/>
<defs>
<linearGradient id="paint0_linear_0_72727" x1="249.824" y1="12.3842" x2="249.824" y2="-3.16848" gradientUnits="userSpaceOnUse">
<stop stop-color="#EC1C24"/>
<stop offset="0.755" stop-color="#741013"/>
</linearGradient>
<linearGradient id="paint1_linear_0_72727" x1="160.361" y1="28.9259" x2="160.361" y2="-8.99233" gradientUnits="userSpaceOnUse">
<stop offset="0.083" stop-color="#EC1C24"/>
<stop offset="0.186" stop-color="#F2767F"/>
<stop offset="0.426" stop-color="#EC1C24"/>
<stop offset="0.913" stop-color="#741013"/>
</linearGradient>
<linearGradient id="paint2_linear_0_72727" x1="-86.7907" y1="-32.9242" x2="-85.6542" y2="25.3176" gradientUnits="userSpaceOnUse">
<stop offset="0.228" stop-color="#791214"/>
<stop offset="1" stop-color="#F0777D"/>
</linearGradient>
</defs>
</svg>
