<?xml version="1.0" encoding="utf-8"?>
<svg width="12.41" height="15.624" viewBox="0 0 12.41 15.624" fill="none" xmlns="http://www.w3.org/2000/svg">
  <g transform="translate(0.001 0)">
    <g>
      <path d="M11.923 4.31728C11.923 4.31728 11.923 13.4138 11.923 13.4138C11.923 14.3644 11.1524 15.1351 10.2018 15.1351C10.2018 15.1351 1.72125 15.1351 1.72125 15.1351C0.770625 15.1351 0 14.3644 0 13.4138C0 13.4138 0 1.72125 0 1.72125C0 0.770625 0.770625 0 1.72125 0C1.72125 0 7.60575 0 7.60575 0L11.923 4.31728Z" fill="#FEFDFE" fill-rule="evenodd" transform="translate(0.243 0.245)" />
      <path d="M4.31731 4.31728C4.31731 4.31728 1.72125 4.31728 1.72125 4.31728C0.770625 4.31728 0 3.54666 0 2.59603C0 2.59603 0 0 0 0L4.31731 4.31728Z" fill="#FFB8B8" fill-rule="evenodd" transform="translate(7.849 0.245)" />
      <path d="M8.25299 2.30503C8.70139 2.82343 8.70124 3.59225 8.25255 4.11044C7.43183 5.05831 5.96674 6.41281 4.29614 6.41281C2.62355 6.41281 1.15777 5.05847 0.33677 4.11059C-0.112105 3.59237 -0.112262 2.82334 0.336332 2.30487C1.15727 1.35609 2.62324 0 4.29614 0C5.96702 0 7.43233 1.35625 8.25299 2.30503C8.25299 2.30503 8.25299 2.30503 8.25299 2.30503Z" fill="#FFB8B8" fill-rule="evenodd" transform="translate(1.91 6.842)" />
      <path d="M0 1.84751C0 0.82716 0.82716 0 1.84751 0C2.86787 0 3.69503 0.82716 3.69503 1.84751C3.69503 2.86787 2.86787 3.69503 1.84751 3.69503C0.82716 3.69503 0 2.86787 0 1.84751Z" fill="#FEFDFE" fill-rule="evenodd" transform="translate(4.356 8.206)" />
      <g>
        <path d="M0.244125 4.44294C0.109187 4.44294 0 4.55225 0 4.68706C0 4.68706 0 6.59109 0 6.59109C0 7.67459 0.881563 8.55616 1.96506 8.55616C1.96506 8.55616 10.4456 8.55616 10.4456 8.55616C11.5291 8.55616 12.4107 7.67459 12.4107 6.59109C12.4107 6.59109 12.4107 0.244125 12.4107 0.244125C12.4107 0.109313 12.3015 0 12.1666 0C12.0316 0 11.9224 0.109313 11.9224 0.244125C11.9224 0.244125 11.9224 6.59106 11.9224 6.59106C11.9224 7.40541 11.2599 8.06791 10.4456 8.06791C10.4456 8.06791 1.96506 8.06791 1.96506 8.06791C1.15072 8.06791 0.488216 7.40541 0.488216 6.59106C0.488216 6.59106 0.488216 4.68703 0.488216 4.68703C0.488216 4.55222 0.37906 4.44294 0.244123 4.44294C0.244123 4.44294 0.244125 4.44294 0.244125 4.44294Z" fill="#EC1E24" fill-rule="evenodd" transform="translate(0 7.067)" />
        <path d="M12.3395 4.39065C12.3393 4.39049 12.3393 4.3903 12.3392 4.39015C12.3392 4.39015 12.3391 4.39002 12.3391 4.39002C12.3389 4.3899 12.3388 4.38971 12.3387 4.38955C9.76775 1.81852 7.9755 0.0290216 8.0175 0.0693653C7.98038 0.0337091 7.92709 0.00870907 7.86788 0.00405282C7.78875 -0.00247844 3.63903 0.00108407 1.96506 0.000146568C0.881563 0.000146568 0 0.881709 0 1.96533C0 1.96533 0 10.8193 0 10.8193C0 10.9541 0.109187 11.0635 0.244125 11.0635C0.379063 11.0635 0.48825 10.9541 0.48825 10.8193C0.48825 10.8193 0.48825 1.96533 0.48825 1.96533C0.48825 1.15099 1.15075 0.488366 1.96509 0.488366C1.96509 0.488366 7.60475 0.488366 7.60475 0.488366C7.60475 0.488366 7.60475 2.8408 7.60475 2.8408C7.60475 3.92452 8.48631 4.80624 9.57006 4.80624C9.57006 4.80624 11.9225 4.80624 11.9225 4.80624C11.9225 4.80624 11.9225 6.37402 11.9225 6.37402C11.9225 6.50883 12.0317 6.61815 12.1666 6.61815C12.3016 6.61815 12.4108 6.50883 12.4108 6.37402C12.4096 5.68574 12.4136 4.62793 12.4072 4.54468C12.4029 4.48774 12.3782 4.42974 12.3395 4.39065C12.3395 4.39065 12.3395 4.39065 12.3395 4.39065ZM8.09277 2.84088C8.09277 2.84088 8.09277 0.834229 8.09277 0.834229C8.44143 1.18288 11.2212 3.96273 11.5765 4.3181C11.5765 4.3181 9.56984 4.3181 9.56984 4.3181C8.75549 4.31807 8.09277 3.65548 8.09277 2.84088C8.09277 2.84088 8.09277 2.84088 8.09277 2.84088Z" fill="#EC1E24" />
        <path d="M4.53745 6.9011C6.25198 6.9011 7.73573 5.60316 8.67854 4.51444C9.20276 3.90894 9.20301 2.99541 8.67901 2.38941C8.67901 2.38941 8.67901 2.38941 8.67876 2.38941C7.73617 1.29934 6.25217 0 4.53742 0C2.82098 0 1.33629 1.29934 0.393199 2.38928C-0.131269 2.99528 -0.131019 3.90891 0.393668 4.51453C1.33679 5.60331 2.82126 6.9011 4.53745 6.9011C4.53745 6.9011 4.53745 6.9011 4.53745 6.9011ZM0.762129 2.70878C1.47994 1.87953 2.9246 0.488281 4.53732 0.488281C6.14838 0.488281 7.59232 1.87953 8.30963 2.70891C8.30963 2.70891 8.30938 2.70891 8.30938 2.70891C8.67603 3.13266 8.67603 3.77153 8.30938 4.19481C7.59207 5.02322 6.14813 6.41294 4.53732 6.41294C2.9246 6.41294 1.48019 5.02334 0.762629 4.19494C0.395723 3.77141 0.395504 3.13253 0.762129 2.70878C0.762129 2.70878 0.762129 2.70878 0.762129 2.70878Z" fill="#EC1E24" transform="translate(1.668 6.598)" />
        <path d="M2.09166 4.18319C3.24475 4.18319 4.18306 3.24488 4.18306 2.09153C4.18306 0.938313 3.24475 0 2.09166 0C0.938313 0 0 0.938313 0 2.09153C0 3.24488 0.938313 4.18319 2.09166 4.18319C2.09166 4.18319 2.09166 4.18319 2.09166 4.18319ZM2.09147 0.488037C2.97544 0.488037 3.69466 1.20726 3.69466 2.09135C3.69466 2.97544 2.97544 3.69479 2.09147 3.69479C1.20729 3.69479 0.488037 2.97544 0.488037 2.09135C0.488037 1.20726 1.20729 0.488037 2.09147 0.488037C2.09147 0.488037 2.09147 0.488037 2.09147 0.488037Z" fill="#EC1E24" transform="translate(4.113 7.957)" />
      </g>
    </g>
  </g>
</svg>