<svg width="12" height="9" viewBox="0 0 12 9" fill="none" xmlns="http://www.w3.org/2000/svg">
<path fill-rule="evenodd" clip-rule="evenodd" d="M6.00004 0C7.50551 0 8.81312 1.04003 9.15764 2.51146C10.8598 2.7246 12.1024 4.2315 11.9933 5.95027C11.8843 7.66904 10.4613 9.00543 8.74594 8.99998H3.25663C1.5408 9.0068 0.116487 7.67077 0.00673985 5.95153C-0.103008 4.23229 1.13978 2.72463 2.84243 2.51146C3.18696 1.04003 4.49457 0 6.00004 0ZM6.35347 8.36808L8.2947 6.41902C8.49038 6.22324 8.49093 5.90526 8.29594 5.70879C8.10095 5.51232 7.78425 5.51176 7.58857 5.70754L6.50069 6.79981V2.49836C6.50069 2.22164 6.27727 1.99731 6.00166 1.99731C5.72605 1.99731 5.50263 2.22164 5.50263 2.49836V6.79981L4.41475 5.71004C4.21974 5.51438 3.90369 5.51444 3.70874 5.71017C3.5138 5.9059 3.51375 6.22322 3.70862 6.41902L5.64735 8.35806C5.67087 8.38234 5.69679 8.40416 5.7247 8.42319L5.75214 8.44324L5.81702 8.46829L5.86193 8.48081L5.91183 8.49585C5.94254 8.49871 5.97345 8.49871 6.00416 8.49585C6.03651 8.49903 6.06911 8.49903 6.10147 8.49585H6.13889L6.19379 8.47831L6.23371 8.45576L6.27862 8.43071C6.2989 8.4163 6.31809 8.40039 6.33601 8.38311L6.35347 8.36808Z" fill="#282529" fill-opacity="0.498039"/>
</svg>
