<svg width="32" height="32" viewBox="0 0 32 32" fill="none" xmlns="http://www.w3.org/2000/svg">
<g clip-path="url(#clip0_0_81806)">
<circle cx="16" cy="16" r="16" fill="white"/>
<path fill-rule="evenodd" clip-rule="evenodd" d="M18.8561 22.973C18.4849 23.1174 17.3093 23.4611 16.773 23.1552C16.6228 23.068 16.5251 22.9125 16.5118 22.7393C16.3433 21.6668 17.1443 19.1883 17.5774 17.858C17.7218 17.4146 17.8249 17.0915 17.8661 16.8955C18.179 15.4483 18.0243 14.3415 17.4055 13.6058C16.6611 12.7208 15.3402 12.5486 14.2568 12.7087C13.155 12.8555 12.0784 13.1515 11.0565 13.5887C10.9602 13.6352 10.8914 13.7243 10.8708 13.8293L10.6474 14.8983C10.6228 15.0208 10.6662 15.1469 10.7608 15.2283C10.8566 15.3079 10.9871 15.3314 11.1046 15.2902C11.5136 15.139 12.7924 14.7987 13.2496 15.218C13.5074 15.4552 13.4352 15.9571 13.3321 16.3318C13.2255 16.7237 13.0983 17.1465 12.9677 17.5899C12.1221 20.4671 11.1596 23.7293 12.6858 24.7468C13.408 25.2981 14.2869 25.6051 15.1952 25.6233C16.089 25.6233 17.1924 25.3415 18.7805 24.6986C18.8775 24.6609 18.9521 24.5813 18.9833 24.4821L19.3099 23.3924C19.3476 23.2657 19.3103 23.1285 19.2137 23.0383C19.1169 22.9497 18.978 22.9243 18.8561 22.973L18.8561 22.973Z" fill="#EC1E24"/>
<path fill-rule="evenodd" clip-rule="evenodd" d="M16.8681 6.37744C15.495 6.37839 14.3825 7.49194 14.3828 8.86505C14.3831 10.2381 15.4962 11.3512 16.8693 11.3515C18.2424 11.3518 19.3559 10.2393 19.3569 8.86619C19.3564 7.49185 18.2424 6.37788 16.8681 6.37744L16.8681 6.37744Z" fill="#EC1E24"/>
</g>
<defs>
<clipPath id="clip0_0_81806">
<rect width="32" height="32" fill="white"/>
</clipPath>
</defs>
</svg>
