<?xml version="1.0" encoding="utf-8"?>
<svg width="15" height="21" viewBox="0 0 15 21" fill="none" xmlns="http://www.w3.org/2000/svg">
  <g>
    <path d="M6.4831 18.3201C6.58762 18.5844 6.84064 18.7577 7.12212 18.7577C7.40352 18.7577 7.65654 18.5844 7.76106 18.3201C7.76106 18.3201 9.46157 14.0173 9.46157 14.0173C10.776 13.5533 11.9511 12.691 12.7975 11.563C13.744 10.3017 14.2442 8.79575 14.2442 7.20809C14.2442 3.23358 11.0493 0 7.12212 0C3.19492 0 0 3.23358 0 7.20816C0 8.79582 0.500233 10.3017 1.44673 11.5631C2.2931 12.6911 3.46828 13.5533 4.78273 14.0174C4.78273 14.0174 6.4831 18.3201 6.4831 18.3201C6.4831 18.3201 6.4831 18.3201 6.4831 18.3201ZM7.12304 4.64782C8.51747 4.64782 9.65203 5.79638 9.65203 7.20819C9.65203 8.61979 8.51747 9.76821 7.12304 9.76821C5.72854 9.76821 4.59412 8.61979 4.59412 7.20819C4.59412 5.79645 5.72854 4.64782 7.12304 4.64782C7.12304 4.64782 7.12304 4.64782 7.12304 4.64782Z" fill="#515151" transform="translate(0.379 0)" />
    <path d="M10.4002 0C10.4002 0 9.03342 3.45828 9.03342 3.45828C8.78124 4.09613 8.17935 4.50842 7.5 4.50842C6.82072 4.50842 6.21883 4.0962 5.96651 3.45807C5.96651 3.45807 4.59984 6.86646e-05 4.59984 6.86646e-05C2.07406 0.378493 0 1.2827 0 2.78423C0.000140017 4.84004 3.88783 5.77641 7.50007 5.77641C11.1123 5.77641 15 4.84004 15 2.78416C15 1.28256 12.9259 0.378496 10.4002 0C10.4002 0 10.4002 0 10.4002 0Z" fill="#515151" fill-rule="evenodd" transform="translate(0 15.223)" />
  </g>
</svg>