<?xml version="1.0" encoding="utf-8"?>
<svg width="32" height="32" viewBox="0 0 32 32" fill="none" xmlns="http://www.w3.org/2000/svg">
  <g>
    <path d="M0 16C0 7.16344 7.16344 0 16 0C24.8366 0 32 7.16344 32 16C32 24.8366 24.8366 32 16 32C7.16344 32 0 24.8366 0 16Z" fill="#EEECEC" fill-rule="evenodd" />
    <g transform="translate(6.5 6.5)">
      <g transform="translate(0 2.455)">
        <g>
          <g>
            <path d="M16.5243 10.6292C16.5243 10.6292 15.78 9.9088 15.78 9.9088C15.6947 9.82627 15.5593 9.82627 15.4741 9.9088C15.4741 9.9088 14.7102 10.6484 14.7102 10.6484C13.8848 11.4472 12.4728 10.8886 12.4728 9.66986C12.4728 9.66986 12.4728 7.26405 12.4728 7.26405C12.4728 7.26405 4.34829 7.26405 4.34829 7.26405C3.99304 7.26405 3.68734 6.99104 3.6706 6.63616C3.65275 6.25728 3.95463 5.94452 4.32962 5.94452C4.32962 5.94452 12.4728 5.94452 12.4728 5.94452C12.4728 5.94452 12.4728 5.01007 12.4728 5.01007C11.3195 3.57029 11.2833 1.4879 12.4584 0C12.4584 0 0.659767 0 0.659767 0C0.295391 3.70741e-05 0 0.295428 0 0.659805C0 0.659805 0 12.5489 0 12.5489C0 12.9133 0.295391 13.2087 0.659767 13.2087C0.659767 13.2087 17.462 13.2087 17.462 13.2087C17.8263 13.2087 18.1217 12.9133 18.1217 12.5489C18.1217 12.5489 18.1217 10.8424 18.1217 10.8424C17.5987 11.1439 16.9636 11.0544 16.5243 10.6292C16.5243 10.6292 16.5243 10.6292 16.5243 10.6292ZM7.478 2.86485C7.478 2.86485 10.6449 2.86485 10.6449 2.86485C11.0093 2.86485 11.3047 3.16024 11.3047 3.52461C11.3047 3.88899 11.0093 4.18438 10.6449 4.18438C10.6449 4.18438 7.47799 4.18438 7.47799 4.18438C7.11362 4.18438 6.81823 3.88899 6.81823 3.52461C6.81823 3.16024 7.11362 2.86485 7.478 2.86485C7.478 2.86485 7.478 2.86485 7.478 2.86485ZM11.0842 10.3433C11.0842 10.3433 7.03763 10.3433 7.03763 10.3433C6.67326 10.3433 6.37786 10.0479 6.37786 9.68353C6.37786 9.31916 6.67326 9.02377 7.03763 9.02377C7.03763 9.02377 11.0842 9.02377 11.0842 9.02377C11.4486 9.02377 11.744 9.31916 11.744 9.68353C11.744 10.0479 11.4486 10.3433 11.0842 10.3433C11.0842 10.3433 11.0842 10.3433 11.0842 10.3433Z" fill="#515151" transform="translate(0 0.879)" />
            <path d="M0 0.000222683C0 0.000222683 0 4.01847 0 4.01847C0 4.63648 0.7089 4.90731 1.1187 4.51076C1.1187 4.51076 2.34153 3.32693 2.34153 3.32693C2.42677 3.24436 2.56214 3.24436 2.64746 3.32693C2.64746 3.32693 3.87062 4.51083 3.87062 4.51083C4.28283 4.90983 4.98925 4.63244 4.98925 4.01947C4.98925 4.01947 4.98925 0 4.98925 0C3.53786 1.14516 1.47447 1.16297 0 0.000222683C0 0.000222683 0 0.000222683 0 0.000222683Z" fill="#515151" fill-rule="evenodd" transform="translate(13.134 6.544)" />
            <path d="M1.09407 5.86129C2.38314 7.04482 4.36567 7.04672 5.65638 5.86066C6.68649 4.91623 7.023 3.45957 6.51357 2.14943C5.56891 -0.27994 2.51303 -0.675934 0.888747 1.09385C-0.373379 2.46983 -0.279046 4.60213 1.09407 5.86129C1.09407 5.86129 1.09407 5.86129 1.09407 5.86129ZM3.37474 2.29831C3.96942 2.29831 4.45136 2.78047 4.45136 3.37493C4.45136 3.96923 3.96912 4.45154 3.37474 4.45154C2.78051 4.45154 2.29831 3.96964 2.29831 3.37493C2.29831 2.78029 2.78065 2.29831 3.37474 2.29831C3.37474 2.29831 3.37474 2.29831 3.37474 2.29831Z" fill="#515151" transform="translate(12.251 0)" />
          </g>
        </g>
      </g>
    </g>
  </g>
</svg>