<?xml version="1.0" encoding="utf-8"?>
<svg width="32" height="32" viewBox="0 0 32 32" fill="none" xmlns="http://www.w3.org/2000/svg">
  <g>
    <path d="M0 16C0 7.16344 7.16344 0 16 0C24.8366 0 32 7.16344 32 16C32 24.8366 24.8366 32 16 32C7.16344 32 0 24.8366 0 16Z" fill="#EEECEC" fill-rule="evenodd" />
    <path d="M16.4667 1.26665C16.4667 1.26665 16.4667 10.1333 16.4667 10.1333C16.4667 10.8299 15.8967 11.3999 15.2 11.3999C15.2 11.3999 14.8834 11.3999 14.8834 11.3999C14.8834 11.3999 14.8834 3.79994 14.8834 3.79994C14.8834 2.57759 13.889 1.58329 12.6667 1.58329C12.6667 1.58329 0 1.58329 0 1.58329C0 1.58329 0 1.26665 0 1.26665C0 0.570001 0.57 0 1.26665 0C1.26665 0 15.2 0 15.2 0C15.8967 0 16.4667 0.570001 16.4667 1.26665C16.4667 1.26665 16.4667 1.26665 16.4667 1.26665Z" fill="#515151" fill-rule="evenodd" transform="translate(9.034 9.033)" />
    <g transform="translate(6.5 11.566)">
      <path d="M5.85817 2.53326C5.42117 2.53326 5.06652 2.88791 5.06652 3.3249C5.06652 3.7619 5.42117 4.11655 5.85817 4.11655C6.29517 4.11655 6.64981 3.7619 6.64981 3.3249C6.64981 2.88791 6.29517 2.53326 5.85817 2.53326C5.85817 2.53326 5.85817 2.53326 5.85817 2.53326ZM5.85817 2.53326C5.42117 2.53326 5.06652 2.88791 5.06652 3.3249C5.06652 3.7619 5.42117 4.11655 5.85817 4.11655C6.29517 4.11655 6.64981 3.7619 6.64981 3.3249C6.64981 2.88791 6.29517 2.53326 5.85817 2.53326C5.85817 2.53326 5.85817 2.53326 5.85817 2.53326ZM10.5134 0C10.5134 0 1.20335 0 1.20335 0C1.03871 0.576294 0.576294 1.03865 0 1.20335C0 1.20335 0 5.44665 0 5.44665C0.576294 5.61129 1.03865 6.07371 1.20335 6.65C1.20335 6.65 10.5133 6.65 10.5133 6.65C10.6779 6.0737 11.1404 5.61135 11.7166 5.44665C11.7166 5.44665 11.7166 1.20335 11.7166 1.20335C11.1404 1.03871 10.678 0.576294 10.5133 4.76837e-07C10.5133 4.76837e-07 10.5134 0 10.5134 0ZM2.05879 3.95823C1.71044 3.95823 1.42544 3.67323 1.42544 3.32487C1.42544 2.97652 1.71044 2.69152 2.05879 2.69152C2.40714 2.69152 2.69214 2.97652 2.69214 3.32487C2.69214 3.67323 2.40714 3.95823 2.05879 3.95823C2.05879 3.95823 2.05879 3.95823 2.05879 3.95823ZM5.8586 5.06808C4.8959 5.06808 4.11696 4.28908 4.11696 3.32643C4.11696 2.36379 4.89596 1.58479 5.8586 1.58479C6.82125 1.58479 7.60025 2.36379 7.60025 3.32643C7.60025 4.28908 6.82125 5.06808 5.8586 5.06808C5.8586 5.06808 5.8586 5.06808 5.8586 5.06808ZM9.6553 3.95823C9.30694 3.95823 9.02194 3.67323 9.02194 3.32487C9.02194 2.97652 9.30694 2.69152 9.6553 2.69152C10.0037 2.69152 10.2887 2.97652 10.2887 3.32487C10.2887 3.67323 10.0037 3.95823 9.6553 3.95823C9.6553 3.95823 9.6553 3.95823 9.6553 3.95823ZM5.85817 2.53326C5.42117 2.53326 5.06652 2.88791 5.06652 3.3249C5.06652 3.7619 5.42117 4.11655 5.85817 4.11655C6.29517 4.11655 6.64981 3.7619 6.64981 3.3249C6.64981 2.88791 6.29517 2.53326 5.85817 2.53326C5.85817 2.53326 5.85817 2.53326 5.85817 2.53326Z" fill="#515151" transform="translate(2.375 2.375)" />
      <path d="M15.2 5.66244e-07C15.2 5.66244e-07 1.26665 5.66244e-07 1.26665 5.66244e-07C0.57 5.66244e-07 0 0.570001 0 1.26665C0 1.26665 0 10.1333 0 10.1333C0 10.8299 0.57 11.3999 1.26665 11.3999C1.26665 11.3999 15.2 11.3999 15.2 11.3999C15.8966 11.3999 16.4666 10.8299 16.4666 10.1333C16.4666 10.1333 16.4666 1.26665 16.4666 1.26665C16.4666 0.57 15.8966 0 15.2 0C15.2 0 15.2 5.66244e-07 15.2 5.66244e-07ZM15.0421 8.23482C15.0421 8.49447 14.8267 8.70982 14.5671 8.70982C14.1301 8.70982 13.7754 9.06447 13.7754 9.50147C13.7754 9.76111 13.5601 9.97647 13.3004 9.97647C13.3004 9.97647 3.16708 9.97647 3.16708 9.97647C2.90744 9.97647 2.69208 9.76111 2.69208 9.50147C2.69208 9.06447 2.33744 8.70982 1.90044 8.70982C1.64079 8.70982 1.42544 8.49447 1.42544 8.23482C1.42544 8.23482 1.42544 3.16817 1.42544 3.16817C1.42544 2.90853 1.64079 2.69317 1.90044 2.69317C2.33744 2.69317 2.69208 2.33853 2.69208 1.90153C2.69208 1.64188 2.90744 1.42653 3.16708 1.42653C3.16708 1.42653 13.3004 1.42653 13.3004 1.42653C13.5601 1.42653 13.7754 1.64188 13.7754 1.90153C13.7754 2.33853 14.1301 2.69317 14.5671 2.69317C14.8267 2.69317 15.0421 2.90853 15.0421 3.16817C15.0421 3.16817 15.0421 8.23482 15.0421 8.23482Z" fill="#515151" />
    </g>
  </g>
</svg>