<?xml version="1.0" encoding="utf-8"?>
<svg width="32" height="32" viewBox="0 0 32 32" fill="none" xmlns="http://www.w3.org/2000/svg">
  <g>
    <path d="M0 16C0 7.16344 7.16344 0 16 0C24.8366 0 32 7.16344 32 16C32 24.8366 24.8366 32 16 32C7.16344 32 0 24.8366 0 16Z" fill="#EEECEC" fill-rule="evenodd" />
    <g transform="translate(10.348 6)">
      <path d="M0 0.612873C0 0.612873 0 14.7561 0 14.7561C0 14.9276 0.0718697 15.0913 0.198162 15.2073C0.198162 15.2073 5.23721 19.8383 5.23721 19.8383C5.47169 20.0538 5.83214 20.0538 6.06663 19.8383C6.06663 19.8383 11.1057 15.2073 11.1057 15.2073C11.232 15.0912 11.3038 14.9276 11.3038 14.7561C11.3038 14.7561 11.3038 0.612873 11.3038 0.612873C11.3038 0.274404 11.0294 0 10.691 0C10.691 0 0.612873 0 0.612873 0C0.274363 0 0 0.274404 0 0.612873C0 0.612873 0 0.612873 0 0.612873ZM2.00624 5.0787C2.74496 4.33957 3.94742 4.33957 4.68614 5.0787C5.42485 5.81741 5.42485 7.01946 4.68614 7.75818C3.9473 8.49702 2.74484 8.49673 2.00624 7.75818C1.26753 7.01946 1.26753 5.81741 2.00624 5.0787C2.00624 5.0787 2.00624 5.0787 2.00624 5.0787ZM3.78055 11.4612C3.54112 11.6998 3.15436 11.7008 2.91395 11.4612C2.67452 11.2217 2.67452 10.8336 2.91395 10.5942C2.91395 10.5942 7.52316 5.98495 7.52316 5.98495C7.76259 5.74552 8.15075 5.74552 8.38977 5.98495C8.6292 6.22438 8.6292 6.61253 8.38977 6.85155C8.38977 6.85155 3.78055 11.4612 3.78055 11.4612C3.78055 11.4612 3.78055 11.4612 3.78055 11.4612ZM9.29551 12.3674C8.55704 13.1059 7.35454 13.1063 6.61562 12.3674C5.8769 11.6287 5.8769 10.4266 6.61562 9.68792C7.35475 8.9488 8.55679 8.94921 9.29551 9.68792C10.0342 10.4266 10.0342 11.6287 9.29551 12.3674C9.29551 12.3674 9.29551 12.3674 9.29551 12.3674Z" fill="#515151" />
      <path d="M1.14168 0.195721C0.88125 -0.0647087 0.457305 -0.0657711 0.195813 0.195721C-0.0652711 0.456397 -0.0652711 0.880913 0.195813 1.142C0.456488 1.40267 0.881005 1.40267 1.14168 1.142C1.40276 0.880913 1.40276 0.456397 1.14168 0.195721C1.14168 0.195721 1.14168 0.195721 1.14168 0.195721Z" fill="#515151" fill-rule="evenodd" transform="translate(2.679 5.749)" />
      <path d="M0.195813 0.195706C-0.0652709 0.456382 -0.0652709 0.880898 0.195813 1.14198C0.456489 1.40266 0.881005 1.40266 1.14168 1.14198C1.40276 0.880898 1.40276 0.456382 1.14168 0.195706C0.882067 -0.0639067 0.458081 -0.0665617 0.195813 0.195706C0.195813 0.195706 0.195813 0.195706 0.195813 0.195706Z" fill="#515151" fill-rule="evenodd" transform="translate(7.289 10.358)" />
    </g>
  </g>
</svg>