<?xml version="1.0" encoding="utf-8"?>
<svg width="19" height="19" viewBox="0 0 19 19" fill="none" xmlns="http://www.w3.org/2000/svg">
  <g>
    <g transform="translate(0.594 0.594)">
      <path d="M10.6875 1.13249e-06C11.9992 1.13249e-06 13.0625 1.06333 13.0625 2.375C13.0625 2.375 13.0625 8.56695 13.0625 8.56695C13.0625 9.79269 12.134 10.8015 10.942 10.9285C10.942 10.9285 10.942 12.0446 10.942 12.0446C10.942 12.2858 10.7961 12.503 10.5728 12.5943C10.3496 12.6855 10.0934 12.6327 9.92444 12.4605C9.92444 12.4605 8.43416 10.942 8.43416 10.942L5.9375 10.942C5.9375 10.942 5.9375 10.6875 5.9375 10.6875C5.9375 8.88392 4.47542 7.42187 2.67188 7.42187C2.67188 7.42187 0 7.42187 0 7.42187C0 7.42187 0 2.375 0 2.375C0 1.06332 1.06332 0 2.375 0C2.375 0 10.6875 1.13249e-06 10.6875 1.13249e-06ZM6.82813 8.60938C6.82813 8.9373 6.5623 9.20313 6.23438 9.20313C5.90645 9.20313 5.64063 8.9373 5.64063 8.60938C5.64063 8.28145 5.90645 8.01563 6.23438 8.01563C6.5623 8.01563 6.82813 8.28145 6.82813 8.60938C6.82813 8.60938 6.82813 8.60938 6.82813 8.60938ZM5.34375 3.8198C5.34375 3.18583 5.8577 2.67188 6.49168 2.67188C6.49168 2.67188 6.53125 2.67188 6.53125 2.67188C7.18426 2.67188 7.71875 3.20726 7.71875 3.86594C7.71875 4.53192 7.17835 5.07327 6.51807 5.07327C6.51807 5.07327 6.23438 5.07327 6.23438 5.07327C5.90645 5.07327 5.64063 5.33909 5.64063 5.66702C5.64063 5.66702 5.64063 6.82813 5.64063 6.82813C5.64063 7.15605 5.90645 7.42187 6.23438 7.42187C6.5623 7.42187 6.82813 7.15605 6.82813 6.82813C6.82813 6.82813 6.82813 6.24073 6.82813 6.24073C8.00271 6.08772 8.90625 5.07739 8.90625 3.86594C8.90625 2.55713 7.84578 1.48437 6.53125 1.48437C6.53125 1.48437 6.49168 1.48437 6.49168 1.48437C5.20184 1.48437 4.15625 2.52997 4.15625 3.8198C4.15625 4.1477 4.42207 4.41355 4.75 4.41355C5.07793 4.41355 5.34375 4.1477 5.34375 3.8198C5.34375 3.8198 5.34375 3.8198 5.34375 3.8198Z" fill="#515151" fill-rule="evenodd" transform="translate(4.75 0)" />
      <path d="M0 5.88448C0 6.90154 0.638926 7.76869 1.53743 8.10742C1.53743 8.10742 1.53743 8.90622 1.53743 8.90622C1.53743 9.14738 1.68331 9.3646 1.90655 9.45583C2.12979 9.54709 2.38604 9.49421 2.55497 9.32209C2.55497 9.32209 3.59777 8.25948 3.59777 8.25948C3.59777 8.25948 7.42188 8.25948 7.42188 8.25948C8.73356 8.25948 9.79688 7.19616 9.79688 5.88448C9.79688 5.88448 9.79688 2.375 9.79688 2.375C9.79688 1.06332 8.73356 0 7.42188 0C7.42188 0 2.375 0 2.375 0C1.06332 0 0 1.06332 0 2.375C0 2.375 0 5.88448 0 5.88448ZM2.67188 4.75C2.9998 4.75 3.26563 4.48418 3.26563 4.15625C3.26563 3.82832 2.9998 3.5625 2.67188 3.5625C2.34396 3.5625 2.07813 3.82832 2.07813 4.15625C2.07813 4.48418 2.34396 4.75 2.67188 4.75C2.67188 4.75 2.67188 4.75 2.67188 4.75ZM5.04688 4.75C5.3748 4.75 5.64062 4.48418 5.64062 4.15625C5.64062 3.82832 5.3748 3.5625 5.04688 3.5625C4.71895 3.5625 4.45313 3.82832 4.45313 4.15625C4.45313 4.48418 4.71895 4.75 5.04688 4.75C5.04688 4.75 5.04688 4.75 5.04688 4.75ZM8.01563 4.15625C8.01563 4.48418 7.7498 4.75 7.42188 4.75C7.09395 4.75 6.82813 4.48418 6.82813 4.15625C6.82813 3.82832 7.09395 3.5625 7.42188 3.5625C7.7498 3.5625 8.01563 3.82832 8.01563 4.15625C8.01563 4.15625 8.01563 4.15625 8.01563 4.15625Z" fill="#515151" fill-rule="evenodd" transform="translate(0 8.313)" />
    </g>
  </g>
</svg>