<?xml version="1.0" encoding="utf-8"?>
<svg width="19" height="19" viewBox="0 0 19 19" fill="none" xmlns="http://www.w3.org/2000/svg">
  <g>
    <g transform="translate(1.49 0)">
      <path d="M2.35204 4.73279L4.304 2.52509L6.6685 3.05055L5.66992 0L0 0L1.66398 5.03215L2.35204 4.73279Z" fill="#515151" fill-rule="evenodd" transform="translate(0.83 0)" />
      <path d="M2.49582 2.52509L4.44782 4.73279L4.99648 4.97149L6.79112 0L1.11138 0L0 3.07971L2.49582 2.52509Z" fill="#515151" fill-rule="evenodd" transform="translate(8.392 0)" />
      <path d="M14.7381 5.4358L14.4929 2.91186L12.1677 1.90023L10.4876 0L8.01133 0.550259L5.53507 0L3.85494 1.90023L1.52976 2.91186L1.28455 5.4358L0 7.62151L1.28455 9.80723L1.52976 12.3311L3.85494 13.3428L5.5351 15.243L8.01133 14.6927L10.4876 15.243L12.1677 13.3428L14.4929 12.3311L14.7381 9.80719L16.0227 7.62147L14.7381 5.4358ZM8.01041 12.4199C5.36493 12.4199 3.21261 10.2676 3.21261 7.62209C3.21261 4.9766 5.36489 2.82429 8.01041 2.82429C10.6559 2.82429 12.8082 4.97657 12.8082 7.62209C12.8082 10.2676 10.6559 12.4199 8.01042 12.4199C8.01042 12.4199 8.01041 12.4199 8.01041 12.4199Z" fill="#515151" transform="translate(0 3.756)" />
      <path d="M3.68204 4.76837e-07C1.65178 4.76837e-07 0 1.65175 0 3.68204C0 5.71233 1.65175 7.36404 3.68204 7.36404C5.71233 7.36404 7.36407 5.71229 7.36407 3.68204C7.36407 1.65178 5.71233 0 3.68204 0C3.68204 0 3.68204 4.76837e-07 3.68204 4.76837e-07ZM4.24091 5.27265L3.12514 5.27265L3.12514 2.09271L4.24091 2.09271L4.24091 5.27265Z" fill="#515151" transform="translate(4.331 7.696)" />
    </g>
  </g>
</svg>