<?xml version="1.0" encoding="utf-8"?>
<svg width="22" height="22" viewBox="0 0 22 22" fill="none" xmlns="http://www.w3.org/2000/svg">
  <g>
    <path d="M1.91068 0C1.96765 0 2.02228 0.022629 2.06256 0.0629072C2.10284 0.103185 2.12547 0.157814 2.12547 0.214773C2.12547 0.214773 2.12547 1.48073 2.12547 1.48073C2.12547 1.5377 2.10284 1.59233 2.06256 1.63261C2.02228 1.67289 1.96765 1.69551 1.91068 1.69551C1.5032 1.69551 0.622269 1.69551 0.214773 1.69551C0.157814 1.69551 0.103186 1.67289 0.0629082 1.63261C0.0226297 1.59233 0 1.5377 0 1.48073C0 1.15519 0 0.54033 0 0.214773C0 0.157814 0.0226288 0.103185 0.0629082 0.0629072C0.103188 0.022629 0.157816 0 0.214773 0C0.214773 0 1.91068 0 1.91068 0Z" fill="#515151" fill-rule="evenodd" transform="translate(10.998 2.966)" />
    <path d="M0 2.94715C0 2.94715 0 0.429557 0 0.429557C0 0.192474 0.192474 0 0.429557 0C0.666629 0 0.859103 0.192474 0.859103 0.429557C0.859103 0.429557 0.859103 2.94715 0.859103 2.94715L0 2.94715Z" fill="#515151" fill-rule="evenodd" transform="translate(10.568 2.536)" />
    <path d="M3.95189 7.38832C3.95189 7.38832 0.214773 7.38832 0.214773 7.38832C0.0961547 7.38832 0 7.29216 0 7.17354C0 7.17354 0 0 0 0L3.95189 0L3.95189 7.38832ZM2.49473 1.28906C2.49473 1.28906 1.45132 1.28906 1.45132 1.28906C1.39436 1.28906 1.33973 1.31169 1.29945 1.35197C1.25917 1.39225 1.23655 1.44688 1.23655 1.50384C1.23655 1.50384 1.23655 2.54725 1.23655 2.54725C1.23655 2.60422 1.25917 2.65885 1.29945 2.69913C1.33973 2.7394 1.39436 2.76203 1.45132 2.76203C1.45132 2.76203 2.49473 2.76203 2.49473 2.76203C2.55169 2.76203 2.60632 2.7394 2.64661 2.69913C2.68688 2.65885 2.7095 2.60422 2.7095 2.54725C2.7095 2.54725 2.7095 1.50384 2.7095 1.50384C2.7095 1.44688 2.68688 1.39225 2.64661 1.35197C2.60632 1.31169 2.55169 1.28906 2.49473 1.28906C2.49473 1.28906 2.49473 1.28906 2.49473 1.28906ZM2.49473 4.6263C2.49473 4.6263 1.45132 4.6263 1.45132 4.6263C1.39436 4.6263 1.33973 4.64893 1.29945 4.68921C1.25917 4.72949 1.23655 4.78412 1.23655 4.84108C1.23655 4.84108 1.23655 5.88449 1.23655 5.88449C1.23655 5.94146 1.25917 5.99609 1.29945 6.03637C1.33973 6.07664 1.39436 6.09927 1.45132 6.09927C1.45132 6.09927 2.49473 6.09927 2.49473 6.09927C2.55169 6.09927 2.60632 6.07664 2.64661 6.03637C2.68688 5.99609 2.7095 5.94146 2.7095 5.88449C2.7095 5.88449 2.7095 4.84108 2.7095 4.84108C2.7095 4.78412 2.68688 4.72949 2.64661 4.68921C2.60632 4.64893 2.55169 4.6263 2.49473 4.6263C2.49473 4.6263 2.49473 4.6263 2.49473 4.6263Z" fill="#515151" fill-rule="evenodd" transform="translate(2.063 11.639)" />
    <path d="M0 0L3.95189 0C3.95189 0 3.95189 7.17354 3.95189 7.17354C3.95189 7.29216 3.85573 7.38832 3.73711 7.38832C3.73711 7.38832 0 7.38832 0 7.38832L0 0ZM2.49473 4.6263C2.49473 4.6263 1.45132 4.6263 1.45132 4.6263C1.39436 4.6263 1.33973 4.64893 1.29945 4.68921C1.25917 4.72949 1.23655 4.78412 1.23655 4.84108C1.23655 4.84108 1.23655 5.88449 1.23655 5.88449C1.23655 5.94146 1.25917 5.99609 1.29945 6.03637C1.33973 6.07664 1.39436 6.09927 1.45132 6.09927C1.45132 6.09927 2.49473 6.09927 2.49473 6.09927C2.55169 6.09927 2.60632 6.07664 2.64661 6.03637C2.68689 5.99609 2.7095 5.94146 2.7095 5.88449C2.7095 5.88449 2.7095 4.84108 2.7095 4.84108C2.7095 4.78412 2.68689 4.72949 2.64661 4.68921C2.60632 4.64893 2.55169 4.6263 2.49473 4.6263C2.49473 4.6263 2.49473 4.6263 2.49473 4.6263ZM2.49473 1.28906C2.49473 1.28906 1.45132 1.28906 1.45132 1.28906C1.39436 1.28906 1.33973 1.31169 1.29945 1.35197C1.25917 1.39225 1.23655 1.44688 1.23655 1.50384C1.23655 1.50384 1.23655 2.54725 1.23655 2.54725C1.23655 2.60422 1.25917 2.65884 1.29945 2.69912C1.33973 2.7394 1.39436 2.76203 1.45132 2.76203C1.45132 2.76203 2.49473 2.76203 2.49473 2.76203C2.55169 2.76203 2.60632 2.7394 2.64661 2.69912C2.68689 2.65885 2.7095 2.60422 2.7095 2.54725C2.7095 2.54725 2.7095 1.50384 2.7095 1.50384C2.7095 1.44688 2.68689 1.39225 2.64661 1.35197C2.60632 1.31169 2.55169 1.28906 2.49473 1.28906C2.49473 1.28906 2.49473 1.28906 2.49473 1.28906Z" fill="#515151" fill-rule="evenodd" transform="translate(15.98 11.639)" />
    <path d="M14.6046 0C14.6046 0 19.029 0 19.029 0C19.1476 0 19.2438 0.0961647 19.2438 0.214783C19.2438 0.214783 19.2438 1.15979 19.2438 1.15979C19.2438 1.27841 19.1476 1.37458 19.029 1.37458C19.029 1.37458 14.6046 1.37458 14.6046 1.37458L14.6046 0ZM4.63918 0L4.63918 1.37458C4.63918 1.37458 0.214783 1.37458 0.214783 1.37458C0.0961649 1.37458 0 1.27841 0 1.15979C0 1.15979 0 0.214783 0 0.214783C0 0.0961647 0.0961649 0 0.214783 0C0.214783 0 4.63918 0 4.63918 0Z" fill="#515151" fill-rule="evenodd" transform="translate(1.375 9.405)" />
    <path d="M9.40722 0C9.46417 0 9.5188 0.0226183 9.55908 0.0628972C9.59936 0.103186 9.62199 0.157814 9.62199 0.214773C9.62199 0.214773 9.62199 1.15979 9.62199 1.15979C9.62199 1.21675 9.59936 1.27138 9.55908 1.31166C9.5188 1.35194 9.46417 1.37457 9.40722 1.37457C8.12531 1.37457 1.49669 1.37457 0.214773 1.37457C0.157814 1.37457 0.103186 1.35194 0.0629072 1.31166C0.0226283 1.27138 0 1.21675 0 1.15979C0 0.902061 0 0.472505 0 0.214773C0 0.157814 0.0226288 0.103186 0.0629072 0.0628972C0.103185 0.0226188 0.157814 0 0.214773 0C0.214773 0 9.40722 0 9.40722 0Z" fill="#515151" fill-rule="evenodd" transform="translate(6.185 6.343)" />
    <path d="M0 10.4512L0 0L8.24742 0L8.24742 10.4512L6.11199 10.4512C6.11199 10.4512 6.11199 6.5423 6.11199 6.5423C6.11199 6.42368 6.01583 6.32753 5.89721 6.32753C5.89721 6.32753 2.35019 6.32753 2.35019 6.32753C2.23159 6.32753 2.13542 6.42368 2.13542 6.5423C2.13542 6.5423 2.13542 10.4512 2.13542 10.4512L0 10.4512ZM2.72352 2.2035C2.71267 2.27412 2.70703 2.34646 2.70703 2.42011C2.70703 3.20179 3.34166 3.8364 4.12334 3.8364C4.90502 3.8364 5.53964 3.20179 5.53964 2.42011C5.53964 2.34646 5.53401 2.27412 5.52315 2.2035C5.41875 1.52448 4.83137 1.0038 4.12334 1.0038C3.4153 1.0038 2.82792 1.52448 2.72352 2.2035C2.72352 2.2035 2.72352 2.2035 2.72352 2.2035Z" fill="#515151" fill-rule="evenodd" transform="translate(6.873 8.577)" />
  </g>
</svg>