<?xml version="1.0" encoding="utf-8"?>
<svg width="20" height="20" viewBox="0 0 20 20" fill="none" xmlns="http://www.w3.org/2000/svg">
  <path d="M16.5468 6.59265C16.5468 6.59265 19.5708 5.75269 19.5708 5.75269C19.8826 5.66602 20.0651 5.34314 19.9785 5.03125C19.8919 4.71948 19.569 4.53687 19.2571 4.62354C19.2571 4.62354 15.4981 5.66772 15.4981 5.66772C15.4979 5.66772 15.4977 5.66772 15.4974 5.66785C15.4974 5.66785 10.5859 7.0321 10.5859 7.0321C10.5859 7.0321 10.5859 0.585938 10.5859 0.585938C10.5859 0.262329 10.3236 0 10 0C9.67641 0 9.41406 0.262329 9.41406 0.585938C9.41406 0.585938 9.41406 7.35767 9.41406 7.35767C9.41406 7.35767 4.2014 8.80554 4.2014 8.80554C4.2012 8.80566 4.201 8.80566 4.20085 8.80566C4.20085 8.80566 0.429276 9.85339 0.429276 9.85339C0.117523 9.93994 -0.0650635 10.2629 0.0214996 10.5747C0.0935364 10.8341 0.329117 11.0039 0.585754 11.0039C0.637634 11.0039 0.690445 10.9971 0.742874 10.9824C0.742874 10.9824 3.09389 10.3293 3.09389 10.3293C3.09389 10.3293 0.0836487 15.3469 0.0836487 15.3469C0.0290375 15.438 0.000167847 15.5422 0.000167847 15.6484C0.000167847 18.0477 1.95226 19.9998 4.35162 19.9998C6.75108 19.9998 8.70313 18.0477 8.70313 15.6484C8.70313 15.5422 8.67426 15.438 8.6196 15.3469C8.6196 15.3469 5.25003 9.73047 5.25003 9.73047L14.3905 7.19153C14.3905 7.19153 11.3803 12.209 11.3803 12.209C11.3257 12.3 11.2968 12.4043 11.2968 12.5105C11.2968 14.9099 13.2489 16.8618 15.6483 16.8618C16.8106 16.8618 17.9033 16.4092 18.7253 15.5873C19.5472 14.7654 19.9998 13.6727 19.9997 12.5104C19.9998 12.4042 19.971 12.3 19.9163 12.209C19.9163 12.209 16.5468 6.59265 16.5468 6.59265L16.5468 6.59265ZM7.08374 15.0629L1.62224 15.0629L4.35295 10.5112L7.08374 15.0629L7.08374 15.0629ZM12.9182 11.9252L15.649 7.37366L18.3797 11.9252L12.9182 11.9252L12.9182 11.9252Z" fill="#515151" />
</svg>