<?xml version="1.0" encoding="utf-8"?>
<svg width="590.262" height="408.3" viewBox="0 0 590.262 408.3" fill="none" xmlns="http://www.w3.org/2000/svg">
  <g>
    <path d="M0 165.91C0 74.2804 104.206 0 232.75 0C361.294 0 465.5 74.2804 465.5 165.91C465.5 257.54 361.294 331.82 232.75 331.82C104.206 331.82 0 257.54 0 165.91Z" fill="#F5F5FF" fill-rule="evenodd" />
    <g transform="translate(10.445 1.309)">
      <path d="M0 14.74C0 6.59933 47.5697 0 106.25 0C164.93 0 212.5 6.59933 212.5 14.74C212.5 22.8807 164.93 29.48 106.25 29.48C47.5697 29.48 0 22.8807 0 14.74Z" fill="#DFDFEB" fill-rule="evenodd" transform="translate(367.315 368.791)" />
      <path d="M0 16.35C0 7.32013 85.9389 0 191.95 0C297.961 0 383.9 7.32013 383.9 16.35C383.9 25.3799 297.961 32.7 191.95 32.7C85.9389 32.7 0 25.3799 0 16.35Z" fill="#DFDFEB" fill-rule="evenodd" transform="translate(58.914 374.291)" />
      <g transform="translate(170.862 74.111)">
        <path d="M30.2519 0.814468C30.2519 0.814468 26.7019 21.4345 0.821899 47.9645C0.821899 47.9645 -2.03809 44.4245 2.9119 29.7545C7.86191 15.0845 28.7819 -4.18553 30.2619 0.804474C30.2619 0.804474 30.2519 0.814468 30.2519 0.814468Z" fill="#8AB177" transform="translate(86.451 25.996)" />
        <path d="M29.6198 0C29.6198 0 6.32974 16.66 0.189758 47.15C0.189758 47.15 -1.00024 57.61 2.57977 66.67" fill="none" stroke-width="1" stroke="#000000" stroke-linecap="round" transform="translate(87.083 26.81)" />
        <path d="M48.79 43.46C48.79 43.46 55.32 38.51 44.08 26.14C33.4 14.39 22.1 3.86 0 0C0 0 6.67 29.93 21.07 37.06C35.47 44.19 48.79 43.45 48.79 43.45C48.79 43.45 48.79 43.46 48.79 43.46Z" fill="#8AB177" transform="translate(5.313 0)" />
        <path d="M0.473022 13.5319C0.473022 13.5319 23.523 18.5619 62.623 5.5119C62.623 5.5119 60.203 1.47191 42.733 0.111908C25.263 -1.24809 -4.07698 10.1719 0.473022 13.5319C0.473022 13.5319 0.473022 13.5319 0.473022 13.5319Z" fill="#8AB177" transform="translate(0 51.938)" />
        <path d="M0 9.73856C0 9.73856 27.66 -4.90144 62.15 1.71855C62.15 1.71855 65.7 2.60855 69.31 7.42856" fill="none" stroke-width="1" stroke="#000000" stroke-linecap="round" transform="translate(0.473 55.731)" />
        <path d="M0.519714 12.0472C0.519714 12.0472 25.1897 28.2872 64.2897 15.2372C64.2897 15.2372 56.6897 1.4772 39.2197 0.127197C21.7497 -1.2328 -4.02031 8.68719 0.529694 12.0472C0.529694 12.0472 0.519714 12.0472 0.519714 12.0472Z" fill="#8AB177" transform="translate(19.053 74.313)" />
        <path d="M0 4.67932C0 4.67932 26.59 -7.73068 63.77 7.86932C63.77 7.86932 68.14 9.81932 71.75 14.6393" fill="none" stroke-width="1" stroke="#000000" stroke-linecap="round" transform="translate(19.573 81.681)" />
        <path d="M25.2184 0.00798035C25.2184 0.00798035 32.4984 -0.862015 14.7284 15.568C-2.05161 31.088 0.0883789 31.208 0.0883789 31.208C0.0883789 31.208 6.45837 7.98798 25.2184 0.00798035C25.2184 0.00798035 25.2184 0.00798035 25.2184 0.00798035Z" fill="#000000" transform="translate(77.865 7.282)" />
        <path d="M0 39.06C0 39.06 5.44 41.16 15.25 32.16C25.06 23.16 28.71 3.10001 37.34 0C37.34 0 15.7 6.99001 0.0100098 39.07C0.0100098 39.07 0 39.06 0 39.06Z" fill="#8AB177" transform="translate(65.743 7.29)" />
        <path d="M96.1 115.27C85.04 92.99 69.68 67.67 48.79 43.46C48.79 43.46 43.66 36.74 25.83 19.32C8 1.89999 0 0 0 0" fill="none" stroke-width="1" stroke="#000000" stroke-linecap="round" transform="translate(5.303 0.01)" />
        <path d="M36.077 0C36.077 0 15.487 8.98 1.29697 38C-2.14304 45.03 1.97696 50.59 5.33698 54.81" fill="none" stroke-width="1" stroke="#000000" stroke-linecap="round" transform="translate(64.446 8.36)" />
      </g>
      <g transform="translate(371.394 230.031)">
        <path d="M56.86 11.1007C56.86 11.1007 39.65 23.8008 0 14.4807C0 14.4807 0.109985 8.12076 14.34 2.00073C28.57 -4.11926 59.12 5.21072 56.87 11.1007C56.87 11.1007 56.86 11.1007 56.86 11.1007Z" fill="#8AB177" transform="translate(30.89 81.839)" />
        <path d="M69.85 3.09796C69.85 3.09796 42.69 -5.98203 14.4 6.94797C14.4 6.94797 5.22998 12.128 0 20.348" fill="none" stroke-width="1" stroke="#000000" stroke-linecap="round" transform="translate(16.67 88.692)" />
        <path d="M11.3336 65.01C11.3336 65.01 19.1736 67.39 22.5936 51.03C25.8336 35.49 27.7236 20.15 17.8836 0C17.8836 0 -2.43643 22.97 0.243561 38.81C2.92355 54.65 11.3436 65 11.3436 65C11.3436 65 11.3336 65.01 11.3336 65.01Z" fill="#8AB177" transform="translate(19.036 0)" />
        <path d="M39.4814 1.72443C39.4814 1.72443 45.5313 5.86444 21.3413 6.52441C-1.50867 7.15442 0.0213318 8.64441 0.0213318 8.64441C0.0213318 8.64441 20.1113 -4.63559 39.4814 1.7244C39.4814 1.7244 39.4814 1.72443 39.4814 1.72443Z" fill="#000000" transform="translate(49.219 69.416)" />
        <path d="M3.05176e-05 7.67941C3.05176e-05 7.67941 2.71002 12.8394 16.02 12.5294C29.33 12.2194 45.29 -0.470581 53.82 2.87943C53.82 2.87943 32.94 -6.11057 0 7.67941C0 7.67941 3.05176e-05 7.67941 3.05176e-05 7.67941Z" fill="#8AB177" transform="translate(34.87 68.261)" />
        <path d="M0 145.45C11.55 123.41 23.03 96.12 30.37 65C30.37 65 32.8 56.9 36.44 32.25C40.08 7.59 36.92 0 36.92 0" fill="none" stroke-width="1" stroke="#000000" stroke-linecap="round" transform="translate(0 0.01)" />
        <path d="M63.51 1.84915C63.51 1.84915 42.1 -4.95084 12.31 7.52914C5.09 10.5491 3.04999 15.3291 0 24.1791" fill="none" stroke-width="1" stroke="#000000" stroke-linecap="round" transform="translate(22.56 68.411)" />
      </g>
      <g transform="translate(0 155.261)">
        <path d="M110.22 20.89C104.65 20.89 99.26 18.94 94.98 15.37C94.98 15.37 83.11 5.47 83.11 5.47C78.84 1.91 73.77 0 68.57 0C68.57 0 9.67999 0 9.67999 0C4.34 0 0 4.33 0 9.67999C0 9.67999 0 222.87 0 222.87C0 232.09 7.48 239.57 16.7 239.57C16.7 239.57 310.25 239.57 310.25 239.57C317.42 239.57 323.24 233.76 323.24 226.58C323.24 226.58 323.24 33.89 323.24 33.89C323.24 26.72 317.43 20.9 310.25 20.9C310.25 20.9 110.21 20.9 110.21 20.9C110.21 20.9 110.22 20.89 110.22 20.89Z" fill="#502A2A" transform="translate(74.674 0)" />
        <path d="M397.924 178.75C397.924 178.75 377.944 141.28 375.944 136.97C375.944 136.97 321.344 25.74 321.344 25.74C319.974 22.78 317.004 20.89 313.754 20.89C313.754 20.89 110.864 20.89 110.864 20.89C103.484 20.89 92.8245 17.02 87.1545 12.3C87.1545 12.3 78.9645 5.47 78.9645 5.47C74.6944 1.91 69.6245 0 64.4245 0C64.4245 0 8.38446 0 8.38446 0C2.41446 0 -1.63554 6.06 0.644463 11.57C0.644463 11.57 68.4145 175.47 68.4145 175.47C72.2145 184.66 81.1745 190.65 91.1145 190.65C91.1145 190.65 394.254 190.65 394.254 190.65C396.234 190.65 398.054 188.96 398.054 186.98C398.054 186.98 397.914 178.75 397.914 178.75C397.914 178.75 397.924 178.75 397.924 178.75Z" fill="#C43838" transform="translate(0 48.91)" />
        <line x1="0" y1="0" x2="80.12" y2="155.74" fill="none" stroke-width="1" stroke="#000000" stroke-linejoin="round" transform="translate(315.394 80.38)" />
        <path d="M74.5188 10.84C74.5188 10.84 5.50879 10.84 5.50879 10.84C3.62878 10.84 1.87878 9.88998 0.868774 8.32999C0.868774 8.32999 0.868774 8.32999 0.868774 8.32999C-1.46121 4.72 1.16876 0 5.50879 0C5.50879 0 74.5188 0 74.5188 0C76.3988 0 78.1488 0.950012 79.1588 2.51001C79.1588 2.51001 79.1588 2.51001 79.1588 2.51001C81.4888 6.12 78.8588 10.84 74.5188 10.84C74.5188 10.84 74.5188 10.84 74.5188 10.84Z" fill="none" stroke-width="1" stroke="#000000" stroke-linejoin="round" transform="translate(207.866 96.38)" />
        <g transform="translate(139.694 145.165)">
          <g transform="translate(13.591 14.035)">
            <line x1="0" y1="0" x2="53.74" y2="32.02" fill="none" stroke-width="1" stroke="#000000" stroke-linecap="round" stroke-linejoin="round" transform="translate(0 1.54)" />
            <line x1="33.76" y1="0" x2="0" y2="33.75" fill="none" stroke-width="1" stroke="#000000" stroke-linecap="round" stroke-linejoin="round" transform="translate(10.17 0)" />
          </g>
          <path d="M57.2409 5.45523C76.9809 15.2152 85.1809 34.7052 75.5409 48.9952C65.9009 63.2852 42.0809 66.9552 22.3409 57.2052C2.60089 47.4452 -5.59911 27.9552 4.04089 13.6652C13.6809 -0.624786 37.5009 -4.29477 57.2409 5.45523C57.2409 5.45523 57.2409 5.45523 57.2409 5.45523Z" fill="none" stroke-width="1" stroke="#000000" stroke-linecap="round" stroke-linejoin="round" />
        </g>
      </g>
      <g transform="translate(318.608 0)">
        <g transform="translate(101.764 164.727)">
          <path d="M37.2925 11.5341C38.5825 5.96408 32.6525 -0.975906 27.0425 0.11409C22.4725 1.00409 20.2025 2.1041 19.4625 2.34409C18.0325 2.81409 7.32248 2.12408 6.0925 3.90408C5.20248 5.19408 10.7925 6.68408 14.3625 7.04408C15.1025 7.11409 15.3125 8.07408 14.6825 8.46408C11.1725 10.6441 4.1825 15.0641 3.58249 16.1541C2.7825 17.6241 -0.847504 23.3141 0.182495 23.9441C1.20248 24.5741 4.30249 21.7341 6.3125 19.7141C8.32251 17.6941 14.2025 15.9741 14.2025 15.9741C14.2025 15.9741 3.98251 26.2241 2.64252 29.0741C0.632507 33.3041 6.45251 31.4541 6.45251 31.4541C5.54251 33.8441 10.3125 33.3241 11.4425 32.4241C13.6725 30.6441 20.5525 22.3341 20.5825 23.1741C20.6125 24.0141 13.4625 33.0741 14.1925 35.1941C14.9125 37.3041 17.8025 34.6541 19.4725 32.4241C21.1425 30.1941 26.0425 23.9541 26.0425 23.9541C26.0425 23.9541 31.6125 19.8841 36.2625 12.8641C36.3024 12.8041 37.2825 11.5941 37.2925 11.5341C37.2925 11.5341 37.2925 11.5341 37.2925 11.5341Z" fill="#F1B295" />
          <line x1="0" y1="11.62" x2="9.74" y2="0" fill="none" stroke-width="1" stroke="#000000" stroke-linecap="round" transform="translate(6.712 19.604)" />
        </g>
        <path d="M2.87112 35.6147C2.87112 35.6147 37.9311 13.7447 37.9311 13.7447C38.1511 13.6047 38.3511 13.4447 38.5511 13.2747C38.5511 13.2747 50.1111 1.37471 50.1111 1.37471C52.6311 -0.835297 56.5111 -0.315292 58.3711 2.46471C58.3711 2.46471 64.0411 10.9647 64.0411 10.9647C65.2411 12.7647 65.2811 15.0947 64.1511 16.9447C64.1511 16.9447 56.0111 30.1447 56.0111 30.1447C55.4111 31.1147 54.5311 31.8747 53.4811 32.3247C46.9311 35.1247 21.9211 45.6947 7.0011 49.9047C3.29111 50.9547 -0.308899 47.9347 0.0210876 44.0947C0.0210876 44.0947 0.391083 39.7747 0.391083 39.7747C0.531097 38.0747 1.45108 36.5447 2.88107 35.6047C2.88107 35.6047 2.87112 35.6147 2.87112 35.6147Z" fill="#F2B2B2" transform="translate(62.905 107.697)" />
        <path d="M33.5807 0C33.5807 0 31.7308 12.6 31.7308 12.6C31.7308 12.6 -3.00922 25.95 0.210785 26.14C3.43079 26.33 53.3608 23.43 53.3608 23.43C53.3608 23.43 50.4208 0.560028 50.4208 0.560028L33.5807 3.05176e-05L33.5807 0Z" fill="#000000" transform="translate(112.946 361.881)" />
        <path d="M0 0.339996C0 0.339996 2.77002 26.99 4.84998 28.37C6.92999 29.75 9.69 30.45 9.69 30.45C9.69 30.45 5.19 0 5.19 0L0 0.350006C0 0.350006 0 0.339996 0 0.339996Z" fill="none" stroke-width="1" stroke="#424242" transform="translate(156.207 157.711)" />
        <path d="M68.07 0C68.07 0 82.15 28.68 78.06 44.65C78.06 44.65 0 33.91 0 33.91L1.63 4.12L68.07 0C68.07 0 68.07 0 68.07 0Z" fill="#000000" transform="translate(143.006 139.731)" />
        <path d="M32.15 0C32.15 0 21.12 20.43 0 22.07" fill="none" stroke-width="1" stroke="#424242" stroke-linecap="round" transform="translate(181.066 145.541)" />
        <path d="M0 0C0 0 4.28003 13.24 16.69 13.52" fill="none" stroke-width="1" stroke="#424242" stroke-linecap="round" transform="translate(195.556 163.251)" />
        <path d="M21.46 0C21.46 0 0.549988 74.46 0 98.43C0 98.43 15.28 190.77 15.28 190.77C15.28 190.77 29.86 198.02 45.04 192.16C45.66 191.92 37.34 144.27 36.76 95.2C36.76 95.2 80.4 3.88002 80.4 3.88002L21.45 1.52588e-05C21.45 1.52588e-05 21.46 0 21.46 0Z" fill="#000000" transform="translate(121.546 173.651)" />
        <path d="M53.43 7.69003L50.36 97.54C50.36 97.54 84.74 191.47 84.74 191.47C84.74 191.47 70.36 203.62 52.18 192.56C52.18 192.56 14.86 103.12 14.86 103.12L18.69 38.04L2.41998 28.19L0 0L53.44 7.67999L53.43 7.69003Z" fill="#000000" transform="translate(167.976 173.571)" />
        <path d="M17.38 14.04L33.96 26.52L57.71 0L0 8.24001L14.13 26.97L17.38 14.04L17.38 14.04Z" fill="#FFFFFF" fill-rule="evenodd" transform="translate(143.616 150.801)" />
        <path d="M22.0149 2.72C22.0149 2.72 19.0149 13.59 19.0149 13.59C19.0149 13.59 -2.90509 37.36 0.32489 37.36C3.55487 37.36 39.5449 22.64 39.5449 22.64C39.5449 22.64 34.9349 0 34.9349 0L22.015 2.72L22.0149 2.72Z" fill="#000000" transform="translate(206.412 357.641)" />
        <path d="M0 0C0 0 9.47998 23.3 2.65002 121.05C2.65002 121.05 26.59 173.74 39.01 215.42" fill="none" stroke-width="1" stroke="#424242" stroke-linecap="round" transform="translate(208.266 152.441)" />
        <path d="M23.9 0L0 66.56L10.25 163.78" fill="none" stroke-width="1" stroke="#424242" stroke-linecap="round" transform="translate(149.526 204.091)" />
        <g transform="translate(0 61.247)">
          <g transform="translate(32.253 78.149)">
            <path d="M25.1247 17.0554C25.1247 17.0554 25.5847 19.3854 20.4247 21.1654C15.2647 22.9454 12.2247 22.3754 12.2247 22.3754C12.2247 22.3754 0.644684 8.71542 0.134674 8.23543C-0.375336 7.75543 0.494659 2.50543 3.92468 0.395432C6.00467 -0.884567 14.0747 1.19543 20.0847 3.03543C24.2747 4.31543 26.8647 8.51543 26.1647 12.8454C25.8847 14.5454 25.5447 16.1254 25.1247 17.0554C25.1247 17.0554 25.1247 17.0554 25.1247 17.0554Z" fill="#F1B295" transform="translate(11.838 0)" />
            <path d="M27.4631 13.02C27.4631 13.02 17.9931 11.65 13.9931 8.35002C13.9931 8.35002 8.01309 7.15002 6.7431 7.90002C5.47311 8.65002 4.43311 9.73003 1.68311 10.19C-1.06689 10.65 -0.236908 8.82002 2.65311 6.23001C3.48309 5.49001 5.68311 2.82001 7.60312 2.46001C10.1831 1.97 15.7531 0 15.7531 0C15.7531 0 26.9431 13.38 26.9431 13.38C26.9431 13.38 27.4631 13.02 27.4631 13.02Z" fill="#F1B295" transform="translate(0 0.405)" />
            <path d="M20.5677 16.1361C20.5677 16.1361 16.7278 18.5461 15.3777 18.4761C14.0277 18.4061 12.7578 17.6061 12.4277 15.3861C12.4277 15.3861 5.27774 16.6961 7.54773 11.2861C7.54773 11.2861 3.22772 10.5861 3.11774 7.76607C3.11774 7.76607 -0.71225 5.85606 0.117737 2.79607C0.957733 -0.263931 12.9877 0.006073 12.9877 0.006073C12.9877 0.006073 25.7577 6.48607 25.7577 6.48607L20.5777 16.1261C20.5777 16.1261 20.5677 16.1361 20.5677 16.1361Z" fill="#F1B295" transform="translate(3.495 6.239)" />
            <path d="M5.44 6.33968C5.44 6.33968 9.09 3.10968 8.88 1.80968C8.67999 0.509674 7.98999 -0.200317 7.16 0.0496826C6.05002 0.379684 1.82001 3.60968 0 5.07968" fill="none" stroke-width="0.78" stroke="#1A1C30" stroke-linecap="round" stroke-linejoin="round" transform="translate(15.913 16.556)" />
            <path d="M4.44 5.93668C4.44 5.93668 14.15 4.41667 14.24 2.98668C14.33 1.54668 13.65 -0.353317 11.62 0.0566864C9.20999 0.536682 2.29999 2.19669 0 2.14668" fill="none" stroke-width="0.78" stroke="#1A1C30" stroke-linecap="round" stroke-linejoin="round" transform="translate(6.593 11.599)" />
            <path d="M2.66 3.71272C2.66 3.71272 4.44 2.60272 3.73999 1.36272C3.03 0.122711 2.06998 -0.307281 0 0.222717" fill="none" stroke-width="0.78" stroke="#1A1C30" stroke-linecap="round" stroke-linejoin="round" transform="translate(20.423 12.883)" />
            <path d="M0 1.39999C0 1.39999 0.529999 0.709991 1.28 0" fill="none" stroke-width="0.78" stroke="#1A1C30" stroke-linecap="round" stroke-linejoin="round" transform="translate(6.413 8.285)" />
          </g>
          <path d="M0 2.75865L4.90784 0C4.90784 0 30.1473 44.9027 30.1473 44.9027C30.8823 46.2103 30.4165 47.8716 29.1089 48.6066C29.1089 48.6066 28.9433 48.6996 28.9433 48.6996C27.6357 49.4346 25.9744 48.9689 25.2394 47.6613C25.2394 47.6613 0 2.75865 0 2.75865L0 2.75865L0 2.75865Z" fill="#502A2A" transform="translate(30.613 57.282)" />
          <path d="M7.90997 0C7.90997 0 10.03 3.77 10.03 3.77C10.6 4.79001 10.34 6.03 9.44998 6.53C9.44998 6.53 4.87 9.10001 4.87 9.10001C3.97 9.60001 2.78 9.18001 2.20999 8.16C2.20999 8.16 0 4.23001 0 4.23001L7.90997 0Z" fill="#502A2A" transform="translate(35.176 67.225)" />
          <path d="M33.2964 29.49C24.5364 13.24 13.5564 2.06 6.58643 1.54C6.58643 1.54 6.81644 0 6.81644 0C6.81644 0 3.16644 2.38 3.16644 2.38C-3.10355 6.64999 0.22644 25.71 10.6064 44.95C20.9764 64.2 34.4665 76.34 40.7365 72.07C40.7365 72.07 44.1664 69.79 44.1664 69.79C44.1664 69.79 43.1764 68.47 43.1764 68.47C45.5865 61.02 41.8264 45.33 33.2964 29.5C33.2964 29.5 33.2964 29.49 33.2964 29.49Z" fill="#502A2A" transform="translate(0 0.855)" />
          <path d="M33.2897 27.9745C43.6597 47.2245 46.9897 66.2845 40.7297 70.5445C34.4597 74.8145 20.9797 62.6645 10.5997 43.4245C0.229706 24.1745 -3.10031 5.11455 3.1597 0.854546C9.42969 -3.41545 22.9097 8.73454 33.2897 27.9745C33.2897 27.9745 33.2897 27.9745 33.2897 27.9745Z" fill="#C43838" transform="translate(3.647 0)" />
          <path d="M25.0896 23.4975C33.5296 39.1575 36.8496 54.2575 32.4896 57.2275C28.1396 60.1975 17.7596 49.8975 9.31955 34.2375C0.879547 18.5775 -2.44046 3.4775 1.91956 0.507507C6.26956 -2.45249 16.6496 7.83751 25.0896 23.4975C25.0896 23.4975 25.0896 23.4975 25.0896 23.4975Z" fill="#F7D3D3" transform="translate(8.387 6.837)" />
          <path d="M27.4631 13.02C27.4631 13.02 17.9931 11.65 13.9931 8.35002C13.9931 8.35002 8.01309 7.15002 6.7431 7.90002C5.47311 8.65002 4.43311 9.73003 1.68311 10.19C-1.06689 10.65 -0.236908 8.82002 2.65311 6.23001C3.48309 5.49001 5.68311 2.82001 7.60312 2.46001C10.1831 1.97 15.7531 0 15.7531 0C15.7531 0 26.9431 13.38 26.9431 13.38C26.9431 13.38 27.4631 13.02 27.4631 13.02Z" fill="#F1B295" transform="translate(32.253 78.555)" />
          <path d="M25.78 5.36659C25.78 5.36659 16.31 3.9966 12.31 0.696594C12.31 0.696594 6.32999 -0.503403 5.06 0.246597C3.79001 0.996597 2.75 2.0766 0 2.53659" fill="none" stroke-width="0.78" stroke="#1A1C30" stroke-linecap="round" stroke-linejoin="round" transform="translate(33.936 86.208)" />
          <path d="M24.05 23.5002C15.61 7.84024 5.23001 -2.45975 0.880005 0.510246C0.540009 0.74025 0.25 1.06025 0 1.44025C5.03 1.75024 13.84 11.3002 21.18 24.9303C28.96 39.3602 32.38 53.3002 29.47 57.7303C30.22 57.7803 30.89 57.6203 31.46 57.2303C35.81 54.2702 32.5 39.1603 24.06 23.5003C24.06 23.5003 24.05 23.5002 24.05 23.5002Z" fill="#502A2A" transform="translate(9.426 6.834)" />
          <path d="M13.3482 12.5014C17.8382 20.8314 19.5982 28.8614 17.2882 30.4414C14.9682 32.0214 9.45819 26.5414 4.95819 18.2114C0.458191 9.88141 -1.29181 1.85141 1.01819 0.271408C3.32819 -1.30859 8.84818 4.1714 13.3482 12.5014C13.3482 12.5014 13.3482 12.5014 13.3482 12.5014Z" fill="#FFFFFF" transform="translate(14.248 11.693)" />
        </g>
        <path d="M93.8279 61.7481C93.8279 61.7481 86.8679 36.8981 86.8679 36.8981C84.3079 27.7781 79.8279 19.3381 73.9079 11.9381C63.4179 -1.16187 35.8679 0.0281296 35.8679 0.0281296C35.8679 0.0281296 14.6679 15.2781 14.6679 15.2781C14.6079 15.3181 14.5379 15.3481 14.4779 15.3881C1.99786 22.2781 -0.292114 32.8981 0.0278625 49.2781C0.0278625 49.2781 0.797852 71.3881 0.797852 71.3881L15.1479 57.6881C15.1479 57.6881 18.7679 62.6581 18.7679 62.6581C18.7479 62.5181 18.7379 62.3781 18.7278 62.2481C18.7278 62.2481 20.4478 64.9481 20.4478 64.9481C20.4478 64.9481 18.7778 62.6581 18.7778 62.6581C19.2878 67.2181 21.6678 78.8381 32.7278 84.2681C32.7278 84.2681 39.0278 94.1881 39.0278 94.1881C39.0278 94.1881 37.3578 107.888 37.3578 107.888C96.4978 129.388 111.218 87.1681 111.218 87.1681C111.218 87.1681 93.8378 61.7681 93.8378 61.7681L93.8279 61.7481Z" fill="#F2B2B2" transform="translate(101.709 50.503)" />
        <path d="M0 0C0 0 7.73999 9.47 7.73999 9.47C7.73999 9.47 6.67999 24.06 21.39 28.74" fill="none" stroke-width="1" stroke="#000000" stroke-linecap="round" transform="translate(113.816 105.901)" />
        <path d="M45.01 0C45.01 0 0 39.21 0 39.21C0 39.21 8.90997 51.69 12.92 52.13C12.92 52.13 66.84 17.82 66.84 17.82L45.01 0Z" fill="#F2B2B2" transform="translate(127.576 125.181)" />
        <path d="M0 31.64C0 31.64 24.51 4.00999 32.98 0" fill="none" stroke-width="1" stroke="#000000" stroke-linecap="round" transform="translate(140.946 120.721)" />
        <path d="M0 0C0 0 1.16998 6.17999 9.02002 27.91" fill="none" stroke-width="1" stroke="#000000" stroke-linecap="round" transform="translate(160.946 95.381)" />
        <path d="M0 94.25C0 94.25 50.36 62.17 50.8 52.81C51.24 43.45 38.1 0 38.1 0" fill="none" stroke-width="1" stroke="#000000" stroke-linecap="round" transform="translate(146.736 79.501)" />
        <path d="M0 9.86C0 9.86 12.12 11 15.88 0" fill="none" stroke-width="1" stroke="#000000" stroke-linecap="round" transform="translate(152.256 118.441)" />
        <path d="M0 1.35959C0 1.35959 3.34 -1.98041 6.67999 1.80959" fill="none" stroke-width="1" stroke="#000000" stroke-linecap="round" transform="translate(103.176 118.752)" />
        <path d="M0 3.34C0 3.34 7.13 0 7.13 0C7.13 0 15.82 9.47 12.7 17.6C12.7 17.6 4.01001 20.16 4.01001 20.16C4.01001 20.16 8.02002 11.25 0 3.34C0 3.34 0 3.34 0 3.34Z" fill="#FFFFFF" transform="translate(63.516 138.831)" />
        <path d="M6.19003 0.010025C6.19003 0.010025 15.55 4.02002 22.23 15.55C22.23 15.55 15.04 21.06 15.04 21.06C15.04 21.06 6.18002 8.36002 0 6.35001C0 6.35001 6.18002 0 6.18002 0C6.18002 0 6.19003 0.010025 6.19003 0.010025Z" fill="#FFFFFF" transform="translate(124.226 159.371)" />
        <g transform="translate(87.489 0)">
          <path d="M7.25 0C7.25 0 36.77 2.17 36.77 2.17C36.77 2.17 37.89 18.41 20.06 32.73C20.06 32.73 12.05 24.95 12.05 24.95C12.05 24.95 7.69 34.42 7.69 34.42C7.69 34.42 0.920013 30.61 0 19.67C0 19.67 1.44 6.39001 1.44 6.39001L7.23999 7.62939e-06L7.25 0Z" fill="#FFFFFF" transform="translate(27.827 49.091)" />
          <path d="M20.02 13.98C21.1 14.9 21.61 16.31 21.36 17.71C20.41 22.99 17.55 35.79 11.8 37.39C4.53 39.42 0 25.07 0 25.07C0 25.07 3.62 0 3.62 0L20.02 13.98C20.02 13.98 20.02 13.98 20.02 13.98Z" fill="#F1B295" transform="translate(30.057 36.551)" />
          <g>
            <path d="M0.350677 16.44C0.350677 16.44 0.260681 20.09 0.260681 20.09C0.190674 20.13 -1.04932 30.9 2.57068 31.32C17.7007 28.58 18.6607 14.24 19.9507 0C19.9507 0 -1.11935 13.6 0.350647 16.45C0.350647 16.45 0.350677 16.44 0.350677 16.44Z" fill="#000000" transform="translate(26.707 40.031)" />
            <path d="M0.235382 18.1559C0.235382 18.1559 -3.45462 53.3059 18.3854 59.3559C40.2254 65.4059 45.4554 29.7959 44.6954 17.4759C43.9454 5.15586 38.4554 0.575859 23.1454 0.0258636C0.505402 -0.794136 0.235413 18.1559 0.235413 18.1559C0.235413 18.1559 0.235382 18.1559 0.235382 18.1559Z" fill="#F1B295" transform="translate(1.632 11.445)" />
            <path d="M2.91412 2.22117C2.97412 3.49117 2.37411 4.54117 1.57413 4.58117C0.774139 4.62117 0.0641174 3.63117 0.00411987 2.36117C-0.0558777 1.09117 0.544128 0.0411682 1.34412 0.0011673C2.1441 -0.0388336 2.85413 0.951164 2.91412 2.22117C2.91412 2.22117 2.91412 2.22117 2.91412 2.22117Z" fill="#000000" transform="translate(18.573 44.36)" />
            <path d="M7.92001 2.31C7.92001 2.31 0.710022 5.45 0 0" fill="none" stroke-width="1" stroke="#000000" stroke-linecap="round" transform="translate(15.957 37.791)" />
            <path d="M5.12 0C5.12 0 2.73999 4.14 0 2.3" fill="none" stroke-width="1" stroke="#000000" stroke-linecap="round" transform="translate(2.087 40.121)" />
            <path d="M0 0.090538C0 0.090538 1.35999 -0.349464 3.35999 0.710541" fill="none" stroke-width="1" stroke="#000000" stroke-linecap="round" transform="translate(3.367 47.381)" />
            <path d="M0 2.31C0 2.31 1.97 0.43 3.59 0" fill="none" stroke-width="1" stroke="#000000" stroke-linecap="round" transform="translate(24.747 58.271)" />
            <path d="M0.241302 0C0.241302 0 -1.0087 2.85 2.1813 4.22" fill="none" stroke-width="1" stroke="#000000" stroke-linecap="round" transform="translate(9.756 51.521)" />
            <path d="M1.60721 27.0688C1.60721 27.0688 1.9772 16.7788 6.5372 10.9588C6.5372 10.9588 12.8072 25.2088 39.8272 28.1188C39.8272 28.1188 47.6972 26.4688 47.6972 26.4688C47.6972 26.4688 50.9172 9.96881 39.6272 3.46881C28.3372 -3.03119 11.0672 0.558807 5.5072 6.40881C-3.91281 16.3188 1.60721 27.0788 1.60721 27.0788C1.60721 27.0788 1.60721 27.0688 1.60721 27.0688Z" fill="#000000" transform="translate(0 10.083)" />
            <path d="M0 1.14L4.67001 10.38L7.98001 0L0 1.14L0 1.14Z" fill="#000000" fill-rule="evenodd" transform="translate(34.587 35.181)" />
            <path d="M12.8511 10.6927C11.5011 15.6027 7.64105 18.8527 4.22107 17.9427C0.801056 17.0327 -0.878937 12.3227 0.46106 7.40274C1.81104 2.49274 5.67108 -0.757256 9.09106 0.15274C12.511 1.06274 14.191 5.77274 12.8511 10.6927C12.8511 10.6927 12.8511 10.6927 12.8511 10.6927Z" fill="#F1B295" transform="translate(38.066 33.909)" />
            <path d="M5.95001 0.903633C5.95001 0.903633 2.10004 -2.40636 0 3.64363C0 3.64363 2.25 6.02363 0.830017 7.90363C0.830017 7.90363 3.04999 8.40363 4.14001 6.45364" fill="none" stroke-width="1" stroke="#000000" stroke-linecap="round" stroke-linejoin="round" transform="translate(41.537 39.418)" />
            <path d="M1.71002 2.88C1.71002 2.88 1.5 1.53 0 0" fill="none" stroke-width="1" stroke="#000000" stroke-linecap="round" stroke-linejoin="round" transform="translate(44.117 39.761)" />
            <path d="M6.66003 3.33C6.66003 5.17 5.17004 6.66 3.33002 6.66C1.48999 6.66 0 5.17001 0 3.33C0 1.49 1.48999 0 3.33002 0C5.17004 0 6.66003 1.49 6.66003 3.33C6.66003 3.33 6.66003 3.33 6.66003 3.33Z" fill="#FFFFFF" transform="translate(41.037 48.361)" />
            <path d="M0 17.8513C0 17.8513 4.10001 -3.57868 13.68 0.52132C23.26 4.62132 27.59 25.1413 18.47 26.7413C9.35001 28.3413 2.28 24.0013 2.28 24.0013C2.28 24.0013 0 17.8413 0 17.8413C0 17.8413 0 17.8513 0 17.8513Z" fill="#000000" transform="translate(38.347 0)" />
            <path d="M0 0C0 0 15.85 13.22 20.98 1.03" fill="none" stroke-width="1" stroke="#000000" stroke-linecap="round" transform="translate(38.457 24.011)" />
          </g>
        </g>
        <line x1="18.34" y1="10.36" x2="0" y2="0" fill="none" stroke-width="1" stroke="#424242" stroke-linecap="round" transform="translate(167.496 200.751)" />
      </g>
      <g transform="translate(48.498 75.126)">
        <path d="M39.5766 0.0248871C59.3966 0.56488 75.7966 16.4449 76.9366 36.2349C77.6066 47.8749 73.0966 58.4649 65.5066 65.9449C64.3866 67.0449 63.8666 68.6249 64.1266 70.1749C64.1266 70.1749 66.9766 87.0449 66.9766 87.0449C66.9766 87.0449 49.4366 76.8249 49.4366 76.8249C48.4366 76.2449 47.2566 76.0249 46.1266 76.2549C41.8366 77.1149 37.2966 77.2749 32.6166 76.5649C15.2866 73.9349 1.76659 59.5949 0.166595 42.1349C-1.9634 18.8749 16.6166 -0.615143 39.5766 0.0148621C39.5766 0.0148621 39.5766 0.0248871 39.5766 0.0248871Z" fill="#F7D3D3" />
        <path d="M10.13 30.7C10.13 30.7 10.02 21.49 10.02 21.49C11.36 21.16 12.59 20.74 13.7 20.21C14.81 19.68 15.78 19.08 16.61 18.39C17.44 17.7 18.14 16.93 18.71 16.08C19.27 15.23 19.7 14.31 19.99 13.33C20.28 12.35 20.43 11.31 20.43 10.23C20.43 8.67 20.05 7.2 19.29 5.81999C18.53 4.43999 17.44 3.31999 16.02 2.46999C14.6 1.61998 12.92 1.18999 10.95 1.18999C8.84 1.18999 6.89 1.76999 5.09 2.92999C3.28999 4.09 1.92 6.06999 0.979996 8.87C0.979996 8.87 0 8.22 0 8.22C0.830002 5.57001 2.23 3.54001 4.19 2.12C6.15001 0.699997 8.38 0 10.89 0C13.03 0 14.91 0.449997 16.53 1.36C18.15 2.27 19.41 3.49001 20.32 5.03999C21.23 6.57999 21.68 8.31999 21.68 10.24C21.68 11.69 21.43 13.05 20.94 14.33C20.45 15.6 19.76 16.76 18.87 17.82C17.98 18.87 16.9 19.79 15.63 20.57C14.36 21.35 12.92 21.94 11.33 22.34C11.33 22.34 11.22 30.73 11.22 30.73L10.13 30.73L10.13 30.7ZM9.48001 37.56C9.48001 37.09 9.61002 36.7 9.86002 36.39C10.11 36.08 10.46 35.93 10.9 35.93C11.41 35.93 11.77 36.08 11.99 36.37C12.21 36.66 12.32 37.06 12.32 37.57C12.32 38.01 12.2 38.39 11.97 38.71C11.73 39.04 11.38 39.2 10.91 39.2C10.44 39.2 10.08 39.05 9.85001 38.76C9.61 38.47 9.5 38.07 9.5 37.56C9.5 37.56 9.48001 37.56 9.48001 37.56Z" fill="#000000" transform="translate(26.607 21.145)" />
      </g>
    </g>
  </g>
</svg>