<svg width="86" height="36" viewBox="0 0 86 36" fill="none" xmlns="http://www.w3.org/2000/svg">
<g clip-path="url(#clip0_0_72675)">
<g filter="url(#filter0_d_0_72675)">
<path fill-rule="evenodd" clip-rule="evenodd" d="M0 4C0 1.79086 1.79086 0 4 0H82C84.2091 0 86 1.79086 86 4V32C86 34.2091 84.2091 36 82 36H4C1.79086 36 0 34.2091 0 32V4Z" fill="white"/>
</g>
<path fill-rule="evenodd" clip-rule="evenodd" d="M32.1317 15.3843C32.0438 14.5829 31.1647 13.8993 30.3793 13.9877H30.3793C29.7522 14.0584 29.1485 14.5888 28.9668 15.1898C28.7851 15.7909 28.8144 18.1598 28.873 18.8729C28.9551 19.8452 29.6232 20.6407 30.6489 20.5818C31.2291 20.5464 31.9911 19.9631 32.1141 19.362C32.2372 18.7609 32.2021 16.062 32.1317 15.3843ZM29.9573 15.5317C29.9749 15.4198 30.0452 15.2194 30.1273 15.1546C30.4555 14.8953 31.0475 15.0957 31.1178 15.5376C31.2116 16.1799 31.1881 18.2601 31.1178 18.9437C31.0358 19.7216 30.057 19.6626 29.9632 19.0851C29.8694 18.5076 29.8811 16.1446 29.9573 15.5317Z" fill="#F06823"/>
<path fill-rule="evenodd" clip-rule="evenodd" d="M51.667 19.0557L53.2201 15.4964C53.3959 15.3137 53.73 15.5082 53.9469 15.5023C54.2048 15.5023 54.4451 15.3903 54.7088 15.4257V15.7144C54.3806 15.685 54.0407 15.7321 53.9938 16.1093L54.2927 19.7275C54.363 20.1105 54.5623 20.1635 54.9257 20.1459V20.4346C54.1872 20.3168 53.4956 20.3757 52.7571 20.4346V20.1459C52.9622 20.1459 53.2905 20.1518 53.3373 19.8925C53.5014 19.0027 53.0502 17.7769 53.1908 16.84L53.0443 16.7339C52.8626 17.17 51.5439 20.4582 51.3446 20.5112C51.1922 20.5466 50.9519 19.9514 50.8875 19.81C50.4186 18.8377 50.0435 17.7946 49.6098 16.8046C49.4574 16.8046 49.3284 19.6037 49.3577 19.8925C49.4046 20.1635 49.7621 20.1577 49.9731 20.1459C50.1255 20.6232 49.516 20.3639 49.2581 20.3639C48.8947 20.3639 48.5606 20.3993 48.2031 20.4405V20.1518C48.4669 20.1694 48.7775 20.1164 48.8537 19.8218C48.9416 18.761 49.1702 17.6944 49.2171 16.6337C49.2405 16.0327 49.1878 15.7144 48.4962 15.7262L48.5313 15.5023C48.6661 15.3196 49.1292 15.5082 49.3343 15.5141C49.5394 15.52 49.8852 15.3668 50.0259 15.4669L51.6845 19.0616L51.667 19.0557Z" fill="#191919"/>
<path fill-rule="evenodd" clip-rule="evenodd" d="M44.2126 18.1834H46.4573L46.4573 18.1834V16.9871C46.4573 16.3861 45.9591 15.6553 45.3906 15.4432C44.2595 15.0189 43.2221 15.8321 43.1224 16.9871C43.0638 17.6884 43.0404 19.1969 43.3862 19.7803C44.2301 21.2064 46.3577 20.5936 46.3811 18.9848H45.3672C45.3587 18.9848 45.357 19.005 45.3542 19.0374C45.3434 19.1624 45.3168 19.4694 44.828 19.4975C44.1675 19.5293 44.1879 19.0872 44.21 18.6075C44.2166 18.4656 44.2233 18.3205 44.2126 18.1834ZM45.3731 17.164C45.5137 16.0915 44.0836 16.0797 44.2126 17.164H45.3731Z" fill="#F06823"/>
<path fill-rule="evenodd" clip-rule="evenodd" d="M35.8954 20.576H34.8112V16.7633C34.8112 16.2565 33.6507 16.2565 33.6507 16.7633V20.576H32.5664V16.7633C32.5664 16.5158 32.9474 15.9265 33.1408 15.7439C33.9496 15.0014 35.28 15.2901 35.7079 16.2919C35.7489 16.3803 35.8896 16.8458 35.8896 16.9106V20.576H35.8954Z" fill="#F06823"/>
<path fill-rule="evenodd" clip-rule="evenodd" d="M42.6943 20.576H41.61V16.7633C41.61 16.2565 40.4495 16.2565 40.4495 16.7633V20.576H39.3652V16.7633C39.3652 16.5158 39.7462 15.9265 39.9396 15.7439C40.7484 15.0014 42.0789 15.2901 42.5067 16.2919C42.5477 16.3803 42.6884 16.8458 42.6884 16.9106V20.576H42.6943Z" fill="#F06823"/>
<path fill-rule="evenodd" clip-rule="evenodd" d="M61.2154 19.887C61.2799 20.105 61.7488 20.1462 61.9422 20.1757L61.907 20.4173L60.0608 20.3171C60.0256 20.1168 60.4183 20.1521 60.5707 20.0343C60.7407 19.9046 60.7641 19.722 60.7876 19.5216C60.852 18.8262 60.8814 16.8286 60.7817 16.1803C60.7231 15.815 60.4125 15.6618 60.0608 15.703L60.096 15.4791L60.1839 15.4202C60.4301 15.373 60.6469 15.485 60.8931 15.4909C61.1158 15.4909 61.3502 15.3141 61.5495 15.4791L64.6206 18.9677V16.2452C64.6206 15.8916 64.1635 15.6029 63.8236 15.703L63.8529 15.4791L63.9408 15.4202C64.2338 15.3436 64.5093 15.4909 64.7965 15.485C65.113 15.485 65.7401 15.1845 65.6991 15.6971C65.406 15.5852 64.9782 15.8739 64.9782 16.1686V20.488L64.7086 20.435L61.2506 16.5693C61.0279 16.5516 61.2154 16.6459 61.2154 16.6754V19.8693V19.887Z" fill="#191919"/>
<path fill-rule="evenodd" clip-rule="evenodd" d="M69.6781 19.816C69.7485 20.1401 70.2056 20.1754 70.4752 20.1401V20.4288C69.7192 20.3522 68.9865 20.3758 68.2305 20.4288V20.1401C68.6114 20.1577 68.7052 20.1224 68.7404 19.7452C68.8517 18.5549 68.6466 17.1819 68.7345 15.9679C68.6818 15.6969 68.4649 15.6969 68.2305 15.7086V15.4199C68.5645 15.3786 68.8752 15.4965 69.2092 15.4965C69.8305 15.4965 70.3228 15.3197 70.9851 15.526C72.2804 15.9326 72.0928 17.9833 70.7858 18.2308C70.5104 18.2838 70.188 18.2308 69.9008 18.3192L69.9712 18.0658C71.3544 17.9833 71.1903 15.4317 69.684 15.7794V19.8101L69.6781 19.816Z" fill="#191919"/>
<path fill-rule="evenodd" clip-rule="evenodd" d="M57.8864 15.2805L57.8855 15.2781L57.8914 15.284C57.8899 15.2827 57.8882 15.2816 57.8864 15.2805ZM59.4211 19.8745L57.8864 15.2805C57.7846 15.2255 57.1167 15.5567 57.0591 15.6493C57.0269 15.7011 57.0177 15.7831 57.0082 15.868C57.0004 15.9377 56.9924 16.0093 56.9712 16.0677C56.9454 16.1456 56.9054 16.2697 56.8547 16.4268C56.5259 17.4463 55.749 19.8549 55.5001 20.0336C55.4163 20.0968 55.3084 20.1148 55.2002 20.1329C55.1571 20.1401 55.114 20.1473 55.0723 20.1574V20.4402C55.1857 20.4316 55.2952 20.4191 55.404 20.4066C55.593 20.385 55.7798 20.3636 55.9807 20.3636C56.0496 20.3616 56.1415 20.3789 56.2375 20.3969C56.4275 20.4326 56.6335 20.4713 56.7075 20.3695L56.7368 20.1456C56.5785 20.1633 56.139 20.1456 56.0979 19.957L56.4906 18.69L58.0262 18.7018L58.3896 20.0631L57.8914 20.2516L58.0086 20.4225C58.1385 20.4151 58.2665 20.4047 58.3941 20.3943C58.6698 20.3719 58.9433 20.3497 59.2277 20.3577C59.2696 20.3577 59.3389 20.3709 59.4191 20.3862C59.6421 20.4286 59.9493 20.4871 59.9838 20.3224C60.0042 20.2194 59.8714 20.1664 59.7295 20.1097C59.5872 20.053 59.4358 19.9925 59.4211 19.8745ZM57.8211 18.254H56.6606C56.7061 18.0957 56.7505 17.9302 56.7956 17.7621C56.9016 17.3668 57.0114 16.9578 57.1471 16.5981C57.1578 16.5712 57.1592 16.5432 57.1606 16.5182C57.1636 16.4608 57.1659 16.4185 57.276 16.439L57.8211 18.254Z" fill="#191919"/>
<path fill-rule="evenodd" clip-rule="evenodd" d="M76.8392 20.429L76.8392 20.1461C76.6106 20.1579 76.4465 20.0813 76.3527 19.8691L74.782 15.3493C74.6765 15.2079 74.0318 15.532 73.9673 15.6911L72.631 19.7218C72.4904 19.9575 72.2794 20.1225 72.0039 20.1461L71.9922 20.429C72.5431 20.3288 73.0296 20.3641 73.5805 20.429V20.1402C73.4105 20.152 73.012 20.1225 73.0061 19.8868L73.4164 18.6788L74.952 18.6906L75.3271 20.0165L74.8172 20.1343L74.9403 20.4172C75.585 20.3406 76.2004 20.3406 76.8392 20.429ZM74.7468 18.2546H73.5864C73.5336 18.2016 73.9439 16.9228 74.0025 16.746C74.008 16.7296 74.0134 16.707 74.0196 16.6815C74.0466 16.5698 74.0873 16.4012 74.2018 16.4396L74.7468 18.2546Z" fill="#191919"/>
<rect x="36.3301" y="13.5342" width="1.08428" height="7.04197" fill="#F06823"/>
<path fill-rule="evenodd" clip-rule="evenodd" d="M79.2311 15.7144L78.6977 15.7792L78.5864 16.0444L78.6098 19.7805C78.7387 20.1871 79.6824 20.1223 80.0282 20.0339C80.3388 19.9573 80.6963 19.5683 80.7373 19.2383L80.9601 19.1971L80.7081 20.3639L77.0567 20.4346L76.9863 20.2519C76.9863 20.0516 77.6428 20.3875 77.7131 19.6037C77.7776 18.8966 77.8127 16.7751 77.7072 16.121C77.6428 15.7144 77.4025 15.7203 77.0567 15.685L77.0684 15.4375C77.4728 15.3726 77.8596 15.5141 78.2582 15.5082C78.5922 15.5082 79.2721 15.2076 79.2311 15.7203V15.7144Z" fill="#191919"/>
<rect x="37.8477" y="15.2783" width="1.08428" height="5.29768" fill="#F06823"/>
<path fill-rule="evenodd" clip-rule="evenodd" d="M65.8457 20.3579V20.1398C66.1388 20.1693 66.3966 20.1516 66.4611 19.8157V15.9913C66.3556 15.6907 66.127 15.6848 65.8457 15.7084L65.875 15.4845C65.9981 15.3136 66.6545 15.4904 66.8948 15.4904C67.223 15.4904 68.1373 15.1898 67.9791 15.7025C67.6978 15.6613 67.4457 15.732 67.3696 16.0325C67.4516 17.1934 67.2523 18.5252 67.3637 19.6625C67.4047 20.0868 67.604 20.1693 68.0201 20.128V20.3461H65.8516L65.8457 20.3579Z" fill="#191919"/>
<path fill-rule="evenodd" clip-rule="evenodd" d="M38.1877 13.6228C38.6683 13.4755 39.1372 13.9351 38.7856 14.3712C38.1877 15.1255 37.4375 13.8467 38.1877 13.6228V13.6228Z" fill="#F06823"/>
<rect x="6.0332" y="5.34326" width="20.1148" height="23.6186"/>
</g>
<defs>
<filter id="filter0_d_0_72675" x="-2" y="-2" width="90" height="40" filterUnits="userSpaceOnUse" color-interpolation-filters="sRGB">
<feFlood flood-opacity="0" result="BackgroundImageFix"/>
<feColorMatrix in="SourceAlpha" type="matrix" values="0 0 0 0 0 0 0 0 0 0 0 0 0 0 0 0 0 0 127 0" result="hardAlpha"/>
<feOffset/>
<feGaussianBlur stdDeviation="1"/>
<feColorMatrix type="matrix" values="0 0 0 0 0 0 0 0 0 0 0 0 0 0 0 0 0 0 0.25098 0"/>
<feBlend mode="normal" in2="BackgroundImageFix" result="effect1_dropShadow_0_72675"/>
<feBlend mode="normal" in="SourceGraphic" in2="effect1_dropShadow_0_72675" result="shape"/>
</filter>
<clipPath id="clip0_0_72675">
<rect width="86" height="36" fill="white"/>
</clipPath>
</defs>
</svg>
