<?xml version="1.0" encoding="utf-8"?>
<svg width="20" height="18" viewBox="0 0 20 18" fill="none" xmlns="http://www.w3.org/2000/svg">
  <g>
    <path d="M9.29479 4.27591C9.51448 4.06067 9.59217 3.74468 9.49736 3.45137C9.40255 3.15807 9.15486 2.94826 8.85121 2.90418C8.85121 2.90418 6.7252 2.59366 6.7252 2.59366C6.60073 2.57563 6.49296 2.49672 6.43699 2.38344C6.43699 2.38344 5.48634 0.448152 5.48634 0.448152C5.35059 0.171623 5.07534 0 4.76835 0C4.46134 0 4.18651 0.171623 4.05076 0.448152C4.05076 0.448152 3.10011 2.38301 3.10011 2.38301C3.04414 2.49672 2.93638 2.57563 2.81191 2.59366C2.81191 2.59366 0.686316 2.90418 0.686316 2.90418C0.382243 2.94826 0.134562 3.15807 0.0397396 3.45137C-0.0550709 3.74468 0.0226202 4.06067 0.242323 4.27591C0.242323 4.27591 1.78023 5.78195 1.78023 5.78195C1.87087 5.87049 1.9118 5.99804 1.8905 6.12266C1.8905 6.12266 1.52754 8.24973 1.52754 8.24973C1.47575 8.55354 1.59771 8.85483 1.84623 9.03611C1.98615 9.13848 2.15072 9.19053 2.3157 9.19053C2.44309 9.19053 2.5709 9.15989 2.68912 9.09738C2.68912 9.09738 4.59 8.09322 4.59 8.09322C4.70194 8.03447 4.83518 8.03447 4.9467 8.09322C4.9467 8.09322 6.848 9.09738 6.848 9.09738C7.11991 9.24088 7.44235 9.21737 7.69087 9.03611C7.9394 8.85483 8.06137 8.55354 8.00957 8.24973C8.00957 8.24973 7.64618 6.12266 7.64618 6.12266C7.62488 5.99804 7.66623 5.87049 7.75645 5.78195C7.75645 5.78195 9.29479 4.27591 9.29479 4.27591Z" fill="#EC1E24" fill-rule="evenodd" transform="translate(10.462 0)" />
    <path d="M7.37214 4.29358C7.37214 4.29358 4.80755 4.29358 4.80755 4.29358C5.79746 2.01504 5.28371 0.840106 4.65719 0.252652C4.4191 0.030241 4.08495 -0.0536885 3.76334 0.034441C3.43754 0.126746 3.18275 0.378533 3.09087 0.710025C2.49776 2.79555 1.40342 4.11314 0.964849 4.58732C0.864609 4.69222 0.726779 4.75098 0.572225 4.75098C0.572225 4.75098 0 4.75098 0 4.75098C0.054301 4.89742 0.0877228 5.05729 0.0877228 5.22095C0.0877228 5.22095 0.0877228 11.2761 0.0877228 11.2761C0.0877228 11.423 0.0626628 11.5656 0.016711 11.6957C0.517937 11.7163 1.00662 11.8678 1.43683 12.1279C1.43683 12.1279 1.47442 12.1527 1.47442 12.1527C2.00906 12.4762 2.62306 12.6482 3.24541 12.6482C3.24541 12.6482 6.38221 12.6482 6.38221 12.6482C7.02963 12.6482 7.58098 12.1825 7.69375 11.5404C7.69375 11.5404 8.68784 5.86298 8.68784 5.86298C8.75467 5.47274 8.65025 5.07409 8.39545 4.77195C8.14067 4.46984 7.76893 4.29358 7.37214 4.29358C7.37214 4.29358 7.37214 4.29358 7.37214 4.29358Z" fill="#EC1E24" fill-rule="evenodd" transform="translate(3.198 5.352)" />
    <path d="M1.96939 0C1.96939 0 0.898031 0 0.898031 0C0.403076 0 0 0.404535 0 0.902195C0 0.902195 0 6.95522 0 6.95522C0 7.45247 0.403076 7.85742 0.898031 7.85742C0.898031 7.85742 1.96939 7.85742 1.96939 7.85742C2.46475 7.85742 2.86741 7.45247 2.86741 6.95522C2.86741 6.95522 2.86741 0.902195 2.86741 0.902195C2.86741 0.404535 2.46475 0 1.96939 0C1.96939 0 1.96939 0 1.96939 0Z" fill="#EC1E24" fill-rule="evenodd" transform="translate(0 9.671)" />
  </g>
</svg>