<?xml version="1.0" encoding="utf-8"?>
<svg width="17.658" height="18.422" viewBox="0 0 17.658 18.422" fill="none" xmlns="http://www.w3.org/2000/svg">
  <g>
    <path d="M0.0923872 0.575757C0.0923872 0.575757 3.44042 3.38545 3.44042 3.38545C3.54981 3.47757 3.7139 3.46318 3.80602 3.35379C3.80602 3.35379 3.98163 3.14364 3.98163 3.14364L0.236326 0C0.236326 0 0.0607204 0.210152 0.0607204 0.210152C-0.0314007 0.319546 -0.0170078 0.483636 0.0923872 0.575757C0.0923872 0.575757 0.0923872 0.575757 0.0923872 0.575757Z" fill="#EC1E24" fill-rule="evenodd" transform="translate(10.012 12.162)" />
    <path d="M1.44803 0.144123C1.18894 -0.0746651 0.800303 -0.0401192 0.581515 0.218971C0.581515 0.218971 0 0.909881 0 0.909881L4.37864 4.58322C4.37864 4.58322 4.96015 3.89231 4.96015 3.89231C5.17894 3.63321 5.14439 3.24458 4.88531 3.02579C4.88531 3.02579 1.44803 0.144123 1.44803 0.144123Z" fill="#EC1E24" fill-rule="evenodd" transform="translate(10.302 10.545)" />
    <path d="M3.57545 0.267869C2.95651 -0.143797 2.10439 -0.0747061 1.5603 0.43196C1.27818 0.696808 1.11121 1.03075 1.05651 1.3762C0.912576 2.27438 0.587272 3.13226 0.00287819 3.82893C0.00287819 3.82893 0 3.83181 0 3.83181C0 3.83181 0.978788 4.65226 0.978788 4.65226C1.59197 3.97287 2.3894 3.49211 3.25303 3.16681C3.50637 3.07181 3.73955 2.9106 3.92667 2.68605C4.54849 1.94908 4.40167 0.820596 3.57546 0.267869C3.57546 0.267869 3.57545 0.267869 3.57545 0.267869Z" fill="#EC1E24" fill-rule="evenodd" transform="translate(13.347 7.449)" />
    <path d="M0.595909 15.4821L0.595909 0C0.595909 0 0.593031 0 0.593031 0C0.264849 0 0 0.264848 0 0.59303C0 0.59303 0 16.6538 0 16.6538C0 16.982 0.264849 17.2468 0.593031 17.2468C0.593031 17.2468 12.4335 17.2468 12.4335 17.2468C12.7617 17.2468 13.0265 16.982 13.0265 16.6538C13.0265 16.6538 13.0265 16.648 13.0265 16.648C13.0265 16.648 1.76758 16.648 1.76758 16.648C1.12273 16.6509 0.59591 16.127 0.59591 15.4821C0.59591 15.4821 0.595909 15.4821 0.595909 15.4821Z" fill="#EC1E24" fill-rule="evenodd" transform="translate(0 1.175)" />
    <path d="M2.35773 4.71546C3.65894 4.71546 4.71545 3.65606 4.71545 2.35773C4.71545 1.05652 3.65606 0 2.35773 0C1.05652 0 0 1.05939 0 2.35773C0 3.65606 1.05652 4.71546 2.35773 4.71546C2.35773 4.71546 2.35773 4.71546 2.35773 4.71546ZM1.04941 2.30092C1.16168 2.18864 1.34305 2.18864 1.45532 2.30092C1.45532 2.30092 1.89002 2.73561 1.89002 2.73561C1.89002 2.73561 3.25744 1.36819 3.25744 1.36819C3.36972 1.25592 3.55108 1.25592 3.66335 1.36819C3.77563 1.48046 3.77563 1.66183 3.66335 1.7741C3.66335 1.7741 2.09441 3.34304 2.09441 3.34304C2.03684 3.40062 1.96487 3.42652 1.89002 3.42652C1.81517 3.42652 1.7432 3.39774 1.68562 3.34304C1.68562 3.34304 1.04653 2.70395 1.04653 2.70395C0.93714 2.59455 0.93714 2.41319 1.04941 2.30092C1.04941 2.30092 1.04941 2.30092 1.04941 2.30092Z" fill="#EC1E24" transform="translate(5.326 1.54)" />
    <path d="M12.4479 16.1845C12.2521 16.1845 12.0621 16.1155 11.9124 15.9888C11.9124 15.9888 8.5644 13.1791 8.5644 13.1791C8.21319 12.8826 8.16713 12.3558 8.46076 12.0045C8.46076 12.0045 8.63637 11.7944 8.63637 11.7944L8.3197 11.5295C8.3197 11.5295 9.2697 10.3953 9.2697 10.3953C9.49713 10.1247 9.82819 9.96924 10.1823 9.96924C10.4615 9.96924 10.7321 10.0671 10.948 10.2485C10.948 10.2485 11.7368 10.9106 11.7368 10.9106C11.7368 10.9106 11.7397 10.9077 11.7397 10.9077C12.2147 10.3435 12.5256 9.6094 12.6667 8.73136C12.7185 8.40606 12.8452 8.10379 13.0294 7.83606C13.0294 7.83606 13.0294 0.59303 13.0294 0.59303C13.0294 0.264849 12.7646 0 12.4364 0C12.4364 0 0.595909 0 0.595909 0C0.267727 0 0 0.264849 0 0.59303C0 0.59303 0 16.6538 0 16.6538C0 16.982 0.264849 17.2468 0.59303 17.2468C0.59303 17.2468 12.4364 17.2468 12.4364 17.2468C12.7646 17.2468 13.0294 16.982 13.0294 16.6538C13.0294 16.6538 13.0294 15.9399 13.0294 15.9399C12.8739 16.0924 12.6696 16.1845 12.4479 16.1845C12.4479 16.1845 12.4479 16.1845 12.4479 16.1845ZM6.51578 0.961133C8.13366 0.961133 9.44926 2.27674 9.44926 3.89462C9.44926 5.5125 8.13366 6.8281 6.51578 6.8281C4.8979 6.8281 3.58229 5.5125 3.58229 3.89462C3.58229 2.27674 4.8979 0.961133 6.51578 0.961133C6.51578 0.961133 6.51578 0.961133 6.51578 0.961133ZM3.86774 16.1135C3.86774 16.1135 1.35168 16.1135 1.35168 16.1135C1.19335 16.1135 1.0638 15.9839 1.0638 15.8256C1.0638 15.6672 1.19335 15.5377 1.35168 15.5377C1.35168 15.5377 3.86774 15.5377 3.86774 15.5377C4.02608 15.5377 4.15562 15.6672 4.15562 15.8256C4.15562 15.9839 4.02608 16.1135 3.86774 16.1135C3.86774 16.1135 3.86774 16.1135 3.86774 16.1135ZM3.86774 14.6217C3.86774 14.6217 1.35168 14.6217 1.35168 14.6217C1.19335 14.6217 1.0638 14.4921 1.0638 14.3338C1.0638 14.1754 1.19335 14.0459 1.35168 14.0459C1.35168 14.0459 3.86774 14.0459 3.86774 14.0459C4.02608 14.0459 4.15562 14.1754 4.15562 14.3338C4.15562 14.4921 4.02608 14.6217 3.86774 14.6217C3.86774 14.6217 3.86774 14.6217 3.86774 14.6217ZM7.71956 13.1299C7.71956 13.1299 1.35168 13.1299 1.35168 13.1299C1.19335 13.1299 1.0638 13.0003 1.0638 12.842C1.0638 12.6836 1.19335 12.5541 1.35168 12.5541C1.35168 12.5541 7.71956 12.5541 7.71956 12.5541C7.87789 12.5541 8.00744 12.6836 8.00744 12.842C8.00744 13.0003 7.87789 13.1299 7.71956 13.1299C7.71956 13.1299 7.71956 13.1299 7.71956 13.1299ZM7.71956 11.6393C7.71956 11.6393 1.35168 11.6393 1.35168 11.6393C1.19335 11.6393 1.0638 11.5098 1.0638 11.3514C1.0638 11.1931 1.19335 11.0635 1.35168 11.0635C1.35168 11.0635 7.71956 11.0635 7.71956 11.0635C7.87789 11.0635 8.00744 11.1931 8.00744 11.3514C8.00744 11.5098 7.87789 11.6393 7.71956 11.6393C7.71956 11.6393 7.71956 11.6393 7.71956 11.6393ZM7.71956 10.1475C7.71956 10.1475 1.35168 10.1475 1.35168 10.1475C1.19335 10.1475 1.0638 10.018 1.0638 9.85962C1.0638 9.70129 1.19335 9.57175 1.35168 9.57175C1.35168 9.57175 7.71956 9.57175 7.71956 9.57175C7.87789 9.57175 8.00744 9.70129 8.00744 9.85962C8.00744 10.018 7.87789 10.1475 7.71956 10.1475C7.71956 10.1475 7.71956 10.1475 7.71956 10.1475ZM7.71956 8.65571C7.71956 8.65571 1.35168 8.65571 1.35168 8.65571C1.19335 8.65571 1.0638 8.52616 1.0638 8.36783C1.0638 8.20949 1.19335 8.07995 1.35168 8.07995C1.35168 8.07995 7.71956 8.07995 7.71956 8.07995C7.87789 8.07995 8.00744 8.20949 8.00744 8.36783C8.00744 8.52616 7.87789 8.65571 7.71956 8.65571C7.71956 8.65571 7.71956 8.65571 7.71956 8.65571Z" fill="#EC1E24" transform="translate(1.17 0)" />
  </g>
</svg>