<?xml version="1.0" encoding="utf-8"?>
<svg width="18.926" height="19" viewBox="0 0 18.926 19" fill="none" xmlns="http://www.w3.org/2000/svg">
  <g>
    <path d="M8.90625 3.90072C8.90625 3.90072 8.90625 3.52539 8.90625 3.52539C8.90625 2.80922 8.3236 2.22656 7.60743 2.22656C7.60743 2.22656 6.49414 2.22656 6.49414 2.22656C6.49414 2.22656 6.49414 1.29883 6.49414 1.29883C6.49414 0.582654 5.91149 0 5.19531 0C5.19531 0 3.71094 0 3.71094 0C2.99477 0 2.41211 0.582654 2.41211 1.29883C2.41211 1.29883 2.41211 2.22656 2.41211 2.22656C2.41211 2.22656 1.29883 2.22656 1.29883 2.22656C0.582654 2.22656 0 2.80922 0 3.52539C0 3.52539 0 3.90072 0 3.90072L4.45313 5.17305L8.90625 3.90072ZM3.52539 1.29883C3.52539 1.19652 3.60863 1.11328 3.71094 1.11328C3.71094 1.11328 5.19531 1.11328 5.19531 1.11328C5.29762 1.11328 5.38086 1.19652 5.38086 1.29883C5.38086 1.29883 5.38086 2.22656 5.38086 2.22656L3.52539 2.22656C3.52539 2.22656 3.52539 1.29883 3.52539 1.29883Z" fill="#EC1E24" transform="translate(5.01 0)" />
    <path d="M1.29883 4.21882C1.29883 4.21882 7.60742 4.21882 7.60742 4.21882C8.3236 4.21882 8.90625 3.63616 8.90625 2.91999C8.90625 2.91999 8.90625 3.71933e-05 8.90625 3.71933e-05C8.90625 3.71933e-05 4.60605 1.22865 4.60605 1.22865C4.50612 1.25719 4.40017 1.25719 4.3002 1.22865C4.3002 1.22865 0 0 0 0C0 0 0 2.91999 0 2.91999C0 3.63616 0.582654 4.21882 1.29883 4.21882C1.29883 4.21882 1.29883 4.21882 1.29883 4.21882Z" fill="#EC1E24" fill-rule="evenodd" transform="translate(5.01 5.058)" />
    <path d="M7.51465 4.76837e-07C6.74608 4.76837e-07 6.12305 0.62303 6.12305 1.3916C6.12305 1.3916 6.12305 5.36658 6.12305 5.36658C6.19088 5.42146 6.25657 5.48024 6.31962 5.54329C7.29648 6.5202 7.29648 8.10937 6.3198 9.08605C6.3198 9.08605 4.04244 11.3634 4.04244 11.3634C3.82505 11.5808 3.47262 11.5808 3.25523 11.3634C3.03785 11.146 3.03785 10.7936 3.25523 10.5762C3.25523 10.5762 5.5326 8.29885 5.5326 8.29885C6.0761 7.75531 6.07607 6.87407 5.53249 6.3306C4.98899 5.78721 4.1079 5.78728 3.56447 6.33075C3.56447 6.33075 0.815145 9.08022 0.815145 9.08022C0.293201 9.60213 0 10.31 0 11.0482C0 11.0482 0 15.2149 0 15.2149C0 15.2149 4.63867 15.2149 4.63867 15.2149C4.81324 15.2149 4.9777 15.133 5.08291 14.9936C5.08291 14.9936 8.26919 10.774 8.26919 10.774C8.68 10.23 8.90625 9.55496 8.90625 8.87319C8.90625 8.87319 8.90625 1.3916 8.90625 1.3916C8.90625 0.62303 8.28322 0 7.51465 0C7.51465 0 7.51465 4.76837e-07 7.51465 4.76837e-07Z" fill="#EC1E24" fill-rule="evenodd" transform="translate(10.02 3.785)" />
    <path d="M8.09111 9.08019C8.09111 9.08019 5.34179 6.33071 5.34179 6.33071C4.79836 5.78725 3.91727 5.78721 3.37376 6.33057C2.83018 6.87403 2.83011 7.75527 3.37365 8.29881C3.37365 8.29881 5.65102 10.5762 5.65102 10.5762C5.8684 10.7936 5.8684 11.146 5.65102 11.3634C5.43363 11.5808 5.0812 11.5808 4.86382 11.3634C4.86382 11.3634 2.58645 9.08601 2.58645 9.08601C1.60977 8.10933 1.60977 6.52016 2.58667 5.54325C2.64972 5.48024 2.71541 5.42142 2.78324 5.36654C2.78324 5.36654 2.78324 1.3916 2.78324 1.3916C2.78324 0.62303 2.16021 0 1.39164 0C0.623029 0 0 0.62303 0 1.3916C0 1.3916 0 8.87319 0 8.87319C0 9.55497 0.226256 10.23 0.637057 10.774C0.637057 10.774 3.82334 14.9936 3.82334 14.9936C3.92855 15.133 4.09302 15.2149 4.26758 15.2149C4.26758 15.2149 8.90625 15.2149 8.90625 15.2149C8.90625 15.2149 8.90625 11.0482 8.90625 11.0482C8.90625 10.31 8.61305 9.60213 8.09111 9.08019C8.09111 9.08019 8.09111 9.08019 8.09111 9.08019Z" fill="#EC1E24" fill-rule="evenodd" transform="translate(0 3.785)" />
  </g>
</svg>