<?xml version="1.0" encoding="utf-8"?>
<svg width="20" height="20" viewBox="0 0 20 20" fill="none" xmlns="http://www.w3.org/2000/svg">
  <g>
    <path d="M0 0L0.1 0.0999999L0 0Z" fill="#EC1E24" fill-rule="evenodd" transform="translate(9.915 5.885)" />
    <path d="M2.41969 0C1.77622 0.00068903 1.25475 0.522153 1.25406 1.16562C1.25406 1.16562 1.25406 1.35313 1.25406 1.35313C1.25406 1.52571 1.11415 1.66563 0.941562 1.66563C0.941562 1.66563 0 1.66563 0 1.66563L0 2.96875L4.83843 2.96875L4.83843 2.34844L4.83843 2.34438L4.83843 2.34063L4.83843 1.66531C4.83843 1.66531 3.89718 1.66531 3.89718 1.66531C3.7246 1.66531 3.58468 1.5254 3.58468 1.35281C3.58468 1.35281 3.58468 1.16531 3.58468 1.16531C3.58385 0.522261 3.06284 0.00106263 2.41974 2.38419e-07C2.41974 2.38419e-07 2.41969 0 2.41969 0Z" fill="#EC1E24" fill-rule="evenodd" transform="translate(7.58 1.25)" />
    <path d="M0.695313 2.0775L0.566875 2.82469C0.566875 2.82469 1.23812 2.47187 1.23812 2.47187C1.39279 2.39064 1.57752 2.39064 1.73219 2.47187C1.73219 2.47187 2.40312 2.82437 2.40312 2.82437C2.40312 2.82437 2.27469 2.0775 2.27469 2.0775C2.24557 1.9057 2.30255 1.73053 2.42719 1.60875C2.42719 1.60875 2.97 1.07937 2.97 1.07937C2.97 1.07937 2.22 0.970625 2.22 0.970625C2.04708 0.945385 1.89763 0.836717 1.82031 0.68C1.82031 0.68 1.485 0 1.485 0C1.485 0 1.14969 0.679687 1.14969 0.679687C1.07229 0.836284 0.922855 0.944824 0.749999 0.97C0.749999 0.97 0 1.07875 0 1.07875C0 1.07875 0.5425 1.60781 0.5425 1.60781C0.667545 1.72974 0.724676 1.90534 0.695312 2.0775C0.695312 2.0775 0.695313 2.0775 0.695313 2.0775Z" fill="#EC1E24" fill-rule="evenodd" transform="translate(8.516 6.057)" />
    <path d="M0 12.3478L15.8394 12.3478L15.8394 0L14.0134 0C14.0134 0 14.0134 10.4169 14.0134 10.4169C14.0121 10.912 13.6101 11.3125 13.115 11.3122C13.115 11.3122 2.72125 11.3122 2.72125 11.3122C2.227 11.3117 1.82645 10.9111 1.82594 10.4169C1.82594 10.4169 1.82594 9.53674e-07 1.82594 9.53674e-07L1.66893e-06 9.53674e-07L0 12.3478Z" fill="#EC1E24" fill-rule="evenodd" transform="translate(2.081 6.402)" />
    <path d="M0.270315 2.38419e-07C0.120234 0.00103259 -0.000689983 0.123355 2.86102e-06 0.273438C2.86102e-06 0.273438 2.86102e-06 12.9128 2.86102e-06 12.9128C0.000165462 13.062 0.121081 13.1829 0.270299 13.1831C0.270299 13.1831 10.664 13.1831 10.664 13.1831C10.8141 13.1838 10.9365 13.0629 10.9375 12.9128C10.9375 12.9128 10.9375 0.274063 10.9375 0.274063C10.9382 0.201313 10.9097 0.13132 10.8582 0.0798748C10.8068 0.0284297 10.7368 -0.000134945 10.664 0.000624895C10.664 0.000624895 8.51249 0.000624895 8.51249 0.000624895C8.51249 0.000624895 8.51249 0.625 8.51249 0.625C8.51249 0.797589 8.37258 0.9375 8.19999 0.9375C8.19999 0.9375 2.73655 0.9375 2.73655 0.9375C2.56396 0.9375 2.42405 0.797589 2.42405 0.625C2.42405 0.625 2.42405 0 2.42405 0C2.42405 0 0.270315 2.38419e-07 0.270315 2.38419e-07ZM9.70922 11.8479C9.70922 11.8479 1.23047 11.8479 1.23047 11.8479C1.05788 11.8479 0.917969 11.708 0.917969 11.5354C0.917969 11.3628 1.05788 11.2229 1.23047 11.2229C1.23047 11.2229 9.70984 11.2229 9.70984 11.2229C9.88243 11.2229 10.0223 11.3628 10.0223 11.5354C10.0223 11.708 9.88243 11.8479 9.70984 11.8479C9.70984 11.8479 9.70922 11.8479 9.70922 11.8479ZM8.57141 9.77648C8.744 9.77648 8.88391 9.91639 8.88391 10.089C8.88391 10.2616 8.744 10.4015 8.57141 10.4015C8.57141 10.4015 2.36328 10.4015 2.36328 10.4015C2.19069 10.4015 2.05078 10.2616 2.05078 10.089C2.05078 9.91639 2.19069 9.77648 2.36328 9.77648C2.36328 9.77648 8.57141 9.77648 8.57141 9.77648ZM3.25087 8.64258C3.25087 8.46999 3.39078 8.33008 3.56337 8.33008C3.56337 8.33008 7.37587 8.33008 7.37587 8.33008C7.54846 8.33008 7.68837 8.46999 7.68837 8.64258C7.68837 8.81517 7.54846 8.95508 7.37587 8.95508C7.37587 8.95508 3.56337 8.95508 3.56337 8.95508C3.39078 8.95508 3.25087 8.81517 3.25087 8.64258C3.25087 8.64258 3.25087 8.64258 3.25087 8.64258ZM3.27728 2.99974C3.33885 2.80715 3.5052 2.66679 3.7054 2.63849C3.7054 2.63849 4.59572 2.50912 4.59572 2.50912C4.59572 2.50912 4.99384 1.70256 4.99384 1.70256C5.08352 1.52172 5.26793 1.40734 5.46978 1.40734C5.67163 1.40734 5.85604 1.52172 5.94572 1.70256C5.94572 1.70256 6.34478 2.50881 6.34478 2.50881C6.34478 2.50881 7.23509 2.63818 7.23509 2.63818C7.43519 2.66735 7.60137 2.80757 7.66379 2.99991C7.7262 3.19225 7.674 3.40334 7.52915 3.54443C7.52915 3.54443 6.88478 4.17256 6.88478 4.17256C6.88478 4.17256 7.03697 5.05943 7.03697 5.05943C7.06326 5.21352 7.02036 5.37137 6.91969 5.49096C6.81902 5.61054 6.67078 5.67971 6.51447 5.68006C6.42813 5.67954 6.3432 5.65809 6.26697 5.61756C6.26697 5.61756 5.46978 5.19881 5.46978 5.19881C5.46978 5.19881 4.67353 5.61756 4.67353 5.61756C4.49471 5.71107 4.27836 5.69521 4.1151 5.5766C3.95184 5.458 3.86987 5.25715 3.90353 5.05818C3.90353 5.05818 4.05572 4.17131 4.05572 4.17131C4.05572 4.17131 3.41165 3.54349 3.41165 3.54349C3.26632 3.403 3.21412 3.19177 3.27728 2.99974C3.27728 2.99974 3.27728 2.99974 3.27728 2.99974ZM9.70985 6.88368C9.88243 6.88368 10.0223 7.02359 10.0223 7.19618C10.0223 7.36877 9.88243 7.50868 9.70985 7.50868C9.70985 7.50868 1.23047 7.50868 1.23047 7.50868C1.05788 7.50868 0.917969 7.36877 0.917969 7.19618C0.917969 7.02359 1.05788 6.88368 1.23047 6.88368C1.23047 6.88368 9.70985 6.88368 9.70985 6.88368Z" fill="#EC1E24" transform="translate(4.531 3.906)" />
  </g>
</svg>