<?xml version="1.0" encoding="utf-8"?>
<svg width="14.473" height="19" viewBox="0 0 14.473 19" fill="none" xmlns="http://www.w3.org/2000/svg">
  <g>
    <path d="M0.556641 0C0.249523 0 0 0.249523 0 0.556641C0 0.863758 0.249523 1.11328 0.556641 1.11328C0.863758 1.11328 1.11328 0.863758 1.11328 0.556641C1.11328 0.249523 0.863758 0 0.556641 0C0.556641 0 0.556641 0 0.556641 0Z" fill="#EC1E24" fill-rule="evenodd" transform="translate(10.02 10.094)" />
    <path d="M0.556641 0C0.249523 0 0 0.249524 0 0.556641C0 0.863758 0.249523 1.11328 0.556641 1.11328C0.863758 1.11328 1.11328 0.863758 1.11328 0.556641C1.11328 0.249524 0.863758 0 0.556641 0C0.556641 0 0.556641 0 0.556641 0Z" fill="#EC1E24" fill-rule="evenodd" transform="translate(3.34 5.566)" />
    <path d="M12.8027 1.11328C12.8027 1.11328 12.1436 1.11328 12.1436 1.11328C11.913 0.466762 11.3009 0 10.5762 0C10.5762 0 3.89649 0 3.89649 0C3.17174 0 2.55966 0.466762 2.3291 1.11328C2.3291 1.11328 1.66992 1.11328 1.66992 1.11328C0.74909 1.11328 0 1.86237 0 2.7832C0 2.7832 0 17.3301 0 17.3301C0 18.2509 0.74909 19 1.66992 19C1.66992 19 12.8027 19 12.8027 19C13.7236 19 14.4727 18.2509 14.4727 17.3301C14.4727 17.3301 14.4727 2.7832 14.4727 2.7832C14.4727 1.86237 13.7236 1.11328 12.8027 1.11328C12.8027 1.11328 12.8027 1.11328 12.8027 1.11328ZM3.89695 1.11328C3.89695 1.11328 10.5766 1.11328 10.5766 1.11328C10.8838 1.11328 11.1407 1.3628 11.1407 1.66992C11.1407 1.97704 10.8838 2.22656 10.5766 2.22656C10.5766 2.22656 3.89695 2.22656 3.89695 2.22656C3.58983 2.22656 3.37 1.97704 3.37 1.66992C3.37 1.3628 3.58983 1.11328 3.89695 1.11328C3.89695 1.11328 3.89695 1.11328 3.89695 1.11328ZM10.5766 16.7806C9.85189 16.7806 9.23981 16.3065 9.00925 15.6599C9.00925 15.6599 8.35008 15.6599 8.35008 15.6599C5.58754 15.6599 3.34031 13.4127 3.34031 10.6502C3.34031 10.6502 3.34031 7.69021 3.34031 7.69021C2.69379 7.45965 2.25671 6.84756 2.25671 6.12282C2.25671 5.20198 2.97612 4.47516 3.89695 4.47516C4.81778 4.47516 5.57429 5.20198 5.57429 6.12282C5.57429 6.84756 5.10753 7.46707 4.46101 7.69763C4.46101 7.69763 4.46101 10.6576 4.46101 10.6576C4.46101 12.8059 6.20178 14.5467 8.35008 14.5467C8.35008 14.5467 9.00925 14.5467 9.00925 14.5467C9.23981 13.9001 9.85189 13.4631 10.5766 13.4631C11.4975 13.4631 12.254 14.1899 12.254 15.1107C12.254 16.0315 11.4975 16.7806 10.5766 16.7806C10.5766 16.7806 10.5766 16.7806 10.5766 16.7806ZM10.5766 12.3282C9.65581 12.3282 8.9364 11.5717 8.9364 10.6509C8.9364 9.73002 9.65581 9.01062 10.5766 9.01062C11.4975 9.01062 12.254 9.73002 12.254 10.6509C12.254 11.5717 11.4975 12.3282 10.5766 12.3282C10.5766 12.3282 10.5766 12.3282 10.5766 12.3282ZM10.5766 7.80086C9.65581 7.80086 8.9364 7.04435 8.9364 6.12351C8.9364 5.20268 9.65581 4.48328 10.5766 4.48328C11.4975 4.48328 12.254 5.20268 12.254 6.12351C12.254 7.04435 11.4975 7.80086 10.5766 7.80086C10.5766 7.80086 10.5766 7.80086 10.5766 7.80086Z" fill="#EC1E24" />
    <path d="M0.556641 0C0.249523 0 0 0.249523 0 0.556641C0 0.863758 0.249523 1.11328 0.556641 1.11328C0.863758 1.11328 1.11328 0.863758 1.11328 0.556641C1.11328 0.249523 0.863758 0 0.556641 0C0.556641 0 0.556641 0 0.556641 0Z" fill="#EC1E24" fill-rule="evenodd" transform="translate(10.02 14.547)" />
    <path d="M0.556641 0C0.249523 0 0 0.249524 0 0.556641C0 0.863758 0.249523 1.11328 0.556641 1.11328C0.863758 1.11328 1.11328 0.863758 1.11328 0.556641C1.11328 0.249524 0.863758 0 0.556641 0C0.556641 0 0.556641 0 0.556641 0Z" fill="#EC1E24" fill-rule="evenodd" transform="translate(10.02 5.566)" />
  </g>
</svg>