<?xml version="1.0" encoding="utf-8"?>
<svg width="18" height="18" viewBox="0 0 18 18" fill="none" xmlns="http://www.w3.org/2000/svg">
  <path d="M14.0426 16.7798C13.9465 17.0235 13.8007 17.2466 13.6114 17.4349C13.2494 17.7969 12.7572 18 12.2446 18C12.2446 18 1.93336 18 1.93336 18C1.42073 18 0.928604 17.7969 0.566528 17.4349C0.203888 17.0737 0 16.5831 0 16.0714C0 16.0714 0 1.92859 0 1.92859C0 1.41687 0.203888 0.926331 0.566528 0.565063C0.928604 0.203125 1.42073 0 1.93336 0C1.93336 0 12.2446 0 12.2446 0C12.7572 0 13.2494 0.203125 13.6114 0.565063C13.9741 0.926331 14.178 1.41687 14.178 1.92859C14.178 1.92859 14.178 5.14417 14.178 5.14417C13.1006 4.33606 11.7613 3.85712 10.3112 3.85712C9.42659 3.85712 8.58295 4.03522 7.81546 4.35791C7.96191 4.23962 8.05566 4.05963 8.05566 3.85712C8.05566 3.50226 7.76683 3.21429 7.41121 3.21429C7.41121 3.21429 3.22226 3.21429 3.22226 3.21429C2.86665 3.21429 2.57782 3.50226 2.57782 3.85712C2.57782 4.21198 2.86665 4.5 3.22226 4.5C3.22226 4.5 7.41121 4.5 7.41121 4.5C7.44812 4.5 7.48444 4.49677 7.51959 4.49097C6.84233 4.81628 6.23128 5.25665 5.71043 5.78571C5.71043 5.78571 3.22226 5.78571 3.22226 5.78571C2.86664 5.78571 2.5778 6.07373 2.5778 6.42859C2.5778 6.78345 2.86664 7.07141 3.22226 7.07141C3.22226 7.07141 4.73029 7.07141 4.73029 7.07141C4.49594 7.47449 4.30495 7.90521 4.16199 8.35712C4.16199 8.35712 3.22226 8.35712 3.22226 8.35712C2.86664 8.35712 2.5778 8.64514 2.5778 9C2.5778 9.35486 2.86664 9.64288 3.22226 9.64288C3.22226 9.64288 3.89835 9.64288 3.89835 9.64288C3.87726 9.85437 3.86671 10.0691 3.86671 10.2857C3.86671 10.5024 3.87726 10.7171 3.89835 10.9286C3.89835 10.9286 3.22226 10.9286 3.22226 10.9286C2.86664 10.9286 2.5778 11.2166 2.5778 11.5714C2.5778 11.9263 2.86664 12.2143 3.22226 12.2143C3.22226 12.2143 4.16199 12.2143 4.16199 12.2143C4.30495 12.6662 4.49594 13.0969 4.73029 13.5C4.73029 13.5 3.22226 13.5 3.22226 13.5C2.86664 13.5 2.5778 13.788 2.5778 14.1429C2.5778 14.4977 2.86664 14.7857 3.22226 14.7857C3.22226 14.7857 5.71043 14.7857 5.71043 14.7857C6.88042 15.9756 8.5103 16.7143 10.3112 16.7143C11.3746 16.7143 12.3776 16.4572 13.2623 16.0013C13.2623 16.0013 14.0426 16.7798 14.0426 16.7798ZM15.2801 14.3777C15.2801 14.3777 17.8117 16.9028 17.8117 16.9028C18.063 17.1535 18.063 17.5611 17.8117 17.8118C17.5597 18.0625 17.1514 18.0625 16.9001 17.8118C16.9001 17.8118 14.3644 15.2828 14.3644 15.2828C14.699 15.0121 15.006 14.7087 15.2801 14.3776C15.2801 14.3776 15.2801 14.3777 15.2801 14.3777ZM10.3118 5.14288C13.1573 5.14288 15.4674 7.44751 15.4674 10.2857C15.4674 13.1239 13.1573 15.4286 10.3118 15.4286C7.4662 15.4286 5.15614 13.1239 5.15614 10.2857C5.15614 7.44751 7.4662 5.14288 10.3118 5.14288C10.3118 5.14288 10.3118 5.14288 10.3118 5.14288ZM8.16357 11.0217C8.16357 11.0217 9.57317 12.4276 9.57317 12.4276C9.70206 12.5562 9.879 12.6243 10.0612 12.6153C10.2428 12.6063 10.4121 12.5208 10.5275 12.38C10.5275 12.38 13.0649 9.28662 13.0649 9.28662C13.2905 9.01208 13.2495 8.60645 12.9747 8.38208C12.6994 8.1571 12.2928 8.19763 12.0678 8.47211C12.0678 8.47211 9.98094 11.0165 9.98094 11.0165C9.98094 11.0165 9.0746 10.1121 9.0746 10.1121C8.82327 9.86133 8.41492 9.86133 8.16359 10.1121C7.91167 10.3634 7.91167 10.7703 8.16359 11.0217C8.16359 11.0217 8.16357 11.0217 8.16357 11.0217Z" fill="#EC1E24" fill-rule="evenodd" />
</svg>