<?xml version="1.0" encoding="utf-8"?>
<svg width="22" height="22" viewBox="0 0 22 22" fill="none" xmlns="http://www.w3.org/2000/svg">
  <g>
    <g transform="translate(6.64 1.377)">
      <path d="M8.21552 10.3178C7.84427 10.4621 6.66865 10.8059 6.1324 10.4999C5.98219 10.4127 5.8845 10.2572 5.87115 10.084C5.70271 9.0115 6.50365 6.53306 6.93677 5.20275C7.08115 4.75931 7.18428 4.43619 7.22552 4.24025C7.53834 2.79307 7.38365 1.68619 6.7649 0.950567C6.02048 0.0655146 4.69959 -0.106677 3.61615 0.05338C2.51441 0.200221 1.43776 0.496271 0.415831 0.933381C0.319562 0.979939 0.250802 1.06907 0.230206 1.17401C0.230206 1.17401 0.00676894 2.24307 0.00676894 2.24307C-0.0178068 2.36548 0.0255586 2.49164 0.120206 2.57307C0.215974 2.65262 0.346457 2.67611 0.463956 2.63494C0.873018 2.48369 2.15177 2.14338 2.60895 2.56276C2.86677 2.79994 2.79458 3.30182 2.69147 3.67651C2.58491 4.06838 2.4577 4.49119 2.3271 4.93463C1.48147 7.81182 0.518972 11.074 2.04522 12.0915C2.76733 12.6428 3.64626 12.9498 4.55459 12.9681C5.44834 12.9681 6.55178 12.6862 8.13991 12.0434C8.23685 12.0057 8.31144 11.926 8.34272 11.8268C8.34272 11.8268 8.66928 10.7371 8.66928 10.7371C8.707 10.6104 8.66972 10.4732 8.57303 10.3831C8.47629 10.2944 8.33734 10.2691 8.21551 10.3178C8.21551 10.3178 8.21552 10.3178 8.21552 10.3178Z" fill="#EC1E24" fill-rule="evenodd" transform="translate(0 6.278)" />
      <path d="M2.48531 1.3113e-06C1.11221 0.000950202 -0.000315905 1.1145 0 2.4876C0.00031662 3.86071 1.11336 4.97375 2.48646 4.97406C3.85956 4.97438 4.97311 3.86185 4.97406 2.48875C4.97359 1.11441 3.85959 0.000439778 2.48528 0C2.48528 0 2.48531 1.3113e-06 2.48531 1.3113e-06Z" fill="#EC1E24" fill-rule="evenodd" transform="translate(3.743 0)" />
    </g>
  </g>
</svg>