<?xml version="1.0" encoding="utf-8"?>
<svg width="20" height="20" viewBox="0 0 20 20" fill="none" xmlns="http://www.w3.org/2000/svg">
  <path d="M4.99982 11.3727C4.99982 11.3727 4.99982 17.8434 4.99982 17.8434C4.99982 19.0345 4.04045 20.0002 2.85704 20.0002C2.85704 20.0002 2.14278 20.0002 2.14278 20.0002C0.959351 20.0002 0 19.0345 0 17.8434C0 17.8434 0 11.3727 0 11.3727C0 10.1815 0.959351 9.21582 2.14278 9.21582C2.14278 9.21582 2.85704 9.21582 2.85704 9.21582C4.04045 9.21582 4.99982 10.1815 4.99982 11.3727C4.99982 11.3727 4.99982 11.3727 4.99982 11.3727ZM19.1129 13.7664C18.5544 13.3623 17.837 13.2526 17.1844 13.4717C15.6606 13.9871 14.0636 14.2494 12.4561 14.2482C12.4561 14.2482 11.8989 14.2482 11.8989 14.2482C12.0597 13.9117 12.1427 13.543 12.1418 13.1697C12.1418 11.7799 11.0225 10.6533 9.64188 10.6533C9.64188 10.6533 6.35628 10.6533 6.35628 10.6533C6.40549 10.8898 6.42944 11.1307 6.4277 11.3723C6.4277 11.3723 6.4277 17.8429 6.4277 17.8429C6.42714 18.3374 6.32751 18.8264 6.13477 19.281C6.13477 19.281 11.2989 19.281 11.2989 19.281C13.8421 19.2766 16.35 18.6812 18.6272 17.5411C18.6272 17.5411 18.82 17.4406 18.82 17.4406C19.4882 17.1019 19.9327 16.437 19.9925 15.6864C20.0523 14.9358 19.7189 14.2081 19.1129 13.7666C19.1129 13.7666 19.1129 13.7664 19.1129 13.7664ZM8.42856 3.88098L14.4283 3.88098C14.4283 3.88098 15.1926 2.59399 15.1926 2.59399C15.3159 2.39319 15.3803 2.16138 15.3783 1.92542C15.3838 1.43079 15.1057 0.977295 14.664 0.76062C12.6196 -0.25354 10.223 -0.25354 8.17857 0.76062C7.85809 0.922241 7.61967 1.21167 7.52145 1.55872C7.41986 1.90686 7.46643 2.28174 7.65002 2.59399C7.65002 2.59399 8.42856 3.88098 8.42856 3.88098ZM13.5695 12.7678C14.6473 12.6709 15.7096 12.4441 16.7336 12.0919C16.7336 12.0919 16.9979 12.0128 16.9979 12.0128C17.0997 11.5674 17.1477 11.1111 17.1408 10.6541C17.1602 10.374 17.1602 10.0929 17.1408 9.81287C17.1408 9.58997 17.0693 9.36707 17.0265 9.14417C16.8027 8.11304 16.3805 7.13611 15.7837 6.26831C15.5679 5.93555 15.3292 5.61853 15.0694 5.31934C15.0694 5.31934 7.85539 5.31934 7.85539 5.31934C6.86752 6.396 6.17787 7.71497 5.85547 9.14417C5.85547 9.14417 5.85547 9.19458 5.85547 9.21606C5.85547 9.21606 9.64104 9.21606 9.64104 9.21606C11.6623 9.20886 13.3604 10.7441 13.5695 12.7677C13.5695 12.7677 13.5695 12.7678 13.5695 12.7678Z" fill="#EC1E24" />
</svg>