<?xml version="1.0" encoding="utf-8"?>
<svg width="19.513" height="21.001" viewBox="0 0 19.513 21.001" fill="none" xmlns="http://www.w3.org/2000/svg">
  <path d="M5.00214 9.38672L3.18391 8.32349L0 13.7758L1.81856 14.8358L5.00214 9.38672ZM9.75128 0.78833C10.512 0.788574 11.1977 1.24683 11.4889 1.94958C11.78 2.65247 11.6193 3.46143 11.0816 3.99951C11.0216 4.05884 10.9583 4.11475 10.8919 4.16687C11.2663 4.31787 11.606 4.54358 11.8903 4.8302C12.3845 5.32251 12.6924 5.97107 12.7613 6.66516C14.1833 5.052 14.0806 2.60461 12.5285 1.11621C10.9763 -0.37207 8.52681 -0.37207 6.9747 1.11621C5.42258 2.60461 5.3199 5.052 6.74188 6.66516C6.81088 5.97107 7.11867 5.32251 7.61267 4.8302C7.89696 4.54358 8.23668 4.31787 8.61108 4.16687C8.54489 4.11462 8.48166 4.05872 8.42166 3.99951C7.88414 3.46143 7.72343 2.65271 8.0144 1.94995C8.30539 1.24731 8.99083 0.788818 9.75139 0.78833C9.75139 0.78833 9.75128 0.78833 9.75128 0.78833ZM10.6508 1.76794C11.0823 2.19775 11.1499 2.87268 10.8123 3.37964C10.4747 3.88647 9.82584 4.08411 9.26291 3.85168C8.69997 3.61914 8.37982 3.02112 8.49835 2.42371C8.6169 1.82629 9.14108 1.39587 9.75017 1.39587C10.0877 1.39624 10.4114 1.53003 10.6508 1.76794C10.6508 1.76794 10.6508 1.76794 10.6508 1.76794ZM12.1553 7.2229C10.7295 8.28906 8.77182 8.28906 7.34598 7.2229C7.34381 7.20117 7.34225 7.17957 7.34041 7.15466C7.33578 7.09583 7.33351 7.03381 7.33359 6.96875C7.33359 5.63367 8.41589 4.55139 9.75098 4.55139C11.0861 4.55139 12.1684 5.63367 12.1684 6.96875C12.1684 7.03381 12.1656 7.09595 12.1612 7.15466C12.1597 7.17932 12.1575 7.20117 12.1553 7.2229C12.1553 7.2229 12.1553 7.2229 12.1553 7.2229ZM2.61421 14.6772L5.21973 10.217C5.21973 10.217 6.1434 10.7004 6.1434 10.7004C6.186 10.7261 6.23419 10.741 6.28383 10.7439C6.28383 10.7439 7.4604 10.8059 7.4604 10.8059C7.4604 10.8059 6.47845 11.6769 6.47845 11.6769C6.41216 11.7345 6.37482 11.8185 6.37648 11.9063C6.37648 11.9063 6.38736 14.5812 6.38736 14.5812C6.38748 14.6743 6.41345 14.7655 6.46234 14.8447C6.51192 14.925 6.58344 14.9896 6.66849 15.0306C6.98431 15.1887 7.29364 15.226 7.59618 15.1484C7.88231 15.0741 8.14948 14.8942 8.39775 14.6122C8.59146 14.4263 8.74179 14.1721 8.8472 13.8528C8.95259 13.5096 9.01413 13.1545 9.03036 12.7959C9.06409 12.704 9.12294 12.6234 9.20023 12.5634C9.25421 12.5212 9.31624 12.4907 9.38249 12.4735C9.38249 12.4735 14.702 17.6995 14.702 17.6995C14.7074 17.7056 14.7138 17.7108 14.7209 17.715C14.9036 17.8876 14.9139 18.1749 14.7441 18.3604C14.5743 18.5457 14.2872 18.5605 14.0992 18.3937C14.0992 18.3937 11.3163 15.9016 11.3163 15.9016C11.2362 15.8286 11.1231 15.8042 11.0199 15.8376C10.9168 15.871 10.8395 15.9572 10.8173 16.0632C10.7952 16.1694 10.8316 16.2792 10.9128 16.3511C10.9128 16.3511 13.2957 18.4836 13.2957 18.4836C13.3857 18.5663 13.4399 18.6808 13.4467 18.8029C13.4545 18.9242 13.4131 19.0436 13.3318 19.134C13.2505 19.2245 13.1361 19.2783 13.0146 19.2833C12.8929 19.292 12.773 19.2505 12.6826 19.1685C12.6826 19.1685 12.3033 18.8306 12.3033 18.8306C12.3033 18.8306 12.3039 18.8306 12.3039 18.8306C12.2938 18.8191 12.2826 18.8087 12.2704 18.7996C12.2704 18.7996 10.0876 16.8468 10.0876 16.8468C10.0076 16.7732 9.89412 16.7484 9.7906 16.7817C9.68709 16.8151 9.60948 16.9015 9.58743 17.0079C9.5654 17.1145 9.60231 17.2246 9.68408 17.2963C9.68408 17.2963 11.8675 19.2521 11.8675 19.2521C11.8699 19.2552 11.8721 19.2583 11.8749 19.2583C11.8749 19.2583 11.8752 19.2583 11.8752 19.2583C11.8752 19.2583 11.8882 19.2706 11.8882 19.2706C12.0686 19.4355 12.09 19.7123 11.9369 19.903C11.9369 19.903 11.9338 19.906 11.9338 19.906L11.9341 19.906C11.9341 19.906 11.9232 19.9183 11.9232 19.9183C11.7591 20.1007 11.4808 20.1226 11.2903 19.9679C11.2903 19.9679 11.2872 19.9648 11.2872 19.9648L11.2742 19.9556C11.2742 19.9556 11.0656 19.7665 11.0656 19.7665C11.0628 19.7633 11.0606 19.7633 11.0581 19.7603C11.0581 19.7603 11.0578 19.7603 11.0578 19.7603C11.0578 19.7603 9.17545 18.0745 9.17545 18.0745C9.05029 17.9646 8.86002 17.9763 8.74921 18.1006C8.63838 18.2247 8.6485 18.4152 8.77185 18.527C8.77185 18.527 10.6291 20.1884 10.6291 20.1884C10.6291 20.1884 10.6285 20.1884 10.6285 20.1884C10.6371 20.1976 10.6468 20.2059 10.6573 20.213C10.826 20.3818 10.8396 20.651 10.6886 20.8359C10.6886 20.8359 10.688 20.8359 10.688 20.8359C10.679 20.8452 10.6706 20.8546 10.6629 20.8639C10.4905 21.038 10.2123 21.0475 10.0284 20.8856C10.0284 20.8856 8.93858 19.9092 8.93858 19.9092C8.95981 19.824 8.97063 19.7366 8.97081 19.6488C8.97137 19.3691 8.86115 19.1006 8.66425 18.9019C8.66425 18.9019 8.65527 18.8926 8.65527 18.8926C8.53476 18.7701 8.38496 18.6804 8.22009 18.6322C8.30949 18.472 8.35654 18.2917 8.3568 18.1083C8.35739 17.8258 8.24538 17.5548 8.04558 17.3551C7.91562 17.224 7.75313 17.1299 7.57475 17.0824C7.63754 16.943 7.67009 16.792 7.67024 16.6392C7.67024 16.2352 7.44188 15.866 7.08041 15.6853C6.71895 15.5048 6.28647 15.5439 5.96339 15.7866C5.91142 15.6333 5.82434 15.4943 5.70911 15.3806C5.50961 15.1802 5.23851 15.0675 4.95575 15.0675C4.67299 15.0675 4.40187 15.1802 4.20239 15.3806C4.20239 15.3806 3.73892 15.8424 3.73892 15.8424C3.73892 15.8424 3.33192 15.1605 3.33192 15.1605C3.30479 15.1154 3.26646 15.078 3.22064 15.052C3.22064 15.052 2.61406 14.677 2.61406 14.677L2.61421 14.6772ZM15.7186 9.55994C15.7217 9.56934 15.7242 9.57861 15.7264 9.58459C15.7264 9.58459 17.5052 15.1422 17.5052 15.1422L19.5126 14.4974L17.5871 8.48755L15.5805 9.12915L15.7187 9.55981C15.7187 9.55981 15.7186 9.55994 15.7186 9.55994ZM15.2304 10.0255C15.2304 10.0255 13.9419 10.3199 13.9419 10.3199C13.9021 10.3286 13.861 10.3297 13.8207 10.323C13.8207 10.323 9.83989 9.65662 9.83989 9.65662C9.7946 9.64929 9.74828 9.65137 9.70384 9.66284C9.66066 9.6759 9.6208 9.69812 9.58699 9.72791C9.58699 9.72791 6.98087 12.0403 6.98087 12.0403C6.98087 12.0403 6.99107 14.5137 6.99107 14.5137C7.13219 14.5793 7.29099 14.5968 7.44298 14.5634C7.61115 14.5168 7.78055 14.399 7.94977 14.2037C7.95691 14.1945 7.96371 14.1882 7.97147 14.179C7.97147 14.179 7.97118 14.179 7.97118 14.179C8.09422 14.0641 8.19373 13.8907 8.26904 13.6614C8.35274 13.4103 8.40511 13.0972 8.42616 12.722C8.42743 12.699 8.43156 12.676 8.43848 12.6539C8.57516 12.1903 8.99368 11.8667 9.4767 11.851C9.55983 11.8481 9.6405 11.8795 9.69986 11.9377C9.69986 11.9377 14.497 16.6493 14.497 16.6493L16.7876 14.8887L15.2304 10.0255ZM7.58218 19.3235C7.58218 19.3235 7.17429 19.7327 7.17429 19.7327C7.08821 19.8177 7.04016 19.934 7.04103 20.0549C7.04071 20.1768 7.08862 20.2938 7.17429 20.3805C7.35379 20.5581 7.64284 20.5581 7.82234 20.3805C7.82234 20.3805 8.229 19.9744 8.229 19.9744C8.40509 19.7952 8.40425 19.5076 8.22713 19.3293C8.04999 19.1511 7.76247 19.1484 7.58211 19.3235C7.58211 19.3235 7.58218 19.3235 7.58218 19.3235ZM7.15117 18.8962L7.15302 18.8962C7.15302 18.8962 7.61568 18.4314 7.61568 18.4314C7.70161 18.3462 7.74965 18.23 7.74893 18.109C7.74988 17.9873 7.70209 17.8704 7.61621 17.7842C7.53033 17.698 7.41354 17.6499 7.29189 17.6504C7.17047 17.6494 7.05377 17.6974 6.96828 17.7837C6.96828 17.7837 6.09698 18.6547 6.09698 18.6547C5.91959 18.834 5.91919 19.1227 6.09607 19.3025C6.09607 19.3025 6.09854 19.3055 6.09854 19.3055C6.18481 19.3895 6.30054 19.4362 6.42088 19.4358C6.54248 19.4368 6.65935 19.3887 6.7451 19.3025C6.7451 19.3025 7.15117 18.8964 7.15117 18.8964L7.15117 18.8962ZM6.53851 17.3555L6.53885 17.3555C6.53885 17.3555 6.92908 16.9618 6.92908 16.9618C7.01544 16.8768 7.06375 16.7605 7.06299 16.6394C7.06367 16.5177 7.0157 16.4008 6.92972 16.3146C6.84373 16.2284 6.72688 16.1802 6.60516 16.1807C6.48393 16.1813 6.36769 16.229 6.28114 16.314C6.28114 16.314 5.70923 16.8873 5.70923 16.8873C5.70923 16.8873 5.01991 17.5754 5.01991 17.5754C4.93416 17.6621 4.88614 17.7791 4.88632 17.9009C4.88737 18.0856 4.99913 18.2516 5.16983 18.3219C5.34052 18.3923 5.53679 18.3535 5.66771 18.2233C5.66771 18.2233 5.66805 18.2233 5.66805 18.2233L6.53868 17.3553L6.53851 17.3555ZM5.28011 16.4573C5.36607 16.3721 5.41412 16.256 5.41341 16.1349C5.41348 15.9496 5.30208 15.7826 5.13107 15.7114C4.96005 15.6403 4.76302 15.679 4.63165 15.8096C4.63165 15.8096 3.94229 16.5007 3.94229 16.5007C3.85622 16.5858 3.80815 16.7021 3.80899 16.8231C3.80811 16.9448 3.85599 17.0619 3.94194 17.1479C4.02791 17.2341 4.14478 17.2823 4.26649 17.2817C4.38773 17.2811 4.50395 17.2333 4.59052 17.1484C4.59052 17.1484 5.28011 16.4573 5.28011 16.4573Z" fill="#EC1E24" fill-rule="evenodd" />
</svg>