<?xml version="1.0" encoding="utf-8"?>
<svg width="18.375" height="15.208" viewBox="0 0 18.375 15.208" fill="none" xmlns="http://www.w3.org/2000/svg">
  <path d="M18.2109 14.1094C18.2109 14.1094 16.1208 11.7048 16.1208 11.7048C17.0166 10.3103 17.4766 8.60864 17.285 6.7876C16.8722 2.87964 13.4118 0 9.4828 0C9.4828 0 8.09549 0 8.09549 0C3.66843 0 0.0780945 3.27539 0.00131226 7.46155C-0.0767822 11.7266 3.35738 15.2079 7.60397 15.2079C7.60397 15.2079 8.6638 15.2079 8.6638 15.2079L9.72365 15.2079C9.72365 15.2079 17.7102 15.2079 17.7102 15.2079C18.2792 15.2079 18.5844 14.5386 18.2109 14.1094C18.2109 14.1094 18.2109 14.1094 18.2109 14.1094ZM11.8499 7.11108L10.628 8.30212C10.628 8.30212 10.9174 9.98938 10.9174 9.98938C10.9889 10.4054 10.5525 10.7224 10.1785 10.5261C10.1785 10.5261 8.66316 9.72949 8.66316 9.72949C8.66316 9.72949 7.14789 10.5261 7.14789 10.5261C6.77448 10.7224 6.33807 10.4054 6.40895 9.98938C6.40895 9.98938 6.69835 8.30212 6.69835 8.30212C6.69835 8.30212 5.47247 7.10706 5.47247 7.10706C5.17059 6.8125 5.33728 6.29932 5.75467 6.23889C5.75467 6.23889 7.44844 5.9928 7.44844 5.9928C7.44844 5.9928 8.20576 4.45776 8.20576 4.45776C8.39279 4.0791 8.93222 4.0791 9.11861 4.45776C9.11861 4.45776 9.87592 5.9928 9.87592 5.9928C9.87592 5.9928 11.5645 6.23828 11.5645 6.23828C11.9864 6.29858 12.1538 6.81506 11.8499 7.11108C11.8499 7.11108 11.8499 7.11108 11.8499 7.11108Z" fill="#EC1E24" />
</svg>