<svg width="19" height="20" viewBox="0 0 19 20" fill="none" xmlns="http://www.w3.org/2000/svg">
<path fill-rule="evenodd" clip-rule="evenodd" d="M18.1096 4.12146C18.1096 3.88844 17.9743 3.67799 17.7671 3.58829L9.7143 0.044861C9.57733 -0.0149537 9.42292 -0.0149537 9.28595 0.044861L1.2331 3.58829C1.026 3.67799 0.890625 3.88844 0.890625 4.12146C0.890625 4.35448 1.02596 4.56493 1.2331 4.65463L9.28595 8.12103C9.35445 8.15092 9.4273 8.16559 9.50011 8.16559C9.57295 8.16559 9.6458 8.15092 9.71426 8.12103L16.7734 5.08435V8.60682L15.7189 10.7959C15.5814 11.0814 15.6928 11.4284 15.9678 11.5711C16.2423 11.7121 16.5772 11.5982 16.7147 11.3127L17.3301 10.0354L17.9454 11.3127C18.0824 11.5962 18.4147 11.7141 18.6923 11.5711C18.9674 11.4284 19.0788 11.0814 18.9413 10.7959L17.8867 8.60682V4.55237C18.0152 4.44449 18.1096 4.29848 18.1096 4.12146V4.12146Z" fill="#515151"/>
<path fill-rule="evenodd" clip-rule="evenodd" d="M14.5487 9.8987V7.29883L10.1444 9.18724C9.9427 9.27583 9.72528 9.32097 9.50188 9.32097C9.27849 9.32097 9.06103 9.27583 8.85612 9.18613L4.49219 7.29883V9.8987C4.49219 10.108 4.60144 10.301 4.77755 10.4031C4.86398 10.4533 6.92742 11.6319 9.50188 11.6319C12.0763 11.6319 14.1769 10.4533 14.2633 10.4031C14.4394 10.301 14.5487 10.108 14.5487 9.8987V9.8987Z" fill="#515151"/>
<ellipse cx="17.8867" cy="15.6758" rx="1.11327" ry="2.88866" fill="#515151"/>
<path fill-rule="evenodd" clip-rule="evenodd" d="M8.38676 18.3702C8.38676 18.496 8.42639 18.6186 8.49968 18.719L9.10637 19.5504C9.32379 19.7761 9.67618 19.7761 9.89364 19.5504L10.5003 18.719C10.5737 18.6186 10.6133 18.496 10.6133 18.3702V13.9424H8.38672V18.3702H8.38676Z" fill="#515151"/>
<path fill-rule="evenodd" clip-rule="evenodd" d="M11.7266 13.7418V17.6092L16.1705 18.3715C15.8493 17.68 15.6601 16.7648 15.6601 15.6755C15.6601 14.5862 15.8493 13.671 16.1705 12.9795L11.7266 13.7418V13.7418Z" fill="#515151"/>
<path fill-rule="evenodd" clip-rule="evenodd" d="M1.66526 18.5627C1.66667 18.5627 1.6679 18.5634 1.66934 18.5634C1.66949 18.5634 1.66983 18.5634 1.6699 18.5634C1.67016 18.5634 1.67038 18.5633 1.67064 18.5633C1.74185 18.5633 1.06721 18.6789 7.27334 17.6084V13.7411C7.16053 13.7217 1.36164 12.7317 1.72887 12.7949C0.524089 12.7308 0 14.4166 0 15.6748C1.61945e-07 17.3189 0.71583 18.5584 1.66526 18.5627V18.5627Z" fill="#515151"/>
</svg>
