<svg width="8" height="8" viewBox="0 0 8 8" fill="none" xmlns="http://www.w3.org/2000/svg">
<path fill-rule="evenodd" clip-rule="evenodd" d="M7.56923 5.01741C7.25997 4.80398 6.86497 4.75787 6.51487 4.89434L6.46974 4.91485L6.08 5.14459C5.7662 5.3285 5.42774 5.46665 5.07487 5.55485C5.11142 5.46072 5.12952 5.36043 5.1282 5.25946C5.11485 4.81936 4.79764 4.44758 4.36513 4.3651C3.5841 4.19273 2.77488 4.19273 1.99385 4.3651L1.72308 4.41023C1.58675 4.21689 1.36478 4.10208 1.1282 4.10254H0.717949C0.322369 4.10478 0.00224118 4.42491 0 4.82049V7.28203C0.00224422 7.67761 0.322374 7.99774 0.717954 7.99998H1.12821C1.37784 7.9985 1.609 7.86818 1.73949 7.65536L4.27488 7.90562C4.37598 7.91163 4.47736 7.91163 4.57846 7.90562C5.13475 7.90858 5.68066 7.75504 6.15385 7.46254L7.41333 6.67895C7.76383 6.52191 7.99231 6.17679 8 5.7928C7.99298 5.47914 7.83184 5.18908 7.56923 5.01741ZM1.23084 7.28209C1.23084 7.33874 1.18492 7.38466 1.12827 7.38466H0.718015C0.661371 7.38466 0.615451 7.33874 0.615451 7.28209V4.82055C0.615451 4.76391 0.661371 4.71799 0.718015 4.71799H1.12827C1.18492 4.71799 1.23084 4.76391 1.23084 4.82055V7.28209ZM7.10562 6.16218L7.14255 6.14166L7.14254 6.14166C7.28435 6.09251 7.38294 5.96322 7.3928 5.81346C7.38977 5.69516 7.3283 5.58607 7.2287 5.52218C7.08997 5.43242 6.91823 5.40982 6.76101 5.46064L6.39588 5.67397C5.40167 6.24187 4.23151 6.41886 3.11383 6.17038C2.96005 6.13575 2.85732 5.9905 2.87588 5.83397C2.8927 5.67924 3.02382 5.56229 3.17947 5.5632H4.13126C4.3199 5.57798 4.48728 5.44299 4.5128 5.25551C4.50036 5.10241 4.38216 4.97906 4.22973 4.96013C3.53801 4.80626 2.82093 4.80626 2.12921 4.96013L1.84614 5.02166V7.04833L4.33639 7.29449C4.85764 7.34989 5.38259 7.23164 5.82973 6.95808L7.10562 6.16218Z" fill="#2D982F"/>
<path fill-rule="evenodd" clip-rule="evenodd" d="M6.87137 0H5.6406C5.47067 0 5.33291 0.137759 5.33291 0.307692C5.33291 0.477626 5.47067 0.615385 5.6406 0.615385H6.12881L4.40983 2.33436L3.3965 1.32103C3.28527 1.2111 3.10982 1.20057 2.98625 1.29641L0.934964 2.93744C0.801328 3.04394 0.77931 3.2386 0.885779 3.37226C0.992249 3.50592 1.1869 3.52799 1.32059 3.42155L3.15444 1.94873L4.19238 2.98668C4.31251 3.10666 4.50713 3.10666 4.62726 2.98668L6.56367 1.05027V1.53847C6.56367 1.70841 6.70142 1.84617 6.87136 1.84617C7.04129 1.84617 7.17905 1.70841 7.17905 1.53847V0.307704C7.17684 0.138693 7.04037 0.00222094 6.87136 1.16397e-05L6.87137 0Z" fill="#69CD6A"/>
</svg>
