<svg width="7" height="9" viewBox="0 0 7 9" fill="none" xmlns="http://www.w3.org/2000/svg">
<g filter="url(#filter0_i_0_69296)">
<path fill-rule="evenodd" clip-rule="evenodd" d="M6.14726 5.34053C6.17953 6.29203 5.74672 7.20051 4.98721 7.77483C4.18319 8.3828 3.13084 8.52979 2.20033 8.18329C1.93871 8.08587 1.45666 7.77483 1.45666 7.77483L0.022605 8.20663C0.0146649 8.20901 0.00638504 8.20569 0.00230499 8.19847C-0.00177505 8.19126 -0.000335083 8.18243 0.00580505 8.17687L1.79277 6.55875C1.79835 6.5537 1.80611 6.55274 1.81274 6.55627L2.7536 7.05758C2.7605 7.06126 2.76868 7.06003 2.77422 7.05449L4.1492 5.67952C4.1533 5.67542 4.15866 5.67368 4.1644 5.67462C4.17014 5.67553 4.17466 5.67888 4.17727 5.68408L4.43593 6.2014C4.43903 6.20762 4.44509 6.21126 4.45202 6.21108C4.45898 6.2109 4.46483 6.20698 4.46763 6.2006L5.28465 4.3385C5.28753 4.33194 5.28629 4.32472 5.28139 4.3195C5.27649 4.31427 5.26937 4.31256 5.26265 4.315L3.34135 5.01101C3.33485 5.01338 3.33055 5.01891 3.32989 5.02581C3.32923 5.03271 3.33239 5.03897 3.33833 5.04251L3.84723 5.34651C3.85229 5.34953 3.85527 5.35438 3.85571 5.36025C3.85615 5.36612 3.85391 5.37136 3.84935 5.37509L2.74583 6.28071C2.73987 6.2856 2.73181 6.2861 2.72531 6.28196L1.90063 5.75717C1.89381 5.75283 1.88523 5.75362 1.87931 5.75911L0.680986 6.87184C0.676706 6.8758 0.671286 6.87734 0.665566 6.87615C0.659846 6.875 0.655466 6.87146 0.653086 6.86614L0.524806 6.57877C0.524726 6.57859 0.524666 6.57846 0.524586 6.57828C-0.130394 4.97812 0.763046 2.9162 2.45455 2.23486C2.46271 2.23156 2.47187 2.23476 2.47627 2.24238C2.48077 2.25016 2.47871 2.25998 2.47145 2.26528C2.20455 2.46038 2.04969 2.78061 2.07035 3.11908C2.09491 3.5218 2.35279 3.90558 2.74643 3.99402C3.53255 4.17064 4.15137 3.61464 3.67081 2.721C3.67069 2.72078 3.67059 2.7206 3.67045 2.72038C3.12375 1.7961 3.44881 0.890475 4.64565 0.00349564C4.65225 -0.00140434 4.66107 -0.00112434 4.66737 0.00415565C4.67367 0.00945564 4.67545 0.0181157 4.67173 0.0254756C4.39613 0.569936 4.33493 1.08964 4.48807 1.58456C4.87905 2.84814 6.07851 3.31322 6.14727 5.34054L6.14726 5.34053Z" fill="url(#paint0_linear_0_69296)"/>
</g>
<defs>
<filter id="filter0_i_0_69296" x="0" y="0" width="6.14844" height="8.36719" filterUnits="userSpaceOnUse" color-interpolation-filters="sRGB">
<feFlood flood-opacity="0" result="BackgroundImageFix"/>
<feBlend mode="normal" in="SourceGraphic" in2="BackgroundImageFix" result="shape"/>
<feColorMatrix in="SourceAlpha" type="matrix" values="0 0 0 0 0 0 0 0 0 0 0 0 0 0 0 0 0 0 127 0" result="hardAlpha"/>
<feOffset/>
<feGaussianBlur stdDeviation="2"/>
<feComposite in2="hardAlpha" operator="arithmetic" k2="-1" k3="1"/>
<feColorMatrix type="matrix" values="0 0 0 0 0 0 0 0 0 0 0 0 0 0 0 0 0 0 0.25098 0"/>
<feBlend mode="normal" in2="shape" result="effect1_innerShadow_0_69296"/>
</filter>
<linearGradient id="paint0_linear_0_69296" x1="-0.542567" y1="0.738208" x2="1.41621" y2="8.89565" gradientUnits="userSpaceOnUse">
<stop offset="0.274735" stop-color="#83FF84"/>
<stop offset="1" stop-color="#108E12"/>
</linearGradient>
</defs>
</svg>
