<svg width="248" height="8" viewBox="0 0 248 8" fill="none" xmlns="http://www.w3.org/2000/svg">
<path fill-rule="evenodd" clip-rule="evenodd" d="M4.36245 6.3077C4.77665 7.98308 4.77906 7.99009 4.78058 7.99006H4.7806L4.78812 7.98974C4.7949 7.98945 4.8052 7.98901 4.819 7.98843C4.84659 7.98726 4.88816 7.9855 4.94349 7.98316C5.05416 7.97849 5.21988 7.97152 5.43888 7.96235C5.8769 7.94402 6.52808 7.91692 7.37844 7.88197C9.07915 7.81207 11.5765 7.71075 14.7584 7.58525C21.1225 7.33426 30.2243 6.98663 41.1678 6.60034C63.0597 5.82759 92.302 4.90088 121.737 4.28329C151.203 3.66506 180.738 3.35945 203.264 3.81917C214.556 4.04964 223.881 4.46905 230.495 5.10903C233.818 5.43056 236.224 5.78647 237.796 6.14507C239.209 6.46696 239.475 6.67944 239.494 6.69289C240.145 7.64318 242.523 8.1985 244.822 7.93416C247.129 7.66873 248.481 6.67743 247.841 5.72002C246.969 4.41284 244.451 3.55677 241.973 2.99195C239.409 2.40755 236.139 1.96071 232.465 1.60522C225.086 0.891153 215.144 0.459448 203.691 0.225675C180.72 -0.243095 150.838 0.070284 121.299 0.690041C91.7297 1.31044 62.3809 2.24071 40.4328 3.01544C29.4565 3.40289 20.326 3.75162 13.9379 4.00356C10.7438 4.12953 8.23499 4.23132 6.52364 4.30166C5.66796 4.33683 5.01161 4.36414 4.56861 4.38268C4.3471 4.39195 4.17893 4.39903 4.06585 4.4038C4.0093 4.40619 3.96653 4.40799 3.93775 4.40922C3.92335 4.40983 3.91246 4.41029 3.90509 4.4106L3.89668 4.41096L3.89665 4.41096C3.89472 4.41108 4.14886 4.44746 4.56851 6.14514L3.89358 4.41109C1.51157 4.51247 -0.221371 5.39585 0.0229687 6.38418C0.267291 7.37251 2.39637 8.09153 4.77838 7.99016L4.36245 6.3077V6.3077Z" fill="#EC1E24"/>
</svg>
