<svg width="24" height="24" viewBox="0 0 24 24" fill="none" xmlns="http://www.w3.org/2000/svg">
<path d="M14.6744 13.2001H1.43805C0.855224 13.2001 0.382812 12.7266 0.382812 12.1426V1.40905C0.382812 0.825082 0.855224 0.351562 1.43805 0.351562H14.6744C15.2572 0.351562 15.7298 0.825082 15.7298 1.40905V12.1426C15.7298 12.7266 15.2572 13.2001 14.6744 13.2001V13.2001Z" fill="#D9E0ED"/>
<path d="M14.6744 0.351562H13.6182V3.33927C13.6182 7.94091 9.89532 11.6711 5.30267 11.6711H0.382812V12.1426C0.382812 12.7266 0.855224 13.1999 1.43823 13.1999H14.6746C15.2574 13.1999 15.7298 12.7266 15.7298 12.1426V1.40905C15.7298 0.825082 15.2572 0.351563 14.6744 0.351563V0.351562Z" fill="#CFD6E5"/>
<path d="M3.14813 6.44553C3.14813 6.8009 2.86047 7.08912 2.50562 7.08912C2.15094 7.08912 1.86328 6.8009 1.86328 6.44553C1.86328 6.08998 2.15094 5.80176 2.50562 5.80176C2.86047 5.80176 3.14813 6.08998 3.14813 6.44553V6.44553Z" fill="#FFA91E"/>
<path d="M5.5036 4.23978C5.5036 4.59534 5.21594 4.88356 4.86127 4.88356C4.50641 4.88356 4.21875 4.59534 4.21875 4.23978C4.21875 3.88423 4.50641 3.59619 4.86127 3.59619C5.21594 3.59619 5.5036 3.88423 5.5036 4.23978V4.23978Z" fill="#FFA91E"/>
<path d="M8.05829 5.61594C8.05829 5.9715 7.77063 6.25972 7.41577 6.25972C7.0611 6.25972 6.77344 5.9715 6.77344 5.61594C6.77344 5.26039 7.0611 4.97217 7.41577 4.97217C7.77063 4.97217 8.05829 5.26039 8.05829 5.61594V5.61594Z" fill="#FFA91E"/>
<path d="M10.0544 3.1677C10.0544 3.52307 9.76672 3.81129 9.41186 3.81129C9.05701 3.81129 8.76953 3.52307 8.76953 3.1677C8.76953 2.81215 9.05701 2.52393 9.41186 2.52393C9.76672 2.52393 10.0544 2.81215 10.0544 3.1677V3.1677Z" fill="#FFA91E"/>
<path d="M12.0036 5.22727C12.0036 5.58282 11.7159 5.87104 11.3611 5.87104C11.0062 5.87104 10.7188 5.58282 10.7188 5.22727C10.7188 4.87172 11.0062 4.5835 11.3611 4.5835C11.7159 4.5835 12.0036 4.87172 12.0036 5.22727V5.22727Z" fill="#FFA91E"/>
<path d="M14.4296 2.21976C14.4296 2.57532 14.1419 2.86354 13.787 2.86354C13.4322 2.86354 13.1445 2.57532 13.1445 2.21976C13.1445 1.86421 13.4322 1.57617 13.787 1.57617C14.1419 1.57617 14.4296 1.86421 14.4296 2.21976V2.21976Z" fill="#FFA91E"/>
<path d="M7.69824 21.475V22.8069C7.69824 23.0916 7.46735 23.323 7.18243 23.323H0.898621C0.613708 23.323 0.382812 23.0916 0.382812 22.8069V21.475C0.382812 20.3074 1.32764 19.3618 2.49292 19.3618H5.58813C6.75342 19.3618 7.69824 20.3074 7.69824 21.475V21.475Z" fill="#7885ED"/>
<path d="M4.43396 19.9053H3.65173C3.35217 19.9053 3.10938 19.662 3.10938 19.3618V18.0649H4.9765V19.3618C4.97632 19.662 4.73352 19.9053 4.43396 19.9053V19.9053Z" fill="#FCC1B9"/>
<path d="M6.00177 14.6168V16.4868C6.00177 17.5707 5.12414 18.4495 4.04181 18.4495C2.95947 18.4495 2.08203 17.5707 2.08203 16.4868V14.6168C2.08203 13.8338 2.71576 13.1997 3.49707 13.1997H4.58655C5.36841 13.1997 6.00177 13.8338 6.00177 14.6168V14.6168Z" fill="#FCC1B9"/>
<path d="M6.00177 14.6168V15.0202C6.00177 16.1039 5.12414 16.9827 4.04181 16.9827C2.95947 16.9827 2.08203 16.1039 2.08203 15.0202V14.6168C2.08203 13.8338 2.71576 13.1997 3.49707 13.1997H4.58655C5.36841 13.1997 6.00177 13.8338 6.00177 14.6168V14.6168Z" fill="#354968"/>
<path d="M15.0145 21.475V22.8069C15.0145 23.0916 14.7836 23.323 14.4987 23.323H8.21503C7.93011 23.323 7.69922 23.0916 7.69922 22.8069V21.475C7.69922 20.3076 8.64423 19.3618 9.80933 19.3618H12.9044C14.0696 19.3618 15.0145 20.3076 15.0145 21.475V21.475Z" fill="#48BBED"/>
<path d="M11.7465 19.9053H10.9642C10.6647 19.9053 10.4219 19.662 10.4219 19.3618V18.0649H12.2888V19.3618C12.2888 19.662 12.046 19.9053 11.7465 19.9053V19.9053Z" fill="#FCC1B9"/>
<path d="M13.3182 14.6168V16.487C13.3182 17.5707 12.4407 18.4495 11.3584 18.4495C10.2761 18.4495 9.39844 17.5707 9.39844 16.487V14.6168C9.39844 13.8339 10.0323 13.1997 10.8137 13.1997H11.9031C12.685 13.1997 13.3182 13.8339 13.3182 14.6168V14.6168Z" fill="#FCC1B9"/>
<path d="M13.3182 14.6168V15.0202C13.3182 16.1041 12.4407 16.9829 11.3584 16.9829C10.2761 16.9829 9.39844 16.1041 9.39844 15.0202V14.6168C9.39844 13.8339 10.0323 13.1997 10.8137 13.1997H11.9031C12.685 13.1997 13.3182 13.8339 13.3182 14.6168V14.6168Z" fill="#354968"/>
<path d="M11.2852 6.09766V6.99571C11.2852 7.47859 11.6757 7.86992 12.1573 7.86992H17.74C17.8151 7.86992 17.8753 7.93046 17.8753 8.0055V13.1909H22.2109C23.0074 13.1909 23.6536 12.5437 23.6536 11.7456V7.58647C23.6536 6.764 22.988 6.09766 22.1671 6.09766H11.2852Z" fill="#48BBED"/>
<path d="M21.0289 4.88818V6.08474C21.0289 6.56596 20.6395 6.95619 20.1586 6.95619C19.6785 6.95619 19.2891 6.56596 19.2891 6.08474V4.88818H21.0289Z" fill="#FCC1B9"/>
<path d="M21.0289 4.88818V5.50664C20.7755 5.6402 20.4869 5.7156 20.1808 5.7156C19.8567 5.7156 19.5527 5.63121 19.2891 5.48316V4.88818H21.0289Z" fill="#F9AFA7"/>
<path d="M20.1818 5.24674C21.1905 5.24674 22.0082 4.42739 22.0082 3.41669V1.30502C22.0082 0.778483 21.5822 0.351562 21.0566 0.351562H19.3071C18.7814 0.351562 18.3555 0.778483 18.3555 1.30502V3.41669C18.3553 4.42739 19.173 5.24674 20.1818 5.24674V5.24674Z" fill="#FCC1B9"/>
<path d="M18.3555 1.30521V3.01454C18.3555 2.49295 18.7731 2.06952 19.2908 2.06126C19.2961 2.06089 19.3019 2.06089 19.3073 2.06089H21.057C21.5823 2.06089 22.0084 2.48763 22.0084 3.01454V1.30521C22.0084 0.778299 21.5823 0.351563 21.057 0.351563H19.3073C18.7819 0.351379 18.3555 0.778299 18.3555 1.30521V1.30521Z" fill="#354968"/>
<path d="M17.8711 13.1909H21.8073V23.1561H17.8711V13.1909Z" fill="#354968"/>
<path d="M21.0672 14.4141V16.2845C21.0634 17.0345 20.8555 17.5076 20.6561 17.8067C20.4435 18.1255 20.2568 18.2217 20.1652 18.5679C20.0314 19.0735 20.3049 19.3382 20.1301 19.6221C19.9479 19.9178 19.4359 19.9798 19.1071 19.9053C18.4438 19.7553 17.9354 18.9174 17.8711 17.8071V13.1909H20.3663C20.7856 13.4368 21.0672 13.8921 21.0672 14.4141V14.4141Z" fill="#2A3A51"/>
<path d="M22.3312 21.475V22.8069C22.3312 23.0916 22.1002 23.323 21.8152 23.323H15.5316C15.2467 23.323 15.0156 23.0916 15.0156 22.8069V21.475C15.0156 20.3074 15.9606 19.3618 17.1259 19.3618H20.2209C21.3862 19.3618 22.3312 20.3074 22.3312 21.475V21.475Z" fill="#7885ED"/>
<path d="M19.0631 19.9053H18.2808C17.9811 19.9053 17.7383 19.662 17.7383 19.3618V18.0649H19.6054V19.3618C19.6054 19.662 19.3626 19.9053 19.0631 19.9053V19.9053Z" fill="#FCC1B9"/>
<path d="M20.6346 14.6177V16.4877C20.6346 17.5716 19.7571 18.4504 18.6748 18.4504C17.5925 18.4504 16.7148 17.5716 16.7148 16.4877V14.6177C16.7148 13.8346 17.3488 13.438 18.1299 13.438H19.2195C20.0014 13.438 20.6346 13.8346 20.6346 14.6177V14.6177Z" fill="#FCC1B9"/>
<path d="M20.6346 14.6168V15.0202C20.6346 16.1039 19.7571 16.9827 18.6748 16.9827C17.5925 16.9827 16.7148 16.1039 16.7148 15.0202V14.6168C16.7148 13.8338 17.3488 13.1997 18.1299 13.1997H19.2195C20.0014 13.1997 20.6346 13.8338 20.6346 14.6168V14.6168Z" fill="#354968"/>
<path d="M2.02698 10.4741H14.0435C14.2374 10.4741 14.3945 10.3167 14.3945 10.1224C14.3945 9.9281 14.2374 9.77051 14.0435 9.77051H2.02698C1.83307 9.77051 1.67578 9.9281 1.67578 10.1224C1.67578 10.3167 1.83307 10.4741 2.02698 10.4741V10.4741Z" fill="black"/>
<path d="M2.02698 11.8356H8.21265C8.40655 11.8356 8.56384 11.678 8.56384 11.4837C8.56384 11.2894 8.40674 11.1318 8.21265 11.1318H2.02698C1.83307 11.1318 1.67578 11.2894 1.67578 11.4837C1.67578 11.678 1.83307 11.8356 2.02698 11.8356V11.8356Z" fill="black"/>
<path fill-rule="evenodd" clip-rule="evenodd" d="M22.1605 5.75379H21.3735V5.24358C21.9633 4.85225 22.3532 4.18169 22.3532 3.42142V1.30681C22.3532 0.58635 21.7681 0.000183464 21.0491 0.000183464H19.2971C18.5779 0.000183464 17.993 0.58635 17.993 1.30681V3.42142C17.993 4.16279 18.3636 4.81849 18.9287 5.21349V5.75379H16.0682V1.41047C16.0682 0.632767 15.4367 0 14.6605 0H3.65167C3.45776 0 3.30066 0.157595 3.30066 0.351884C3.30066 0.546172 3.45776 0.703584 3.65167 0.703584H14.6605C15.0494 0.703584 15.366 1.02079 15.366 1.41047V5.75379H12.1837C12.2772 5.60188 12.3323 5.42374 12.3323 5.23257C12.3323 5.04856 12.2814 4.87683 12.1945 4.72878L13.4526 3.16548C13.5522 3.19906 13.6582 3.21796 13.769 3.21796C14.3172 3.21796 14.7632 2.77104 14.7632 2.22175C14.7632 1.67227 14.3172 1.22535 13.769 1.22535C13.2206 1.22535 12.7745 1.67227 12.7745 2.22175C12.7745 2.40338 12.824 2.57308 12.9091 2.72003L11.6483 4.28645C11.5505 4.25416 11.4463 4.23618 11.3379 4.23618C11.2015 4.23618 11.0713 4.26388 10.9528 4.31397L10.2825 3.60451C10.3462 3.47315 10.383 3.32638 10.383 3.1708C10.383 2.62133 9.93677 2.17441 9.38855 2.17441C8.84033 2.17441 8.3941 2.62133 8.3941 3.1708C8.3941 3.35243 8.44373 3.52232 8.52887 3.66909L7.70691 4.67833C7.60748 4.64475 7.50147 4.62586 7.39105 4.62586C7.14148 4.62586 6.9137 4.71906 6.73883 4.87188L5.81525 4.37488C5.82074 4.33195 5.82477 4.28865 5.82477 4.24425C5.82477 3.69478 5.37854 3.24786 4.83032 3.24786C4.2821 3.24786 3.83588 3.69478 3.83588 4.24425C3.83588 4.37855 3.86298 4.50642 3.91113 4.62347L2.91229 5.55969C2.77972 5.49401 2.63104 5.45603 2.47339 5.45603C1.92499 5.45603 1.47894 5.90295 1.47894 6.45242C1.47894 7.00171 1.92499 7.44863 2.47339 7.44863C3.02161 7.44863 3.46765 7.00171 3.46765 6.45242C3.46765 6.31813 3.44074 6.19025 3.3924 6.0732L4.39142 5.1368C4.52399 5.20267 4.67267 5.24046 4.83032 5.24046C5.0799 5.24046 5.30768 5.14726 5.48254 4.99462L6.40613 5.49162C6.40045 5.53437 6.39661 5.57785 6.39661 5.62225C6.39661 6.17154 6.84265 6.61864 7.39105 6.61864C7.93927 6.61864 8.38532 6.17154 8.38532 5.62225C8.38532 5.44044 8.33569 5.27055 8.25055 5.12359L9.07233 4.11454C9.17175 4.14812 9.27796 4.1672 9.38837 4.1672C9.52478 4.1672 9.65497 4.13931 9.77344 4.08941L10.444 4.79905C10.3802 4.93022 10.3434 5.07699 10.3434 5.23257C10.3434 5.62904 10.5764 5.9712 10.9116 6.13154V7.00538C10.9116 7.68181 11.4611 8.23202 12.1364 8.23202H17.5115V12.9637C16.8149 13.2087 16.329 13.879 16.329 14.6338V16.505C16.329 17.2935 16.7173 18.0132 17.3551 18.4322V19.0292H17.0925C16.1973 19.0292 15.4125 19.5108 14.9817 20.2289C14.551 19.5108 13.7662 19.0292 12.871 19.0292H12.6085V18.4299C13.2462 18.002 13.6346 17.2828 13.6346 16.5051V14.6338C13.6346 14.2339 13.5013 13.8647 13.2772 13.5681H14.6603C15.4367 13.5681 16.0681 12.9353 16.0681 12.1576V9.64451C16.0681 9.45022 15.911 9.29281 15.717 9.29281C15.5231 9.29281 15.3658 9.45022 15.3658 9.64451V12.1576C15.3658 12.5473 15.0494 12.8645 14.6603 12.8645H11.8702H11.8683H10.7789H10.777H4.55548H4.55365H3.46399H3.46216H1.40771C1.0188 12.8645 0.70221 12.5473 0.70221 12.1576V1.41047C0.70221 1.02079 1.0188 0.703584 1.40771 0.703584H2.15314C2.34705 0.703584 2.50433 0.546172 2.50433 0.351884C2.50433 0.157595 2.34705 0 2.15314 0H1.40771C0.631531 0 0 0.632767 0 1.41047V12.1574C0 12.9353 0.631531 13.5681 1.40771 13.5681H2.05536C1.83124 13.8647 1.69794 14.234 1.69794 14.634V15.0376L1.69812 15.0448V16.505C1.69812 17.2827 2.08649 18.002 2.72424 18.4299V19.029H2.46167C1.10431 19.029 0 20.1355 0 21.4955V22.8352C0 23.314 0.388916 23.7035 0.867004 23.7035H7.15045C7.34381 23.7035 7.52197 23.6391 7.66626 23.5316C7.81055 23.6391 7.98871 23.7035 8.18189 23.7035H14.4657C14.6592 23.7035 14.8374 23.6389 14.9819 23.5311C15.1262 23.6389 15.3045 23.7035 15.4979 23.7035H21.7819C22.2596 23.7035 22.6483 23.314 22.6483 22.8352V21.4955C22.6483 20.9617 22.4744 20.4415 22.1563 20.0165V16.2307C22.1563 16.0364 21.9992 15.879 21.8051 15.879C21.6112 15.879 21.4541 16.0364 21.4541 16.2307V19.3807C21.076 19.1531 20.6397 19.029 20.1872 19.029H19.9246V18.4289L19.9387 18.4197C19.9492 18.4128 19.9598 18.4059 19.97 18.3987C20.5842 17.9648 20.9507 17.2568 20.9507 16.505V15.0394V15.0376V14.6338C20.9507 14.2307 20.8152 13.8589 20.5878 13.5609H21.4541V14.5889C21.4541 14.7831 21.6112 14.9407 21.8053 14.9407C21.9992 14.9407 22.1563 14.7833 22.1563 14.5889V13.5609H22.2041C23.1943 13.5609 24 12.7537 24 11.7615V7.59687C24 6.58066 23.1749 5.75379 22.1605 5.75379ZM18.6953 1.30666C18.6953 0.974039 18.9654 0.703613 19.2972 0.703613H21.0493C21.3811 0.703613 21.6512 0.974222 21.6512 1.30666V1.85925C21.471 1.76495 21.2661 1.71156 21.0493 1.71156H19.9972V1.68496C19.9972 1.49067 19.8401 1.33326 19.646 1.33326C19.4521 1.33326 19.295 1.49067 19.295 1.68496V1.71156C19.0789 1.71193 18.8749 1.76532 18.6953 1.85925V1.30666ZM19.2972 2.41553C18.9654 2.41553 18.6953 2.68614 18.6953 3.01857V3.42164C18.6953 4.23824 19.3583 4.90256 20.1732 4.90256C20.9882 4.90256 21.6512 4.23824 21.6512 3.42164V3.01857C21.6512 2.68614 21.3811 2.41553 21.0493 2.41553H19.2972ZM20.1728 5.60505C20.3442 5.60505 20.5109 5.58451 20.6711 5.54671V6.08683C20.6709 6.09123 20.6707 6.09564 20.6707 6.09986C20.6667 6.38276 20.4336 6.61282 20.1509 6.61282C19.8682 6.61282 19.6351 6.38276 19.6312 6.10004C19.6312 6.09564 19.631 6.09123 19.6309 6.08683V5.53662C19.8041 5.5812 19.9857 5.60505 20.1728 5.60505ZM14.0589 2.22201C14.0589 2.06056 13.9278 1.9292 13.7667 1.9292C13.6057 1.9292 13.4746 2.06056 13.4746 2.22201C13.4746 2.31117 13.5147 2.39098 13.5777 2.44473L13.579 2.44565L13.5811 2.44755L13.5828 2.44914C13.6332 2.49005 13.6971 2.51463 13.7667 2.51463C13.9278 2.51463 14.0589 2.38346 14.0589 2.22201ZM11.5198 5.00305L11.522 5.00525L11.5237 5.00635L11.5253 5.00746C11.59 5.06121 11.6312 5.14212 11.6312 5.23275C11.6312 5.3942 11.5001 5.52537 11.3389 5.52537C11.178 5.52537 11.0469 5.3942 11.0469 5.23275C11.0469 5.0713 11.178 4.93994 11.3389 4.93994C11.4072 4.93994 11.47 4.96379 11.5198 5.00305ZM2.18164 6.45229C2.18164 6.61374 2.31274 6.7451 2.47369 6.7451C2.63483 6.7451 2.76593 6.61374 2.76593 6.45229C2.76593 6.29084 2.63483 6.15967 2.47369 6.15967C2.31256 6.15967 2.18164 6.29084 2.18164 6.45229ZM4.8313 4.5366C4.67017 4.5366 4.53906 4.40524 4.53906 4.2438C4.53906 4.08253 4.67017 3.95117 4.8313 3.95117C4.99225 3.95117 5.12335 4.08253 5.12335 4.2438C5.12335 4.40524 4.99225 4.5366 4.8313 4.5366ZM7.09766 5.62221C7.09766 5.78366 7.22876 5.91502 7.38989 5.91502C7.55084 5.91502 7.68195 5.78366 7.68195 5.62221C7.68195 5.46095 7.55084 5.32959 7.38989 5.32959C7.22876 5.32959 7.09766 5.46095 7.09766 5.62221ZM9.0957 3.17104C9.0957 3.00959 9.22681 2.87842 9.38794 2.87842C9.54907 2.87842 9.67999 3.00959 9.67999 3.17104C9.67999 3.33249 9.54907 3.46385 9.38794 3.46385C9.22681 3.46385 9.0957 3.33249 9.0957 3.17104ZM17.8712 13.5917C17.3839 13.6963 17.0312 14.1344 17.0312 14.6336V15.0376C17.0312 15.9263 17.7529 16.6493 18.64 16.6493C19.5264 16.6493 20.2475 15.9272 20.2486 15.0394V14.6336C20.2486 14.046 19.7712 13.5679 19.1844 13.5679H18.0949C18.0186 13.5679 17.9433 13.5759 17.8712 13.5917ZM9.77771 19.029C8.88306 19.029 8.09863 19.5101 7.6676 20.2276C7.23676 19.5101 6.45197 19.029 5.55713 19.029H5.29492V18.4297C5.93286 18.0018 6.32123 17.2826 6.32123 16.5049V14.6336C6.32123 14.2338 6.18793 13.8645 5.96381 13.5679H9.37158C9.25202 13.7262 9.15827 13.9051 9.09693 14.0984C9.04328 14.2674 9.01416 14.4472 9.01416 14.6338V15.0376V15.0394V16.5049C9.01416 17.2826 9.40253 18.002 10.0405 18.4298V19.029H9.77771ZM3.42468 18.2275L3.42487 18.2336V19.3809C3.42487 19.4866 3.51074 19.5729 3.61639 19.5729H4.39825C4.50372 19.5729 4.5896 19.4866 4.5896 19.3809V18.2336C4.58923 18.1083 4.6557 17.987 4.77325 17.923C5.23212 17.6731 5.53717 17.2203 5.60236 16.7104C5.18726 17.108 4.62549 17.3531 4.00714 17.3531C3.38898 17.3531 2.82721 17.1082 2.41211 16.7108C2.47748 17.2205 2.78253 17.6733 3.24139 17.923C3.34723 17.9806 3.4115 18.0848 3.42303 18.1965C3.42395 18.2053 3.4245 18.2156 3.42468 18.2275ZM2.40039 14.6336C2.40039 14.046 2.87756 13.5679 3.46405 13.5679H4.55353C4.74872 13.5679 4.93164 13.6211 5.08911 13.7132C5.40478 13.8983 5.61755 14.2415 5.61755 14.6338V15.0376C5.61755 15.9263 4.89593 16.6493 4.00897 16.6493C3.12439 16.6493 2.40442 15.9302 2.40057 15.0448V14.6336H2.40039ZM9.76263 14.3174C9.73151 14.4174 9.71484 14.5238 9.71484 14.6339V15.0397C9.71576 15.9277 10.437 16.6496 11.3234 16.6496C12.2104 16.6496 12.932 15.9266 12.932 15.0379V14.6343C12.932 14.1384 12.5923 13.7203 12.1337 13.6019C12.1279 13.6004 12.122 13.5991 12.1161 13.5977L12.108 13.5959C12.0996 13.5939 12.091 13.5918 12.0824 13.59C12.0132 13.5757 11.9418 13.5684 11.8683 13.5684H10.7785C10.6685 13.5684 10.5624 13.5851 10.4625 13.6162L10.453 13.6194L10.4419 13.6232L10.4317 13.6267L10.4231 13.6296L10.4132 13.6329C10.1201 13.7408 9.88696 13.9744 9.77948 14.2681C9.7771 14.2741 9.77527 14.2804 9.77307 14.2864L9.76992 14.2957L9.76987 14.2958L9.76559 14.3083L9.76263 14.3174ZM10.7432 18.2334V18.2308C10.7432 18.2059 10.7418 18.189 10.7388 18.1783C10.7225 18.0736 10.6599 17.9773 10.5598 17.9228C10.1009 17.6731 9.79584 17.2203 9.73047 16.7104C10.1456 17.108 10.7075 17.3529 11.3257 17.3529C11.9438 17.3529 12.5056 17.108 12.9207 16.7104C12.8555 17.2203 12.5505 17.6731 12.0916 17.9228C11.9839 17.9813 11.9193 18.0881 11.9094 18.2016C11.9085 18.2097 11.9081 18.2193 11.908 18.2304V18.2334V19.3808C11.908 19.4866 11.8221 19.5727 11.7164 19.5727H10.9346C10.8291 19.5727 10.7432 19.4866 10.7432 19.3808V18.2334ZM6.0683 23H7.15137C7.24219 23 7.31616 22.9261 7.31616 22.8355V21.4958C7.31616 20.5236 6.52679 19.7329 5.5567 19.7329H5.22253C5.08575 20.0523 4.76898 20.2765 4.40076 20.2765H3.6189C3.25067 20.2765 2.93408 20.0521 2.7973 19.7329H2.46259C1.49249 19.7329 0.703125 20.5236 0.703125 21.4958V22.8355C0.703125 22.9263 0.7771 23 0.86792 23H1.97662V22.2201C1.97662 22.0258 2.13373 21.8684 2.32764 21.8684C2.52173 21.8684 2.67883 22.0258 2.67883 22.2201V23H5.36609V22.2201C5.36609 22.0258 5.52319 21.8684 5.7171 21.8684C5.91119 21.8684 6.0683 22.0258 6.0683 22.2201V23ZM14.6301 22.8353C14.6301 22.9261 14.5565 23 14.4658 23H13.3824V22.2201C13.3824 22.0258 13.2253 21.8682 13.0312 21.8682C12.8373 21.8682 12.6802 22.0258 12.6802 22.2201V23H9.99292V22.2201C9.99292 22.0258 9.83581 21.8682 9.64172 21.8682C9.44781 21.8682 9.29071 22.0258 9.29071 22.2201V23H8.18201C8.09137 23 8.01758 22.9261 8.01758 22.8353V21.4956C8.01758 20.5236 8.80658 19.7329 9.77649 19.7329H10.1112C10.248 20.0521 10.5648 20.2765 10.933 20.2765H11.7148C12.0831 20.2765 12.3997 20.0521 12.5364 19.7329H12.8712C13.8411 19.7329 14.6301 20.5236 14.6301 21.4956V22.8353ZM21.9465 21.4953C21.9465 21.0818 21.8009 20.68 21.5365 20.3637C21.201 19.9625 20.7092 19.7326 20.1876 19.7324H19.8528C19.7161 20.0518 19.3993 20.2762 19.0311 20.2762H18.2492C17.9227 20.2762 17.6221 20.0977 17.4651 19.8104C17.4514 19.7851 17.4393 19.7588 17.428 19.7324H17.0929C16.123 19.7324 15.334 20.5233 15.334 21.4953V22.835C15.334 22.9258 15.4078 22.9995 15.4982 22.9995H16.6069V22.2198C16.6069 22.0255 16.7642 21.8679 16.9581 21.8679C17.152 21.8679 17.3093 22.0255 17.3093 22.2198V22.9995H19.9966V22.2198C19.9966 22.0255 20.1537 21.8679 20.3476 21.8679C20.5417 21.8679 20.6988 22.0255 20.6988 22.2198V22.9995H21.7822C21.8729 22.9995 21.9465 22.9258 21.9465 22.835V21.4953ZM19.5672 17.8227C19.5218 17.8548 19.474 17.8849 19.4257 17.9123C19.3306 17.9658 19.261 18.0588 19.235 18.1601C19.2274 18.1689 19.2233 18.1873 19.2233 18.2186V19.3807C19.2233 19.4864 19.1374 19.5726 19.0318 19.5726H18.2499C18.18 19.5726 18.1155 19.5343 18.0822 19.4732L18.0776 19.4641C18.0758 19.4602 18.074 19.4563 18.0725 19.4524C18.0773 19.4293 18.0798 19.4053 18.0798 19.3807C18.0798 19.3385 18.0721 19.2983 18.0586 19.2609V18.2315V18.23L18.0584 18.2238L18.058 18.2172C18.0579 18.2126 18.0577 18.208 18.0574 18.2038L18.0566 18.1941C18.0563 18.1915 18.0559 18.1889 18.0555 18.1864L18.0549 18.1829L18.0542 18.1782C18.054 18.1768 18.0538 18.1754 18.0535 18.1742C18.0361 18.0691 17.972 17.9732 17.8707 17.92C17.4055 17.6752 17.107 17.2316 17.0449 16.7095C17.4602 17.1076 18.0223 17.3529 18.6411 17.3529C19.2592 17.3529 19.821 17.108 20.2361 16.7104C20.1788 17.1551 19.9378 17.5609 19.5672 17.8227ZM22.2053 12.8575C22.8083 12.8575 23.299 12.3658 23.299 11.7616V7.59701C23.299 6.96865 22.7889 6.45752 22.1619 6.45752H21.3184C21.1624 6.95434 20.6965 7.31741 20.1523 7.31741C19.6082 7.31741 19.1423 6.95434 18.9863 6.45752H11.6152V7.00553C11.6152 7.29393 11.8496 7.52858 12.1376 7.52858H17.7282C17.9966 7.52858 18.2151 7.74745 18.2151 8.01641V12.8575H21.4551V8.75559C21.4551 8.5613 21.6122 8.4037 21.8063 8.4037C22.0002 8.4037 22.1573 8.5613 22.1573 8.75559V12.8575H22.2053Z" fill="black"/>
</svg>
