<?xml version="1.0" encoding="utf-8"?>
<svg width="28" height="21" viewBox="0 0 28 21" fill="none" xmlns="http://www.w3.org/2000/svg">
  <path d="M21.3678 5.86008C20.5639 2.42673 17.5129 5.57471e-07 14.0001 0C10.4873 0 7.43625 2.42673 6.63235 5.86008C2.65948 6.35746 -0.240351 9.87534 0.0157263 13.8869C0.271804 17.8985 3.5952 21.0159 7.59879 20.9999C7.59879 20.9999 20.4072 20.9999 20.4072 20.9999C24.4096 21.0127 27.73 17.8944 27.9845 13.884C28.2389 9.87349 25.3395 6.35741 21.3678 5.86008C21.3678 5.86008 21.3678 5.86008 21.3678 5.86008ZM19.3543 14.9775L14.8248 19.5253C14.8248 19.5253 14.784 19.5604 14.784 19.5604C14.7422 19.6007 14.6974 19.6378 14.6501 19.6714C14.6501 19.6714 14.5453 19.7299 14.5453 19.7299L14.4522 19.7825L14.3241 19.8234C14.3241 19.8234 14.2368 19.8234 14.2368 19.8234C14.1612 19.8308 14.0852 19.8308 14.0097 19.8234C13.938 19.8301 13.8659 19.8301 13.7943 19.8234C13.7943 19.8234 13.6778 19.7883 13.6778 19.7883L13.573 19.7591L13.4217 19.7006C13.4217 19.7006 13.3576 19.6539 13.3576 19.6539C13.2925 19.6095 13.232 19.5585 13.1771 19.5019C13.1771 19.5019 8.65345 14.9775 8.65345 14.9775C8.19874 14.5206 8.19887 13.7802 8.65373 13.3235C9.1086 12.8668 9.84605 12.8666 10.3011 13.3232C10.3011 13.3232 12.8395 15.866 12.8395 15.866C12.8395 15.866 12.8395 5.82926 12.8395 5.82926C12.8395 5.18358 13.3608 4.66016 14.0039 4.66016C14.6469 4.66016 15.1683 5.18358 15.1683 5.82926C15.1683 5.82926 15.1683 15.866 15.1683 15.866C15.1683 15.866 17.7067 13.3173 17.7067 13.3173C18.1632 12.8605 18.9022 12.8618 19.3572 13.3203C19.8122 13.7787 19.8109 14.5207 19.3543 14.9775C19.3543 14.9775 19.3543 14.9775 19.3543 14.9775Z" fill="#EC1E24" />
</svg>