<svg width="27" height="26" viewBox="0 0 27 26" fill="none" xmlns="http://www.w3.org/2000/svg">
<path fill-rule="evenodd" clip-rule="evenodd" d="M26.3672 9.7666V19.2588C26.3672 22.3111 23.8929 24.7854 20.8406 24.7854H6.05391C3.00164 24.7854 0.527344 22.3111 0.527344 19.2588V9.7666L26.3672 9.7666Z" fill="#946044"/>
<path fill-rule="evenodd" clip-rule="evenodd" d="M24.1313 6.32813C24.1224 6.32813 21.29 6.32813 2.76328 6.32813C1.52824 6.32813 0.527344 7.32902 0.527344 8.56406V9.76641C0.527344 12.3683 2.32506 14.5499 4.74609 15.1369C5.66583 15.2523 6.73908 15.2956 7.91021 15.293H18.9844C20.1596 15.2819 21.2197 15.2317 22.1484 15.1369C24.5695 14.5499 26.3672 12.3683 26.3672 9.76641V8.56406C26.3672 7.32902 25.3663 6.32812 24.1313 6.32812V6.32813Z" fill="#F1D0A4"/>
<path fill-rule="evenodd" clip-rule="evenodd" d="M22.1484 17.4023C22.1484 18.2762 21.4402 18.9844 20.5664 18.9844C19.6926 18.9844 18.9844 18.2762 18.9844 17.4023C18.9844 16.6496 18.9844 14.4621 18.9844 13.7109H22.1484V17.4023Z" fill="#EDBB87"/>
<path fill-rule="evenodd" clip-rule="evenodd" d="M20.5682 9.49219C20.5682 10.2204 19.9781 10.8105 19.2498 10.8105C18.5208 10.8105 17.9315 10.2199 17.9315 9.49219V7.64648C17.9315 5.16169 15.9153 3.16406 13.449 3.16406C10.97 3.16406 8.96662 5.17535 8.96662 7.64648V9.49219C8.96662 10.2204 8.37652 10.8105 7.64826 10.8105C6.91926 10.8105 6.3299 10.2199 6.3299 9.49219C6.35336 7.95108 6.26256 7.33235 6.45224 6.32813C7.06976 3.02643 9.96752 0.527344 13.449 0.527344C16.9157 0.527344 19.8269 3.01324 20.4458 6.32813C20.6353 7.33097 20.5446 7.94501 20.5682 9.49219V9.49219Z" fill="#AA745A"/>
<path fill-rule="evenodd" clip-rule="evenodd" d="M7.91016 17.4023C7.91016 18.2762 7.20193 18.9844 6.32813 18.9844C5.45432 18.9844 4.74609 18.2762 4.74609 17.4023C4.74609 16.5548 4.74609 14.5269 4.74609 13.7109H7.91016V17.4023Z" fill="#EDBB87"/>
<path fill-rule="evenodd" clip-rule="evenodd" d="M24.1313 5.80078H20.868C20.0401 2.47329 17.0273 0 13.4473 0C9.86724 0 6.85442 2.47329 6.02654 5.80078H2.76328C1.23963 5.80078 0 7.04041 0 8.56406V19.2586C0 22.5967 2.71577 25.3125 6.05391 25.3125H20.8406C24.1788 25.3125 26.8945 22.5967 26.8945 19.2586V8.56406C26.8945 7.04041 25.6549 5.80078 24.1313 5.80078ZM13.4473 1.05469C17.082 1.05469 20.0391 4.01177 20.0391 7.64648V9.49219C20.0391 9.92835 19.6842 10.2832 19.248 10.2832C18.8119 10.2832 18.457 9.92835 18.457 9.49219V7.64648C18.457 4.88241 16.2079 2.63672 13.4473 2.63672C10.6899 2.63672 8.4375 4.8792 8.4375 7.64648V9.49219C8.4375 9.92835 8.08265 10.2832 7.64648 10.2832C7.21032 10.2832 6.85547 9.92835 6.85547 9.49219V7.64648C6.85547 4.01177 9.81255 1.05469 13.4473 1.05469ZM9.95117 5.80078H16.9442C16.2799 4.5475 14.9622 3.69141 13.4477 3.69141C11.9331 3.69141 10.6154 4.5475 9.95117 5.80078ZM1.05469 8.56406C1.05469 7.62196 1.82118 6.85547 2.76328 6.85547H5.84149C5.79739 7.28258 5.79852 7.56142 5.80112 8.20677V8.20678C5.8024 8.52532 5.80404 8.93316 5.80078 9.49219C5.80078 10.5099 6.62876 11.3379 7.64648 11.3379C8.66421 11.3379 9.49219 10.5099 9.49219 9.49219C9.49863 8.93511 9.49541 8.52721 9.49289 8.20786C9.4878 7.56215 9.48556 7.27842 9.57176 6.85547H17.3227C17.4089 7.27843 17.4067 7.56037 17.4016 8.20587V8.20589V8.20592V8.20595C17.3991 8.52532 17.3959 8.9337 17.4023 9.49219C17.4023 10.5099 18.2303 11.3379 19.248 11.3379C20.2657 11.3379 21.0937 10.5099 21.0937 9.49219C21.0904 8.92239 21.092 8.51052 21.0933 8.19124C21.0958 7.54843 21.0969 7.28092 21.053 6.85547H24.1313C25.0733 6.85547 25.8398 7.62196 25.8398 8.56406V9.76641C25.8398 11.8508 24.5682 13.6769 22.6758 14.4182V13.7109C22.6758 13.4197 22.4396 13.1836 22.1484 13.1836H18.9844C18.6932 13.1836 18.457 13.4197 18.457 13.7109V14.7656H8.4375V13.7109C8.4375 13.4197 8.20136 13.1836 7.91016 13.1836H4.74609C4.45489 13.1836 4.21875 13.4197 4.21875 13.7109V14.4182C2.32632 13.6769 1.05469 11.8508 1.05469 9.76641V8.56406ZM21.6211 14.2383H19.5117V17.4023C19.5117 17.9839 19.9849 18.457 20.5664 18.457C21.148 18.457 21.6211 17.9839 21.6211 17.4023V14.2383ZM7.38281 17.4023C7.38281 17.9839 6.90968 18.457 6.32812 18.457C5.74657 18.457 5.27344 17.9839 5.27344 17.4023V14.2383H7.38281V17.4023ZM20.8406 24.2575C23.5972 24.2575 25.8398 22.0149 25.8398 19.2583V13.1816C25.0786 14.2913 23.9611 15.1259 22.6758 15.5351V17.4021C22.6758 18.5652 21.7295 19.5115 20.5664 19.5115C19.4033 19.5115 18.457 18.5652 18.457 17.4021V15.82H8.4375V17.4021C8.4375 18.5652 7.49123 19.5115 6.32812 19.5115C5.16502 19.5115 4.21875 18.5652 4.21875 17.4021V15.5351C2.93403 15.126 1.81622 14.292 1.05469 13.1821V19.2583C1.05469 22.0149 3.29732 24.2575 6.05391 24.2575H20.8406Z" fill="black"/>
</svg>
