<?xml version="1.0" encoding="utf-8"?>
<svg width="126" height="99" viewBox="0 0 126 99" fill="none" xmlns="http://www.w3.org/2000/svg">
  <g>
    <path d="M118 0C122.419 0 126 3.58112 126 8L126 91C126 95.4189 122.419 99 118 99L8 99C3.58112 99 0 95.4189 0 91L0 8C0 3.58112 3.58112 0 8 0L118 0Z" fill="#FCF0EE" />
    <g transform="translate(21 9)">
      <path d="M3.408 5.528Q3.712 5.576 3.964 5.776Q4.216 5.976 4.364 6.272Q4.512 6.568 4.512 6.904Q4.512 7.328 4.296 7.668Q4.08 8.008 3.668 8.204Q3.256 8.4 2.696 8.4L0.616 8.4L0.616 2.824L2.616 2.824Q3.184 2.824 3.584 3.012Q3.984 3.2 4.184 3.52Q4.384 3.84 4.384 4.24Q4.384 4.736 4.116 5.06Q3.848 5.384 3.408 5.528ZM1.344 5.232L2.568 5.232Q3.08 5.232 3.36 4.992Q3.64 4.752 3.64 4.328Q3.64 3.904 3.36 3.664Q3.08 3.424 2.552 3.424L1.344 3.424L1.344 5.232ZM2.632 7.8Q3.176 7.8 3.48 7.544Q3.784 7.288 3.784 6.832Q3.784 6.368 3.464 6.1Q3.144 5.832 2.608 5.832L1.344 5.832L1.344 7.8L2.632 7.8ZM5.248 6.192Q5.248 5.52 5.52 5.012Q5.792 4.504 6.268 4.224Q6.744 3.944 7.328 3.944Q7.904 3.944 8.328 4.192Q8.752 4.44 8.96 4.816L8.96 4.016L9.696 4.016L9.696 8.4L8.96 8.4L8.96 7.584Q8.744 7.968 8.316 8.22Q7.888 8.472 7.32 8.472Q6.736 8.472 6.264 8.184Q5.792 7.896 5.52 7.376Q5.248 6.856 5.248 6.192ZM8.96 6.2Q8.96 5.704 8.76 5.336Q8.56 4.968 8.22 4.772Q7.88 4.576 7.472 4.576Q7.064 4.576 6.728 4.768Q6.392 4.96 6.192 5.328Q5.992 5.696 5.992 6.192Q5.992 6.696 6.192 7.068Q6.392 7.44 6.728 7.636Q7.064 7.832 7.472 7.832Q7.88 7.832 8.22 7.636Q8.56 7.44 8.76 7.068Q8.96 6.696 8.96 6.2ZM12.48 8.472Q11.976 8.472 11.576 8.3Q11.176 8.128 10.944 7.82Q10.712 7.512 10.688 7.112L11.44 7.112Q11.472 7.44 11.748 7.648Q12.024 7.856 12.472 7.856Q12.888 7.856 13.128 7.672Q13.368 7.488 13.368 7.208Q13.368 6.92 13.112 6.78Q12.856 6.64 12.32 6.504Q11.832 6.376 11.524 6.244Q11.216 6.112 10.996 5.852Q10.776 5.592 10.776 5.168Q10.776 4.832 10.976 4.552Q11.176 4.272 11.544 4.108Q11.912 3.944 12.384 3.944Q13.112 3.944 13.56 4.312Q14.008 4.68 14.04 5.32L13.312 5.32Q13.288 4.976 13.036 4.768Q12.784 4.56 12.36 4.56Q11.968 4.56 11.736 4.728Q11.504 4.896 11.504 5.168Q11.504 5.384 11.644 5.524Q11.784 5.664 11.996 5.748Q12.208 5.832 12.584 5.936Q13.056 6.064 13.352 6.188Q13.648 6.312 13.86 6.56Q14.072 6.808 14.08 7.208Q14.08 7.568 13.88 7.856Q13.68 8.144 13.316 8.308Q12.952 8.472 12.48 8.472ZM19.104 6.04Q19.104 6.248 19.08 6.48L15.576 6.48Q15.616 7.128 16.02 7.492Q16.424 7.856 17 7.856Q17.472 7.856 17.788 7.636Q18.104 7.416 18.232 7.048L19.016 7.048Q18.84 7.68 18.312 8.076Q17.784 8.472 17 8.472Q16.376 8.472 15.884 8.192Q15.392 7.912 15.112 7.396Q14.832 6.88 14.832 6.2Q14.832 5.52 15.104 5.008Q15.376 4.496 15.868 4.22Q16.36 3.944 17 3.944Q17.624 3.944 18.104 4.216Q18.584 4.488 18.844 4.964Q19.104 5.44 19.104 6.04ZM18.352 5.888Q18.352 5.472 18.168 5.172Q17.984 4.872 17.668 4.716Q17.352 4.56 16.968 4.56Q16.416 4.56 16.028 4.912Q15.64 5.264 15.584 5.888L18.352 5.888ZM19.792 6.192Q19.792 5.52 20.064 5.012Q20.336 4.504 20.812 4.224Q21.288 3.944 21.88 3.944Q22.392 3.944 22.832 4.18Q23.272 4.416 23.504 4.8L23.504 2.48L24.24 2.48L24.24 8.4L23.504 8.4L23.504 7.576Q23.288 7.968 22.864 8.22Q22.44 8.472 21.872 8.472Q21.288 8.472 20.812 8.184Q20.336 7.896 20.064 7.376Q19.792 6.856 19.792 6.192ZM23.504 6.2Q23.504 5.704 23.304 5.336Q23.104 4.968 22.764 4.772Q22.424 4.576 22.016 4.576Q21.608 4.576 21.272 4.768Q20.936 4.96 20.736 5.328Q20.536 5.696 20.536 6.192Q20.536 6.696 20.736 7.068Q20.936 7.44 21.272 7.636Q21.608 7.832 22.016 7.832Q22.424 7.832 22.764 7.636Q23.104 7.44 23.304 7.068Q23.504 6.696 23.504 6.2ZM29.52 8.472Q28.904 8.472 28.404 8.192Q27.904 7.912 27.62 7.396Q27.336 6.88 27.336 6.2Q27.336 5.528 27.628 5.012Q27.92 4.496 28.424 4.22Q28.928 3.944 29.552 3.944Q30.176 3.944 30.68 4.22Q31.184 4.496 31.476 5.008Q31.768 5.52 31.768 6.2Q31.768 6.88 31.468 7.396Q31.168 7.912 30.656 8.192Q30.144 8.472 29.52 8.472ZM29.52 7.832Q29.912 7.832 30.256 7.648Q30.6 7.464 30.812 7.096Q31.024 6.728 31.024 6.2Q31.024 5.672 30.816 5.304Q30.608 4.936 30.272 4.756Q29.936 4.576 29.544 4.576Q29.144 4.576 28.812 4.756Q28.48 4.936 28.28 5.304Q28.08 5.672 28.08 6.2Q28.08 6.736 28.276 7.104Q28.472 7.472 28.8 7.652Q29.128 7.832 29.52 7.832ZM34.864 3.936Q35.664 3.936 36.16 4.42Q36.656 4.904 36.656 5.816L36.656 8.4L35.936 8.4L35.936 5.92Q35.936 5.264 35.608 4.916Q35.28 4.568 34.712 4.568Q34.136 4.568 33.796 4.928Q33.456 5.288 33.456 5.976L33.456 8.4L32.728 8.4L32.728 4.016L33.456 4.016L33.456 4.64Q33.672 4.304 34.044 4.12Q34.416 3.936 34.864 3.936ZM39.776 7.816Q40.792 7 41.368 6.476Q41.944 5.952 42.34 5.38Q42.736 4.808 42.736 4.256Q42.736 3.736 42.484 3.436Q42.232 3.136 41.672 3.136Q41.128 3.136 40.828 3.476Q40.528 3.816 40.504 4.384L39.8 4.384Q39.832 3.488 40.344 3Q40.856 2.512 41.664 2.512Q42.488 2.512 42.972 2.968Q43.456 3.424 43.456 4.224Q43.456 4.888 43.06 5.516Q42.664 6.144 42.16 6.62Q41.656 7.096 40.872 7.728L43.624 7.728L43.624 8.336L39.776 8.336L39.776 7.816ZM44.464 5.448Q44.464 4.072 44.912 3.3Q45.36 2.528 46.48 2.528Q47.592 2.528 48.04 3.3Q48.488 4.072 48.488 5.448Q48.488 6.848 48.04 7.624Q47.592 8.4 46.48 8.4Q45.36 8.4 44.912 7.624Q44.464 6.848 44.464 5.448ZM47.768 5.448Q47.768 4.752 47.676 4.268Q47.584 3.784 47.3 3.488Q47.016 3.192 46.48 3.192Q45.936 3.192 45.652 3.488Q45.368 3.784 45.276 4.268Q45.184 4.752 45.184 5.448Q45.184 6.168 45.276 6.656Q45.368 7.144 45.652 7.44Q45.936 7.736 46.48 7.736Q47.016 7.736 47.3 7.44Q47.584 7.144 47.676 6.656Q47.768 6.168 47.768 5.448ZM54.68 8.4L53.352 6.12L52.472 6.12L52.472 8.4L51.744 8.4L51.744 2.824L53.544 2.824Q54.176 2.824 54.612 3.04Q55.048 3.256 55.264 3.624Q55.48 3.992 55.48 4.464Q55.48 5.04 55.148 5.48Q54.816 5.92 54.152 6.064L55.552 8.4L54.68 8.4ZM52.472 5.536L53.544 5.536Q54.136 5.536 54.432 5.244Q54.728 4.952 54.728 4.464Q54.728 3.968 54.436 3.696Q54.144 3.424 53.544 3.424L52.472 3.424L52.472 5.536ZM60.608 6.04Q60.608 6.248 60.584 6.48L57.08 6.48Q57.12 7.128 57.524 7.492Q57.928 7.856 58.504 7.856Q58.976 7.856 59.292 7.636Q59.608 7.416 59.736 7.048L60.52 7.048Q60.344 7.68 59.816 8.076Q59.288 8.472 58.504 8.472Q57.88 8.472 57.388 8.192Q56.896 7.912 56.616 7.396Q56.336 6.88 56.336 6.2Q56.336 5.52 56.608 5.008Q56.88 4.496 57.372 4.22Q57.864 3.944 58.504 3.944Q59.128 3.944 59.608 4.216Q60.088 4.488 60.348 4.964Q60.608 5.44 60.608 6.04ZM59.856 5.888Q59.856 5.472 59.672 5.172Q59.488 4.872 59.172 4.716Q58.856 4.56 58.472 4.56Q57.92 4.56 57.532 4.912Q57.144 5.264 57.088 5.888L59.856 5.888ZM63.2 7.728L64.56 4.016L65.336 4.016L63.616 8.4L62.768 8.4L61.048 4.016L61.832 4.016L63.2 7.728ZM66.432 3.304Q66.224 3.304 66.08 3.16Q65.936 3.016 65.936 2.808Q65.936 2.6 66.08 2.456Q66.224 2.312 66.432 2.312Q66.632 2.312 66.772 2.456Q66.912 2.6 66.912 2.808Q66.912 3.016 66.772 3.16Q66.632 3.304 66.432 3.304ZM66.784 4.016L66.784 8.4L66.056 8.4L66.056 4.016L66.784 4.016ZM72.024 6.04Q72.024 6.248 72 6.48L68.496 6.48Q68.536 7.128 68.94 7.492Q69.344 7.856 69.92 7.856Q70.392 7.856 70.708 7.636Q71.024 7.416 71.152 7.048L71.936 7.048Q71.76 7.68 71.232 8.076Q70.704 8.472 69.92 8.472Q69.296 8.472 68.804 8.192Q68.312 7.912 68.032 7.396Q67.752 6.88 67.752 6.2Q67.752 5.52 68.024 5.008Q68.296 4.496 68.788 4.22Q69.28 3.944 69.92 3.944Q70.544 3.944 71.024 4.216Q71.504 4.488 71.764 4.964Q72.024 5.44 72.024 6.04ZM71.272 5.888Q71.272 5.472 71.088 5.172Q70.904 4.872 70.588 4.716Q70.272 4.56 69.888 4.56Q69.336 4.56 68.948 4.912Q68.56 5.264 68.504 5.888L71.272 5.888ZM78.824 4.016L77.456 8.4L76.704 8.4L75.648 4.92L74.592 8.4L73.84 8.4L72.464 4.016L73.208 4.016L74.216 7.696L75.304 4.016L76.048 4.016L77.112 7.704L78.104 4.016L78.824 4.016ZM81.096 8.472Q80.592 8.472 80.192 8.3Q79.792 8.128 79.56 7.82Q79.328 7.512 79.304 7.112L80.056 7.112Q80.088 7.44 80.364 7.648Q80.64 7.856 81.088 7.856Q81.504 7.856 81.744 7.672Q81.984 7.488 81.984 7.208Q81.984 6.92 81.728 6.78Q81.472 6.64 80.936 6.504Q80.448 6.376 80.14 6.244Q79.832 6.112 79.612 5.852Q79.392 5.592 79.392 5.168Q79.392 4.832 79.592 4.552Q79.792 4.272 80.16 4.108Q80.528 3.944 81 3.944Q81.728 3.944 82.176 4.312Q82.624 4.68 82.656 5.32L81.928 5.32Q81.904 4.976 81.652 4.768Q81.4 4.56 80.976 4.56Q80.584 4.56 80.352 4.728Q80.12 4.896 80.12 5.168Q80.12 5.384 80.26 5.524Q80.4 5.664 80.612 5.748Q80.824 5.832 81.2 5.936Q81.672 6.064 81.968 6.188Q82.264 6.312 82.476 6.56Q82.688 6.808 82.696 7.208Q82.696 7.568 82.496 7.856Q82.296 8.144 81.932 8.308Q81.568 8.472 81.096 8.472Z" fill="#282529" transform="translate(0 69)" />
      <path d="M1.692 32.688L1.692 28.728L13.464 11.88L19.332 11.88L19.332 28.296L22.5 28.296L22.5 32.688L19.332 32.688L19.332 37.8L14.292 37.8L14.292 32.688L1.692 32.688ZM14.616 17.28L7.236 28.296L14.616 28.296L14.616 17.28ZM28.512 38.052Q27.144 38.052 26.262 37.206Q25.38 36.36 25.38 35.1Q25.38 33.84 26.262 32.994Q27.144 32.148 28.512 32.148Q29.844 32.148 30.708 32.994Q31.572 33.84 31.572 35.1Q31.572 36.36 30.708 37.206Q29.844 38.052 28.512 38.052ZM52.704 15.912L41.04 15.912L41.04 22.068Q41.796 21.132 43.2 20.538Q44.604 19.944 46.188 19.944Q49.068 19.944 50.904 21.204Q52.74 22.464 53.568 24.426Q54.396 26.388 54.396 28.62Q54.396 32.76 52.038 35.28Q49.68 37.8 45.324 37.8Q41.22 37.8 38.772 35.748Q36.324 33.696 36 30.384L40.896 30.384Q41.22 31.824 42.354 32.688Q43.488 33.552 45.252 33.552Q47.376 33.552 48.456 32.22Q49.536 30.888 49.536 28.692Q49.536 26.46 48.438 25.29Q47.34 24.12 45.216 24.12Q43.704 24.12 42.696 24.876Q41.688 25.632 41.256 26.892L36.432 26.892L36.432 11.484L52.704 11.484L52.704 15.912Z" fill="#282529" transform="translate(13.5 0)" />
      <g transform="translate(4 49)">
        <path d="M9.68599 10L5.99522 8.29193L2.30447 10L3.00967 6.38192L0 3.81967L4.14987 3.29192L5.99522 0L7.84057 3.29192L12 3.81967L8.9808 6.38195L9.68599 10Z" fill="#FBAD33" fill-rule="evenodd" />
        <path d="M9.686 10L5.99521 8.29193L2.3045 10L3.00967 6.38192L0 3.81967L4.14987 3.29192L5.99521 0L7.84057 3.29192L12 3.81967L8.98081 6.38195L9.686 10Z" fill="#FBAD33" fill-rule="evenodd" transform="translate(15.999 0)" />
        <path d="M9.68585 10L5.9952 8.29193L2.30447 10L3.00965 6.38192L0 3.81967L4.14982 3.29192L5.9952 0L7.84055 3.29192L12 3.81967L8.98069 6.38195L9.68585 10Z" fill="#FBAD33" fill-rule="evenodd" transform="translate(33.332 0)" />
        <path d="M9.68599 10L5.99525 8.29193L2.30449 10L3.00967 6.38192L0 3.81967L4.14985 3.29192L5.99525 0L7.84059 3.29192L12 3.81967L8.98082 6.38195L9.68599 10Z" fill="#FBAD33" fill-rule="evenodd" transform="translate(48 0)" />
        <path d="M9.68589 10L5.9952 8.29193L2.30446 10L3.00969 6.38192L0 3.81967L4.14983 3.29192L5.9952 0L7.84056 3.29192L12 3.81967L8.98072 6.38195L9.68589 10Z" fill="#FFFFFF" fill-rule="evenodd" transform="translate(64 0)" />
      </g>
    </g>
  </g>
</svg>