<svg width="30" height="30" viewBox="0 0 30 30" fill="none" xmlns="http://www.w3.org/2000/svg">
<g clip-path="url(#clip0_0_78277)">
<path fill-rule="evenodd" clip-rule="evenodd" d="M14.418 10.3592C13.7365 10.1162 9.07422 8.45605 9.07422 8.45605V10.7107C9.0763 11.0111 9.20993 11.2955 9.43984 11.4889C9.71659 11.6921 10.0153 11.8635 10.3305 11.9998C13.2939 13.3721 16.7129 13.3618 19.668 11.9716C20.2522 11.695 20.8732 11.4135 20.8773 10.7107V8.46074L15.5289 10.3592C15.3518 10.4243 15.1645 10.4577 14.9758 10.4576C14.7855 10.4577 14.5967 10.4244 14.418 10.3592L14.418 10.3592Z" fill="#2F2529"/>
<path fill-rule="evenodd" clip-rule="evenodd" d="M6.64882 14.2547C6.96215 14.2568 7.26997 14.3374 7.54414 14.4891C7.70921 14.5806 7.91311 14.5643 8.06151 14.4476C8.20991 14.331 8.27388 14.1367 8.22382 13.9547L7.71289 12.1781C7.8961 11.8566 7.93 11.4712 7.80571 11.1227C7.68142 10.7741 7.41131 10.4971 7.06601 10.3641C7.0663 9.66099 7.06586 7.41091 7.06604 6.74531C7.94151 7.06048 9.13954 7.48453 10.0145 7.79531C10.616 8.01562 14.0557 9.23603 14.7348 9.47812C14.813 9.50613 14.8955 9.5204 14.9785 9.52031C15.0601 9.52039 15.141 9.50611 15.2176 9.47812L24.1473 6.3C24.4118 6.21205 24.5902 5.96464 24.5902 5.68592C24.5902 5.4072 24.4117 5.1598 24.1473 5.07187L15.2176 1.91718C15.0615 1.86094 14.8908 1.86094 14.7348 1.91718L5.85663 5.08125C5.59305 5.17068 5.41535 5.41764 5.41429 5.69598C5.41323 5.97432 5.58905 6.22262 5.85195 6.31406L6.12851 6.4125V10.4531C5.5432 10.8074 5.34242 11.5608 5.67382 12.1594L5.02226 13.9219C4.95802 14.1067 5.01457 14.3121 5.1644 14.438C5.31423 14.5639 5.52623 14.5842 5.69726 14.4891C5.98848 14.329 6.31659 14.2482 6.64882 14.2547L6.64882 14.2547Z" fill="#2F2529"/>
<path fill-rule="evenodd" clip-rule="evenodd" d="M21.8768 22.0873C22.9124 22.5857 23.6635 23.5301 23.9158 24.6514L24.5674 27.5529C24.5981 27.6914 24.5646 27.8363 24.4764 27.9473C24.3881 28.0583 24.2545 28.1235 24.1127 28.1248H5.88772C5.74592 28.1235 5.61227 28.0583 5.52401 27.9473C5.43575 27.8363 5.40232 27.6914 5.43304 27.5529L6.0846 24.6514C6.33699 23.5301 7.08803 22.5857 8.12366 22.0873L12.8103 19.8353L13.1757 18.9275C10.9357 18.0083 9.40335 15.4728 9.37991 12.5622C12.4495 14.3743 17.4965 14.4218 20.6205 12.5342C20.6065 15.4585 19.0742 18.0033 16.8251 18.9273L17.1913 19.8336L21.8768 22.0873ZM8.63672 26.0857H10.3664C10.622 26.0811 10.8268 25.8726 10.8268 25.6169C10.8268 25.3613 10.622 25.1528 10.3664 25.1482H8.63672C8.37784 25.1482 8.16797 25.3581 8.16797 25.6169C8.16797 25.8758 8.37784 26.0857 8.63672 26.0857ZM14.9992 23.7701L14.1602 21.4919C14.7066 21.6639 15.2928 21.6623 15.8383 21.4872L14.9992 23.7701ZM13.7109 20.1057C14.0343 20.4791 14.5052 20.6917 14.9991 20.6873L14.9991 20.6873C15.4939 20.6911 15.9654 20.477 16.2882 20.1018L15.9238 19.1998C15.3142 19.3248 14.6856 19.3248 14.076 19.1998L13.7109 20.1057Z" fill="#2F2529"/>
</g>
<defs>
<clipPath id="clip0_0_78277">
<rect width="30" height="30" fill="white"/>
</clipPath>
</defs>
</svg>
