<?xml version="1.0" encoding="utf-8"?>
<svg width="2.422" height="2.405" viewBox="0 0 2.422 2.405" fill="none" xmlns="http://www.w3.org/2000/svg">
  <path d="M2.42307 1.20238C2.42307 0.538324 1.88065 0 1.21154 0C0.542423 0 0 0.538324 0 1.20238C0 1.86644 0.542423 2.40476 1.21154 2.40476C1.88033 2.404 2.42231 1.86612 2.42307 1.20238C2.42307 1.20238 2.42307 1.20238 2.42307 1.20238ZM0.605469 1.20226C0.605469 0.870237 0.87668 0.601074 1.21124 0.601074C1.54579 0.601074 1.81701 0.870237 1.81701 1.20226C1.81701 1.53429 1.54579 1.80346 1.21124 1.80346C0.876819 1.80313 0.605803 1.53415 0.605469 1.20226C0.605469 1.20226 0.605469 1.20226 0.605469 1.20226Z" fill="#282529" />
</svg>