<?xml version="1.0" encoding="utf-8"?>
<svg width="2.422" height="2.405" viewBox="0 0 2.422 2.405" fill="none" xmlns="http://www.w3.org/2000/svg">
  <path d="M1.21153 0C0.542427 0 0 0.538325 0 1.20238C0 1.86644 0.542427 2.40476 1.21153 2.40476C1.88065 2.40476 2.42307 1.86644 2.42307 1.20238C2.42234 0.538701 1.88039 0.000792503 1.2116 0C1.2116 0 1.21153 0 1.21153 0ZM1.21124 1.80346C0.876678 1.80346 0.605469 1.53429 0.605469 1.20226C0.605469 0.870236 0.876678 0.601074 1.21124 0.601074C1.5458 0.601074 1.817 0.870236 1.817 1.20226C1.81667 1.53414 1.54567 1.80312 1.21124 1.80346C1.21124 1.80346 1.21124 1.80346 1.21124 1.80346Z" fill="#282529" />
</svg>