<svg width="28" height="29" viewBox="0 0 28 29" fill="none" xmlns="http://www.w3.org/2000/svg">
<path fill-rule="evenodd" clip-rule="evenodd" d="M13.9507 0.527344C11.5744 0.526826 9.23836 1.14155 7.17009 2.31168C5.10181 3.48182 3.37172 5.1675 2.14821 7.20464C0.924694 9.24179 0.249439 11.561 0.18817 13.9365C0.126902 16.3121 0.681708 18.663 1.79858 20.7605L0.296446 25.2669C0.17202 25.64 0.153962 26.0404 0.244298 26.4232C0.334635 26.806 0.529794 27.1561 0.807903 27.4342C1.08601 27.7123 1.43608 27.9074 1.81887 27.9978C2.20166 28.0881 2.60204 28.0701 2.97515 27.9456L7.48156 26.4435C9.3275 27.4253 11.3729 27.9737 13.4624 28.047C15.5519 28.1203 17.6306 27.7167 19.5409 26.8666C21.4511 26.0166 23.1425 24.7426 24.4869 23.1413C25.8312 21.54 26.793 19.6534 27.2994 17.6249C27.8057 15.5963 27.8433 13.479 27.4092 11.4338C26.9752 9.3886 26.0809 7.46913 24.7942 5.82111C23.5075 4.1731 21.8623 2.83987 19.9835 1.92261C18.1046 1.00537 16.0415 0.528202 13.9507 0.527344V0.527344ZM13.9493 25.9381C11.9018 25.9395 9.89029 25.4004 8.11804 24.3751C7.98828 24.2999 7.84401 24.253 7.69479 24.2378C7.54557 24.2225 7.39481 24.2391 7.25249 24.2864L2.30271 25.9381L3.95308 20.9884C4.00065 20.8461 4.01746 20.6954 4.0024 20.5462C3.98734 20.397 3.94076 20.2527 3.86573 20.1228C2.58192 17.9032 2.06648 15.322 2.39936 12.7796C2.73224 10.2372 3.89483 7.87568 5.70679 6.06144C7.51875 4.24719 9.87877 3.08162 12.4207 2.74552C14.9627 2.40943 17.5446 2.92161 19.7659 4.20261C21.987 5.48361 23.7234 7.46182 24.7055 9.83036C25.6878 12.1989 25.8608 14.8254 25.198 17.3023C24.5352 19.7793 23.0735 21.9683 21.0396 23.5297C19.0056 25.0911 16.5133 25.9377 13.9493 25.9381V25.9381ZM21.8359 16.5202L17.6008 14.4027C17.4341 14.3196 17.2485 14.282 17.0626 14.2936C16.8767 14.3052 16.6971 14.3657 16.5421 14.4688L14.5979 15.7658C13.7054 15.2752 12.9709 14.5408 12.4803 13.6483L13.7773 11.7041C13.8805 11.549 13.941 11.3695 13.9526 11.1836C13.9642 10.9977 13.9266 10.812 13.8435 10.6453L11.7259 6.41024C11.6382 6.23298 11.5025 6.08386 11.3343 5.97977C11.1661 5.87568 10.9722 5.82078 10.7744 5.82129C9.37032 5.82129 8.0238 6.37904 7.03101 7.37183C6.03821 8.36463 5.48047 9.71115 5.48047 11.1152C5.48397 14.2029 6.71214 17.1632 8.89553 19.3466C11.0789 21.53 14.0392 22.7582 17.127 22.7617C17.8222 22.7617 18.5106 22.6248 19.1529 22.3587C19.7952 22.0927 20.3788 21.7027 20.8704 21.2112C21.3619 20.7196 21.7519 20.136 22.0179 19.4937C22.284 18.8514 22.4209 18.163 22.4209 17.4678C22.421 17.2711 22.3664 17.0783 22.2631 16.9109C22.1597 16.7435 22.0118 16.6082 21.8359 16.5202V16.5202ZM17.1266 20.6439C14.6002 20.6411 12.1781 19.6363 10.3917 17.8499C8.60531 16.0635 7.60046 13.6413 7.59766 11.115C7.59745 10.3806 7.85172 9.66884 8.31718 9.10083C8.78264 8.53281 9.43055 8.14363 10.1506 7.99951L11.67 11.0435L10.3769 12.9678C10.2803 13.1128 10.2209 13.2793 10.2041 13.4527C10.1872 13.6261 10.2134 13.8009 10.2803 13.9617C11.0378 15.7622 12.4701 17.1945 14.2706 17.952C14.4319 18.0219 14.6081 18.0505 14.7832 18.0352C14.9584 18.02 15.1269 17.9614 15.2738 17.8647L17.2074 16.5756L20.2513 18.0949C20.1061 18.8159 19.7152 19.464 19.1454 19.9289C18.5755 20.3938 17.862 20.6465 17.1266 20.6439V20.6439Z" fill="#F3F3F3"/>
</svg>
