<svg width="19" height="14" viewBox="0 0 19 14" fill="none" xmlns="http://www.w3.org/2000/svg">
<path fill-rule="evenodd" clip-rule="evenodd" d="M13.4779 4.99805C13.1628 5.94604 12.4255 6.80738 11.3376 7.47149L11.1405 8.87725C11.0785 9.31715 10.754 9.68324 10.2847 9.83462C10.1501 9.87663 10.0094 9.89783 9.86687 9.89783C9.52714 9.89783 9.20708 9.77821 8.96811 9.56425L7.93252 8.64247C7.41642 8.71625 6.88736 8.75307 6.35433 8.75307C6.34534 8.75307 6.33668 8.75268 6.32804 8.7523H6.32803C6.31944 8.75191 6.31087 8.75153 6.30202 8.75153C6.30065 8.77158 6.29843 8.7914 6.29622 8.81121C6.29264 8.8432 6.28906 8.87515 6.28906 8.90796C6.28906 10.1152 7.16449 11.1952 8.54058 11.919L8.79425 13.7279C8.81084 13.8453 8.8981 13.9431 9.02096 13.9828C9.14251 14.0208 9.27903 13.9934 9.37118 13.9107L10.7558 12.6781C11.3523 12.7927 11.9877 12.8547 12.6449 12.8547C16.1545 12.8547 19.0001 11.0874 19.0001 8.90796C19.0001 6.90341 16.5933 5.25171 13.4779 4.99805ZM12.6436 9.66917C12.1797 9.66917 11.8044 9.32828 11.8044 8.90614C11.8044 8.48534 12.1797 8.14372 12.6436 8.14372C13.1069 8.14372 13.4809 8.4853 13.4809 8.90614C13.4809 9.32828 13.1069 9.66917 12.6436 9.66917ZM14.2212 8.90614C14.2212 9.32828 14.596 9.66917 15.0598 9.66917C15.5223 9.66917 15.8982 9.32828 15.8982 8.90614C15.8982 8.4853 15.5223 8.14372 15.0598 8.14372C14.596 8.14372 14.2212 8.48534 14.2212 8.90614Z" fill="#EC1E24"/>
<path fill-rule="evenodd" clip-rule="evenodd" d="M9.62879 8.95063L8.2441 7.71819C7.64768 7.83282 7.01251 7.89477 6.35519 7.89477C2.84554 7.89477 0 6.12728 0 3.948C0 1.76739 2.84554 3.6285e-05 6.35519 0C9.86526 0 12.7109 1.76735 12.7109 3.94796C12.7109 5.15527 11.8354 6.23528 10.4594 6.95909L10.2057 8.7679C10.1891 8.88531 10.102 8.98309 9.97902 9.02286C9.94275 9.03399 9.90534 9.03953 9.86772 9.03953C9.77993 9.03953 9.69329 9.00879 9.62879 8.95063ZM9.60918 3.94676C9.60918 3.52582 9.234 3.18441 8.77021 3.18441C8.30693 3.18441 7.93217 3.52582 7.93213 3.94676C7.93213 4.36876 8.30693 4.70982 8.77021 4.70982C9.23396 4.70982 9.60918 4.36876 9.60918 3.94676ZM3.9417 4.70982C3.47926 4.70982 3.10327 4.36876 3.10327 3.94676C3.10327 3.52582 3.47926 3.18441 3.9417 3.18441C4.40569 3.18441 4.78033 3.52582 4.78033 3.94676C4.78033 4.36876 4.40569 4.70982 3.9417 4.70982ZM6.35521 3.18441C5.89199 3.18441 5.5177 3.52582 5.5177 3.94676C5.5177 4.36876 5.89199 4.70982 6.35521 4.70982C6.81896 4.70982 7.19422 4.36876 7.19422 3.94676C7.19422 3.52582 6.81896 3.18441 6.35521 3.18441Z" fill="#EC1E24"/>
</svg>
