<?xml version="1.0" encoding="utf-8"?>
<svg width="8.253" height="10.182" viewBox="0 0 8.253 10.182" fill="none" xmlns="http://www.w3.org/2000/svg">
  <path d="M5.82932 5.09102C5.82932 5.09102 8.23169 0.288877 8.23169 0.288877C8.28141 0.190977 8.24236 0.0713062 8.14446 0.0215607C8.08219 -0.0100708 8.00791 -0.00671005 7.94877 0.0304089C7.94877 0.0304089 0.0941162 4.92222 0.0941162 4.92222C0.000785828 4.98005 -0.0279999 5.10261 0.0298538 5.19596C0.0460205 5.22204 0.0680313 5.24405 0.0941162 5.26022C0.0941162 5.26022 7.94877 10.1512 7.94877 10.1512C8.04177 10.2096 8.16449 10.1815 8.22284 10.0885C8.25996 10.0293 8.2633 9.95501 8.23169 9.89276C8.23169 9.89276 5.82932 5.09102 5.82932 5.09102Z" fill="#FFFFFF" fill-rule="evenodd" transform="matrix(-1 0 -0 -1 8.253 10.182)" />
</svg>