<svg width="28" height="21" viewBox="0 0 28 21" fill="none" xmlns="http://www.w3.org/2000/svg">
<path fill-rule="evenodd" clip-rule="evenodd" d="M14.0001 0C17.5129 0 20.5639 2.42673 21.3678 5.86008C25.3395 6.35741 28.2389 9.87349 27.9845 13.884C27.73 17.8944 24.4096 21.0127 20.4072 20.9999H7.59879C3.5952 21.0159 0.271804 17.8985 0.0157263 13.8869C-0.240351 9.87534 2.65948 6.35746 6.63235 5.86008C7.43625 2.42673 10.4873 0 14.0001 0ZM14.8248 19.5253L19.3543 14.9775C19.8109 14.5207 19.8122 13.7787 19.3572 13.3203C18.9022 12.8618 18.1632 12.8605 17.7067 13.3173L15.1683 15.866V5.82926C15.1683 5.18358 14.6469 4.66016 14.0039 4.66016C13.3608 4.66016 12.8395 5.18358 12.8395 5.82926V15.866L10.3011 13.3232C9.84605 12.8666 9.1086 12.8668 8.65373 13.3235C8.19887 13.7802 8.19874 14.5206 8.65345 14.9775L13.1771 19.5019C13.232 19.5585 13.2925 19.6095 13.3576 19.6539L13.4217 19.7006L13.573 19.7591L13.6778 19.7883L13.7943 19.8234C13.8659 19.8301 13.938 19.8301 14.0097 19.8234C14.0852 19.8308 14.1612 19.8308 14.2368 19.8234H14.3241L14.4522 19.7825L14.5453 19.7299L14.6501 19.6714C14.6974 19.6378 14.7422 19.6007 14.784 19.5604L14.8248 19.5253Z" fill="#EC1E24"/>
</svg>
