<svg width="16" height="16" viewBox="0 0 16 16" fill="none" xmlns="http://www.w3.org/2000/svg">
<path fill-rule="evenodd" clip-rule="evenodd" d="M9.935 12.685H2.75C1.23499 12.685 0 11.455 0 9.935V2.75C0 1.23499 1.23499 0 2.75 0H9.935C11.455 0 12.685 1.23499 12.685 2.75V9.935C12.685 11.455 11.455 12.685 9.935 12.685ZM5.59383 5.59396H4.09884C3.68383 5.59396 3.34884 5.92895 3.34884 6.34396C3.34884 6.75893 3.68383 7.09396 4.09884 7.09396H5.59383V8.58395C5.59383 8.99896 5.92882 9.33395 6.34383 9.33395C6.75884 9.33395 7.09383 8.99896 7.09383 8.58395V7.09396H8.58383C8.99884 7.09396 9.33383 6.75893 9.33383 6.34396C9.33383 5.92895 8.99884 5.59396 8.58383 5.59396H7.09383V4.09896C7.09383 3.68395 6.75884 3.34896 6.34383 3.34896C5.92882 3.34896 5.59383 3.68395 5.59383 4.09896V5.59396Z" fill="#EC1E24"/>
<path fill-rule="evenodd" clip-rule="evenodd" d="M14.7505 5.59375C14.3364 5.59375 14.0005 5.92944 14.0005 6.34375V11.7505C14.0005 12.9912 12.9912 14.0005 11.7505 14.0005H6.34375C5.92944 14.0005 5.59375 14.3362 5.59375 14.7505C5.59375 15.1648 5.92944 15.5005 6.34375 15.5005H11.7505C13.8184 15.5005 15.5005 13.8184 15.5005 11.7505V6.34375C15.5005 5.92944 15.1646 5.59375 14.7505 5.59375V5.59375Z" fill="#EC1E24"/>
</svg>