<svg width="33" height="31" viewBox="0 0 33 31" fill="none" xmlns="http://www.w3.org/2000/svg">
<path fill-rule="evenodd" clip-rule="evenodd" d="M30.8091 0H2.06545C0.929786 0 0 0.920022 0 2.05847V23.1131C0 24.2515 0.929786 25.1782 2.06545 25.1782H11.2504V27.8853H10.3937C9.55687 27.8853 8.87945 28.567 8.87945 29.3944C8.87945 30.2283 9.55687 30.9101 10.3937 30.9101H22.4809C23.3177 30.9101 23.9951 30.2284 23.9951 29.3944C23.9951 28.567 23.3177 27.8853 22.4809 27.8853H21.6308V25.1782H30.8091C31.9514 25.1782 32.8746 24.2515 32.8746 23.1131V2.05847C32.8746 0.920022 31.9514 0 30.8091 0ZM22.4816 28.8779C22.7672 28.8779 22.9996 29.1096 22.9996 29.3942C22.9996 29.6854 22.7672 29.9171 22.4816 29.9171H10.3944C10.1088 29.9171 9.87638 29.6854 9.87638 29.3942C9.87638 29.1096 10.1088 28.8779 10.3944 28.8779H22.4816ZM12.2462 25.1777V27.8849H20.6342V25.1777H12.2462ZM31.8784 23.1132C31.8784 23.7023 31.4002 24.1855 30.8091 24.1855H2.06545C1.47437 24.1855 0.996199 23.7023 0.996199 23.1132V19.903H31.8784V23.1132ZM0.996199 18.9105H31.8784V2.05884C31.8784 1.46976 31.4002 0.993205 30.8091 0.993205H2.06545C1.47437 0.993205 0.996199 1.46976 0.996199 2.05884V18.9105Z" fill="#F00C0C"/>
<path fill-rule="evenodd" clip-rule="evenodd" d="M22.9983 29.3942C22.9983 29.6854 22.7658 29.9171 22.4802 29.9171H10.393C10.1074 29.9171 9.875 29.6854 9.875 29.3942C9.875 29.1096 10.1074 28.8779 10.393 28.8779H22.4802C22.7658 28.8779 22.9983 29.1096 22.9983 29.3942V29.3942Z" fill="#F7C9C9"/>
<path fill-rule="evenodd" clip-rule="evenodd" d="M17.7972 22.0404C17.7972 22.3117 17.5714 22.5368 17.2991 22.5368H15.5723C15.3 22.5368 15.0742 22.3117 15.0742 22.0404C15.0742 21.769 15.3 21.5439 15.5723 21.5439H17.2991C17.5714 21.5439 17.7972 21.769 17.7972 22.0404V22.0404Z" fill="#F00C0C"/>
<path fill-rule="evenodd" clip-rule="evenodd" d="M26.9709 13.5382C27.1648 13.7447 27.4896 13.7506 27.6888 13.5521L29.5291 11.718C29.7237 11.524 29.7237 11.2096 29.5291 11.0157C29.3345 10.8218 29.0191 10.8218 28.8251 11.0157L27.8303 12.0072V5.96883C27.8303 5.69481 27.6071 5.47241 27.3322 5.47241C27.0572 5.47241 26.8341 5.69481 26.8341 5.96883V12.0026L25.8379 11.015C25.6433 10.8218 25.3272 10.8224 25.1332 11.017C24.9393 11.2116 24.94 11.5254 25.1352 11.7193L26.9709 13.5382Z" fill="#F00C0C"/>
<path fill-rule="evenodd" clip-rule="evenodd" d="M4.05305 8.15435L5.04792 7.16284V13.2012C5.04792 13.4753 5.27107 13.6976 5.54602 13.6976C5.82097 13.6976 6.04412 13.4753 6.04412 13.2012V7.16814L7.03965 8.15567C7.23557 8.3496 7.55104 8.34762 7.7443 8.15435C7.93823 7.95975 7.93756 7.64536 7.74297 7.45209L5.90731 5.63124C5.8575 5.57895 5.79839 5.53725 5.72998 5.51011C5.55 5.43664 5.33483 5.47371 5.18938 5.61866L3.34907 7.45275C3.15448 7.64668 3.15448 7.96042 3.34907 8.15501C3.54366 8.34828 3.85846 8.34828 4.05305 8.15435H4.05305Z" fill="#F00C0C"/>
<path fill-rule="evenodd" clip-rule="evenodd" d="M0.996094 23.1132V19.9031H31.8783V23.1132C31.8783 23.7023 31.4001 24.1855 30.809 24.1855H2.06535C1.47427 24.1855 0.996094 23.7023 0.996094 23.1132ZM15.5733 22.5376H17.3C17.5723 22.5376 17.7981 22.3126 17.7981 22.0412C17.7981 21.7698 17.5723 21.5448 17.3 21.5448H15.5733C15.301 21.5448 15.0752 21.7698 15.0752 22.0412C15.0752 22.3126 15.301 22.5376 15.5733 22.5376Z" fill="#F7C9C9"/>
<path fill-rule="evenodd" clip-rule="evenodd" d="M18.7622 8.78315C18.7622 9.33914 18.5696 9.87527 18.2043 10.2923C17.7793 10.7953 17.155 11.0865 16.4909 11.0998H16.3846C15.7271 11.0865 15.1028 10.7953 14.6712 10.2923C14.3125 9.87527 14.1133 9.33914 14.1133 8.78315C14.1133 7.50571 15.156 6.46655 16.4377 6.46655C17.7195 6.46655 18.7622 7.50571 18.7622 8.78315V8.78315Z" fill="#F7C9C9"/>
<path fill-rule="evenodd" clip-rule="evenodd" d="M20.4848 13.7607C19.4488 14.7933 18.0076 15.4419 16.4403 15.4419C14.9792 15.4419 13.4915 14.8595 12.4023 13.7607C13.445 12.7149 14.8596 12.1126 16.3606 12.0928C16.3871 12.0928 16.4137 12.0994 16.4403 12.0994C16.4668 12.0994 16.4934 12.0928 16.52 12.0928C18.0209 12.1126 19.4355 12.7149 20.4848 13.7607V13.7607Z" fill="#F7C9C9"/>
<path fill-rule="evenodd" clip-rule="evenodd" d="M9.72656 9.73659C9.72656 6.04327 12.7417 3.04492 16.4409 3.04492C20.1468 3.04492 23.1553 6.04327 23.1553 9.73659C23.1553 13.463 20.0937 16.4349 16.4409 16.4349C12.6886 16.4349 9.72656 13.3836 9.72656 9.73659ZM12.4038 13.7608C13.493 14.8595 14.9807 15.442 16.4418 15.442C18.0091 15.442 19.4503 14.7933 20.4863 13.7608C19.437 12.715 18.0224 12.1127 16.5215 12.0928C16.5082 12.0928 16.4949 12.0945 16.4816 12.0961L16.4816 12.0961C16.4683 12.0978 16.4551 12.0994 16.4418 12.0994C16.4285 12.0994 16.4152 12.0978 16.4019 12.0961L16.4019 12.0961C16.3886 12.0945 16.3754 12.0928 16.3621 12.0928C14.8611 12.1127 13.4465 12.715 12.4038 13.7608ZM14.6739 10.2923C14.3153 9.87533 14.1161 9.3392 14.1161 8.78321C14.1161 7.50577 15.1588 6.46661 16.4405 6.46661C17.7223 6.46661 18.765 7.50577 18.765 8.78321C18.765 9.3392 18.5724 9.87533 18.2071 10.2923C17.7821 10.7953 17.1578 11.0866 16.4937 11.0998H16.3874C15.7299 11.0866 15.1056 10.7953 14.6739 10.2923ZM18.4665 11.4115C19.4561 11.7292 20.3726 12.2654 21.1231 13.0067C21.7939 12.047 22.1591 10.9085 22.1591 9.73697C22.1591 6.59301 19.5956 4.03813 16.4409 4.03813C13.2863 4.03813 10.7228 6.59301 10.7228 9.73697C10.7228 10.9085 11.088 12.047 11.7588 13.0067C12.5159 12.2654 13.4258 11.7292 14.422 11.4115C14.236 11.2725 14.07 11.1137 13.9172 10.9416C13.3992 10.3393 13.1203 9.5715 13.1203 8.78385C13.1203 6.95705 14.6079 5.47442 16.4409 5.47442C18.274 5.47442 19.7616 6.95705 19.7616 8.78385C19.7616 9.5715 19.4827 10.3393 18.9646 10.9416C18.8119 11.1137 18.6459 11.2725 18.4665 11.4115Z" fill="#F00C0C"/>
</svg>
